<?xml version="1.0" encoding="UTF-8"?>
<!DOCTYPE svg PUBLIC "-//W3C//DTD SVG 1.1//EN" "http://www.w3.org/Graphics/SVG/1.1/DTD/svg11.dtd">
<svg version="1.1" xmlns="http://www.w3.org/2000/svg" xmlns:xlink="http://www.w3.org/1999/xlink" x="0" y="0" width="300" height="300" viewBox="0, 0, 300, 300">
  <defs>
    <clipPath id="Clip_1">
      <path d="M-107.759,-308.134 L75.217,-308.134 L75.217,-159.955 L-107.759,-159.955 z"/>
    </clipPath>
    <clipPath id="Clip_2">
      <path d="M-538.56,-308.134 L-355.584,-308.134 L-355.584,-159.955 L-538.56,-159.955 z"/>
    </clipPath>
  </defs>
  <g id="Layer_1">
    <path d="M25.282,1.581 L33.366,1.669 C273.027,2.036 268.268,1.923 271.176,1.906 C284.451,1.826 298.616,12.545 298.616,25.667 C298.551,33.893 294.193,41.033 288.466,46.363 L288.48,46.368 L44.863,290.172 C39.888,296.107 32.359,299.197 24.653,299.581 C11.377,299.581 0.616,288.944 0.616,275.822 C0.704,274.934 0.631,274.031 0.778,273.149 L0.999,31.576 C1.027,31.467 1.07,29.973 0.999,26.629 C0.723,13.51 12.007,1.581 25.283,1.581 L25.282,1.581 z" fill="#FFFFFF" fill-opacity="0.8"/>
    <path d="M32.899,1.845 C33.04,1.845 33.04,1.845 33.04,1.845 C33.04,1.845 32.758,1.845 32.899,1.845 z" fill="#000000"/>
    <path d="M33.04,1.845 C33.04,1.845 33.04,1.845 33.04,1.845 z" fill="#000000"/>
    <path d="M1.803,28.959 C1.803,28.959 1.803,28.959 1.803,28.959 C1.803,28.959 1.803,28.924 1.803,28.959 z" fill="#000000"/>
    <path d="M-408.344,-13.448 L-416.424,-13.36 C-655.982,-12.993 -651.225,-13.106 -654.132,-13.123 C-667.401,-13.203 -681.56,-2.484 -681.56,10.638 C-681.495,18.865 -677.139,26.004 -671.415,31.334 L-671.429,31.339 L-427.917,275.143 C-422.943,281.078 -415.418,284.168 -407.715,284.552 C-394.446,284.552 -383.688,273.915 -383.688,260.793 C-383.777,259.905 -383.704,259.002 -383.851,258.12 L-384.072,16.547 C-384.1,16.438 -384.142,14.944 -384.072,11.6 C-383.795,-1.519 -395.075,-13.447 -408.345,-13.447 L-408.344,-13.448 z" fill="#FFFFFF" fill-opacity="0.8"/>
    <path d="M-429.477,-107.135 L-423.825,-112.91 C-254.692,-282.563 -257.976,-279.119 -255.908,-281.162 C-246.469,-290.489 -244.037,-308.08 -253.316,-317.359 C-259.178,-323.13 -267.307,-325.099 -275.124,-324.819 L-275.117,-324.833 L-619.701,-325.039 C-627.415,-325.719 -634.921,-322.583 -640.639,-317.408 C-650.023,-308.025 -650.107,-292.896 -640.829,-283.618 C-640.138,-283.053 -639.551,-282.363 -638.824,-281.843 L-467.849,-111.181 C-467.753,-111.124 -466.666,-110.098 -464.352,-107.683 C-455.27,-98.211 -438.86,-97.752 -429.477,-107.135 L-429.477,-107.135 z" fill="#2E7D32" fill-opacity="0.85"/>
    <path d="M1.324,-107.135 L6.976,-112.91 C176.109,-282.563 172.825,-279.119 174.893,-281.162 C184.332,-290.489 186.764,-308.08 177.485,-317.359 C171.623,-323.13 163.494,-325.099 155.677,-324.819 L155.684,-324.833 L-188.9,-325.039 C-196.614,-325.719 -204.12,-322.583 -209.839,-317.408 C-219.222,-308.025 -219.306,-292.896 -210.028,-283.618 C-209.337,-283.053 -208.75,-282.363 -208.023,-281.843 L-37.049,-111.181 C-36.952,-111.124 -35.866,-110.098 -33.551,-107.683 C-24.469,-98.211 -8.059,-97.752 1.324,-107.135 L1.324,-107.135 z" fill="#FF1744" fill-opacity="0.85"/>
  </g>
  <g id="Layer_3">
    <path d="M75.718,34.219 L107.291,65.792 L132.95,40.134 L173.616,80.801 L214.616,39.801 L254.817,80.002 L88.002,246.817 L47.801,206.616 L117.476,136.941 L45.236,64.701 L75.718,34.219 z" fill="#000000" fill-opacity="0.25"/>
    <path d="M-433.383,19.467 L-383.896,68.954 L-383.896,210.883 L-383.75,210.737 L-383.75,264.906 L-410.835,237.822 L-410.747,237.734 L-531.199,117.283 L-510.019,96.102 L-540.046,96.102 L-540.046,70.102 L-573.379,70.102 L-573.379,20.102 L-470.713,20.102 L-470.713,31.436 L-456.046,31.436 L-456.046,42.13 L-433.383,19.467 z" fill="#000000" fill-opacity="0.25"/>
    <path d="M45.104,163.621 L47.667,166.185 L45.104,168.748 L45.104,163.621 z" fill="#000000" fill-opacity="0.25"/>
    <path d="M-5.212,-304.584 L-5.212,-304.584 L-5.212,-304.584 L-5.212,-304.584 L23.686,-275.685 C28.012,-275.978 31.287,-276.851 34.321,-280.052 L104.1,-210.795 L0.783,-106.6 L0.78,-106.602 L0.647,-106.472 C-0.974,-105.085 -2.587,-103.863 -4.512,-102.929 L-8.759,-107.175 L-8.772,-107.162 L-105.174,-203.085 C-105.047,-205.867 -104.566,-208.613 -104.074,-211.347 C-103.895,-212.305 -103.707,-213.261 -103.519,-214.218 L-17.631,-300.105 L-17.286,-300.11 C-12.966,-300.382 -8.055,-300.96 -5.212,-304.584 z" fill="#000000" fill-opacity="0.25"/>
    <path d="M-10.442,-306.583 L-11.663,-306.073 L-11.269,-306.467 L-10.442,-306.583 z" fill="#000000" fill-opacity="0.25"/>
    <path d="M-108.687,-207.05 L-108.748,-206.659 L-108.912,-206.824 L-108.687,-207.05 z" fill="#000000" fill-opacity="0.25"/>
    <path d="M-436.466,-305.798 L-406.747,-276.172 L-406.737,-276.173 L-334.057,-203.493 L-429.65,-107.088 L-429.653,-107.09 L-429.787,-106.96 C-431.408,-105.573 -433.021,-104.351 -434.946,-103.417 L-439.192,-107.663 L-439.205,-107.65 L-535.608,-203.573 C-535.48,-206.355 -535,-209.101 -534.507,-211.835 C-534.329,-212.793 -534.14,-213.749 -533.953,-214.705 L-448.065,-300.592 L-447.719,-300.598" fill="#000000" fill-opacity="0.25"/>
  </g>
  <g id="Layer_2">
    <path d="M201.196,32.53 C211.949,32.53 220.665,41.259 220.665,52.027 C220.483,57.758 218.116,64.005 213.18,67.343 L73.519,207.202 C66.099,214.633 53.92,214.484 46.317,206.87 C38.714,199.256 38.566,187.06 45.986,179.63 L153.938,71.524 L59.986,71.524 C49.233,71.524 40.516,62.795 40.516,52.027 C40.516,41.259 49.233,32.53 59.986,32.53 L201.196,32.53 z" fill="#000000"/>
    <path d="M-583.746,17.399 C-594.494,17.399 -603.207,26.128 -603.207,36.896 C-603.025,42.627 -600.658,48.874 -595.725,52.212 L-456.124,192.071 C-448.707,199.502 -436.534,199.353 -428.934,191.739 C-421.334,184.125 -421.186,171.929 -428.603,164.499 L-536.508,56.393 L-442.597,56.393 C-431.849,56.393 -423.136,47.664 -423.136,36.896 C-423.136,26.128 -431.849,17.399 -442.597,17.399 L-583.746,17.399 z" fill="#000000"/>
    <g clip-path="url(#Clip_1)" id="Isolation_Mode">
      <path d="M-5.001,-273.193 C-5.001,-263.782 -5.009,-254.371 -5,-244.96 C-4.974,-219.165 -4.937,-193.371 -4.92,-167.576 C-4.92,-166.615 -4.948,-165.62 -5.177,-164.695 C-6.129,-160.861 -9.915,-158.783 -13.367,-160.65 C-17.112,-162.674 -20.622,-165.177 -24.068,-167.698 C-38.85,-178.513 -53.551,-189.438 -68.351,-200.227 C-69.593,-201.133 -71.34,-201.735 -72.877,-201.79 C-82.35,-202.129 -91.831,-202.268 -101.309,-202.481 C-105.591,-202.577 -107.723,-204.619 -107.733,-208.882 C-107.769,-225.906 -107.766,-242.93 -107.734,-259.955 C-107.727,-264.167 -105.223,-266.599 -100.957,-266.613 C-91.615,-266.644 -82.272,-266.685 -72.93,-266.581 C-70.771,-266.556 -69.134,-267.239 -67.461,-268.511 C-52.992,-279.514 -38.509,-290.501 -23.938,-301.367 C-20.908,-303.626 -17.603,-305.582 -14.232,-307.299 C-9.552,-309.682 -4.984,-306.731 -4.932,-301.429 C-4.858,-293.955 -4.908,-286.481 -4.905,-279.007 C-4.904,-277.069 -4.905,-275.131 -4.905,-273.193 z" fill="#FFFFFF"/>
      <g>
        <path d="M51.918,-238.079 C51.213,-231.86 50.955,-225.546 49.663,-219.45 C48.676,-214.793 46.554,-210.338 44.625,-205.93 C42.059,-200.064 38.332,-194.914 34.037,-190.17 C32.164,-188.102 30.017,-186.829 27.098,-187.321 C23.813,-187.873 21.941,-191.089 23.28,-194.146 C23.766,-195.258 24.496,-196.318 25.314,-197.223 C31.094,-203.626 35.737,-210.79 37.889,-219.136 C40.311,-228.53 40.642,-238.074 38.052,-247.637 C35.711,-256.277 30.978,-263.445 25.269,-270.11 C23.248,-272.469 22.699,-275.04 23.819,-277.142 C25.582,-280.448 29.769,-281.097 32.595,-278.354 C39.028,-272.112 44.142,-264.891 47.127,-256.43 C48.909,-251.382 49.88,-246.046 51.168,-240.828 C51.38,-239.969 51.347,-239.051 51.428,-238.161 z" fill="#FFFFFF"/>
        <path d="M51.918,-238.079 C51.213,-231.86 50.955,-225.546 49.663,-219.45 C48.676,-214.793 46.554,-210.338 44.625,-205.93 C42.059,-200.064 38.332,-194.914 34.037,-190.17 C32.164,-188.102 30.017,-186.829 27.098,-187.321 C23.813,-187.873 21.941,-191.089 23.28,-194.146 C23.766,-195.258 24.496,-196.318 25.314,-197.223 C31.094,-203.626 35.737,-210.79 37.889,-219.136 C40.311,-228.53 40.642,-238.074 38.052,-247.637 C35.711,-256.277 30.978,-263.445 25.269,-270.11 C23.248,-272.469 22.699,-275.04 23.819,-277.142 C25.582,-280.448 29.769,-281.097 32.595,-278.354 C39.028,-272.112 44.142,-264.891 47.127,-256.43 C48.909,-251.382 49.88,-246.046 51.168,-240.828 C51.38,-239.969 51.347,-239.051 51.428,-238.161 z" fill-opacity="0" stroke="#FFFFFF" stroke-width="5"/>
      </g>
      <g>
        <path d="M27.251,-235.639 C26.646,-223.926 23.496,-214.862 16.568,-207.296 C15.008,-205.592 13.276,-204.116 10.759,-204.104 C8.282,-204.092 6.557,-205.289 5.469,-207.44 C4.443,-209.47 5.212,-211.128 6.565,-212.729 C10.195,-217.023 13.264,-221.688 14.72,-227.175 C17.267,-236.775 14.621,-245.17 8.398,-252.631 C7.867,-253.268 7.275,-253.853 6.733,-254.48 C4.875,-256.625 4.716,-258.806 6.255,-260.89 C7.826,-263.021 10.855,-263.95 13.071,-262.69 C14.543,-261.853 15.903,-260.704 17.068,-259.465 C21.014,-255.271 23.83,-250.394 25.218,-244.776 C26.088,-241.258 26.797,-237.7 27.251,-235.639" fill="#FFFFFF"/>
        <path d="M27.251,-235.639 C26.646,-223.926 23.496,-214.862 16.568,-207.296 C15.008,-205.592 13.276,-204.116 10.759,-204.104 C8.282,-204.092 6.557,-205.289 5.469,-207.44 C4.443,-209.47 5.212,-211.128 6.565,-212.729 C10.195,-217.023 13.264,-221.688 14.72,-227.175 C17.267,-236.775 14.621,-245.17 8.398,-252.631 C7.867,-253.268 7.275,-253.853 6.733,-254.48 C4.875,-256.625 4.716,-258.806 6.255,-260.89 C7.826,-263.021 10.855,-263.95 13.071,-262.69 C14.543,-261.853 15.903,-260.704 17.068,-259.465 C21.014,-255.271 23.83,-250.394 25.218,-244.776 C26.088,-241.258 26.797,-237.7 27.251,-235.639" fill-opacity="0" stroke="#FFFFFF" stroke-width="5"/>
      </g>
    </g>
    <g clip-path="url(#Clip_2)" id="Isolation_Mode">
      <path d="M-435.802,-273.193 C-435.802,-263.782 -435.81,-254.371 -435.801,-244.96 C-435.775,-219.165 -435.738,-193.371 -435.721,-167.576 C-435.721,-166.615 -435.749,-165.62 -435.978,-164.695 C-436.93,-160.861 -440.716,-158.783 -444.168,-160.65 C-447.913,-162.674 -451.423,-165.177 -454.869,-167.698 C-469.651,-178.513 -484.352,-189.438 -499.152,-200.227 C-500.394,-201.133 -502.141,-201.735 -503.678,-201.79 C-513.151,-202.129 -522.632,-202.268 -532.11,-202.481 C-536.392,-202.577 -538.524,-204.619 -538.534,-208.882 C-538.57,-225.906 -538.567,-242.93 -538.535,-259.955 C-538.528,-264.167 -536.024,-266.599 -531.758,-266.613 C-522.416,-266.644 -513.073,-266.685 -503.731,-266.581 C-501.572,-266.556 -499.935,-267.239 -498.262,-268.511 C-483.793,-279.514 -469.31,-290.501 -454.739,-301.367 C-451.709,-303.626 -448.404,-305.582 -445.033,-307.299 C-440.353,-309.682 -435.785,-306.731 -435.733,-301.429 C-435.659,-293.955 -435.709,-286.481 -435.706,-279.007 C-435.705,-277.069 -435.706,-275.131 -435.706,-273.193 z" fill="#FFFFFF"/>
    </g>
  </g>
</svg>
