<?xml version="1.0" encoding="UTF-8"?>
<!DOCTYPE svg PUBLIC "-//W3C//DTD SVG 1.1//EN" "http://www.w3.org/Graphics/SVG/1.1/DTD/svg11.dtd">
<svg version="1.1" xmlns="http://www.w3.org/2000/svg" xmlns:xlink="http://www.w3.org/1999/xlink" x="0" y="0" width="300"
  height="300" viewBox="0, 0, 300, 300">
  <defs>
    <clipPath id="Clip_1">
      <path d="M8.662,2.201 L287,2.201 L287,292 L8.662,292 z" />
    </clipPath>
  </defs>
  <g id="Layer_1">
    <g clip-path="url(#Clip_1)" id="Isolation_Mode">
      <path
        d="M257.951,21.993 L261.188,21.993 C265.35,22.051 269.38,25.53 269.71,29.183 C269.842,30.459 270.239,31.735 270.503,33.01 C270.833,34.17 270.899,35.272 269.974,36.315 C269.116,37.301 269.578,38.229 270.635,38.751 C272.022,39.446 273.542,39.852 274.929,40.548 C277.704,41.998 280.412,43.563 283.054,45.129 C283.385,45.361 283.781,45.651 283.979,45.94 C285.499,49.477 287.943,52.956 286.622,56.899 C285.829,59.219 283.517,60.9 280.676,61.48 C277.902,62.118 275.193,62.234 272.485,60.9 C268.984,59.219 265.482,60.146 262.113,61.944 C260.198,62.987 258.216,63.799 256.102,64.495 C252.535,65.713 252.006,68.264 252.138,70.931 C252.27,73.193 252.601,75.338 252.27,77.657 C252.006,79.455 253.063,81.31 253.195,83.166 C253.327,85.369 252.997,87.572 252.865,89.776 C252.865,89.95 252.733,90.182 252.733,90.356 C253.063,93.487 253.459,96.618 253.724,99.749 C253.856,101.314 253.922,102.88 253.591,104.445 C253.261,105.895 253.195,107.229 253.856,108.678 C254.384,109.78 254.252,111.113 254.45,112.331 C254.648,113.723 254.979,115.056 255.045,116.448 C255.111,117.782 255.177,119.173 254.715,120.391 C253.988,122.362 253.261,124.276 254.054,126.305 C254.781,128.276 253.195,129.726 252.733,131.408 C252.468,132.161 252.336,132.973 252.072,133.727 C251.676,134.771 251.213,135.756 250.883,136.8 C250.685,137.264 250.421,137.786 250.487,138.308 C250.487,139.525 250.619,140.743 250.751,141.902 C251.213,145.729 249.826,149.208 247.91,152.571 C247.316,153.673 247.118,155.065 247.316,156.282 C247.58,158.196 247.382,159.819 246.391,161.559 C245.598,162.95 245.466,164.632 245.334,166.197 C245.202,167.705 244.673,168.923 243.22,169.734 C242.758,169.966 242.361,170.372 242.097,170.778 C239.587,175.301 237.076,179.823 234.566,184.346 C234.236,184.926 233.839,185.564 233.245,185.97 C230.735,187.999 228.158,189.913 225.648,191.884 C225.384,192.116 225.053,192.406 224.723,192.464 C222.543,192.638 222.345,194.145 222.477,195.421 C222.807,198.842 222.345,202.147 221.552,205.452 C221.486,205.8 221.354,206.148 221.42,206.438 C222.081,209.337 220.892,212.062 220.429,214.845 C220.429,215.019 220.297,215.251 220.363,215.425 C221.222,219.426 219.108,223.195 219.372,227.138 C219.438,227.949 218.91,228.935 218.315,229.573 C217.522,230.501 217.192,231.37 217.39,232.53 C217.589,233.864 217.985,235.255 216.399,236.241 C216.135,236.415 216.201,236.937 216.069,237.343 C215.607,238.676 215.078,240.01 214.616,241.344 C214.55,241.517 214.418,241.749 214.484,241.865 C215.276,245.054 212.766,247.142 211.049,249.345 C209.265,251.607 209.331,253.984 209.595,256.477 C209.661,257.115 209.397,257.753 209.067,258.391 C208.736,259.086 207.944,259.724 207.878,260.478 C207.613,262.971 207.679,265.465 209.331,267.726 C209.859,268.422 210.19,269.291 210.52,270.103 C211.247,271.959 211.973,272.307 214.219,272.133 C215.541,272.017 216.928,272.075 218.315,272.075 C219.835,272.075 220.693,272.944 221.288,274.046 C221.684,274.858 222.081,275.67 222.345,276.481 C223.27,279.207 222.477,280.076 219.306,280.134 C215.144,280.192 210.982,280.192 206.821,280.192 C204.442,280.192 203.319,278.569 202.13,277.177 C201.338,276.249 200.677,275.206 200.149,274.162 C199.62,273.06 199.422,271.843 198.959,270.741 C198.563,269.929 198.035,269.117 197.44,268.422 C196.647,267.494 195.59,266.798 194.93,265.812 C194.533,265.233 194.732,264.363 194.732,263.667 C193.873,264.479 193.675,266.16 194.401,267.378 C194.732,267.958 195.26,268.422 195.392,269.001 C195.524,269.465 195.26,270.335 194.93,270.451 C191.891,271.379 192.486,273.466 192.816,275.38 C193.014,276.713 193.609,277.989 194.137,279.264 C194.269,279.612 194.732,280.018 195.128,280.134 C195.855,280.366 196.713,280.482 197.506,280.482 C202.329,280.25 204.244,281.236 206.16,285.179 C207.085,287.092 205.632,289.238 203.319,289.354 C200.677,289.527 198.035,289.412 195.458,289.701 C192.486,290.107 189.843,289.354 187.135,288.542 C184.822,287.846 183.964,286.454 183.766,284.541 C183.567,282.57 183.369,280.598 183.171,278.627 C183.105,277.757 182.775,277.293 181.652,277.061 C180.991,276.945 180.33,276.017 180.132,275.322 C179.67,273.64 179.538,271.901 179.075,270.219 C178.877,269.465 178.084,268.77 177.49,268.19 C176.036,266.856 173.923,265.986 174.121,263.725 C174.121,263.435 173.989,263.029 173.79,262.855 C171.544,261 171.082,258.333 169.893,256.013 C169.496,255.259 168.902,254.506 168.373,253.81 C166.855,251.896 165.599,249.925 166.524,247.49 C167.118,245.866 166.92,244.533 165.269,243.373 C164.74,243.025 164.278,242.271 164.278,241.633 C164.079,239.546 164.146,237.401 164.079,235.313 C164.079,234.154 163.749,233.284 162.824,232.356 C160.975,230.443 160.579,228.065 160.644,225.572 C160.71,223.485 160.579,221.455 160.644,219.368 C160.644,217.918 160.909,216.411 160.843,214.961 C160.71,211.772 160.579,208.525 160.116,205.336 C159.918,203.712 158.927,203.481 157.143,203.655 C155.558,203.828 153.973,203.712 152.453,203.886 C147.102,204.582 141.817,205.336 136.532,206.032 C136.268,206.09 135.938,206.09 135.74,206.264 C133.427,208.177 130.719,207.481 128.077,207.133 C126.888,206.96 125.698,206.902 124.509,206.612 C123.783,206.438 122.924,206.148 122.395,205.626 C121.404,204.756 120.48,204.524 119.357,205.22 C117.705,206.206 116.252,206.206 114.468,205.22 C113.609,204.756 112.288,204.698 111.165,204.814 C109.844,204.93 108.787,204.814 108.06,203.77 C107.4,202.843 106.541,202.669 105.616,203.423 C104.757,204.118 103.898,204.002 103.172,203.249 C101.586,201.567 99.737,201.741 97.689,202.495 C97.491,202.553 97.226,202.611 97.094,202.669 C95.509,203.539 94.187,203.365 93.064,201.915 C92.602,201.335 91.611,200.987 90.884,200.523 C90.488,201.219 90.092,201.973 89.761,202.669 C89.365,203.423 89.035,204.176 88.771,204.988 C88.176,206.67 87.78,208.409 87.119,210.091 C86.194,212.41 85.468,214.961 83.948,216.991 C82.297,219.194 80.645,221.223 79.918,223.833 C79.456,225.456 78.069,226.848 77.144,228.355 C76.417,229.573 75.823,230.849 75.096,232.066 C74.7,232.762 74.369,233.516 73.775,234.038 C70.274,236.937 69.547,240.822 69.018,244.707 C68.952,245.344 69.349,246.04 69.415,246.678 C69.481,247.78 69.349,248.823 69.283,249.925 C69.217,250.679 69.018,251.433 69.085,252.186 C69.151,254.042 69.415,255.839 69.349,257.695 C69.217,260.014 68.556,262.333 68.622,264.711 C68.622,268.364 67.763,272.307 70.67,275.438 C73.246,278.221 76.351,280.656 79.39,283.149 C80.051,283.671 81.504,283.845 82.429,283.613 C85.864,282.801 88.638,283.671 90.884,285.875 C91.545,286.512 92.206,287.324 92.404,288.194 C92.932,290.049 92.47,290.571 90.356,291.151 C87.978,291.788 85.666,292.195 83.089,291.905 C80.183,291.557 77.144,291.615 74.171,291.615 C71.925,291.615 70.141,290.629 68.622,289.354 C68.226,289.006 67.895,288.368 67.961,287.962 C68.094,286.512 67.169,285.643 66.112,284.773 C64.592,283.555 63.139,282.28 61.95,281.294 C62.214,284.019 62.214,284.193 58.251,284.425 C54.683,284.599 51.05,284.309 47.483,284.193 C46.954,284.193 46.36,284.019 45.831,283.961 C42.792,283.555 42.198,281.41 41.471,279.264 C40.811,277.351 39.82,275.728 37.574,274.858 C36.252,274.336 35.724,273.292 35.922,271.959 C36.318,269.523 35.922,267.145 34.997,264.826 C34.601,263.956 34.072,263.435 32.949,263.551 C32.553,263.609 31.959,263.551 31.694,263.377 C29.977,262.217 27.863,261.232 26.74,259.724 C25.551,258.158 25.088,256.071 24.824,254.158 C24.362,251.375 24.428,248.475 24.163,245.634 C24.097,245.112 23.833,244.475 23.437,244.069 C22.248,243.082 21.851,241.865 21.917,240.532 C21.983,238.676 21.125,237.111 20.596,235.371 C19.935,232.994 19.605,230.385 20.002,227.949 C20.794,223.717 22.248,219.542 23.503,215.309 C23.635,214.903 23.899,214.555 24.295,214.323 C25.881,213.396 26.674,211.946 27.599,210.555 C29.58,207.481 31.892,204.582 33.874,201.567 C34.601,200.407 34.997,198.958 35.262,197.624 C35.46,196.581 34.865,195.711 33.346,195.885 C32.355,196.001 31.892,195.537 31.694,194.667 C31.364,192.986 30.703,191.478 28.523,190.84 C27.797,190.608 27.532,189.217 27.07,188.463 C26.475,187.419 25.947,186.434 25.617,185.332 C24.758,182.723 23.172,180.171 22.644,177.504 C21.917,174.083 20.398,171.242 16.963,169.271 C15.708,168.575 14.651,167.299 13.99,166.081 C11.083,160.863 9.498,155.297 9.036,149.556 C8.771,146.657 8.507,143.7 8.771,140.743 C8.969,138.655 10.026,136.568 10.687,134.481 C11.017,133.321 11.282,132.161 11.48,130.944 C12.008,127.117 13.66,123.928 17.029,121.261 C23.04,116.506 28.589,111.171 35.328,107.113 C38.565,105.199 41.934,103.46 45.237,101.662 C45.699,101.43 46.095,101.082 46.294,100.561 L46.294,100.503 L46.294,100.619 C46.756,100.619 47.218,100.677 47.615,100.503 C53.098,97.893 58.779,95.69 64.857,94.414 C68.16,93.719 71.529,93.371 74.964,93.081 C80.579,92.675 86.26,92.385 91.875,92.211 C94.055,92.153 96.301,92.327 98.415,92.791 C102.247,93.545 106.144,94.066 109.844,95.516 C111.627,96.212 113.807,96.154 115.789,96.386 C118.828,96.734 121.867,97.082 124.972,97.313 C127.02,97.429 129.133,97.256 131.247,97.429 C135.211,97.661 139.241,98.183 143.204,98.299 C148.225,98.415 153.312,98.125 158.332,98.067 C160.843,98.009 163.419,97.893 165.863,98.067 C168.638,98.299 171.412,98.763 174.121,99.169 C177.292,99.633 180.529,100.097 183.699,100.619 C184.955,100.792 186.144,101.256 187.399,101.256 C188.324,101.256 189.579,101.024 190.173,100.503 C191.891,98.879 193.014,96.908 193.609,94.646 C194.533,90.993 195.656,87.34 196.779,83.745 C197.572,81.078 198.497,78.353 199.356,75.686 C199.62,74.874 199.884,74.004 200.347,73.25 C201.338,71.685 201.602,70.003 201.734,68.264 C201.8,66.93 202.395,65.539 203.187,64.379 C204.112,62.872 204.509,61.422 204.773,59.74 C205.169,57.421 205.83,55.102 207.019,53.014 C209.463,48.666 212.105,44.433 215.012,40.316 C216.598,38.113 218.844,36.257 220.693,34.17 C221.816,32.894 222.939,31.619 223.6,30.111 C224.525,28.024 226.375,26.4 228.621,25.356 C230.801,24.313 232.915,23.211 234.962,22.051 C235.755,21.588 236.68,20.776 236.878,20.022 C237.671,16.543 240.247,13.876 241.965,10.861 C243.418,8.367 245.004,5.874 247.844,4.367 C249.364,3.555 250.883,2.859 252.535,2.279 C253.195,2.047 254.054,2.395 254.847,2.511 C254.715,3.149 254.781,3.961 254.384,4.483 C252.865,6.57 251.213,8.657 249.562,10.687 C247.316,13.528 246.787,16.833 245.862,20.022 C245.797,20.312 245.928,20.718 246.127,20.95 C247.118,21.761 250.421,20.834 251.015,19.732 C253.46,15.093 255.904,10.455 260.396,6.976 C262.973,4.946 266.143,4.541 269.248,3.729 C269.579,3.671 270.173,3.845 270.239,4.019 C270.371,4.309 270.305,4.83 270.041,5.062 C269.05,6.106 268.059,7.15 267.002,8.077 C263.104,11.383 260.991,15.615 258.81,19.848 C258.018,20.66 258.084,21.24 257.951,21.993"
        fill="#000000" />
    </g>
  </g>
</svg>