<?xml version="1.0" encoding="UTF-8"?>
<!DOCTYPE svg PUBLIC "-//W3C//DTD SVG 1.1//EN" "http://www.w3.org/Graphics/SVG/1.1/DTD/svg11.dtd">
<svg version="1.1" xmlns="http://www.w3.org/2000/svg" xmlns:xlink="http://www.w3.org/1999/xlink" x="0" y="0" width="300"
  height="300" viewBox="0, 0, 300, 300">
  <g id="Layer_1">
    <path
      d="M2.062,105.08 L2.062,95.794 C6.455,93.233 10.796,90.576 15.255,88.136 C21.825,84.54 27.215,79.742 31.784,73.773 C36.519,67.585 41.289,61.195 48.862,58.115 C51.309,57.12 52.482,55.905 53.115,53.224 C54.966,45.383 59.244,43.281 64.743,47.942 C68.91,51.475 72.925,54.243 78.488,54.221 C78.573,54.221 78.657,54.284 78.743,54.31 C82.825,55.553 86.874,56.917 90.993,58.009 C98.357,59.964 105.652,60.173 112.849,57.019 C117.617,54.931 122.675,53.487 127.898,53.914 C132.475,54.289 136.976,55.514 141.536,56.191 C145.603,56.794 149.013,58.63 152.415,60.853 C161.055,66.501 170.169,68.496 180.634,65.85 C189.271,63.666 198.29,61.882 207.342,63.514 C214.814,64.861 222.3,66.343 229.589,68.433 C240.454,71.548 249.931,77.352 257.553,85.722 C266.448,95.493 273.394,106.641 277.576,119.181 C282.562,134.134 287.103,149.249 291.374,164.423 C294.072,174.004 295.815,183.837 296.218,193.848 C296.354,197.207 296.651,200.561 296.862,203.917 C297.302,210.884 298.211,217.864 298.041,224.817 C297.851,232.598 296.803,240.369 295.891,248.117 C295.293,253.195 293.197,254.553 287.968,254.564 C282.71,254.574 277.453,254.951 272.193,255.127 C266.583,255.313 260.962,256.149 255.419,254.331 C252.289,253.304 251.5,250.798 253.626,248.415 C255.426,246.401 257.455,245.409 260.211,245.165 C265.64,244.68 267.641,241.65 266.367,236.288 C265.695,233.461 265.01,230.604 263.946,227.914 C261.373,221.393 258.639,214.848 253.323,210.027 C248.227,205.406 243.623,200.476 240.162,194.492 C239.348,193.084 237.965,192.003 236.644,190.55 C235.968,191.608 235.527,192.168 235.222,192.793 C230.658,202.193 226.477,211.698 224.828,222.167 C223.517,230.495 221.719,238.748 220.176,247.04 C219.084,252.911 216.476,255.709 208.908,254.755 C205.492,254.324 202.043,254.101 198.602,253.911 C193.384,253.623 188.148,253.564 182.939,253.152 C181.25,253.019 180.074,251.844 180.183,249.75 C180.322,247.037 182.05,245.006 185.329,244.306 C187.755,243.788 190.271,243.001 190.724,240.381 C191.506,235.865 192.258,231.225 192.052,226.682 C191.71,219.183 190.68,211.711 189.771,204.248 C189.294,200.337 188.019,196.645 185.714,193.069 C185.384,193.669 185.191,193.884 185.143,194.129 C182.927,205.436 180.653,216.734 178.55,228.063 C177.392,234.304 176.795,240.661 175.4,246.842 C174.798,249.509 173.348,252.543 171.298,254.154 C169.526,255.547 166.358,255.469 163.804,255.491 C160.197,255.521 156.523,254.503 152.987,254.903 C146.579,255.63 140.292,256.005 134.028,254.139 C131.728,253.455 131.008,251.74 132.82,250.195 C135.056,248.285 137.58,246.523 140.27,245.375 C144.893,243.4 145.925,242.874 144.998,237.885 C143.847,231.684 141.818,225.639 140.018,219.571 C139.474,217.738 138.433,216.052 137.358,213.735 C136.617,215.102 136.084,215.757 135.888,216.501 C134.542,221.58 133.397,226.714 131.934,231.756 C130.271,237.485 128.465,243.179 126.481,248.804 C125.507,251.566 123.463,253.704 120.446,254.232 C109.057,256.227 97.604,255.316 86.171,254.674 C85.385,254.631 84.025,253.7 84,253.137 C83.901,250.83 83.464,248.002 85.901,246.725 C88.211,245.515 90.896,244.633 93.483,244.417 C98.437,244.004 100.884,242.729 101.806,237.849 C103.701,227.828 102.662,217.917 99.277,208.322 C94.76,195.52 91.764,182.422 90.568,168.88 C89.915,161.492 89.171,154.071 87.773,146.799 C86.743,141.441 84.587,136.28 79.417,133.27 C70.165,127.884 60.248,124.708 49.507,124.052 C44.442,123.741 39.355,123.268 34.366,122.377 C27.764,121.197 21.223,119.636 14.714,118.007 C13.164,117.618 10.694,116.378 10.634,115.407 C10.449,112.455 8.386,111.918 6.544,110.752 C5.61,110.16 5.012,109.022 4.297,108.103 C3.53,107.113 2.806,106.089 2.062,105.08"
      fill="#000000" />
  </g>
</svg>