<?xml version="1.0" encoding="UTF-8"?>
<!DOCTYPE svg PUBLIC "-//W3C//DTD SVG 1.1//EN" "http://www.w3.org/Graphics/SVG/1.1/DTD/svg11.dtd">
<svg version="1.1" xmlns="http://www.w3.org/2000/svg" xmlns:xlink="http://www.w3.org/1999/xlink" x="0" y="0" width="300" height="300" viewBox="0, 0, 300, 300">
  <g id="Layer_1">
    <path d="M63.398,171.304 C70.707,173.302 76.789,177.431 82.232,182.563 C86.88,187.27 90.229,195.714 84.864,201.824 C83.033,203.98 81.374,204.798 78.627,203.942 C72.52,202.019 68.341,197.374 63.439,193.676 C56.595,188.504 49.406,187.998 43.731,193.303 C35.608,200.848 32.88,210.668 34.307,221.533 C35.579,231.148 41.753,237.683 49.395,242.534 C55.528,246.362 62.382,249.243 69.495,250.82 C74.324,251.901 79.158,252.684 84.023,253.38 C88.945,254.193 93.811,254.888 98.711,255.197 C104.376,255.571 110.226,255.412 115.983,255.52 C116.993,255.53 116.579,255.534 117.223,255.523 C118.795,259.62 121.118,263.38 123.366,267.131 C123.621,267.552 124.647,269.233 124.902,269.653 C129.443,277.124 131.62,281.489 132.975,286.723 C133.56,289.301 133.337,288.024 133.657,290.553 C127.14,287.254 130.258,288.656 124.349,286.247 C119.505,284.363 114.387,282.982 109.295,281.81 C104.729,280.82 99.889,280.333 95.199,279.7 C89.134,278.787 83.093,278.082 77.146,277.111 C72.487,276.388 67.797,275.754 63.324,274.497 C57.154,272.751 51.197,270.679 45.553,267.42 C38.688,263.438 31.762,259.633 25.687,254.23 C17.353,246.846 11.009,238.259 8.088,227.172 C6.574,221.362 6.765,215.445 8.039,209.807 C8.992,205.651 11.147,201.715 13.184,197.836 C17.312,190.199 23.58,184.601 30.482,179.722 C36.579,175.461 43.337,172.128 50.763,170.823 C53.886,170.313 57.272,169.895 60.288,170.545 L63.398,171.304 z" fill="#000000"/>
    <path d="M191.173,3.296 L191.382,3.308 C193.608,3.967 195.927,4.627 197.782,5.945 C204.647,10.654 210.862,16.116 214.757,23.838 C215.314,24.968 215.871,25.251 217.076,24.497 C222.178,21.107 227.837,20.165 233.68,20.825 C238.133,21.296 242.585,22.426 247.038,23.179 C247.78,23.273 248.707,23.085 249.264,22.614 C254.088,18.753 258.726,14.609 263.735,10.936 C267.167,8.394 270.97,6.322 274.773,4.25 C276.814,3.214 278.298,3.967 278.576,6.039 C279.133,11.219 279.689,16.493 280.06,21.672 C280.71,30.713 277.463,38.529 271.99,45.498 C270.228,47.758 268.651,49.83 270.042,52.844 C270.228,53.315 270.135,53.88 270.135,54.445 C270.413,61.885 269.857,69.136 267.723,76.293 C267.259,77.894 267.538,79.024 269.578,79.024 C270.32,79.024 270.97,79.401 271.619,79.589 L271.99,80.437 C267.538,79.589 266.239,81.661 265.219,85.522 C264.198,89.478 261.23,92.962 258.911,96.541 C257.798,98.236 257.52,99.554 258.726,101.249 C262.9,107.088 265.033,113.869 265.961,120.932 C267.074,129.407 265.219,137.601 261.694,145.323 C260.952,147.018 259.56,148.431 258.262,149.843 C257.334,150.785 255.943,151.162 255.108,152.198 C252.325,155.682 249.913,159.355 247.038,162.745 C242.864,167.642 239.06,172.728 237.484,179.131 C236.834,181.768 235.907,184.217 235.072,186.76 C233.495,191.468 232.753,196.271 234.886,201.074 C235.257,201.827 235.257,202.769 235.165,203.523 C234.886,205.218 234.051,207.007 234.144,208.702 C234.608,222.828 233.217,237.049 235.257,251.175 C236.092,256.825 237.02,262.287 238.689,267.655 C239.246,269.444 239.431,271.799 242.029,272.27 C247.409,273.306 251.583,276.602 254.551,280.934 C258.54,286.678 255.943,290.822 249.821,292.329 C247.316,292.894 244.812,293.176 242.307,293.647 C241.936,293.741 241.565,293.741 241.194,293.647 C238.226,292.423 235.257,291.104 232.196,290.069 C231.269,289.786 230.063,289.88 229.042,290.163 C227.094,290.728 225.425,291.952 223.477,292.235 C217.169,293.176 210.862,294.401 204.368,293.741 C201.586,293.459 198.896,293.082 196.113,292.988 C190.176,292.705 184.239,292.423 178.303,292.329 C174.129,292.235 169.862,292.14 165.688,292.423 C161.699,292.705 157.803,293.553 153.814,294.118 C151.495,294.495 148.991,295.248 146.765,294.871 C143.518,294.306 140.364,293.176 137.303,291.952 C134.333,290.878 135.903,291.372 132.581,290.504 C130.643,286.616 131.602,288.279 129.832,285.445 C126.694,280.738 123.094,277.223 116.209,271.541 C115.828,271.227 114.307,269.976 113.929,269.664 C110.882,266.993 107.532,264.546 104.932,261.405 C106.284,260.783 106.024,259.443 105.665,258.276 C105.468,257.634 105.093,256.658 104.837,255.978 C103.539,252.776 102.611,249.48 101.591,246.183 C100.292,242.04 99.179,237.896 97.973,233.847 C96.953,230.362 95.561,226.878 94.634,223.393 C93.428,218.967 92.407,214.353 91.387,209.832 C90.181,203.993 88.512,198.249 87.955,192.41 C87.306,184.876 87.398,177.248 87.491,169.62 C87.491,166.041 88.233,162.368 88.883,158.79 C89.625,154.834 90.459,150.973 91.573,147.206 C94.912,136.376 100.385,126.771 107.713,118.201 C108.269,117.542 108.826,116.506 108.733,115.752 C108.362,113.492 109.661,112.362 111.052,111.232 C116.803,106.523 123.018,102.474 129.975,99.743 C137.21,96.823 144.631,94.186 152.33,92.774 C154.649,92.397 156.875,91.832 159.102,91.267 C162.441,90.419 165.595,89.289 168.934,88.818 C175.242,87.877 180.715,85.24 185.167,80.719 C187.764,78.083 190.176,75.163 192.588,72.432 C192.681,72.62 192.773,72.903 192.866,73.185 C194.072,73.751 195.371,74.221 196.577,74.786 L197.04,73.939 C194.721,72.15 193.515,69.042 189.898,68.665 C190.454,68.1 190.547,67.912 190.64,67.912 C191.382,67.818 192.124,67.723 193.052,67.629 C192.959,67.064 193.052,66.782 192.959,66.593 C191.568,62.638 190.547,58.588 190.362,54.351 C190.269,52.373 189.991,49.924 188.877,48.323 C186.095,44.086 185.074,39.565 184.889,34.574 C184.518,24.403 185.445,14.515 189.341,5.098 C189.687,4.242 190.365,3.684 191.173,3.296 z" fill="#000000"/>
  </g>
</svg>
