<?xml version="1.0" encoding="UTF-8"?>
<!DOCTYPE svg PUBLIC "-//W3C//DTD SVG 1.1//EN" "http://www.w3.org/Graphics/SVG/1.1/DTD/svg11.dtd">
<svg version="1.1" xmlns="http://www.w3.org/2000/svg" xmlns:xlink="http://www.w3.org/1999/xlink" x="0" y="0" width="300"
  height="300" viewBox="0, 0, 300, 300">
  <g id="Layer_1">
    <path
      d="M211.052,67.629 C210.124,67.723 209.382,67.818 208.64,67.912 C208.547,67.912 208.454,68.1 207.898,68.665 C211.515,69.042 212.721,72.15 215.04,73.939 C214.855,74.221 214.762,74.504 214.577,74.786 C213.371,74.221 212.072,73.751 210.866,73.185 C210.773,72.903 210.681,72.62 210.588,72.432 C208.176,75.163 205.764,78.083 203.167,80.719 C198.715,85.24 193.242,87.877 186.934,88.818 C183.595,89.289 180.441,90.419 177.102,91.267 C174.875,91.832 172.649,92.397 170.33,92.774 C162.631,94.186 155.21,96.823 147.975,99.743 C141.018,102.474 134.803,106.523 129.052,111.232 C127.661,112.362 126.362,113.492 126.733,115.752 C126.826,116.506 126.269,117.542 125.713,118.201 C118.385,126.771 112.912,136.376 109.573,147.206 C108.459,150.973 107.625,154.834 106.883,158.79 C106.233,162.368 105.491,166.041 105.491,169.62 C105.398,177.248 105.306,184.876 105.955,192.41 C106.512,198.249 108.181,203.993 109.387,209.832 C110.407,214.353 111.428,218.967 112.634,223.393 C113.561,226.878 114.953,230.362 115.973,233.847 C117.179,237.896 118.292,242.04 119.591,246.183 C120.611,249.48 121.539,252.776 122.837,255.978 C124.692,260.875 124.692,261.063 119.869,262.664 C114.396,264.453 108.923,266.525 103.45,268.032 C98.72,269.35 93.896,270.292 88.98,271.14 C84.156,272.081 79.333,272.929 74.417,273.494 C67.181,274.341 59.761,273.871 52.711,272.27 C43.899,270.198 35.921,266.054 31.562,257.39 C26.645,247.596 25.996,237.425 31.191,227.631 C34.808,220.756 41.765,218.873 49.928,221.51 C55.772,223.393 61.245,226.407 67.645,226.218 C70.521,226.124 71.819,224.806 72.84,222.169 C75.901,214.635 69.964,207.76 64.028,204.841 C56.143,200.98 47.887,199.567 39.354,200.697 C36.292,201.074 33.231,202.581 30.449,204.088 C23.863,207.76 18.575,213.128 14.216,219.155 C9.299,226.03 5.218,233.376 3.827,241.946 C3.177,246.278 2.435,250.704 2.899,254.942 C3.548,260.686 5.311,266.337 8.65,271.328 C15.05,280.84 23.863,286.867 34.159,291.104 C41.672,294.212 49.464,295.531 57.256,297.037 C63.657,298.262 69.964,298.262 76.365,297.885 C81.003,297.603 85.641,296.661 90.279,295.813 C96.215,294.777 102.152,293.459 108.181,292.329 C112.819,291.387 117.55,290.257 122.188,289.692 C127.382,289.127 132.67,288.75 137.864,288.938 C143.801,289.127 149.645,289.692 155.303,291.952 C158.364,293.176 161.518,294.306 164.765,294.871 C166.991,295.248 169.495,294.495 171.814,294.118 C175.803,293.553 179.699,292.705 183.688,292.423 C187.862,292.14 192.129,292.235 196.303,292.329 C202.239,292.423 208.176,292.705 214.113,292.988 C216.896,293.082 219.586,293.459 222.368,293.741 C228.862,294.401 235.169,293.176 241.477,292.235 C243.425,291.952 245.094,290.728 247.042,290.163 C248.063,289.88 249.269,289.786 250.196,290.069 C253.257,291.104 256.226,292.423 259.194,293.647 C259.565,293.741 259.936,293.741 260.307,293.647 C262.812,293.176 265.316,292.894 267.821,292.329 C273.943,290.822 276.54,286.678 272.551,280.934 C269.583,276.602 265.409,273.306 260.029,272.27 C257.431,271.799 257.246,269.444 256.689,267.655 C255.02,262.287 254.092,256.825 253.257,251.175 C251.217,237.049 252.608,222.828 252.144,208.702 C252.051,207.007 252.886,205.218 253.165,203.523 C253.257,202.769 253.257,201.827 252.886,201.074 C250.753,196.271 251.495,191.468 253.072,186.76 C253.907,184.217 254.834,181.768 255.484,179.131 C257.06,172.728 260.864,167.642 265.038,162.745 C267.913,159.355 270.325,155.682 273.108,152.198 C273.943,151.162 275.334,150.785 276.262,149.843 C277.56,148.431 278.952,147.018 279.694,145.323 C283.219,137.601 285.074,129.407 283.961,120.932 C283.033,113.869 280.9,107.088 276.726,101.249 C275.52,99.554 275.798,98.236 276.911,96.541 C279.23,92.962 282.198,89.478 283.219,85.522 C284.239,81.661 285.538,79.589 289.99,80.437 C289.897,80.154 289.712,79.872 289.619,79.589 C288.97,79.401 288.32,79.024 287.578,79.024 C285.538,79.024 285.259,77.894 285.723,76.293 C287.857,69.136 288.413,61.885 288.135,54.445 C288.135,53.88 288.228,53.315 288.042,52.844 C286.651,49.83 288.228,47.758 289.99,45.498 C295.463,38.529 298.71,30.713 298.06,21.672 C297.689,16.493 297.133,11.219 296.576,6.039 C296.298,3.967 294.814,3.214 292.773,4.25 C288.97,6.322 285.167,8.394 281.735,10.936 C276.726,14.609 272.088,18.753 267.264,22.614 C266.707,23.085 265.78,23.273 265.038,23.179 C260.585,22.426 256.133,21.296 251.68,20.825 C245.837,20.165 240.178,21.107 235.076,24.497 C233.871,25.251 233.314,24.968 232.757,23.838 C228.862,16.116 222.647,10.654 215.782,5.945 C213.927,4.627 211.608,3.967 209.382,3.308 C208.918,3.12 207.62,4.25 207.341,5.098 C203.445,14.515 202.518,24.403 202.889,34.574 C203.074,39.565 204.095,44.086 206.877,48.323 C207.991,49.924 208.269,52.373 208.362,54.351 C208.547,58.588 209.568,62.638 210.959,66.593 C211.052,66.782 210.959,67.064 211.052,67.629 z"
      fill="#000000" />
  </g>
</svg>