<?xml version="1.0" encoding="UTF-8"?>
<!DOCTYPE svg PUBLIC "-//W3C//DTD SVG 1.1//EN" "http://www.w3.org/Graphics/SVG/1.1/DTD/svg11.dtd">
<svg version="1.1" xmlns="http://www.w3.org/2000/svg" xmlns:xlink="http://www.w3.org/1999/xlink" x="0" y="0" width="300"
  height="300" viewBox="0, 0, 300, 300">
  <g id="Layer_1">
    <path
      d="M51.22,26.101 C53.436,26.509 52.504,26.128 54.088,27.027 C56.864,28.983 58.462,31.829 58.547,35.385 C57.874,38.676 57.789,42.499 57.789,46.234 C59.388,45.878 61.155,45.434 63.174,44.989 C63.09,45.701 62.922,46.234 62.837,46.945 C63.258,47.034 63.763,47.034 64.268,47.123 C63.931,48.19 63.679,48.991 63.51,49.88 C63.679,49.969 63.763,50.058 63.931,50.147 C65.109,48.991 66.287,47.835 67.885,46.145 C67.633,47.835 67.465,48.724 67.212,50.058 C67.801,49.88 68.222,49.791 68.558,49.613 C70.83,48.546 73.017,49.08 75.121,50.236 C77.056,51.303 78.991,51.747 81.094,49.791 C81.262,50.769 81.347,51.481 81.431,51.925 C83.113,52.459 84.628,52.992 86.394,53.615 C86.058,54.504 85.721,55.571 85.301,56.727 C87.656,55.838 89.76,55.126 92.2,54.148 C91.779,55.304 91.527,56.282 91.022,57.883 C92.368,56.638 93.209,55.749 94.135,54.949 C94.303,55.038 94.387,55.126 94.555,55.215 C94.219,56.46 93.882,57.705 93.462,59.573 C94.639,58.772 95.228,58.328 95.733,57.972 C96.49,59.484 97.248,60.906 98.005,62.24 C101.202,62.418 104.062,62.596 107.259,62.774 C106.839,63.574 106.502,64.463 106.081,65.264 C106.166,65.442 106.334,65.53 106.418,65.708 C107.428,64.908 108.521,64.197 110.036,63.041 C109.363,64.997 108.858,66.331 108.437,67.754 C108.605,67.931 108.774,68.02 108.942,68.198 C109.699,67.398 110.456,66.686 111.214,65.886 C111.382,65.975 111.466,66.064 111.634,66.064 C111.382,66.864 111.214,67.754 110.793,69.265 C112.139,69.176 113.317,68.91 114.326,69.087 C115.841,69.354 117.355,69.888 118.701,70.599 C118.954,70.688 118.449,72.378 118.197,73.356 C117.944,74.156 117.608,74.867 117.271,75.668 C117.439,75.757 117.524,75.934 117.692,76.023 C118.954,74.69 120.216,73.267 121.478,71.933 C121.646,72.111 121.814,72.2 121.983,72.378 C121.394,73.356 120.889,74.334 119.963,75.934 C121.309,75.757 122.235,75.668 123.16,75.49 C128.966,74.067 134.771,73.267 140.66,74.156 C142.006,74.334 143.268,74.778 144.53,75.045 C151.597,76.557 158.58,74.956 165.479,74.156 C172.294,73.356 179.024,72.111 185.755,70.955 C190.551,70.154 195.262,69.176 199.973,68.287 C204.348,67.487 208.807,66.686 213.182,65.975 C219.24,64.997 225.297,63.752 231.439,63.396 C237.917,62.952 243.891,60.729 250.116,59.306 C253.313,58.594 256.426,59.484 259.371,60.64 C266.186,63.396 272.496,67.22 277.964,72.466 C283.601,77.891 287.555,84.56 290.332,92.03 C293.36,100.388 292.435,109.014 291.678,117.639 C291.005,125.287 288.986,132.756 289.406,140.493 C289.574,143.783 290.584,146.717 292.856,149.029 C294.033,150.274 295.295,151.43 294.37,153.564 C294.118,154.098 294.454,154.898 294.707,155.521 C295.211,156.855 296.389,158.011 295.295,159.789 C295.043,160.145 295.969,161.301 296.305,162.101 C297.399,164.324 298.913,166.369 298.072,169.126 C297.988,169.482 298.156,170.015 298.24,170.46 C299.418,174.017 299.166,177.485 297.904,180.953 C297.483,182.109 297.146,183.354 296.894,184.599 C296.642,185.666 296.557,186.466 295.127,186.466 C294.622,186.466 293.865,187.978 293.613,188.956 C293.024,191.09 292.351,191.357 290.5,189.845 C289.635,192.437 289.987,191.379 289.442,193.02 C287.961,191.246 287.202,188.944 286.414,186.773 C285.045,182.491 284.634,178.749 284.232,170.092 C284.147,168.249 284.109,167.477 284.053,166.474 C283.656,159.401 282.917,154.654 281.186,150.082 C281.069,149.782 280.836,149.693 280.572,149.585 L280.572,149.563 L280.572,149.563 L280.566,149.582 L280.421,149.523 L280.092,149.586 C279.661,149.769 279.451,150.286 279.624,150.742 C280.314,152.718 280.05,151.827 280.467,153.4 C280.479,154.339 280.472,153.781 280.488,155.076 C280.572,156.855 280.909,158.633 281.077,160.5 C281.161,161.123 280.741,161.745 280.656,162.368 C280.553,163.221 280.574,164.086 280.572,164.945 C280.627,164.255 280.607,163.561 280.655,162.871 C280.669,162.672 280.712,162.476 280.74,162.279 C280.825,161.656 281.161,161.034 281.161,160.411 C281.077,158.633 280.656,156.855 280.572,154.987 L280.558,153.742 C281.61,157.067 281.858,160.58 282.206,164.04 C281.358,164.496 281.699,164.305 281.177,164.602 C281.967,164.184 281.62,164.353 282.21,164.078 C282.217,164.147 282.211,164.091 282.221,164.248 C282.116,164.837 282.058,165.431 281.918,166.014 C281.245,167.703 281.329,169.304 281.918,171.171 C282.699,173.768 282.467,172.783 282.758,174.083 C282.955,178.388 283.44,182.681 284.661,186.804 L284.611,186.822 C285.115,188.778 285.368,190.912 286.125,192.779 C287.976,197.048 287.808,200.96 285.957,205.318 C284.106,209.675 283.265,214.477 282.087,219.012 C280.909,223.369 279.815,227.815 278.89,232.261 C278.301,234.84 277.964,237.508 277.544,240.087 C276.955,243.377 276.282,246.578 275.693,249.868 C275.608,250.224 275.608,250.58 275.524,250.935 C275.356,252.358 276.786,254.048 274.935,255.115 C273.758,255.826 272.496,256.448 271.402,257.16 C270.981,257.427 270.645,258.138 270.645,258.672 C270.645,260.272 270.897,261.873 270.981,263.562 C271.065,265.696 270.308,266.675 268.289,266.852 C267.279,266.941 266.186,266.941 265.176,266.852 C262.316,266.586 259.455,266.141 256.679,265.874 C254.912,265.696 253.986,264.54 254.491,262.673 C255.501,259.116 256.931,255.737 260.212,253.692 C262.736,252.091 263.914,249.512 264.671,246.667 C266.186,241.332 267.7,236.085 269.13,230.75 C269.551,229.327 269.803,227.904 270.056,226.481 C270.561,222.569 271.234,218.567 271.402,214.655 C271.486,212.965 270.645,211.275 270.14,209.586 C269.383,207.185 268.625,205.051 269.214,202.294 C270.224,197.937 270.056,193.58 268.037,189.311 C266.017,184.954 264.755,180.241 262.989,175.706 C262.231,173.75 261.138,171.971 260.212,170.193 C259.96,170.282 259.707,170.371 259.455,170.371 C259.539,171.438 259.539,172.594 259.707,173.661 C261.222,181.753 263.578,189.489 266.943,196.959 C268.373,199.982 267.7,203.095 266.101,205.407 C263.578,208.875 262.4,212.876 260.885,216.7 C258.95,221.413 257.099,226.037 255.501,230.928 C253.566,236.885 251.883,243.021 250.116,249.157 C249.359,251.913 249.023,254.937 247.845,257.427 C247.088,259.027 245.068,260.361 243.386,261.072 C239.768,262.584 239.431,262.851 239.684,266.764 C239.768,267.564 239.768,268.364 239.768,269.164 C239.684,272.01 238.254,273.077 235.646,272.721 C233.542,272.544 231.439,272.721 229.251,272.81 C229.167,272.81 229.083,272.81 229.083,272.81 C226.559,272.899 223.446,273.788 222.1,270.765 C221.091,268.453 223.446,266.675 224.54,264.896 C225.213,263.829 226.054,262.762 226.896,261.784 C227.401,261.072 227.905,260.183 228.578,259.828 C234.215,257.249 236.571,252.269 238.254,246.311 C239.852,240.442 242.544,234.929 244.479,229.149 C246.414,223.547 248.434,217.767 247.845,211.72 C247.003,202.917 246.499,194.024 242.881,185.666 C240.189,179.441 238.169,172.95 237.328,166.014 C237.16,164.591 236.234,163.346 235.561,162.012 C234.299,159.433 233.122,156.855 231.691,154.454 C230.345,152.142 228.578,152.231 227.821,154.809 C226.98,157.388 225.297,158.722 223.194,159.522 C220.081,160.767 216.8,161.567 213.687,162.812 C211.079,163.791 208.555,165.213 205.947,166.014 C201.824,167.17 197.534,168.148 193.327,168.859 C190.382,169.393 187.353,169.571 184.409,169.659 C178.099,169.748 172.21,167.881 166.236,165.747 C161.02,163.879 155.467,162.812 149.83,164.591 C148.316,165.035 146.633,165.302 144.446,165.747 C142.847,167.881 143.016,170.904 143.436,174.106 C144.193,179.619 144.951,185.043 145.708,190.556 C146.129,193.491 146.465,196.425 147.054,199.271 C147.979,204.162 147.727,209.052 147.222,214.032 C146.717,218.567 147.306,223.191 147.559,227.726 C147.727,230.572 148.064,233.417 148.316,236.352 C148.821,241.065 149.494,245.867 149.746,250.58 C149.999,254.581 149.746,254.581 146.044,255.648 C143.352,256.36 142.09,260.984 143.857,263.651 C145.54,266.141 145.371,267.564 142.763,268.631 C139.566,269.965 136.285,271.743 132.667,271.21 C130.985,270.943 129.218,270.498 127.704,269.787 C125.853,268.898 125.432,267.564 126.442,265.608 C128.208,261.962 130.732,259.027 134.182,257.16 C135.528,256.448 136.79,255.826 135.528,253.87 C135.36,253.603 135.528,252.892 135.78,252.447 C139.314,244.977 138.809,237.152 137.463,229.238 C136.958,226.304 136.706,223.28 136.285,220.257 C136.201,219.812 136.201,219.368 135.949,219.012 C132.078,212.432 132.078,204.784 130.48,197.581 L130.125,195.956 C129.956,198.478 130.104,196.814 129.476,200.923 C128.67,205.409 128.949,210.065 128.899,214.608 C128.877,217.459 129.023,220.322 129.079,223.268 C129.268,228.007 129.62,232.847 129.557,237.567 C129.543,241.578 129.291,241.559 125.527,242.348 C122.794,242.857 121.227,247.375 122.812,250.168 C124.324,252.777 124.061,254.184 121.389,255.054 C118.111,256.146 114.719,257.676 111.146,256.874 C109.485,256.483 107.753,255.908 106.289,255.086 C104.502,254.061 104.172,252.699 105.309,250.823 C107.314,247.317 110.028,244.578 113.593,242.972 C114.983,242.363 116.284,241.836 115.155,239.79 C115.005,239.512 115.22,238.815 115.502,238.39 C119.524,231.202 119.542,223.359 118.727,215.364 C118.419,212.399 118.369,209.365 118.151,206.317 C118.096,205.868 118.126,205.424 117.898,205.051 C114.476,198.198 114.986,190.57 113.871,183.266 C112.685,175.779 111.84,168.227 110.653,160.74 L110.392,159.404 C106.221,156.43 103.731,151.749 102.211,146.806 C101.034,142.627 98.51,139.426 95.144,137.203 C86.31,131.6 79.411,123.775 72.008,116.394 C69.316,113.638 66.96,110.526 64.436,107.591 C61.996,104.746 60.986,105.012 58.715,108.036 C57.201,110.081 55.181,111.77 53.078,113.104 C51.227,114.349 49.713,115.594 48.871,117.817 C47.357,121.819 43.992,123.775 40.879,126.087 C39.701,126.976 38.355,127.599 37.093,128.399 C35.578,129.288 34.905,130.533 34.821,132.401 C34.653,136.936 30.699,141.204 26.324,141.56 C25.903,141.56 25.314,141.471 25.062,141.738 C23.295,143.427 21.697,142.449 20.435,141.204 C16.817,137.736 12.779,134.446 12.526,128.666 C12.442,125.82 12.779,122.975 13.199,120.129 C13.956,113.905 15.303,107.769 17.49,101.9 C18.079,100.21 18.247,98.254 18.415,96.476 C18.836,91.14 19.088,85.716 19.593,80.292 C19.762,78.602 20.266,77.002 20.771,75.401 C21.865,72.378 23.043,69.354 24.389,66.509 C25.23,64.73 26.408,63.218 27.502,61.618 C27.922,60.995 28.511,60.462 29.353,59.573 C28.343,59.217 27.67,58.95 27.081,58.861 C24.052,58.861 22.454,56.727 21.276,54.237 C18.584,48.813 15.218,43.922 10.675,40.009 C8.151,37.875 5.543,35.919 3.019,33.963 C2.599,33.696 2.01,33.429 1.841,32.985 C1.421,32.006 1.252,31.028 1,30.05 C1.925,29.961 3.019,29.428 3.692,29.783 C6.469,31.206 8.993,33.073 11.769,34.407 C15.891,36.453 20.098,38.142 24.305,40.009 C28.511,41.877 32.213,44.722 35.663,47.924 C36.336,48.546 37.345,48.724 38.187,49.08 C38.523,48.101 39.028,47.123 39.112,46.056 C39.196,45.078 38.775,44.011 38.523,43.122 C37.85,40.899 38.187,40.454 40.29,40.365 C41.131,40.276 42.057,39.743 42.982,39.476 C43.739,39.12 44.833,38.853 45.338,38.231 C47.273,35.83 48.535,33.073 48.787,29.783 C49.124,27.256 49.145,27.185 51.22,26.101 z M280.582,164.941 L280.572,164.946 L280.572,164.946 L280.582,164.941 z"
      fill="#000000" />
  </g>
</svg>