<?xml version="1.0" encoding="UTF-8"?>
<!DOCTYPE svg PUBLIC "-//W3C//DTD SVG 1.1//EN" "http://www.w3.org/Graphics/SVG/1.1/DTD/svg11.dtd">
<svg version="1.1" xmlns="http://www.w3.org/2000/svg" xmlns:xlink="http://www.w3.org/1999/xlink" x="0" y="0" width="300"
  height="300" viewBox="0, 0, 300, 300">
  <g id="Layer_1">
    <path
      d="M11.466,141.523 C9.72,167.71 14.957,194.146 7.475,219.834 C3.734,211.105 3.236,203.124 5.231,193.398 C7.974,180.429 4.732,166.463 4.233,152.746 C3.984,150.252 3.485,147.758 2.986,145.264 C-1.752,118.827 6.478,97.13 25.432,78.425 C43.888,60.219 63.091,43.01 90.525,42.013 C101.249,41.763 112.971,43.758 122.947,47.499 C138.909,53.734 154.122,55.729 170.083,49.744 C183.8,44.507 197.517,46.252 211.234,49.744 C218.966,51.739 227.445,53.485 234.927,52.238 C273.335,45.753 288.049,68.449 289.546,98.626 C289.795,104.612 291.541,110.597 293.785,116.333 C300.519,133.791 296.778,151.249 295.282,168.957 C294.035,185.167 293.785,201.129 293.286,217.34 C292.788,227.066 293.286,236.793 291.79,246.27 C290.044,257.742 282.812,262.73 270.342,262.73 C259.119,262.73 252.884,257.493 250.39,246.52 C253.882,244.524 257.124,242.779 259.119,241.532 C263.608,243.527 269.594,248.515 272.088,247.018 C275.829,244.774 278.073,238.539 278.821,233.551 C279.57,227.565 278.323,221.081 277.574,215.095 C275.33,195.892 273.335,176.688 270.591,157.734 C267.1,135.038 254.38,129.053 232.932,139.777 C235.925,143.019 238.668,146.511 241.412,149.753 C241.162,150.252 240.663,150.75 240.414,151.249 C234.179,149.503 227.944,147.259 221.46,146.012 C207.493,143.019 203.004,147.009 204.002,161.475 C204.251,165.714 205.498,170.204 205.748,174.443 C206.995,189.657 208.242,204.621 209.489,219.834 C210.237,229.81 210.985,240.035 212.481,250.011 C213.479,256.994 211.733,261.234 204.75,262.232 C200.261,262.98 195.522,263.229 190.784,262.73 C180.309,261.733 178.812,257.244 180.808,246.769 C182.803,235.795 182.304,224.323 182.803,212.851 C181.556,212.601 180.558,212.352 179.311,212.352 C176.069,220.333 172.328,227.815 170.083,236.045 C169.335,238.788 171.829,243.527 174.074,246.021 C179.311,252.006 179.062,255.249 171.33,256.994 C164.846,258.491 157.863,259.488 151.129,259.239 C141.652,258.99 140.156,252.505 142.899,243.527 C150.63,218.836 156.367,193.398 153.124,165.964 C147.638,168.957 143.398,171.451 139.158,173.944 C118.957,185.916 97.259,187.911 75.063,181.676 C68.828,179.93 65.585,181.676 64.588,186.913 C62.094,199.383 59.6,211.853 59.101,224.572 C58.852,229.062 64.588,233.551 67.331,238.289 C69.326,241.532 72.569,245.273 72.07,248.265 C71.82,250.51 66.832,253.503 63.59,253.752 C50.123,255.498 36.406,256.994 22.938,257.493 C13.461,257.742 8.473,252.006 11.216,243.028 C20.694,213.1 16.454,183.172 11.216,153.494 C10.967,151.249 10.718,149.254 10.468,147.009 C11.965,145.014 11.715,143.268 11.466,141.523 z"
      fill="#000000" />
  </g>
</svg>