<?xml version="1.0" encoding="UTF-8"?>
<!DOCTYPE svg PUBLIC "-//W3C//DTD SVG 1.1//EN" "http://www.w3.org/Graphics/SVG/1.1/DTD/svg11.dtd">
<svg version="1.1" xmlns="http://www.w3.org/2000/svg" xmlns:xlink="http://www.w3.org/1999/xlink" x="0" y="0" width="300" height="300" viewBox="0, 0, 300, 300">
  <g id="Layer_1">
    <path d="M82.364,5.873 L83.085,5.974 C84.022,5.98 84.358,6.172 85.11,6.639 C85.95,7.393 86.549,8.138 86.421,9.283 C86.006,13.013 87.183,16.522 87.86,20.106 C88.346,22.68 88.687,25.283 89.045,27.88 C89.574,31.719 91.476,34.279 95.332,35.464 C97.41,36.103 98.805,35.263 99.804,32.962 C101.808,28.347 103.71,23.686 105.51,18.988 C105.913,17.936 105.752,16.657 105.798,15.481 C105.903,12.806 107.264,11.875 109.672,13.057 C110.826,13.623 111.949,14.448 112.788,15.414 C113.84,16.625 113.661,18.311 112.352,19.234 C109.325,21.369 108.365,24.627 107.681,27.882 C106.819,31.986 106.435,36.191 105.829,40.351 C105.676,41.403 105.466,42.447 105.217,43.864 C105.907,43.498 106.356,43.35 106.692,43.068 C109.265,40.905 111.884,38.788 114.351,36.508 C115.826,35.145 117.133,33.576 118.357,31.979 C119.021,31.112 119.848,30.785 120.659,31.129 C121.946,31.675 123.298,32.339 124.263,33.31 C125.668,34.724 125.291,36.79 123.238,37.717 C119.101,39.582 116.175,42.959 112.82,45.741 C110.661,47.531 109.329,50.332 107.682,52.718 C107.068,53.608 106.737,54.708 106.061,55.537 C103.672,58.461 104.484,61.757 105.302,64.771 C106.816,70.351 107.597,76.008 108.108,81.729 C108.68,88.135 111.163,93.737 114.577,99.169 C117.844,104.371 122.363,108.338 126.341,112.842 C127.602,114.269 128.585,115.943 129.692,117.506 C129.864,117.747 130.016,118.003 130.184,118.248 C131.927,120.777 132.732,120.805 134.381,118.326 C135.992,115.903 137.623,113.489 139.117,110.994 C139.66,110.085 140.133,108.948 140.116,107.923 C140.056,104.221 141.275,100.872 142.977,97.754 C144.428,95.098 143.695,92.481 143.66,89.814 C143.63,87.403 143.485,84.962 143.817,82.594 C143.976,81.469 144.934,80.234 145.879,79.495 C147.373,78.326 149.177,77.56 150.818,76.57 C151.957,75.883 153.162,75.237 154.125,74.342 C157.058,71.617 160.259,69.067 162.682,65.928 C167.852,59.231 178.692,58.886 185.099,64.227 C187.197,65.977 187.935,68.445 189.205,70.64 C191.206,74.096 193.042,77.657 195.217,80.997 C196.292,82.647 197.884,84.003 199.395,85.315 C201.914,87.5 202.657,90.181 201.403,93.305 C200.926,94.496 200.574,95.745 200.011,96.891 C199.101,98.745 199.29,100.601 199.574,102.547 C199.96,105.185 200.266,107.85 200.344,110.511 C200.381,111.788 199.769,113.074 199.535,114.372 C199.277,115.801 198.864,117.265 198.966,118.681 C199.167,121.49 199.627,124.285 200.091,127.067 C200.202,127.729 200.612,128.494 201.128,128.904 C202.399,129.912 203.793,130.77 205.17,131.636 C211.036,135.328 216.184,139.761 220.324,145.396 C221.561,147.08 223.522,148.258 225.23,149.565 C227.006,150.923 228.907,150.433 230.468,149.273 C232.8,147.54 234.931,145.539 237.152,143.658 C240.397,140.912 243.66,138.187 246.885,135.419 C247.972,134.487 248.965,133.449 250.006,132.465 C250.654,131.852 250.648,131.243 250.176,130.488 C248.923,128.477 246.921,127.68 244.804,127.077 C241.953,126.265 239.098,125.454 236.219,124.756 C234.886,124.433 233.49,124.239 232.12,124.228 C229.111,124.205 227.621,122.224 228.754,119.475 C229.105,118.624 229.648,117.822 230.235,117.108 C231.218,115.914 232.567,115.606 233.816,116.499 C237.926,119.439 242.728,120.426 247.491,121.518 C249.815,122.051 252.149,122.218 254.514,121.425 C257.107,120.556 258.274,118.373 259.722,116.38 C261.283,114.23 262.927,112.139 264.6,110.075 C267.302,106.737 270.215,103.544 271.936,99.538 C272.268,98.763 272.3,97.82 272.308,96.952 C272.323,95.225 272.814,94.412 274.428,93.781 C275.975,93.175 278.864,93.84 279.962,95.053 C280.9,96.089 280.979,97.388 279.89,98.37 C275.944,101.93 273.823,106.73 271.061,111.095 C270.297,112.304 269.502,113.495 268.748,114.711 C267.881,116.107 268.238,116.811 269.878,116.916 C272.236,117.066 274.68,117.581 276.769,115.993 C277.86,115.165 278.934,114.236 279.769,113.16 C282.831,109.218 285.814,105.214 288.762,101.186 C289.36,100.37 289.641,99.329 290.129,98.424 C291.142,96.541 292.895,95.866 294.738,96.907 C295.865,97.542 296.914,98.494 297.685,99.536 C298.883,101.153 298.193,103.276 296.214,104.143 C291.414,106.247 288.364,109.975 286.119,114.541 C284.965,116.888 283.582,119.129 282.518,121.514 C281.66,123.439 281.111,125.505 280.463,127.521 C280.39,127.746 280.56,128.281 280.64,128.286 C281.048,128.31 281.57,128.347 281.857,128.126 C284.243,126.285 286.601,124.407 288.937,122.503 C290.39,121.319 291.745,120.01 293.239,118.883 C293.736,118.509 294.543,118.35 295.185,118.398 C297.115,118.545 299.303,121.797 298.527,123.535 C298.171,124.332 297.22,125.156 296.377,125.393 C291.778,126.686 288.377,129.684 285.348,133.101 C281.291,137.68 276.137,140.493 270.46,142.139 C264.322,143.918 259.46,147.447 255.01,151.735 C249.616,156.932 243.835,161.634 237.714,165.947 C236.11,167.078 234.787,168.598 233.295,169.895 C230.581,172.251 228.147,172.364 225.248,170.238 C224.375,169.599 223.495,168.894 222.836,168.05 C219.769,164.127 215.451,161.838 211.439,159.141 C209.512,157.844 207.622,156.494 205.708,155.179 C205.395,154.964 205.042,154.807 204.24,154.765 C204.354,155.675 204.457,156.587 204.586,157.495 C204.874,159.527 205.18,161.557 205.467,163.588 C205.55,164.173 205.632,164.762 205.65,165.351 C205.698,166.971 205.805,168.596 205.713,170.21 C205.615,171.934 205.328,173.648 205.103,175.363 C204.569,179.432 204.401,183.596 203.383,187.539 C202.178,192.199 200.567,196.858 196.413,199.969 C196.218,200.116 196.049,200.3 195.891,200.487 C195.842,200.545 195.871,200.668 195.851,200.941 C196.228,200.941 196.596,200.986 196.952,200.935 C204.489,199.854 212.019,198.729 219.562,197.704 C220.871,197.526 221.378,197.066 220.998,195.814 C220.714,194.879 220.342,193.97 220.016,193.047 C219.721,192.214 219.318,191.396 219.173,190.536 C218.979,189.389 219.315,188.116 220.445,187.789 C222.457,187.207 224.565,186.807 226.653,186.691 C227.993,186.616 228.737,187.784 228.726,189.123 C228.711,190.749 228.532,192.373 228.432,193.998 C228.38,194.836 228.239,195.689 228.348,196.508 C228.405,196.937 228.833,197.503 229.233,197.668 C231.051,198.419 233.034,198.842 234.739,199.782 C236.433,200.715 237.865,202.125 239.692,203.543 C240.086,202.691 240.608,201.79 240.929,200.821 C242.028,197.503 243.16,194.189 244.051,190.813 C244.348,189.69 244.038,188.374 243.862,187.167 C243.406,184.011 244.637,182.217 247.815,182.056 C249.299,181.98 250.871,182.348 252.3,182.823 C253.792,183.319 254.272,184.789 253.703,186.248 C253.488,186.799 253.309,187.414 252.937,187.848 C250.399,190.815 249.996,194.595 249.018,198.134 C247.9,202.18 246.959,206.276 245.979,210.36 C245.69,211.561 245.502,212.788 245.329,214.012 C245.286,214.31 245.407,214.843 245.588,214.913 C245.888,215.028 246.409,214.981 246.645,214.779 C248.854,212.88 251.171,211.077 253.173,208.976 C257.776,204.142 262.302,199.227 266.675,194.186 C267.883,192.793 268.456,190.847 269.296,189.143 C269.928,187.863 270.415,186.498 271.163,185.293 C271.946,184.032 273.287,183.818 274.591,184.327 C276.583,185.105 278.196,186.399 279.043,188.442 C279.732,190.104 279.043,192.137 276.926,193.317 C274.056,194.917 272.474,197.53 270.679,200.059 C269.456,201.783 268.159,203.532 266.586,204.919 C261.763,209.174 258.334,214.476 254.907,219.801 C254.347,220.672 253.784,221.544 253.24,222.426 C252.307,223.939 252.766,225.01 254.531,225.237 C255.297,225.335 256.127,225.264 256.879,225.075 C258.744,224.603 260.654,224.19 262.41,223.436 C264.57,222.51 266.647,221.352 268.66,220.128 C271.21,218.576 272.955,219.114 273.917,221.935 C274.867,224.722 273.655,227.259 270.81,227.452 C264.208,227.899 258.434,230.778 252.54,233.271 C247.479,235.413 242.349,237.272 237.105,238.916 C234.392,239.767 231.99,241.606 229.44,242.986 C224.187,245.828 218.937,248.678 213.669,251.491 C210.139,253.376 206.647,255.355 203.007,257.002 C200.699,258.046 198.185,258.723 195.697,259.255 C193.604,259.702 191.565,259.019 189.747,257.892 C186.498,255.878 185.701,253.172 187.09,248.802 C188.456,244.502 191.239,240.97 193.832,237.359 C194.813,235.993 195.826,234.651 196.806,233.287 C197.045,232.955 197.217,232.576 197.611,231.88 C196.754,232.027 196.29,232.116 195.823,232.185 C190.59,232.965 185.379,233.968 180.121,234.456 C174.845,234.946 169.564,235.196 164.409,236.574 C161.263,237.415 158.186,236.97 155.339,235.437 C152.62,233.975 149.815,234.194 147.118,235.08 C138.751,237.829 130.239,238.807 121.491,237.757 C119.821,237.556 118.133,237.506 116.459,237.328 C113.709,237.037 110.964,236.689 108.214,236.383 C106.638,236.207 106.16,236.578 106.581,238.07 C107.464,241.2 108.34,244.362 109.601,247.35 C112.85,255.05 115.878,262.813 117.798,270.967 C118.534,274.093 119.403,277.199 119.92,280.362 C120.958,286.724 117.34,291.507 110.479,291.803 C104.912,292.042 99.31,291.574 93.729,291.306 C87.151,290.989 80.566,290.692 74.008,290.11 C70.129,289.766 66.286,288.951 62.448,288.227 C59.339,287.641 56.278,287.67 53.153,288.15 C47.235,289.059 41.398,289.08 35.543,287.207 C30.724,285.666 25.796,284.168 20.541,285.248 C18.367,285.695 17.184,284.979 16.561,283.504 C15.737,281.554 16.136,278.978 17.628,277.932 C18.241,277.501 19.208,277.33 19.971,277.418 C21.083,277.545 22.141,278.08 23.246,278.325 C26.912,279.135 30.583,279.921 34.268,280.636 C34.7,280.72 35.229,280.314 35.713,280.135 C35.695,279.983 35.677,279.831 35.659,279.68 C33.242,278.477 30.834,277.256 28.406,276.074 C23.678,273.772 18.745,272.054 13.635,270.793 C12.068,270.406 10.572,269.676 9.098,268.986 C8.829,268.85 8.595,268.786 8.3,268.879 L7.887,268.775 L7.773,268.77 C7.412,268.369 7.047,267.971 6.685,267.571 C6.257,267.092 5.952,266.726 5.703,266.382 C4.392,264.389 4.85,263.717 6.239,262.048 C9.259,262.206 7.713,262.11 10.875,262.341 C13.786,263.373 16.694,264.42 19.573,265.537 C24.921,267.613 30.483,268.697 36.167,269.212 C37.696,269.35 38.055,268.783 37.312,267.499 C33.529,260.964 29.736,254.433 25.878,247.943 C25.394,247.129 24.506,246.552 23.789,245.883 C23.14,245.277 22.376,244.77 21.826,244.087 C20.468,242.402 20.769,240.84 22.653,239.788 C24.332,238.85 26.02,237.869 28.071,238.015 C29.6,238.122 30.823,238.962 30.917,240.377 C31.344,246.83 35.987,250.913 39.348,255.691 C40.904,257.902 42.836,259.867 44.738,261.806 C45.391,262.472 46.522,263.161 47.339,263.06 C48.685,262.894 49.149,261.474 49.01,260.273 C48.556,256.353 48.25,252.372 47.289,248.566 C46.28,244.574 44.58,240.758 43.182,236.864 C42.604,235.254 43.016,234.271 44.694,233.806 C46.113,233.412 47.589,233.135 49.056,233.023 C51.686,232.823 52.933,233.964 52.458,236.528 C52.021,238.892 52.397,241.135 52.537,243.442 C52.938,249.989 55.127,255.987 58.024,261.768 C58.284,262.288 59.08,262.857 59.606,262.837 C60.128,262.818 60.904,262.18 61.086,261.648 C62.416,257.777 63.776,253.903 64.805,249.946 C65.315,247.986 65.206,245.85 65.258,243.792 C65.29,242.512 64.953,241.174 66.219,240.269 C67.471,239.373 68.741,239.672 70.008,240.28 C70.674,240.601 71.399,240.814 72.03,241.189 C74.051,242.391 74.508,244.308 72.977,246.04 C70.411,248.938 69.653,252.559 69.078,256.109 C68.399,260.292 68.386,264.583 68.057,268.825 C67.939,270.342 68.834,271.185 70.053,271.597 C71.448,272.067 72.922,272.354 74.384,272.566 C81.874,273.646 89.371,274.68 96.866,275.72 C97.382,275.791 97.908,275.785 98.803,275.836 C98.237,274.887 97.821,274.248 97.462,273.577 C94.998,268.967 92.51,264.368 90.1,259.73 C87.597,254.912 85.114,250.082 82.734,245.204 C80.718,241.074 79.355,236.741 79.656,232.062 C80.037,226.158 83.216,222.012 87.948,218.753 C91.126,216.565 94.755,215.599 98.342,214.551 C104.223,212.832 110.151,211.261 116.091,209.754 C120.304,208.686 124.532,207.609 128.943,207.689 C130.123,207.711 131.705,207.755 132.007,206.468 C132.226,205.535 131.615,204.161 130.954,203.312 C128.618,200.31 126.109,197.442 123.652,194.536 C121.148,191.574 119.642,188.116 118.495,184.454 C116.977,179.609 116.478,174.597 116.894,169.626 C117.392,163.687 118.216,157.725 119.566,151.928 C120.291,148.816 121.7,145.708 123.837,143.048 C125.816,140.587 125.624,137.549 125.073,134.657 C124.772,133.085 123.241,132.48 121.791,132.247 C119.588,131.894 117.883,130.798 116.67,129.016 C113.032,123.667 109.451,118.28 105.871,112.893 C104.914,111.454 104.051,109.952 103.115,108.499 C101.786,106.435 100.001,104.999 97.617,104.222 C95.01,103.373 93.775,101.363 93.304,98.714 C92.595,94.723 91.702,90.764 90.986,86.775 C90.541,84.293 90.182,81.788 89.957,79.279 C89.546,74.694 89.247,70.098 88.93,65.505 C88.759,63.039 87.815,61.17 85.941,59.355 C81.44,54.994 77.14,50.396 73.914,44.938 C72.067,41.814 69.434,39.422 66.57,37.279 C65.871,36.756 64.921,36.577 64.199,36.077 C63.156,35.354 61.981,34.596 62.206,33.05 C62.457,31.323 63.345,29.982 65.01,29.323 C66.511,28.728 67.575,29.615 68.533,30.592 C71.574,33.697 74.555,36.862 77.655,39.907 C78.29,40.53 79.471,41.197 80.154,40.998 C80.777,40.817 81.241,39.536 81.476,38.658 C83.062,32.733 82.822,26.686 82.336,20.67 C82.096,17.704 80.917,14.953 79.086,12.519 C78.44,11.661 77.93,10.67 77.53,9.671 C77.362,9.254 77.506,8.585 77.739,8.155 C78.789,6.452 80.575,6.221 82.365,5.873 z" fill="#000000"/>
    <path d="M1.8,262.145 L1.806,262.399 L1.748,262.153 L1.79,262.146 L1.8,262.145 z" fill="#000000"/>
    <path d="M3.804,262.009 L3.795,262.022 L3.795,262.01 L3.804,262.009 z" fill="#000000"/>
    <path d="M5.746,271.938 L5.854,272.009 L5.811,272.068 L5.746,271.938 z" fill="#000000"/>
  </g>
</svg>
