<?xml version="1.0" encoding="UTF-8"?>
<!DOCTYPE svg PUBLIC "-//W3C//DTD SVG 1.1//EN" "http://www.w3.org/Graphics/SVG/1.1/DTD/svg11.dtd">
<svg version="1.1" xmlns="http://www.w3.org/2000/svg" xmlns:xlink="http://www.w3.org/1999/xlink" x="0" y="0" width="300" height="300" viewBox="0, 0, 300, 300">
  <defs>
    <clipPath id="Clip_1">
      <path d="M0.696,5.869 L298.688,5.869 L298.688,291.869 L0.696,291.869 z"/>
    </clipPath>
  </defs>
  <g id="Layer_1">
    <g clip-path="url(#Clip_1)" id="Layer_1">
      <path d="M295.185,118.398 C294.543,118.35 293.736,118.509 293.239,118.883 C291.745,120.01 290.39,121.319 288.937,122.503 C286.601,124.407 284.243,126.285 281.857,128.126 C281.57,128.347 281.048,128.31 280.64,128.286 C280.56,128.281 280.39,127.746 280.463,127.521 C281.111,125.505 281.66,123.439 282.518,121.514 C283.582,119.129 284.965,116.888 286.119,114.541 C288.364,109.975 291.414,106.247 296.214,104.143 C298.193,103.276 298.883,101.153 297.685,99.536 C296.914,98.494 295.865,97.542 294.738,96.907 C292.895,95.866 291.142,96.541 290.129,98.424 C289.641,99.329 289.36,100.37 288.762,101.186 C285.814,105.214 282.831,109.218 279.769,113.16 C278.934,114.236 277.86,115.165 276.769,115.993 C274.68,117.581 272.236,117.066 269.878,116.916 C268.238,116.811 267.881,116.107 268.748,114.711 C269.502,113.495 270.297,112.304 271.061,111.095 C273.823,106.73 275.944,101.93 279.89,98.37 C280.979,97.388 280.9,96.089 279.962,95.053 C278.864,93.84 275.975,93.175 274.428,93.781 C272.814,94.412 272.323,95.225 272.308,96.952 C272.3,97.82 272.268,98.763 271.936,99.538 C270.215,103.544 267.302,106.737 264.6,110.075 C262.927,112.139 261.283,114.23 259.722,116.38 C258.274,118.373 257.107,120.556 254.514,121.425 C252.149,122.218 249.815,122.051 247.491,121.518 C242.728,120.426 237.926,119.439 233.816,116.499 C232.567,115.606 231.218,115.914 230.235,117.108 C229.648,117.822 229.105,118.624 228.754,119.475 C227.621,122.224 229.111,124.205 232.12,124.228 C233.49,124.239 234.886,124.433 236.219,124.756 C239.098,125.454 241.953,126.265 244.804,127.077 C246.921,127.68 248.923,128.477 250.176,130.488 C250.648,131.243 250.654,131.852 250.006,132.465 C248.965,133.449 247.972,134.487 246.885,135.419 C243.66,138.187 240.397,140.912 237.152,143.658 C234.931,145.539 232.8,147.54 230.468,149.273 C228.907,150.433 227.006,150.923 225.23,149.565 C223.522,148.258 221.561,147.08 220.324,145.396 C216.184,139.761 211.036,135.328 205.17,131.636 C203.793,130.77 202.399,129.912 201.128,128.904 C200.612,128.494 200.202,127.729 200.091,127.067 C199.627,124.285 199.167,121.49 198.966,118.681 C198.864,117.265 199.277,115.801 199.535,114.372 C199.769,113.074 200.381,111.788 200.344,110.511 C200.266,107.85 199.96,105.185 199.574,102.547 C199.29,100.601 199.101,98.745 200.011,96.891 C200.574,95.745 200.926,94.496 201.403,93.305 C202.657,90.181 201.914,87.5 199.395,85.315 C197.884,84.003 196.292,82.647 195.217,80.997 C193.042,77.657 191.206,74.096 189.205,70.64 C187.935,68.445 187.197,65.977 185.099,64.227 C178.692,58.886 167.852,59.231 162.682,65.928 C160.259,69.067 157.058,71.617 154.125,74.342 C153.162,75.237 151.957,75.883 150.818,76.57 C149.177,77.56 147.373,78.326 145.879,79.495 C144.934,80.234 143.976,81.469 143.817,82.594 C143.485,84.962 143.63,87.403 143.66,89.814 C143.695,92.481 144.428,95.098 142.977,97.754 C141.275,100.872 140.056,104.221 140.116,107.923 C140.133,108.948 139.66,110.085 139.117,110.994 C137.623,113.489 135.992,115.903 134.381,118.326 C132.732,120.805 131.927,120.777 130.184,118.248 C130.016,118.003 129.864,117.747 129.692,117.506 C128.585,115.943 127.602,114.269 126.341,112.842 C122.363,108.338 117.844,104.371 114.577,99.169 C111.163,93.737 108.68,88.135 108.108,81.729 C107.597,76.008 106.816,70.351 105.302,64.771 C104.484,61.757 103.672,58.461 106.061,55.537 C106.737,54.708 107.068,53.608 107.682,52.718 C109.329,50.332 110.661,47.531 112.82,45.741 C116.175,42.959 119.101,39.582 123.238,37.717 C125.291,36.79 125.668,34.724 124.263,33.31 C123.298,32.339 121.946,31.675 120.659,31.129 C119.848,30.785 119.021,31.112 118.357,31.979 C117.133,33.576 115.826,35.145 114.351,36.508 C111.884,38.788 109.265,40.905 106.692,43.068 C106.356,43.35 105.907,43.498 105.217,43.864 C105.466,42.447 105.676,41.403 105.829,40.351 C106.435,36.191 106.819,31.986 107.681,27.882 C108.365,24.627 109.325,21.369 112.352,19.234 C113.661,18.311 113.84,16.625 112.788,15.414 C111.949,14.448 110.826,13.623 109.672,13.057 C107.264,11.875 105.903,12.806 105.798,15.481 C105.752,16.657 105.913,17.936 105.51,18.988 C103.71,23.686 101.808,28.347 99.804,32.962 C98.805,35.263 97.41,36.103 95.332,35.464 C91.476,34.279 89.574,31.719 89.045,27.88 C88.687,25.283 88.346,22.68 87.86,20.106 C87.183,16.522 86.006,13.013 86.421,9.283 C86.549,8.138 85.95,7.393 85.11,6.639 C83.444,5.141 78.949,5.926 77.739,8.155 C77.506,8.585 77.362,9.254 77.53,9.671 C77.93,10.67 78.44,11.661 79.086,12.519 C80.917,14.953 82.096,17.704 82.336,20.67 C82.822,26.686 83.062,32.733 81.476,38.658 C81.241,39.536 80.777,40.817 80.154,40.998 C79.471,41.197 78.29,40.53 77.655,39.907 C74.555,36.862 71.574,33.697 68.533,30.592 C67.575,29.615 66.511,28.728 65.01,29.323 C63.345,29.982 62.457,31.323 62.206,33.05 C61.981,34.596 63.156,35.354 64.199,36.077 C64.921,36.577 65.871,36.756 66.57,37.279 C69.434,39.422 72.067,41.814 73.914,44.938 C77.14,50.396 81.44,54.994 85.941,59.355 C87.815,61.17 88.759,63.039 88.93,65.505 C89.247,70.098 89.546,74.694 89.957,79.279 C90.182,81.788 90.541,84.293 90.986,86.775 C91.702,90.764 92.595,94.723 93.304,98.714 C93.775,101.363 95.01,103.373 97.617,104.222 C100.001,104.999 101.786,106.435 103.115,108.499 C104.051,109.952 104.914,111.454 105.871,112.893 C109.451,118.28 113.032,123.667 116.67,129.016 C117.883,130.798 119.588,131.894 121.791,132.247 C123.241,132.48 124.772,133.085 125.073,134.657 C125.624,137.549 125.816,140.587 123.837,143.048 C121.7,145.708 120.291,148.816 119.566,151.928 C118.216,157.725 117.392,163.687 116.894,169.626 C116.478,174.597 116.977,179.609 118.495,184.454 C119.642,188.116 121.148,191.574 123.652,194.536 C126.109,197.442 128.618,200.31 130.954,203.312 C131.615,204.161 132.226,205.535 132.007,206.468 C131.705,207.755 130.123,207.711 128.943,207.689 C124.532,207.609 120.304,208.686 116.091,209.754 C110.151,211.261 104.223,212.832 98.342,214.551 C94.755,215.599 91.126,216.565 87.948,218.753 C83.216,222.012 80.037,226.158 79.656,232.062 C79.355,236.741 80.718,241.074 82.734,245.204 C85.114,250.082 87.597,254.912 90.1,259.73 C92.51,264.368 94.998,268.967 97.462,273.577 C97.821,274.248 98.237,274.887 98.803,275.836 C97.908,275.785 97.382,275.791 96.866,275.72 C89.371,274.68 81.874,273.646 74.384,272.566 C72.922,272.354 71.448,272.067 70.053,271.597 C68.834,271.185 67.939,270.342 68.057,268.825 C68.386,264.583 68.399,260.292 69.078,256.109 C69.653,252.559 70.411,248.938 72.977,246.04 C74.508,244.308 74.051,242.391 72.03,241.189 C71.399,240.814 70.674,240.601 70.008,240.28 C68.741,239.672 67.471,239.373 66.219,240.269 C64.953,241.174 65.29,242.512 65.258,243.792 C65.206,245.85 65.315,247.986 64.805,249.946 C63.776,253.903 62.416,257.777 61.086,261.648 C60.904,262.18 60.128,262.818 59.606,262.837 C59.08,262.857 58.284,262.288 58.024,261.768 C55.127,255.987 52.938,249.989 52.537,243.442 C52.397,241.135 52.021,238.892 52.458,236.528 C52.933,233.964 51.686,232.823 49.056,233.023 C47.589,233.135 46.113,233.412 44.694,233.806 C43.016,234.271 42.604,235.254 43.182,236.864 C44.58,240.758 46.28,244.574 47.289,248.566 C48.25,252.372 48.556,256.353 49.01,260.273 C49.149,261.474 48.685,262.894 47.339,263.06 C46.522,263.161 45.391,262.472 44.738,261.806 C42.836,259.867 40.904,257.902 39.348,255.691 C35.987,250.913 31.344,246.83 30.917,240.377 C30.823,238.962 29.6,238.122 28.071,238.015 C26.02,237.869 24.332,238.85 22.653,239.788 C20.769,240.84 20.468,242.402 21.826,244.087 C22.376,244.77 23.14,245.277 23.789,245.883 C24.506,246.552 25.394,247.129 25.878,247.943 C29.736,254.433 33.529,260.964 37.312,267.499 C38.055,268.783 37.696,269.35 36.167,269.212 C30.483,268.697 24.921,267.613 19.573,265.537 C16.694,264.42 13.786,263.373 10.875,262.341 C9.258,262.23 7.641,262.081 6.02,262.037 C4.635,262 3.167,261.946 1.79,262.146 C1.441,262.198 1.058,262.263 0.696,262.357 C1.473,264.676 2.852,267.048 3.757,269.13 C4.272,270.318 4.772,271.547 5.285,272.774 C6.08,271.798 6.838,270.686 7.569,269.434 C7.993,268.707 8.347,268.634 9.098,268.986 C10.572,269.676 12.068,270.406 13.635,270.793 C18.745,272.054 23.678,273.772 28.406,276.074 C30.834,277.256 33.242,278.477 35.659,279.68 C35.677,279.831 35.695,279.983 35.713,280.135 C35.229,280.314 34.7,280.72 34.268,280.636 C30.583,279.921 26.912,279.135 23.246,278.325 C22.141,278.08 21.083,277.545 19.971,277.418 C19.208,277.33 18.241,277.501 17.628,277.932 C16.136,278.978 15.737,281.554 16.561,283.504 C17.184,284.979 18.367,285.695 20.541,285.248 C25.796,284.168 30.724,285.666 35.543,287.207 C41.398,289.08 47.235,289.059 53.153,288.15 C56.278,287.67 59.339,287.641 62.448,288.227 C66.286,288.951 70.129,289.766 74.008,290.11 C80.566,290.692 87.151,290.989 93.729,291.306 C99.31,291.574 104.912,292.042 110.479,291.803 C117.34,291.507 120.958,286.724 119.92,280.362 C119.403,277.199 118.534,274.093 117.798,270.967 C115.878,262.813 112.85,255.05 109.601,247.35 C108.34,244.362 107.464,241.2 106.581,238.07 C106.16,236.578 106.638,236.207 108.214,236.383 C110.964,236.689 113.709,237.037 116.459,237.328 C118.133,237.506 119.821,237.556 121.491,237.757 C130.239,238.807 138.751,237.829 147.118,235.08 C149.815,234.194 152.62,233.975 155.339,235.437 C158.186,236.97 161.263,237.415 164.409,236.574 C169.564,235.196 174.845,234.946 180.121,234.456 C185.379,233.968 190.59,232.965 195.823,232.185 C196.29,232.116 196.754,232.027 197.611,231.88 C197.217,232.576 197.045,232.955 196.806,233.287 C195.826,234.651 194.813,235.993 193.832,237.359 C191.239,240.97 188.456,244.502 187.09,248.802 C185.701,253.172 186.498,255.878 189.747,257.892 C191.565,259.019 193.604,259.702 195.697,259.255 C198.185,258.723 200.699,258.046 203.007,257.002 C206.647,255.355 210.139,253.376 213.669,251.491 C218.937,248.678 224.187,245.828 229.44,242.986 C231.99,241.606 234.392,239.767 237.105,238.916 C242.349,237.272 247.479,235.413 252.54,233.271 C258.434,230.778 264.208,227.899 270.81,227.452 C273.655,227.259 274.867,224.722 273.917,221.935 C272.955,219.114 271.21,218.576 268.66,220.128 C266.647,221.352 264.57,222.51 262.41,223.436 C260.654,224.19 258.744,224.603 256.879,225.075 C256.127,225.264 255.297,225.335 254.531,225.237 C252.766,225.01 252.307,223.939 253.24,222.426 C253.784,221.544 254.347,220.672 254.907,219.801 C258.334,214.476 261.763,209.174 266.586,204.919 C268.159,203.532 269.456,201.783 270.679,200.059 C272.474,197.53 274.056,194.917 276.926,193.317 C279.043,192.137 279.732,190.104 279.043,188.442 C278.196,186.399 276.583,185.105 274.591,184.327 C273.287,183.818 271.946,184.032 271.163,185.293 C270.415,186.498 269.928,187.863 269.296,189.143 C268.456,190.847 267.883,192.793 266.675,194.186 C262.302,199.227 257.776,204.142 253.173,208.976 C251.171,211.077 248.854,212.88 246.645,214.779 C246.409,214.981 245.888,215.028 245.588,214.913 C245.407,214.843 245.286,214.31 245.329,214.012 C245.502,212.788 245.69,211.561 245.979,210.36 C246.959,206.276 247.9,202.18 249.018,198.134 C249.996,194.595 250.399,190.815 252.937,187.848 C253.309,187.414 253.488,186.799 253.703,186.248 C254.272,184.789 253.792,183.319 252.3,182.823 C250.871,182.348 249.299,181.98 247.815,182.056 C244.637,182.217 243.406,184.011 243.862,187.167 C244.038,188.374 244.348,189.69 244.051,190.813 C243.16,194.189 242.028,197.503 240.929,200.821 C240.608,201.79 240.086,202.691 239.692,203.543 C237.865,202.125 236.433,200.715 234.739,199.782 C233.034,198.842 231.051,198.419 229.233,197.668 C228.833,197.503 228.405,196.937 228.348,196.508 C228.239,195.689 228.38,194.836 228.432,193.998 C228.532,192.373 228.711,190.749 228.726,189.123 C228.737,187.784 227.993,186.616 226.653,186.691 C224.565,186.807 222.457,187.207 220.445,187.789 C219.315,188.116 218.979,189.389 219.173,190.536 C219.318,191.396 219.721,192.214 220.016,193.047 C220.342,193.97 220.714,194.879 220.998,195.814 C221.378,197.066 220.871,197.526 219.562,197.704 C212.019,198.729 204.489,199.854 196.952,200.935 C196.596,200.986 196.228,200.941 195.851,200.941 C195.871,200.668 195.842,200.545 195.891,200.487 C196.049,200.3 196.218,200.116 196.413,199.969 C200.567,196.858 202.178,192.199 203.383,187.539 C204.401,183.596 204.569,179.432 205.103,175.363 C205.328,173.648 205.615,171.934 205.713,170.21 C205.805,168.596 205.698,166.971 205.65,165.351 C205.632,164.762 205.55,164.173 205.467,163.588 C205.18,161.557 204.874,159.527 204.586,157.495 C204.457,156.587 204.354,155.675 204.24,154.765 C205.042,154.807 205.395,154.964 205.708,155.179 C207.622,156.494 209.512,157.844 211.439,159.141 C215.451,161.838 219.769,164.127 222.836,168.05 C223.495,168.894 224.375,169.599 225.248,170.238 C228.147,172.364 230.581,172.251 233.295,169.895 C234.787,168.598 236.11,167.078 237.714,165.947 C243.835,161.634 249.616,156.932 255.01,151.735 C259.46,147.447 264.322,143.918 270.46,142.139 C276.137,140.493 281.291,137.68 285.348,133.101 C288.377,129.684 291.778,126.686 296.377,125.393 C297.22,125.156 298.171,124.332 298.527,123.535 C299.303,121.797 297.115,118.545 295.185,118.398" fill="#000000"/>
    </g>
  </g>
</svg>
