<?xml version="1.0" encoding="UTF-8"?>
<!DOCTYPE svg PUBLIC "-//W3C//DTD SVG 1.1//EN" "http://www.w3.org/Graphics/SVG/1.1/DTD/svg11.dtd">
<svg version="1.1" xmlns="http://www.w3.org/2000/svg" xmlns:xlink="http://www.w3.org/1999/xlink" x="0" y="0" width="300" height="300" viewBox="0, 0, 300, 300">
  <defs>
    <clipPath id="Clip_1">
      <path d="M50.671,1.619 L250.693,1.619 L250.693,299.619 L50.671,299.619 z"/>
    </clipPath>
  </defs>
  <g id="Layer_1">
    <g clip-path="url(#Clip_1)" id="Layer_1">
      <path d="M143.574,217.038 C140.575,226.469 136.975,235.766 134.803,245.38 C133.509,251.104 134.326,257.329 134.44,263.325 C134.541,268.554 134.981,273.776 135.28,279.001 C135.579,284.215 137.589,288.386 142.342,291.114 C143.867,291.989 145.311,293.264 146.332,294.683 C147.805,296.729 146.83,298.348 144.331,298.204 C139.761,297.943 135.198,297.548 130.639,297.137 C130.125,297.091 129.582,296.663 129.173,296.284 C127.67,294.887 126.304,293.331 124.717,292.04 C123.492,291.043 123.439,290.129 123.839,288.69 C124.423,286.59 124.842,284.382 124.898,282.209 C125.079,275.283 124.706,268.327 125.182,261.426 C126.705,239.31 126.624,217.181 126.275,195.043 C126.253,193.706 125.765,192.362 125.39,191.05 C125.017,189.742 124.511,188.47 124.174,187.501 C115.217,187.977 106.383,188.446 97.232,188.933 C97.426,188.675 97.234,188.813 97.244,188.934 C97.825,196.167 95.699,202.648 91.736,208.629 C84.774,219.136 84.353,230.861 85.237,242.846 C86.367,258.158 92.009,272.186 97.907,286.099 C98.855,288.333 101.336,290.004 103.306,291.71 C104.848,293.045 106.864,293.857 108.338,295.248 C109.048,295.918 109.182,297.39 109.16,298.49 C109.154,298.784 107.617,299.262 106.772,299.287 C102.367,299.422 97.96,299.476 93.554,299.451 C92.888,299.448 92.15,298.981 91.576,298.556 C89.994,297.385 88.553,296.017 86.92,294.929 C85.61,294.057 85.166,293.073 85.812,291.686 C86.919,289.309 86.311,287.143 85.541,284.757 C84.257,280.781 83.101,276.689 82.584,272.561 C81.655,265.145 79.616,258.144 76.265,251.479 C74.684,248.335 73.209,245.138 71.681,241.967 C69.444,237.324 69.117,232.613 71.039,227.768 C71.721,226.046 72.205,224.246 72.78,222.482 C72.508,222.404 72.238,222.326 71.967,222.247 C70.954,225.95 69.797,229.621 68.954,233.36 C65.684,247.857 66.804,262.35 69.179,276.83 C69.388,278.098 69.658,279.368 69.735,280.646 C70.055,285.93 72.157,290.218 76.598,293.305 C77.288,293.784 78.045,294.457 78.3,295.201 C78.742,296.49 78.815,297.903 79.043,299.265 C77.909,299.38 76.724,299.762 75.649,299.562 C71.578,298.802 67.534,297.89 63.504,296.935 C62.841,296.778 62.188,296.211 61.723,295.67 C60.442,294.181 59.381,292.491 58.008,291.099 C56.798,289.872 56.686,288.773 57.657,287.477 C59.167,285.461 59.189,283.31 58.808,280.884 C58.36,278.027 58.038,275.029 58.404,272.187 C59.799,261.365 58.728,250.804 55.778,240.36 C55.266,238.548 54.868,236.692 54.577,234.832 C53.968,230.933 53.977,227.009 56.392,223.678 C64.348,212.705 64.26,200.664 61.548,188.185 C60.639,184.002 60.167,179.717 59.097,175.581 C58.62,173.736 57.158,172.141 56.143,170.433 L55.439,170.611 C55.315,174.498 55.335,178.395 55.03,182.268 C54.689,186.587 54.341,190.944 53.447,195.168 C52.782,198.311 52.631,201.089 54.738,203.667 C57.579,207.148 57.764,211.038 56.463,215.098 C55.321,218.661 54.032,222.176 52.54,226.484 C51.779,224.646 50.782,223.322 50.754,221.979 C50.632,216.252 50.618,210.509 50.897,204.788 C51.403,194.429 52.123,184.079 52.8,173.728 C53.119,168.852 53.211,163.929 53.994,159.122 C55.335,150.902 60.625,145.23 67.606,141.263 C72.069,138.727 76.877,136.597 81.774,135.041 C96.005,130.52 108.454,123.052 119.821,113.589 C134.786,101.129 150.116,89.077 162.847,74.204 C172.286,63.177 180.539,51.373 187.212,38.493 C190.297,32.537 193.285,26.494 199.373,22.411 C195.708,20.154 192.943,17.381 192.163,13.036 C194.409,11.772 196.538,12.284 198.736,12.85 C200.802,13.381 202.924,13.934 205.03,13.968 C206.056,13.985 207.102,12.839 208.138,12.22 C207.459,11.255 206.913,10.146 206.059,9.369 C205.327,8.702 204.059,8.599 203.367,7.91 C202.685,7.231 202.43,6.129 201.988,5.213 C203.015,4.757 204.367,3.657 205.005,3.973 C206.529,4.728 207.871,6.021 209.004,7.337 C210.601,9.191 212.002,11.128 215.139,9.997 C214.422,8.761 213.503,7.742 213.247,6.579 C212.977,5.355 213.051,3.869 213.541,2.739 C213.823,2.087 215.324,1.475 216.09,1.649 C216.804,1.813 217.862,3.141 217.752,3.784 C216.963,8.397 218.372,10.735 223.385,11.68 C225.811,12.137 228.252,14.701 229.843,16.909 C233.699,22.266 238.296,26.53 244.261,29.472 C246.215,30.435 247.946,32.037 249.453,33.646 C251.313,35.63 251.012,37.655 249.018,39.506 C244.453,43.741 242.064,44.246 236.894,40.804 C232.187,37.67 227.595,37.281 222.459,39.309 C219.487,40.483 216.361,41.32 213.017,39.606 C211.665,43.803 210.382,47.856 209.055,51.895 C201.256,75.618 190.963,98.233 178.166,119.704 C175.777,123.711 174.829,127.65 176.122,132.185 C179.473,143.938 177.037,155.188 172.38,166.013 C170.833,169.612 167.824,172.575 165.617,175.915 C164.57,177.501 163.292,179.218 163.048,181.001 C161.027,195.773 159.3,210.584 157.319,225.362 C156.487,231.562 154.796,237.677 154.347,243.891 C153.949,249.398 154.473,255.016 155.054,260.537 C155.789,267.522 156.929,274.469 158.022,281.412 C158.75,286.039 161.276,289.383 165.594,291.497 C167.329,292.345 169.035,293.562 170.275,295.014 C171.831,296.834 170.946,298.511 168.546,298.578 C163.967,298.702 159.384,298.702 154.804,298.664 C154.222,298.659 153.584,298.19 153.077,297.803 C151.513,296.608 150.082,295.223 148.44,294.153 C147.105,293.283 147.013,292.36 147.215,290.905 C147.55,288.493 147.716,286.013 147.553,283.589 C147.236,278.898 146.393,274.236 146.207,269.545 C145.512,252.064 144.995,234.574 144.412,217.088 C144.133,217.072 143.854,217.055 143.574,217.038" fill="#000000"/>
    </g>
  </g>
</svg>
