<?xml version="1.0" encoding="UTF-8"?>
<!DOCTYPE svg PUBLIC "-//W3C//DTD SVG 1.1//EN" "http://www.w3.org/Graphics/SVG/1.1/DTD/svg11.dtd">
<svg version="1.1" xmlns="http://www.w3.org/2000/svg" xmlns:xlink="http://www.w3.org/1999/xlink" x="0" y="0" width="300"
  height="300" viewBox="0, 0, 300, 300">
  <g id="Layer_1">
    <path
      d="M207.743,220.573 C208.093,221.622 207.447,223.382 205.804,225.872 C204.166,228.374 202.842,229.847 201.797,230.261 C200.768,230.706 198.527,230.928 195.077,230.928 C190.074,230.928 188.103,231.002 189.142,231.172 C182.253,230.134 178.374,229.54 177.505,229.381 C173.201,228.512 169.492,227.144 166.397,225.237 C164.833,224.209 163.043,219.376 160.976,210.759 C160.28,207.657 159.625,204.967 159.009,202.689 C158.394,200.411 157.819,198.543 157.283,197.087 C156.747,195.631 156.251,194.586 155.793,193.949 C155.454,193.441 155.025,193.198 154.511,193.198 C153.642,193.198 152.216,194.046 150.24,195.783 C148.258,197.479 146.917,198.422 146.238,198.624 C143.833,208.777 142.609,213.599 142.609,213.07 C142.609,217.045 143.727,220.383 145.969,223.149 C148.205,225.905 150.543,228.576 152.959,231.151 C155.884,234.426 157.346,237.267 157.346,239.683 C157.346,241.05 156.923,242.248 156.053,243.297 C152.434,247.77 146.398,250.017 137.956,250.017 C128.476,250.017 122.276,248.724 119.356,246.138 C115.556,242.863 113.145,239.408 112.117,235.815 C111.947,234.945 111.519,232.36 110.823,228.057 C110.479,225.46 109.7,223.924 108.508,223.415 C106.777,223.155 104.836,222.789 102.684,222.317 C100.531,221.843 98.166,221.263 95.588,220.574 C94.544,219.885 93.426,218.158 92.218,215.403 C89.987,210.071 88.344,206.447 87.305,204.55 C82.127,201.963 73.861,199.048 62.483,195.784 C62.31,196.131 62.167,196.521 62.055,196.959 C61.942,197.396 61.858,197.881 61.803,198.414 C61.748,198.947 61.721,199.529 61.721,200.161 C63.612,202.578 66.453,206.287 70.247,211.269 C73.347,215.403 74.9,219.377 74.9,223.16 C74.9,230.41 70.247,234.013 60.941,234.013 C58.587,234.013 56.481,233.958 54.625,233.846 C52.767,233.733 51.159,233.564 49.8,233.336 C48.44,233.109 47.328,232.822 46.465,232.476 C42.68,230.929 39.49,227.294 36.904,221.623 C32.596,212.127 30.185,206.786 29.665,205.588 C26.904,199.218 25.012,193.601 23.99,188.768 C23.874,188.196 23.747,187.572 23.612,186.897 C23.476,186.224 23.332,185.499 23.177,184.723 C23.024,183.947 22.86,183.121 22.687,182.243 C22.644,182.024 22.6,181.802 22.555,181.576 C22.511,181.351 22.466,181.122 22.421,180.89 C22.375,180.659 22.329,180.424 22.282,180.186 C22.236,179.948 22.188,179.707 22.14,179.463 C21.949,178.485 21.748,177.457 21.538,176.379 C21.328,175.302 21.108,174.174 20.879,172.997 C20.278,170.077 19.504,167.473 18.558,165.191 C17.611,162.909 16.492,160.946 15.199,159.309 C5.712,147.061 1.315,136.457 2.008,127.502 L2.008,127.502 C2.526,120.556 3.714,113.887 5.571,107.494 C7.428,101.101 9.956,94.985 13.153,89.144 C16.35,83.303 20.216,77.737 24.752,72.447 C40.089,54.525 59.309,45.569 82.398,45.569 C91.179,45.569 104.226,46.957 121.549,49.702 C125.88,50.394 129.943,50.999 133.74,51.517 C137.536,52.033 141.065,52.463 144.327,52.806 C147.59,53.149 150.586,53.405 153.315,53.576 C156.045,53.746 158.508,53.831 160.706,53.831 C167.426,53.831 175.632,55.085 185.324,57.59 C195.016,60.094 206.195,63.849 218.861,68.849 C223.35,70.555 228.771,75.224 235.14,82.796 C238.759,87.269 244.361,94.009 251.939,102.971 C253.661,104.184 255.908,105.987 258.669,108.413 C261.425,110.809 263.316,111.853 264.34,111.508 C264.689,110.465 265.558,109.012 266.936,107.121 C267.625,106.426 268.049,106.082 268.219,106.082 C268.749,106.426 269.257,106.771 269.776,107.121 C270.29,107.47 270.46,108.493 270.29,110.216 C269.941,113.32 269.776,114.264 269.776,113.05 C269.591,114.783 269.348,115.891 268.998,116.426 C266.756,120.21 265.887,123.146 266.417,125.202 C266.936,127.088 268.552,130.119 271.319,134.253 C274.08,138.387 275.622,141.492 275.966,143.558 C275.797,145.107 275.722,147.597 275.722,151.052 C275.506,151.589 275.29,152.128 275.074,152.665 C274.858,153.203 274.642,153.742 274.426,154.279 C274.211,154.817 273.995,155.355 273.779,155.893 C273.563,156.43 273.347,156.968 273.131,157.506 C273.131,158.713 273.481,160.136 274.18,161.775 C274.88,163.413 275.929,165.267 277.329,167.337 C280.129,171.477 284.328,176.477 289.93,182.339 C295.282,184.734 297.937,193.017 297.937,207.135 C297.937,218.178 288.811,223.679 270.555,223.679 C268.139,223.679 265.558,223.605 262.797,223.414 C260.906,222.735 258.145,221.962 254.53,221.103 C250.228,220.573 247.292,219.121 245.75,216.694 C242.984,212.752 238.5,209.031 232.3,205.587 C231.266,205.089 229.756,203.192 227.774,199.907 C225.788,196.631 224.022,194.565 222.48,193.695 C220.938,192.847 218.692,192.667 215.755,193.198 C210.758,194.045 207.997,194.48 207.488,194.48 C206.275,194.48 204.51,194.14 202.189,193.441 C201.023,193.096 200.023,192.836 199.185,192.663 C198.345,192.489 197.667,192.402 197.145,192.402 C195.946,197.924 195.676,203.266 196.371,208.427 C196.54,209.816 197.409,210.939 198.957,211.787 C201.378,213.515 202.661,214.458 202.842,214.649 C204.383,215.846 206.026,217.828 207.743,220.573 M261.818,255.597 L261.818,255.597 Q261.818,255.597 261.818,255.597 Q261.818,255.597 261.818,255.597 Q261.818,255.597 261.818,255.597 Q261.818,255.597 261.818,255.597 Q261.818,255.597 261.818,255.597 Q261.818,255.597 261.818,255.597 L261.818,255.597 z"
      fill="#000000" />
  </g>
</svg>