<?xml version="1.0" encoding="UTF-8"?>
<!DOCTYPE svg PUBLIC "-//W3C//DTD SVG 1.1//EN" "http://www.w3.org/Graphics/SVG/1.1/DTD/svg11.dtd">
<svg version="1.1" xmlns="http://www.w3.org/2000/svg" xmlns:xlink="http://www.w3.org/1999/xlink" x="0" y="0" width="300" height="300" viewBox="0, 0, 300, 300">
  <defs>
    <clipPath id="Clip_1">
      <path d="M1.092,32.708 L299.092,32.708 L299.092,269.307 L1.092,269.307 z"/>
    </clipPath>
  </defs>
  <g id="Layer_1">
    <g clip-path="url(#Clip_1)" id="Isolation_Mode">
      <path d="M107.063,189.671 C106.548,189.297 106.236,189.07 105.851,188.789 C105.822,189.036 105.762,189.189 105.797,189.316 C106.404,191.537 106.479,193.914 107.989,195.869 C108.477,196.501 108.976,197.495 107.727,198.354 C106.916,197.744 106.054,197.097 104.816,196.166 C105.051,197.396 105.112,198.262 105.384,199.056 C108.234,207.362 111.133,215.639 115.55,223.304 C116.795,225.462 118.622,226.299 120.773,226.695 C123.004,227.105 125.28,227.339 127.547,227.484 C131.982,227.767 134.505,229.562 136.016,233.694 C136.886,236.078 134.653,241.004 132.297,241.907 C131.954,242.039 131.572,242.142 131.294,242.366 C126.088,246.558 120.464,246.273 114.679,243.881 C112.491,242.976 111.404,241.239 111.064,238.87 C110.808,237.084 110.198,235.348 109.707,233.433 C109.321,233.71 109.166,233.768 109.1,233.879 C108.809,234.373 108.542,234.881 108.267,235.384 C107.862,234.822 107.272,234.312 107.092,233.685 C106.775,232.578 106.708,231.4 106.464,229.768 C105.225,230.855 104.159,231.789 102.652,233.11 C102.566,231.787 102.174,230.742 102.509,230.051 C103.974,227.034 102.778,224.934 100.956,222.444 C95.271,214.675 91.608,205.883 89.233,196.586 C88.399,193.321 88.004,189.937 87.514,186.591 C86.941,182.672 87.808,179.42 91.928,177.802 C93.14,177.326 93.288,176.329 92.945,175.176 C92.816,174.745 92.772,174.287 92.717,173.996 C90.712,175.667 88.691,177.708 86.337,179.232 C82.305,181.844 77.937,183.942 73.949,186.613 C70.405,188.984 67.107,191.746 63.848,194.509 C61.191,196.761 60.056,199.788 60.272,203.299 C60.329,204.227 60.281,205.162 60.281,206.094 C60.101,206.227 59.921,206.361 59.742,206.495 C59.551,206.033 59.359,205.571 59.169,205.109 C59.06,205.161 58.952,205.213 58.844,205.265 C58.948,206.492 59.053,207.718 59.157,208.945 C59.039,208.983 58.922,209.02 58.803,209.058 C58.271,208.448 57.74,207.84 56.943,206.926 C56.744,208.185 56.55,209.131 56.453,210.088 C55.753,216.971 55.595,223.881 57.284,230.615 C58.226,234.369 59.982,237.925 61.468,241.53 C61.638,241.943 62.443,242.338 62.946,242.33 C67.428,242.254 71.476,243.743 75.377,245.714 C77.017,246.542 78.343,247.723 78.599,249.765 C78.665,250.283 79.163,250.755 79.488,251.232 C81.77,254.585 80.907,257.805 77.278,259.584 C76.951,259.744 76.634,260.124 76.512,260.472 C75.881,262.274 74.66,263.099 72.756,262.939 C72.176,262.89 71.586,262.933 71.012,262.848 C70.128,262.716 69.455,262.801 68.82,263.62 C68.421,264.136 67.57,264.536 66.902,264.569 C63.523,264.731 60.132,264.899 56.836,263.8 C53.816,262.792 51.996,260.811 51.809,257.584 C51.694,255.608 51.787,253.621 51.787,251.503 C51.416,251.453 50.886,251.382 50.014,251.265 C50.687,250.388 51.215,249.697 51.899,248.805 L49.445,248.805 C50.163,247.83 50.64,247.183 51.124,246.524 C50.298,245.406 49.398,244.189 48.499,242.972 C48.601,242.854 48.702,242.735 48.804,242.617 C49.28,242.657 49.756,242.698 50.39,242.752 C49.166,240.733 47.956,238.836 46.841,236.883 C41.974,228.354 39.008,219.189 38.171,209.413 C37.78,204.842 37.695,200.222 37.853,195.636 C37.944,192.989 38.425,190.156 40.86,188.412 C42.035,187.57 43.402,186.78 44.792,186.489 C49.75,185.452 55.19,177.448 52.853,171.6 C50.029,164.536 47.372,157.399 44.33,150.43 C42.46,146.149 40.783,141.841 39.652,137.315 C39.592,137.078 39.494,136.85 39.032,136.62 C38.561,142.299 38.181,147.988 37.595,153.655 C37.013,159.276 37.339,164.982 36.301,170.558 C36.141,170.564 35.981,170.57 35.821,170.575 C35.547,169.039 35.274,167.503 35.001,165.966 C34.861,165.974 34.721,165.981 34.581,165.988 C34.382,167.204 34.291,168.451 33.96,169.631 C33.349,171.803 32.601,173.935 31.899,176.08 C31.768,176.478 31.505,176.844 31.435,177.248 C31.163,178.821 30.678,180.136 29.429,181.368 C27.882,182.894 26.714,184.849 25.579,186.737 C23.878,189.567 21.574,191.775 18.986,193.739 C18.818,193.866 18.618,194.043 18.435,194.039 C16.324,193.999 15.718,195.86 14.55,197.033 C13.776,197.812 12.845,198.431 12.017,199.16 C11.641,199.492 11.288,199.882 11.027,200.308 C9.315,203.101 7.67,205.934 5.906,208.692 C5.56,209.232 4.794,209.503 4.221,209.897 C4.096,209.786 3.971,209.676 3.846,209.564 C3.625,210.534 3.471,211.527 3.156,212.465 C2.996,212.943 2.547,213.326 2.228,213.752 C1.925,213.316 1.372,212.888 1.358,212.443 C1.214,208.051 1.098,203.659 2.531,199.394 C2.924,198.225 3.048,196.965 3.295,195.746 C3.156,195.705 3.017,195.664 2.878,195.622 C2.562,196.379 2.245,197.136 1.929,197.894 C1.733,197.896 1.537,197.898 1.34,197.899 C1.256,197.226 1.026,196.534 1.11,195.882 C1.872,189.921 3.635,184.338 7.772,179.533 C6.051,179.29 4.718,181.066 2.901,179.814 C3.537,179.254 3.979,178.756 4.518,178.406 C9.42,175.223 13.661,171.395 16.554,166.23 C16.885,165.641 17.2,165.042 17.629,164.253 C15.945,164.972 14.491,165.592 13.038,166.212 C12.955,166.054 12.873,165.896 12.79,165.738 C13.84,164.678 15.014,163.712 15.918,162.539 C19.19,158.291 20.566,153.274 21.057,148.075 C21.448,143.932 21.394,139.734 21.331,135.563 C21.215,127.982 21.753,120.466 24.783,113.455 C28.393,105.105 34.426,98.901 42.746,95.032 C54.723,89.463 67.332,85.71 79.952,81.969 C85.07,80.452 90.116,78.695 95.192,77.037 C95.426,76.96 95.632,76.793 96.011,76.577 C94.368,75.294 92.354,74.445 92.06,71.903 C98.248,73.087 104.141,73.072 110.08,69.987 C108.877,69.753 108.049,69.593 106.828,69.356 C108.788,67.269 111.22,67.109 113.609,66.323 C112.155,65.764 110.974,65.309 109.696,64.817 C111.991,64.456 114.092,64.159 116.176,63.774 C116.721,63.674 117.291,63.394 117.725,63.042 C119.876,61.3 121.984,59.506 123.795,57.992 C124.47,57.162 124.801,56.376 125.372,56.118 C128.063,54.901 130.848,53.89 133.543,52.678 C134.942,52.049 136.165,51.025 137.568,50.413 C139.978,49.36 142.466,48.486 144.925,47.548 C145.169,47.454 145.505,47.51 145.688,47.36 C149.252,44.459 153.613,44.115 157.895,43.512 C157.983,43.499 158.058,43.396 158.365,43.164 C156.89,42.783 155.58,42.444 154.268,42.106 C154.264,41.948 154.26,41.79 154.256,41.632 C155.437,41.366 156.607,40.994 157.803,40.865 C159.005,40.735 160.234,40.823 161.451,40.861 C162.704,40.9 163.956,40.994 165.431,41.076 C164.828,40.178 164.373,39.498 163.865,38.742 C166.128,38.424 168.115,38.144 170.276,37.84 C169.931,37.413 169.694,37.12 169.294,36.624 C174.14,34.143 179.07,35.135 184.168,35.281 C183.304,34.596 182.438,33.913 181.572,33.228 C181.696,33.055 181.82,32.881 181.943,32.708 C182.445,32.872 182.939,33.069 183.45,33.196 C186.201,33.885 188.956,34.562 191.713,35.226 C191.901,35.271 192.205,35.266 192.312,35.151 C194.206,33.133 196.594,34.169 198.724,34.265 C202.683,34.443 206.351,35.803 209.85,37.686 C212.26,38.985 214.907,39.867 217.239,41.282 C220.255,43.112 223.048,45.306 225.965,47.301 C227.03,48.029 228.178,48.634 229.491,49.037 C229.109,48.402 228.726,47.768 228.343,47.133 C228.486,47.011 228.63,46.888 228.774,46.766 C234.299,48.995 237.147,53.963 240.462,58.803 C240.362,57.91 240.287,57.237 240.169,56.179 C242.515,57.774 242.98,60.296 244.566,62.118 C244.79,61.712 244.98,61.366 245.467,60.482 C246.233,62.025 246.827,63.222 247.289,64.154 C248.392,63.394 249.588,62.569 250.784,61.746 C250.948,61.802 251.112,61.858 251.276,61.914 C250.979,64.671 249.801,67.537 251.929,69.994 C252.716,68.372 252.955,68.339 254.23,69.82 C255.898,71.758 257.532,73.725 259.223,75.731 C259.828,73.754 258.614,71.542 260.096,69.36 C260.914,71.245 261.621,72.873 262.391,74.646 C263.629,72.735 263.922,72.764 264.872,74.545 C265.82,76.318 266.792,78.078 267.799,79.817 C267.974,80.121 268.353,80.331 268.677,80.517 C269.358,80.907 270.065,81.253 270.762,81.618 C270.907,81.844 271.052,82.07 271.198,82.295 C274.245,79.01 277.253,75.685 280.363,72.46 C281.568,71.212 282.918,70.06 284.354,69.087 C288.774,66.092 294.097,67.459 296.325,72.332 C297.363,74.603 297.976,77.132 298.395,79.61 C299.211,84.428 299.481,89.286 298.257,94.109 C296.86,99.606 293.515,103.67 289.06,107.015 C284.866,110.164 280.289,110.617 275.006,109.311 C274.4,112.35 273.765,115.373 273.201,118.411 C272.671,121.267 272.501,124.228 271.63,126.971 C271.054,128.785 269.706,130.471 268.364,131.894 C267.085,133.251 265.233,134.053 263.871,135.35 C261.784,137.337 259.781,139.44 257.963,141.674 C255.54,144.654 253.805,148.19 250.674,150.605 C250.331,150.87 250.201,151.41 249.973,151.822 C249.744,152.238 249.563,152.973 249.277,153.015 C247.579,153.268 247.52,154.746 247.002,155.855 C243.282,163.831 236.364,165.155 228.392,162.049 C222.814,159.874 219.706,155.708 218.783,149.677 C218.321,146.661 216.994,143.779 216.072,140.831 C214.985,137.352 213.952,133.854 212.809,130.393 C212.56,129.642 212.473,128.412 211.141,128.702 C209.894,128.974 208.576,129.035 208.234,130.83 C207.514,134.618 206.682,138.393 205.696,142.121 C203.898,148.914 201.859,155.646 200.11,162.451 C199.259,165.767 198.626,169.173 198.303,172.577 C198.141,174.28 198.897,176.072 199.238,177.823 C199.459,178.962 200.153,180.273 199.814,181.209 C198.571,184.644 200.365,187.968 199.852,191.333 C199.501,193.638 199.092,195.976 201.927,197.416 C201.783,197.605 201.636,197.793 201.491,197.983 C200.232,197.784 198.974,197.584 197.538,197.357 C197.67,198.453 197.92,199.527 197.903,200.597 C197.873,202.602 197.751,204.612 197.519,206.603 C197.465,207.074 196.827,207.478 196.458,207.912 C196.299,207.852 196.14,207.791 195.981,207.731 C196.32,211.565 196.591,215.407 197.015,219.233 C197.657,225.024 199.857,230.378 201.819,235.799 C202.389,237.371 203.614,237.568 204.974,237.664 C207.611,237.848 210.247,238.036 212.884,238.216 C215.029,238.362 216.405,239.449 217.036,241.516 C217.298,242.373 217.766,243.178 217.942,244.046 C218.082,244.737 218.177,245.647 217.845,246.183 C216.896,247.72 215.991,249.528 214.567,250.47 C212.502,251.833 210.067,252.783 207.662,253.452 C204.146,254.431 200.731,253.371 197.457,252.064 C193.884,250.637 192.398,248.193 192.615,244.395 C192.653,243.716 192.738,243.04 192.839,241.968 C192.217,242.442 191.865,242.768 191.458,243.002 C191.125,243.193 190.73,243.273 190.363,243.403 C190.267,242.969 190.023,242.502 190.111,242.11 C190.231,241.572 190.602,241.092 190.938,240.449 L188.358,240.449 C188.271,240.332 188.183,240.215 188.095,240.098 C188.607,239.585 189.037,238.928 189.646,238.588 C191.163,237.74 191.146,236.859 190.33,235.401 C186.263,228.13 182.838,220.533 180.768,212.468 C179.447,207.326 178.995,201.961 178.154,196.696 C178.123,196.499 178.097,196.302 177.701,195.999 C177.117,197.811 176.533,199.623 175.93,201.491 C174.197,200.327 173.947,196.718 174.992,190.532 C173.535,190.656 173.776,189.663 173.872,188.773 C173.97,187.879 173.984,186.955 174.23,186.1 C174.857,183.934 174.336,182.037 173.401,180.043 C170.731,174.348 169.449,168.246 168.564,161.817 C168.261,162.148 168.029,162.295 167.956,162.499 C166.384,166.875 164.619,171.199 163.344,175.661 C162.465,178.737 162.182,181.999 161.826,185.199 C161.737,185.997 162.214,187.015 162.737,187.699 C164.453,189.945 165.232,192.47 165.707,195.592 C164.774,194.982 164.217,194.619 163.935,194.435 C164.237,197.049 164.528,199.739 164.873,202.422 C164.937,202.928 165.279,203.394 165.385,203.9 C165.787,205.843 166.244,207.785 166.486,209.751 C166.651,211.088 165.876,211.282 164.802,210.654 C164.004,210.187 163.191,209.743 162.103,209.13 C162.103,210.809 162.059,212.164 162.11,213.515 C162.519,224.223 164.414,234.624 168.428,244.611 C169.055,246.172 170.026,246.976 171.567,247.363 C174.335,248.06 177.133,248.681 179.829,249.597 C181.441,250.144 183.324,250.847 184.3,252.095 C185.809,254.022 186.901,256.389 187.692,258.732 C188.439,260.941 186.871,263.217 184.609,264.166 C184.132,264.365 183.545,264.739 183.38,265.174 C182.655,267.085 181.212,267.648 179.357,267.578 C178.775,267.557 178.181,267.55 177.618,267.426 C176.653,267.214 175.94,267.366 175.291,268.23 C174.957,268.675 174.23,268.988 173.647,269.053 C169.727,269.498 165.82,269.451 162.048,268.131 C159.532,267.25 157.732,265.603 157.446,262.806 C157.221,260.592 157.191,258.358 157.262,256.126 C157.125,255.429 155.421,257.032 155.871,255.22 C156.027,254.587 156.86,254.122 157.652,253.304 L154.861,253.304 C155.567,252.41 156.061,251.786 156.507,251.22 C155.614,250.027 154.703,248.809 153.791,247.591 L154.087,247.249 C154.56,247.289 155.034,247.331 155.556,247.377 C152.893,242.883 150.272,238.462 147.599,233.952 C147.441,234.217 147.326,234.502 147.133,234.716 C146.703,235.189 146.235,235.627 145.782,236.079 C145.456,235.517 144.991,234.992 144.829,234.386 C144.318,232.47 143.92,230.523 143.098,228.497 C142.593,229.653 142.089,230.809 141.46,232.251 C138.926,227.219 139.216,222.261 140.309,217.234 C140.189,217.184 140.067,217.134 139.946,217.084 C139.525,217.873 139.156,218.698 138.658,219.436 C138.408,219.808 137.924,220.024 137.546,220.31 C137.349,219.911 136.956,219.496 136.986,219.115 C137.25,215.854 137.627,212.603 137.889,209.343 C137.978,208.227 138.045,207.04 137.77,205.978 C135.502,197.233 132.967,188.554 130.892,179.765 C129.622,174.381 129.02,168.84 128.111,163.37 C128.078,163.172 127.971,162.985 127.903,162.802 C118.952,164.283 106.481,180.182 107.063,189.671" fill="#000000"/>
    </g>
  </g>
</svg>
