<?xml version="1.0" encoding="UTF-8"?>
<!DOCTYPE svg PUBLIC "-//W3C//DTD SVG 1.1//EN" "http://www.w3.org/Graphics/SVG/1.1/DTD/svg11.dtd">
<svg version="1.1" xmlns="http://www.w3.org/2000/svg" xmlns:xlink="http://www.w3.org/1999/xlink" x="0" y="0" width="300" height="300" viewBox="0, 0, 300, 300">
  <g id="Layer_1">
    <path d="M32.001,86.792 C33.81,87.122 34.762,88.297 35.665,89.746 C35.887,90.161 36.376,90.463 36.799,90.702 C39.241,92.084 41.631,91.244 43.788,90.08 C45.419,89.199 46.392,89.471 47.446,90.847 C48.002,91.575 48.649,92.412 49.427,92.726 C51.167,93.431 52.986,94.101 54.822,94.319 C59.905,94.924 65.011,95.309 70.111,95.74 C71.912,95.892 73.807,96.341 75.511,95.943 C83.336,94.117 90.341,95.591 96.754,100.771 C104.859,107.318 114.233,109.441 124.236,108.866 C129.854,108.543 135.456,107.78 141.075,107.604 C146.298,107.439 151.547,108.077 156.764,107.845 C164.824,107.487 172.862,106.607 180.917,106.097 C191.695,105.414 202.304,106.469 212.456,110.58 C223.165,114.918 230.609,122.605 233.897,134.516 C235.624,140.77 236.284,147.125 236.23,153.58 C236.108,168.069 240.652,180.975 248.275,192.736 C254.008,201.581 261.952,206.454 272.338,206.307 C276.547,206.247 280.763,206.109 284.963,206.311 C287.546,206.436 290.198,206.823 292.651,207.652 C296.11,208.82 297.608,212.348 296.775,216.242 C295.846,220.585 293.533,222.616 289.577,222.261 C286.638,221.997 283.696,221.588 280.799,221.001 C273.491,219.521 266.124,218.238 258.935,216.252 C250.973,214.053 243.94,209.81 238.816,202.778 C231.209,192.339 226.769,180.521 225.659,167.349 C225.566,166.23 225.349,165.123 225.138,163.663 C224.765,164.204 224.636,164.334 224.574,164.493 C224.422,164.881 224.289,165.278 224.167,165.679 C222.232,172.03 222.055,178.35 223.885,184.823 C226.367,193.597 229.733,201.757 236.272,208.088 C237.02,208.811 237.573,209.755 238.241,210.574 C239.342,211.929 239.524,213.361 239.012,215.098 C238.235,217.728 237.695,220.437 237.05,223.111 C236.351,226.01 235.925,229.023 234.889,231.781 C232.836,237.25 230.487,242.598 228.176,247.954 C227.177,250.269 225.897,252.421 223.562,253.54 C219.65,255.414 215.62,255.299 211.564,254.232 C209.9,253.794 208.69,252.791 208.584,250.78 C208.485,248.902 209.463,247.117 211.223,246.335 C212.152,245.922 213.187,245.762 214.183,245.533 C216.419,245.015 218.526,244.261 219.372,241.708 C220.67,237.795 221.934,233.87 223.129,229.922 C223.895,227.393 223.874,224.827 222.991,222.307 C222.281,220.279 221.354,218.305 220.896,216.217 C220.087,212.528 217.981,209.91 215.324,207.622 C208.602,201.835 202.965,194.983 198.36,187.273 C195.272,182.104 192.769,176.546 189.977,171.178 C189.449,170.164 188.794,169.224 188.198,168.251 L187.458,168.223 C186.654,170.153 185.543,172.009 185.095,174.028 C182.859,184.119 184.108,193.944 187.501,203.549 C188.216,205.572 189.018,207.566 189.611,209.627 C190.092,211.297 189.561,212.765 188.432,214.09 C184.932,218.201 181.544,222.419 178.013,226.499 C176.72,227.995 175.295,229.47 173.681,230.53 C167.937,234.302 162.115,237.949 156.256,241.52 C154.397,242.654 152.38,243.569 150.342,244.288 C147.605,245.254 144.907,243.789 143.918,241.08 C143.015,238.604 144.122,236.171 146.799,234.781 C147.258,234.543 147.725,234.311 148.21,234.144 C155.809,231.528 161.462,226.089 166.452,219.816 C172.175,212.622 172.935,204.705 168.899,196.309 C167.483,193.363 166.099,190.393 164.578,187.507 C162.487,183.54 161.631,179.228 160.964,174.809 C160.522,171.884 160.035,171.796 157.456,172.834 C153.214,174.542 148.981,176.325 144.634,177.68 C137.317,179.959 129.686,179.963 122.152,180.533 C117.738,180.868 113.278,181.111 108.875,180.803 C106.467,180.635 105.112,181.237 104.102,183.4 C99.428,193.395 93,202.108 86.332,210.659 C84.976,212.398 83.975,214.465 82.929,216.451 C82.229,217.778 82.482,219.001 83.796,219.852 C86.116,221.356 88.461,222.819 90.734,224.401 C94.134,226.766 97.554,229.116 100.809,231.691 C101.949,232.594 102.358,234.232 101.682,235.811 C101.013,237.376 99.675,237.88 98.193,237.969 C95.404,238.136 92.776,237.456 90.299,236.106 C86.501,234.039 82.704,231.969 78.803,229.843 C78.281,231.107 77.699,232.527 77.108,233.945 C74.95,239.124 72.097,243.771 67.985,247.491 C66.059,249.233 63.932,250.808 61.38,250.169 C57.367,249.164 53.381,247.896 49.538,246.317 C47.159,245.339 47.299,241.785 49.682,240.637 C50.723,240.136 52.1,240.236 53.303,240.341 C54.359,240.434 55.378,241.131 56.424,241.16 C57.352,241.187 58.659,240.982 59.17,240.329 C62.995,235.448 66.515,230.334 67.642,223.893 C69.643,212.459 70.482,200.89 71.166,189.302 C71.478,184.011 70.782,178.86 69.652,173.753 C69.012,170.859 67.787,168.32 65.108,166.901 C59.717,164.047 57.009,159.187 55.999,153.118 C55.466,149.922 55.283,146.646 54.549,143.509 C54.149,141.803 53.264,139.842 52,138.828 C49.775,137.042 47.222,135.465 44.572,134.568 C39.282,132.776 33.83,131.517 28.452,130.012 C26.871,129.569 25.468,129.885 24.028,130.675 C22.169,131.696 20.265,132.688 18.284,133.384 C16.017,134.18 13.758,133.803 11.813,132.23 C9.761,130.57 9.779,129.246 12.413,127.128 C11.84,126.861 11.465,126.714 11.116,126.517 C9.476,125.591 7.86,124.617 6.205,123.723 C3.185,122.091 2.417,119.11 2.098,115.936 C2.019,115.147 2.352,114.133 2.825,113.494 C3.978,111.94 5.375,110.589 6.577,109.072 C7.709,107.646 8.908,106.14 8.405,104.077 C7.434,100.1 8.277,97.912 11.282,95.328 C14.794,92.307 18.795,91.18 23.174,91.22 C24.66,91.233 25.721,90.841 26.627,89.502 C27.224,88.619 28.175,87.876 29.117,87.403 C30.708,86.753 29.765,87.029 32.001,86.792 z" fill="#000000"/>
  </g>
</svg>
