<?xml version="1.0" encoding="UTF-8"?>
<!DOCTYPE svg PUBLIC "-//W3C//DTD SVG 1.1//EN" "http://www.w3.org/Graphics/SVG/1.1/DTD/svg11.dtd">
<svg version="1.1" xmlns="http://www.w3.org/2000/svg" xmlns:xlink="http://www.w3.org/1999/xlink" x="0" y="0" width="300" height="300" viewBox="0, 0, 300, 300">
  <g id="Layer_1">
    <path d="M32.397,68.195 C34.206,68.525 35.158,69.7 36.061,71.149 C36.283,71.564 36.772,71.866 37.195,72.105 C39.637,73.487 42.027,72.647 44.184,71.483 C45.815,70.602 46.788,70.874 47.842,72.25 C48.398,72.978 49.045,73.815 49.823,74.129 C51.563,74.834 53.382,75.504 55.218,75.722 C60.301,76.327 65.407,76.712 70.507,77.143 C72.308,77.295 74.203,77.744 75.907,77.346 C83.732,75.52 90.737,76.994 97.15,82.174 C105.255,88.721 114.629,90.844 124.632,90.269 C130.25,89.946 135.852,89.183 141.471,89.007 C146.694,88.842 151.943,89.48 157.16,89.248 C165.22,88.89 173.258,88.01 181.313,87.5 C192.091,86.817 202.7,87.872 212.852,91.983 C223.561,96.321 231.005,104.008 234.293,115.919 C236.02,122.173 236.68,128.528 236.626,134.983 C236.504,149.472 241.048,162.378 248.671,174.139 C254.404,182.984 262.348,187.857 272.734,187.71 C276.943,187.65 281.159,187.512 285.359,187.714 C287.942,187.839 290.594,188.226 293.047,189.055 C296.506,190.223 298.004,193.751 297.171,197.645 C296.242,201.988 293.929,204.019 289.973,203.664 C287.034,203.4 284.092,202.991 281.195,202.404 C273.887,200.924 266.52,199.641 259.331,197.655 C251.369,195.456 244.336,191.213 239.212,184.181 C231.605,173.742 227.165,161.924 226.055,148.752 C225.962,147.633 225.745,146.526 225.534,145.066 C225.161,145.607 225.032,145.737 224.97,145.896 C224.818,146.284 224.685,146.681 224.563,147.082 C222.628,153.433 222.451,159.753 224.281,166.226 C226.763,175 230.129,183.16 236.668,189.491 C237.416,190.214 237.969,191.158 238.637,191.977 C239.738,193.332 239.92,194.764 239.408,196.501 C238.631,199.131 238.091,201.84 237.446,204.514 C236.747,207.413 236.321,210.426 235.285,213.184 C233.232,218.653 230.883,224.001 228.572,229.357 C227.573,231.672 226.293,233.824 223.958,234.943 C220.046,236.817 216.016,236.702 211.96,235.635 C210.296,235.197 209.086,234.194 208.98,232.183 C208.881,230.305 209.859,228.52 211.619,227.738 C212.548,227.325 213.583,227.165 214.579,226.936 C216.815,226.418 218.922,225.664 219.768,223.111 C221.066,219.198 222.33,215.273 223.525,211.325 C224.291,208.796 224.27,206.23 223.387,203.71 C222.677,201.682 221.75,199.708 221.292,197.62 C220.483,193.931 218.377,191.313 215.72,189.025 C208.998,183.238 203.361,176.386 198.756,168.676 C195.668,163.507 193.165,157.949 190.373,152.581 C189.845,151.567 189.19,150.627 188.594,149.654 L187.854,149.626 C187.05,151.556 185.939,153.412 185.491,155.431 C183.255,165.522 184.504,175.347 187.897,184.952 C188.612,186.975 189.414,188.969 190.007,191.03 C190.488,192.7 189.957,194.168 188.828,195.493 C185.328,199.604 181.94,203.822 178.409,207.902 C177.116,209.398 175.691,210.873 174.077,211.933 C168.333,215.705 162.511,219.352 156.652,222.923 C154.793,224.057 152.776,224.972 150.738,225.691 C148.001,226.657 145.303,225.192 144.314,222.483 C143.411,220.007 144.518,217.574 147.195,216.184 C147.654,215.946 148.121,215.714 148.606,215.547 C156.205,212.931 161.858,207.492 166.848,201.219 C172.571,194.025 173.331,186.108 169.295,177.712 C167.879,174.766 166.495,171.796 164.974,168.91 C162.883,164.943 162.027,160.631 161.36,156.212 C160.918,153.287 160.431,153.199 157.852,154.237 C153.61,155.945 149.377,157.728 145.03,159.083 C137.713,161.362 130.082,161.366 122.548,161.936 C118.134,162.271 113.674,162.514 109.271,162.206 C106.863,162.038 105.508,162.64 104.498,164.803 C99.824,174.798 93.396,183.511 86.728,192.062 C85.372,193.801 84.371,195.868 83.325,197.854 C82.625,199.181 82.878,200.404 84.192,201.255 C86.512,202.759 88.857,204.222 91.13,205.804 C94.53,208.169 97.95,210.519 101.205,213.094 C102.345,213.997 102.754,215.635 102.078,217.214 C101.409,218.779 100.071,219.283 98.589,219.372 C95.8,219.539 93.172,218.859 90.695,217.509 C86.897,215.442 83.1,213.372 79.199,211.246 C78.677,212.51 78.095,213.93 77.504,215.348 C75.346,220.527 72.493,225.174 68.381,228.894 C66.455,230.636 64.328,232.211 61.776,231.572 C57.763,230.567 53.777,229.299 49.934,227.72 C47.555,226.742 47.695,223.188 50.078,222.04 C51.119,221.539 52.496,221.639 53.699,221.744 C54.755,221.837 55.774,222.534 56.82,222.563 C57.748,222.59 59.055,222.385 59.566,221.732 C63.391,216.851 66.911,211.737 68.038,205.296 C70.039,193.862 70.878,182.293 71.562,170.705 C71.874,165.414 71.178,160.263 70.048,155.156 C69.408,152.262 68.183,149.723 65.504,148.304 C60.113,145.45 57.405,140.59 56.395,134.521 C55.862,131.325 55.679,128.049 54.945,124.912 C54.545,123.206 53.66,121.245 52.396,120.231 C50.171,118.445 47.618,116.868 44.968,115.971 C39.678,114.179 34.226,112.92 28.848,111.415 C27.267,110.972 25.864,111.288 24.424,112.078 C22.565,113.099 20.661,114.091 18.68,114.787 C16.413,115.583 14.154,115.206 12.209,113.633 C10.157,111.973 10.175,110.649 12.809,108.531 C12.236,108.264 11.861,108.117 11.512,107.92 C9.872,106.994 8.256,106.02 6.601,105.126 C3.581,103.494 2.813,100.513 2.494,97.339 C2.415,96.55 2.748,95.536 3.221,94.897 C4.374,93.343 5.771,91.992 6.973,90.475 C8.105,89.049 9.304,87.543 8.801,85.48 C7.83,81.503 8.673,79.315 11.678,76.731 C15.19,73.71 19.191,72.583 23.57,72.623 C25.056,72.636 26.117,72.244 27.023,70.905 C27.62,70.022 28.571,69.279 29.513,68.806 C31.104,68.156 30.161,68.432 32.397,68.195 z" fill="#000000"/>
  </g>
</svg>
