<?xml version="1.0" encoding="UTF-8"?>
<!DOCTYPE svg PUBLIC "-//W3C//DTD SVG 1.1//EN" "http://www.w3.org/Graphics/SVG/1.1/DTD/svg11.dtd">
<svg version="1.1" xmlns="http://www.w3.org/2000/svg" xmlns:xlink="http://www.w3.org/1999/xlink" x="0" y="0" width="300" height="300" viewBox="0, 0, 300, 300">
  <defs>
    <clipPath id="Clip_1">
      <path d="M277.399,0.367 L23.25,0.367 L23.25,298.367 L277.399,298.367 z"/>
    </clipPath>
  </defs>
  <g id="Layer_1">
    <g clip-path="url(#Clip_1)" id="Isolation_Mode">
      <path d="M221.804,114.983 C223.339,117.234 227.36,117.56 225.484,121.948 C225.283,122.418 226.398,124.093 227.122,124.272 C231.43,125.341 235.774,126.352 240.163,126.936 C242.783,127.285 245.379,124.718 248.252,126.676 C248.686,126.972 250.134,125.941 250.976,125.326 C258.851,119.57 263.245,111.292 266.035,102.143 C268.179,95.118 269.54,87.841 271.256,80.636 C271.383,80.622 271.674,80.492 271.808,80.59 C272.981,81.435 274.126,82.32 275.28,83.194 C275.874,81.691 276.83,80.23 277.007,78.676 C279.022,61.073 273.066,45.795 263.761,31.53 C263.237,30.726 262.694,29.935 262.194,29.117 C262.083,28.935 262.117,28.658 262.054,28.192 C262.888,27.771 263.784,27.32 265.222,26.596 C261.983,22.533 257.971,20.108 253.892,17.857 C236.776,8.412 217.382,13.195 205.982,29.184 C198.743,39.337 189.291,38.727 181.08,34.432 C180.251,34 178.933,33.51 178.811,32.856 C178.103,29.031 175.324,28.588 171.572,28.591 C172.756,26.883 173.628,25.817 174.275,24.623 C174.64,23.948 175.017,22.663 174.716,22.361 C174.162,21.806 172.955,21.346 172.299,21.601 C169.782,22.58 167.397,23.911 164.923,25.013 C159.339,27.502 153.867,30.363 148.099,32.274 C141.546,34.444 135.483,32.476 130.397,27.761 C124.881,22.645 119.804,16.974 113.971,12.284 C98.168,-0.429 80.784,-3.199 62.146,5.077 C58.06,6.891 54.268,9.346 51.953,14.299 C54.031,14.577 55.678,14.799 57.965,15.105 C44.539,31.655 43.045,50.276 46.669,70.706 C48.008,69.883 48.643,69.626 49.102,69.176 C49.599,68.688 49.932,68.024 50.665,66.962 C51.586,72.559 51.934,77.492 53.256,82.134 C56.481,93.456 62.358,102.636 74.07,106.385 C75.647,106.89 77.138,107.627 78.238,105.314 C78.531,104.698 80.292,104.679 81.389,104.63 C85.779,104.435 90.118,104.184 93.384,100.289 C92.851,99.59 92.372,98.964 91.743,98.141 C92.406,97.809 93.261,97.26 93.34,97.36 C93.873,98.033 94.588,98.837 94.603,99.61 C94.692,104.178 94.238,108.785 94.661,113.311 C95.358,120.771 98.776,127.215 103.318,132.912 C105.51,135.66 105.136,137.287 102.378,138.891 C93.051,144.315 83.782,149.843 74.401,155.159 C53.942,166.75 37.555,182.307 29.199,205.262 C22.102,224.762 20.264,244.545 29.774,263.873 C37.645,279.87 50.748,289.895 67.396,293.995 C86.917,298.803 106.933,299.338 126.876,297.093 C134.22,296.264 141.399,293.912 147.649,289.386 C148.39,288.85 149.79,288.462 150.496,288.818 C156.89,292.045 162.825,289.666 168.537,287.084 C173.843,284.686 178.223,284.709 182.041,289.685 C183.195,291.191 184.697,292.449 186.163,293.665 C190.239,297.046 193.44,297.004 197.678,293.923 C199.662,292.479 202.78,291.879 203.794,289.994 C206.251,285.424 210.871,281.999 210.681,275.827 C210.616,273.657 212.884,271.489 213.761,269.188 C214.519,267.194 215.622,264.816 215.181,262.957 C213.108,254.236 206.335,248.819 197.612,249.205 C191.516,249.473 185.439,250.613 179.396,251.634 C175.868,252.23 174.801,251.826 174.45,248.167 C173.904,242.497 173.678,236.795 173.126,231.126 C172.812,227.877 172.129,224.667 171.606,221.441 C171.331,219.746 171.273,218.125 173.56,218.08 C186.165,217.83 198.778,217.291 211.378,217.504 C219.667,217.645 226.535,221.634 231.787,228.357 C232.67,229.486 233.53,230.909 234.72,231.434 C235.852,231.934 238.139,231.988 238.641,231.28 C241.147,227.746 244.738,224.623 244.176,219.526 C244.123,219.062 244.052,218.337 244.299,218.139 C248.018,215.155 246.022,211.403 245.958,207.757 C245.893,204.008 245.264,200.087 248.371,196.654 C250.814,193.954 248.04,185.544 243.823,182.47 C240.98,180.398 237.742,178.618 234.422,177.579 C226.649,175.145 218.697,173.322 210.859,171.087 C202.91,168.822 195.013,166.352 187.088,163.987 C184.974,163.357 183.626,162.394 183.813,159.68 C183.982,157.251 184.437,155.758 186.996,154.836 C196.093,151.555 204.452,146.879 211.376,139.821 C217.229,133.856 220.733,126.8 220.815,118.169 C220.822,117.448 220.928,116.726 221.045,116.014 C221.079,115.807 221.311,115.636 221.804,114.983" fill="#000000"/>
    </g>
  </g>
</svg>
