<?xml version="1.0" encoding="UTF-8"?>
<!DOCTYPE svg PUBLIC "-//W3C//DTD SVG 1.1//EN" "http://www.w3.org/Graphics/SVG/1.1/DTD/svg11.dtd">
<svg version="1.1" xmlns="http://www.w3.org/2000/svg" xmlns:xlink="http://www.w3.org/1999/xlink" x="0" y="0" width="300" height="300" viewBox="0, 0, 300, 300">
  <g id="Layer_1">
    <g>
      <path d="M274.811,0.965 L266.732,1.052 C27.174,1.419 31.931,1.306 29.024,1.289 C15.754,1.209 1.596,11.928 1.596,25.05 C1.661,33.277 6.017,40.417 11.741,45.747 L11.727,45.751 L255.239,289.555 C260.213,295.49 267.738,298.58 275.441,298.965 C288.71,298.965 299.468,288.327 299.468,275.205 C299.379,274.318 299.452,273.414 299.305,272.532 L299.084,30.959 C299.056,30.851 299.014,29.356 299.084,26.012 C299.361,12.893 288.081,0.965 274.811,0.965 L274.811,0.965 z" fill="#FFFFFF" fill-opacity="0.8"/>
      <path d="M274.811,0.965 L266.732,1.052 C27.174,1.419 31.931,1.306 29.024,1.289 C15.754,1.209 1.596,11.928 1.596,25.05 C1.661,33.277 6.017,40.417 11.741,45.747 L11.727,45.751 L255.239,289.555 C260.213,295.49 267.738,298.58 275.441,298.965 C288.71,298.965 299.468,288.327 299.468,275.205 C299.379,274.318 299.452,273.414 299.305,272.532 L299.084,30.959 C299.056,30.851 299.014,29.356 299.084,26.012 C299.361,12.893 288.081,0.965 274.811,0.965 L274.811,0.965 z" fill-opacity="0" stroke="#000000" stroke-width="2"/>
    </g>
  </g>
  <g id="Layer_3">
    <path d="M249.773,33.88 L299.26,83.367 L299.26,225.295 L299.406,225.149 L299.406,279.318 L272.321,252.234 L272.409,252.146 L151.957,131.695 L173.137,110.515 L143.11,110.515 L143.11,84.515 L109.777,84.515 L109.777,34.515 L212.443,34.515 L212.443,45.848 L227.11,45.848 L227.11,56.542 L249.773,33.88 z" fill="#000000" fill-opacity="0.25"/>
  </g>
  <g id="Layer_2">
    <path d="M99.41,31.811 C88.662,31.811 79.949,40.54 79.949,51.308 C80.131,57.039 82.498,63.286 87.431,66.624 L227.032,206.483 C234.449,213.914 246.622,213.765 254.222,206.151 C261.822,198.537 261.97,186.341 254.553,178.911 L146.648,70.805 L240.559,70.805 C251.307,70.805 260.02,62.076 260.02,51.308 C260.02,40.54 251.307,31.811 240.559,31.811 L99.41,31.811 z" fill="#000000"/>
  </g>
</svg>
