<?xml version="1.0" encoding="UTF-8"?>
<!DOCTYPE svg PUBLIC "-//W3C//DTD SVG 1.1//EN" "http://www.w3.org/Graphics/SVG/1.1/DTD/svg11.dtd">
<svg version="1.1" xmlns="http://www.w3.org/2000/svg" xmlns:xlink="http://www.w3.org/1999/xlink" x="0" y="0" width="300" height="300" viewBox="0, 0, 300, 300">
  <g id="Layer_1">
    <g>
      <path d="M274.811,0.965 L266.732,1.052 C27.174,1.419 31.931,1.306 29.024,1.289 C15.754,1.209 1.596,11.928 1.596,25.05 C1.661,33.277 6.017,40.417 11.741,45.747 L11.727,45.751 L255.239,289.555 C260.213,295.49 267.738,298.58 275.441,298.965 C288.71,298.965 299.468,288.327 299.468,275.205 C299.379,274.318 299.452,273.414 299.305,272.532 L299.084,30.959 C299.056,30.851 299.014,29.356 299.084,26.012 C299.361,12.893 288.081,0.965 274.811,0.965 L274.811,0.965 z" fill="#FFFFFF" fill-opacity="0.7"/>
      <path d="M274.811,0.965 L266.732,1.052 C27.174,1.419 31.931,1.306 29.024,1.289 C15.754,1.209 1.596,11.928 1.596,25.05 C1.661,33.277 6.017,40.417 11.741,45.747 L11.727,45.751 L255.239,289.555 C260.213,295.49 267.738,298.58 275.441,298.965 C288.71,298.965 299.468,288.327 299.468,275.205 C299.379,274.318 299.452,273.414 299.305,272.532 L299.084,30.959 C299.056,30.851 299.014,29.356 299.084,26.012 C299.361,12.893 288.081,0.965 274.811,0.965 L274.811,0.965 z" fill-opacity="0" stroke="#000000" stroke-width="2"/>
    </g>
  </g>
  <g id="Layer_3">
    <path d="M253.047,35.602 L300.38,82.935 L299.26,225.295 L299.406,225.149 L299.406,279.318 L272.321,252.234 L272.409,252.146 L136.047,116.602 L173.137,110.515 L143.11,110.515 L156.38,97.935 L171.714,99.602 L177.714,85.602 L206.714,63.268 L212.443,45.848 L227.11,45.848 L227.11,56.542 L253.047,35.602 z" fill="#000000" fill-opacity="0.25"/>
  </g>
  <g id="Layer_2">
    <path d="M140.267,86.379 L232.066,33.379 C241.154,28.132 252.774,31.246 258.021,40.333 L258.021,40.333 C263.267,49.421 260.154,61.041 251.066,66.288 L159.267,119.288 C150.18,124.535 138.56,121.421 133.313,112.333 L133.313,112.333 C128.066,103.246 131.18,91.626 140.267,86.379 z" fill="#000000"/>
    <path d="M241.056,31.837 C248.283,31.855 254.137,35.329 258.021,41.333 C263.267,50.421 260.154,62.041 251.066,67.288 L187.767,103.833 L251.066,140.379 C260.154,145.626 263.267,157.246 258.021,166.333 C252.774,175.421 241.154,178.535 232.066,173.288 L140.267,120.288 L139.995,120.112 C139.735,119.985 139.877,120.067 139.582,119.845 C138.333,119.037 138.916,119.481 137.829,118.519 C136.675,117.646 137.141,118.097 136.373,117.229 C135.503,116.459 135.955,116.926 135.081,115.77 C134.119,114.685 134.563,115.267 133.756,114.018 C133.533,113.724 133.615,113.865 133.489,113.606 L133.313,113.333 C132.336,111.425 132.632,112.217 132.238,111.037 C131.778,110.093 132.023,110.684 131.629,109.214 C131.169,107.837 131.28,108.432 131.159,107.459 C130.915,106.55 131.039,107.138 130.936,105.671 C130.749,104.174 130.739,104.788 130.806,103.833 C130.739,102.878 130.749,103.492 130.936,101.995 C131.039,100.529 130.915,101.116 131.158,100.208 C131.28,99.234 131.168,99.83 131.629,98.451 C132.023,96.982 131.778,97.574 132.238,96.63 C132.632,95.45 132.336,96.241 133.313,94.333 L133.489,94.061 C133.616,93.801 133.533,93.943 133.756,93.648 C134.563,92.4 134.12,92.982 135.081,91.897 C135.955,90.741 135.503,91.208 136.372,90.438 C137.142,89.569 136.675,90.021 137.831,89.147 C138.916,88.186 138.334,88.629 139.582,87.822 C139.877,87.599 139.735,87.682 139.995,87.555 L140.267,87.379 L232.066,34.379 C235.085,32.536 237.654,32.26 241.056,31.837 z" fill="#000000"/>
  </g>
</svg>
