<?xml version="1.0" encoding="UTF-8"?>
<!DOCTYPE svg PUBLIC "-//W3C//DTD SVG 1.1//EN" "http://www.w3.org/Graphics/SVG/1.1/DTD/svg11.dtd">
<svg version="1.1" xmlns="http://www.w3.org/2000/svg" xmlns:xlink="http://www.w3.org/1999/xlink" x="0" y="0" width="228" height="405" viewBox="0, 0, 228, 405">
  <defs>
    <linearGradient id="Gradient_1" gradientUnits="userSpaceOnUse" x1="1.725" y1="202.976" x2="226.522" y2="202.976">
      <stop offset="0" stop-color="#FFFFFF" stop-opacity="0.501"/>
      <stop offset="1" stop-color="#FFFFFF" stop-opacity="0.3"/>
    </linearGradient>
  </defs>
  <g id="Layer_1">
    <path d="M219.72,184.853 L213.946,179.202 C44.293,10.068 47.737,13.352 45.693,11.284 C36.367,1.844 18.776,-0.587 9.497,8.691 C3.726,14.555 1.757,22.683 2.036,30.5 L2.023,30.493 L1.817,375.077 C1.137,382.791 4.273,390.297 9.448,396.016 C18.83,405.399 33.96,405.483 43.238,396.205 C43.803,395.515 44.493,394.927 45.013,394.199 L215.675,223.225 C215.731,223.129 216.759,222.042 219.173,219.727 C228.645,210.647 229.103,194.236 219.72,184.853 L219.72,184.853 z" fill="#FFFFFF" fill-opacity="0.74"/>
    <g>
      <path d="M219.72,184.853 L213.946,179.202 C44.293,10.068 47.737,13.352 45.693,11.284 C36.367,1.844 18.776,-0.587 9.497,8.691 C3.726,14.555 1.757,22.683 2.036,30.5 L2.023,30.493 L1.817,375.077 C1.137,382.791 4.273,390.297 9.448,396.016 C18.83,405.399 33.96,405.483 43.238,396.205 C43.803,395.515 44.493,394.927 45.013,394.199 L215.675,223.225 C215.731,223.129 216.759,222.042 219.173,219.727 C228.645,210.647 229.103,194.236 219.72,184.853 L219.72,184.853 z" fill="url(#Gradient_1)"/>
      <path d="M219.72,184.853 L213.946,179.202 C44.293,10.068 47.737,13.352 45.693,11.284 C36.367,1.844 18.776,-0.587 9.497,8.691 C3.726,14.555 1.757,22.683 2.036,30.5 L2.023,30.493 L1.817,375.077 C1.137,382.791 4.273,390.297 9.448,396.016 C18.83,405.399 33.96,405.483 43.238,396.205 C43.803,395.515 44.493,394.927 45.013,394.199 L215.675,223.225 C215.731,223.129 216.759,222.042 219.173,219.727 C228.645,210.647 229.103,194.236 219.72,184.853 L219.72,184.853 z" fill-opacity="0" stroke="#000000" stroke-width="2"/>
    </g>
  </g>
  <g id="Layer_3">
    <path d="M20.634,211.05 L140.62,133.197 L222.866,215.45 L123.95,314.366 L20.634,211.05 z" fill="#000000" fill-opacity="0.25"/>
  </g>
  <g id="Layer_2">
    <path d="M128.434,129.099 C135.661,129.118 141.515,132.591 145.399,138.596 C150.645,147.683 147.532,159.304 138.444,164.55 L75.145,201.096 L138.444,237.641 C147.532,242.888 150.645,254.508 145.399,263.596 C140.152,272.683 128.532,275.797 119.444,270.55 L27.645,217.55 L27.373,217.374 C27.113,217.248 27.255,217.33 26.96,217.107 C25.711,216.3 26.294,216.744 25.208,215.782 C24.053,214.909 24.519,215.36 23.751,214.491 C22.881,213.721 23.333,214.188 22.459,213.033 C21.498,211.947 21.941,212.529 21.134,211.281 C20.911,210.986 20.994,211.128 20.867,210.868 L20.691,210.596 C19.714,208.688 20.01,209.479 19.616,208.3 C19.156,207.355 19.401,207.947 19.007,206.477 C18.547,205.099 18.658,205.695 18.537,204.722 C18.293,203.813 18.417,204.4 18.314,202.934 C18.127,201.437 18.117,202.051 18.184,201.096 C18.117,200.141 18.128,200.755 18.314,199.257 C18.417,197.791 18.293,198.379 18.536,197.471 C18.658,196.497 18.547,197.093 19.007,195.713 C19.401,194.245 19.156,194.836 19.616,193.892 C20.01,192.712 19.714,193.504 20.691,191.596 L20.867,191.324 C20.994,191.063 20.911,191.205 21.134,190.91 C21.941,189.662 21.498,190.244 22.459,189.159 C23.333,188.003 22.881,188.47 23.75,187.701 C24.52,186.832 24.053,187.283 25.209,186.409 C26.294,185.448 25.712,185.892 26.96,185.085 C27.255,184.862 27.113,184.944 27.373,184.817 L27.645,184.641 L119.444,131.641 C122.463,129.799 125.033,129.523 128.434,129.099 z" fill="#000000"/>
  </g>
</svg>
