<?xml version="1.0" encoding="UTF-8"?>
<!DOCTYPE svg PUBLIC "-//W3C//DTD SVG 1.1//EN" "http://www.w3.org/Graphics/SVG/1.1/DTD/svg11.dtd">
<svg version="1.1" xmlns="http://www.w3.org/2000/svg" xmlns:xlink="http://www.w3.org/1999/xlink" x="0" y="0" width="300" height="300" viewBox="0, 0, 300, 300">
  <g id="Layer_1">
    <path d="M87.92,187.609 C91.061,185.34 92.369,181.924 91.144,179.101 C89.987,182.157 88.953,184.882 87.92,187.609 M110.184,257.757 C108.769,254.792 109.499,252.019 112.412,250.412 C114.099,249.482 115.975,248.726 117.857,248.347 C122.078,247.496 124.025,245.376 124.288,241.008 C124.764,233.116 123.226,225.541 120.951,218.044 C119.34,212.735 117.933,207.362 116.427,202.019 C116.343,201.72 116.194,201.439 115.972,200.897 C115.387,201.262 114.866,201.486 114.468,201.847 C103.534,211.779 91.301,219.946 78.996,228.02 C77.195,229.202 75.458,230.488 73.746,231.798 C71.902,233.209 70.415,234.839 69.877,237.267 C69.477,239.071 68.309,240.526 66.299,240.727 C60.677,241.285 56.047,244.492 50.897,246.286 C48.618,247.08 46.059,247.212 43.613,247.335 C41.956,247.418 40.078,244.716 39.58,242.071 C39.001,238.995 39.969,236.656 43.014,235.079 C46.37,233.34 49.864,231.842 53.373,230.428 C56.618,229.121 58.73,226.823 60.744,224.007 C65.949,216.732 71.353,209.58 77.033,202.671 C79.088,200.174 79.881,197.785 79.401,194.581 C77.462,195.719 76.954,194.443 76.507,192.923 C76.293,192.197 76.017,191.369 75.498,190.869 C69.362,184.976 65,177.899 61.518,170.217 C61.416,169.993 61.251,169.797 60.618,168.82 C59.504,170.242 58.667,171.563 57.579,172.624 C56.604,173.574 55.351,174.24 54.22,175.031 C54.082,173.652 53.778,172.267 53.837,170.896 C53.974,167.696 54.293,164.504 54.518,161.308 C54.566,160.628 54.525,159.942 54.525,159.26 C54.344,159.199 54.162,159.138 53.981,159.077 C53.572,159.758 53.256,160.52 52.737,161.102 C51.406,162.593 50.096,164.14 48.562,165.399 C47.505,166.269 46.699,165.612 46.695,164.279 C46.693,163.502 46.872,162.724 46.962,161.947 C47.586,156.556 48.217,151.167 48.821,145.774 C48.899,145.086 48.832,144.382 48.832,143.686 L48.245,143.598 C47.821,145.632 47.443,147.678 46.944,149.695 C46.771,150.391 46.296,151.013 45.959,151.668 C45.366,151.123 44.43,150.675 44.242,150.014 C43.386,147.019 42.734,143.965 42.027,140.928 C41.886,140.321 41.824,139.696 41.639,138.529 C40.69,139.783 40.078,140.657 39.399,141.475 C37.854,143.332 36.322,145.205 34.677,146.971 C34.274,147.404 33.458,147.45 32.831,147.674 C32.745,147.059 32.557,146.439 32.587,145.83 C32.807,141.535 33.097,137.243 33.295,132.947 C33.327,132.239 33.017,131.515 32.874,130.837 C32.465,130.863 32.264,130.821 32.221,130.886 C30.101,134.065 26.502,135.618 23.992,138.373 C23.135,139.313 22.24,140.391 21.13,140.899 C17.272,142.663 11.699,139.661 11.602,135.379 C11.524,131.983 10.556,129.251 8.318,126.744 C7.402,125.718 7.076,124.179 6.423,122.903 C5.892,121.866 5.409,120.76 4.671,119.88 C2.023,116.723 1.876,113.49 4.517,110.322 C6.274,108.213 8.16,106.21 10.024,104.193 C12.914,101.068 14.94,97.539 16.103,93.376 C16.634,91.48 18.223,89.858 19.429,88.182 C20.014,87.368 20.824,86.714 21.82,85.69 C19.922,85.69 18.503,85.794 17.11,85.644 C16.477,85.576 15.897,85.008 15.294,84.667 C15.627,84.086 15.828,83.337 16.316,82.952 C20.774,79.42 25.283,75.952 29.776,72.465 C30.326,72.039 30.874,71.613 31.996,70.743 C29.856,69.908 28.244,69.168 26.561,68.661 C25.386,68.308 24.102,68.334 22.89,68.079 C22.129,67.919 21.409,67.554 20.671,67.281 C21.243,66.574 21.689,65.457 22.409,65.237 C24.626,64.559 26.93,64.029 29.235,63.822 C30.838,63.677 31.642,63.387 31.579,61.592 C31.541,60.493 31.958,59.377 32.17,58.27 C33.176,58.782 34.195,59.27 35.184,59.812 C36.181,60.358 37.149,60.957 38.495,61.747 C38.259,60.092 37.998,58.963 37.98,57.829 C37.97,57.273 38.28,56.542 38.699,56.216 C38.925,56.041 39.736,56.476 40.198,56.771 C42.831,58.448 45.362,60.304 48.079,61.826 C50.156,62.99 52.514,62.86 54.771,62.162 C57.561,61.3 58.84,59.559 59.165,56.563 C59.234,55.929 59.664,55.333 59.927,54.72 C60.454,55.14 61.23,55.453 61.464,55.998 C62.668,58.803 63.854,61.628 64.794,64.527 C65.259,65.966 65.739,66.537 67.248,65.95 C70.545,64.67 73.646,65.052 76.52,67.183 C77.089,67.604 77.737,68.004 78.411,68.186 C87.954,70.777 96.96,74.768 105.992,78.689 C107.382,79.293 109.134,79.605 108.654,81.874 C108.601,82.121 109.381,82.71 109.866,82.879 C112.64,83.847 115.416,84.821 118.238,85.632 C123.143,87.043 126.625,90.236 129.631,94.178 C130.267,95.011 131.394,95.604 132.415,95.985 C135.714,97.217 139.032,98.433 142.417,99.395 C144.786,100.068 147.261,100.556 149.715,100.717 C161.997,101.524 174.126,100.266 186.179,97.875 C199.738,95.185 213.44,94.13 227.158,96.175 C246.717,99.092 263.388,111.422 268.954,132.508 C271.258,141.233 271.758,150.064 271.322,158.964 C270.821,169.171 270.524,179.352 271.94,189.507 C272.498,193.519 273.129,197.522 273.808,201.516 C273.956,202.392 274.304,203.302 274.794,204.041 C277.18,207.631 279.76,211.098 282.027,214.758 C282.952,216.25 283.231,218.133 283.864,219.816 C284.376,221.173 284.736,222.682 285.587,223.8 C287.911,226.851 290.479,229.716 292.9,232.694 C293.379,233.283 293.681,234.035 293.985,234.747 C294.727,236.487 295.276,238.326 296.164,239.986 C298.576,244.492 298.813,249.341 298.499,254.245 C298.445,255.084 297.444,256.181 296.607,256.573 C295.44,257.118 294.077,256.79 293.45,255.418 C292.26,252.813 291.087,250.193 290.044,247.528 C288.665,244.008 287.57,240.369 286.063,236.908 C284.998,234.461 283.45,232.225 281.961,229.622 C280.511,231.715 279.98,233.893 279.819,236.14 C279.501,240.576 279.321,245.022 279.058,249.463 C278.88,252.468 277.674,254.228 274.698,254.624 C270.709,255.156 266.655,255.295 262.627,255.329 C261.846,255.336 260.651,254.235 260.338,253.39 C258.703,248.959 261.426,244.064 266.057,242.785 C266.686,242.61 267.432,242.634 267.938,242.291 C268.487,241.919 269.198,241.221 269.19,240.674 C269.118,235.574 269.264,230.432 268.623,225.393 C268.092,221.215 265.517,217.857 262.238,215.129 C256.657,210.486 251.056,205.867 245.595,201.087 C243.295,199.072 241.306,196.697 239.234,194.431 C238.854,194.014 238.763,193.333 238.539,192.774 C238.182,192.963 237.824,193.152 237.467,193.343 C236.654,196.667 235.888,200.005 235.019,203.316 C233.247,210.054 234.456,216.698 235.632,223.33 C236.207,226.577 235.877,229.498 233.217,231.724 C225.246,238.392 217.183,244.953 209.27,251.689 C205.351,255.025 201.033,256.001 196.114,254.891 C195.671,254.791 195.156,254.63 194.76,254.76 C191.226,255.919 188.422,254.045 185.626,252.464 C184.832,252.015 183.985,250.724 184.048,249.885 C184.186,248.051 184.646,246.146 185.422,244.478 C186.485,242.193 188.368,240.898 191.114,241.226 C193.644,241.528 196.19,241.846 198.729,241.852 C199.925,241.855 201.294,241.398 202.289,240.717 C206.914,237.549 210.1,233.063 213.093,228.43 C215.264,225.069 215.064,221.283 214.178,217.782 C212.695,211.918 210.686,206.176 208.699,200.452 C206.493,194.102 203.747,187.924 201.856,181.489 C200.754,177.742 200.856,173.637 200.442,169.691 C200.372,169.02 200.432,168.333 200.432,167.655 C200.14,167.454 199.848,167.252 199.555,167.052 C199.13,167.761 198.805,168.559 198.265,169.166 C193.49,174.527 188.357,179.391 181.4,181.916 C175.902,183.91 170.282,184.164 164.574,183.477 C159.317,182.844 154.084,182.004 148.823,181.427 C146.298,181.15 143.729,181.272 141.18,181.198 C139.843,181.16 139.107,181.694 139.037,183.118 C138.937,185.141 138.626,187.16 138.612,189.181 C138.508,203.835 138.457,218.488 138.388,233.142 C138.384,233.927 138.302,234.717 138.368,235.496 C138.949,242.422 136.259,248.558 133.638,254.679 C133.13,255.865 131.891,256.739 130.989,257.757 z" fill="#000000"/>
  </g>
</svg>
