<?xml version="1.0" encoding="UTF-8"?>
<!DOCTYPE svg PUBLIC "-//W3C//DTD SVG 1.1//EN" "http://www.w3.org/Graphics/SVG/1.1/DTD/svg11.dtd">
<svg version="1.1" xmlns="http://www.w3.org/2000/svg" xmlns:xlink="http://www.w3.org/1999/xlink" x="0" y="0" width="300" height="300" viewBox="0, 0, 300, 300">
  <defs>
    <clipPath id="Clip_1">
      <path d="M1.667,28.773 L299.667,28.773 L299.667,275.333 L1.667,275.333 z"/>
    </clipPath>
  </defs>
  <g id="Layer_1">
    <g clip-path="url(#Clip_1)" id="Isolation_Mode">
      <path d="M299.667,240.205 C299.352,240.675 298.902,241.103 298.743,241.621 C297.961,244.171 297.059,244.712 294.483,244.041 C294.218,243.972 293.955,243.898 293.702,243.829 C293.613,244.006 293.504,244.118 293.524,244.197 C293.785,245.215 294.638,246.522 293.353,247.12 C292.279,247.62 290.718,247.771 289.622,247.379 C287.587,246.651 285.594,245.609 283.835,244.346 C280.179,241.722 276.059,240.458 271.743,239.595 C270.392,239.326 269.077,238.86 267.719,238.638 C266.463,238.433 265.174,238.435 263.899,238.346 C263.803,238.55 263.707,238.754 263.611,238.958 C264.206,239.57 264.75,240.242 265.405,240.78 C267.31,242.346 269.371,243.74 271.142,245.441 C272.039,246.302 272.7,247.613 273.01,248.836 C273.528,250.882 271.974,252.41 269.915,251.921 C268.55,251.597 267.19,250.999 265.995,250.255 C261.259,247.306 256.645,244.159 251.874,241.27 C249.113,239.599 247.651,237.469 248.095,234.195 C248.734,229.466 247.293,225.53 244.594,221.51 C237.567,211.036 230.683,200.47 222.546,190.816 C219.008,186.618 215.665,182.327 212.932,177.568 C212.765,177.278 212.64,176.962 212.497,176.658 C212.341,176.749 212.187,176.839 212.031,176.93 C211.82,177.534 211.607,178.137 211.325,178.941 C209.548,177.169 208.965,175.007 208.305,172.901 C207.979,171.862 207.794,170.776 207.577,169.706 C207.23,168.004 207.233,167.994 205.299,167.967 C205.212,166.876 205.124,165.764 205.011,164.356 C203.907,164.895 202.975,165.351 201.948,165.853 C201.921,165.515 201.829,165.269 201.895,165.078 C203.877,159.304 202.731,153.542 201.561,147.872 C200.773,144.062 199.316,140.389 198.139,136.662 C198.004,136.234 197.737,135.847 197.489,135.354 C197.069,135.476 196.675,135.531 196.338,135.699 C190.522,138.591 184.723,141.519 178.893,144.382 C177.812,144.913 177.559,145.443 178.199,146.508 C184.953,157.722 189.084,170.067 193.597,182.252 C195.597,187.65 197.857,192.932 201.178,197.7 C203.61,201.194 207.171,203.275 210.778,205.102 C216.672,208.088 222.73,210.764 228.808,213.361 C231.961,214.707 233.938,216.633 234.269,220.178 C234.531,222.981 235.32,225.751 235.393,228.549 C235.442,230.412 234.306,232.297 234.3,234.174 C234.289,237.922 231.201,238.475 228.904,239.71 C227.475,240.479 226.007,239.557 225.316,238.142 C223.982,235.409 222.834,232.585 221.609,229.8 C221.244,228.972 220.877,228.146 220.512,227.319 C220.379,227.365 220.246,227.41 220.114,227.455 C220.699,229.552 221.316,231.641 221.859,233.749 C222.115,234.746 222.321,235.775 222.386,236.799 C222.502,238.63 221.213,239.662 219.625,238.783 C218.394,238.103 217.273,236.946 216.524,235.74 C215.319,233.796 214.37,231.675 213.485,229.558 C212.823,227.975 211.785,227.14 210.145,226.669 C205.783,225.413 201.452,224.045 197.139,222.633 C194.032,221.615 192.365,219.037 190.278,216.693 C187.678,213.771 187.274,209.415 183.505,207.3 C182.258,206.601 181.475,204.822 180.811,203.382 C177.31,195.801 172.368,189.293 166.371,183.544 C165.927,183.119 165.454,182.726 165.176,182.479 C159.771,189.837 154.313,196.972 149.211,204.352 C147.111,207.389 145.665,210.904 144.126,214.294 C143.171,216.4 143.939,217.225 146.275,216.727 C149.93,215.946 153.542,214.975 157.19,214.168 C159.092,213.748 161.024,213.439 162.958,213.208 C164.811,212.986 166.357,213.791 167.568,215.129 C170.118,217.944 172.649,220.78 175.102,223.68 C176.731,225.607 176.544,226.929 174.816,228.783 C174.49,229.133 174.374,229.923 174.511,230.412 C174.853,231.632 175.665,233.147 174.28,233.811 C173.165,234.345 171.548,234.092 170.224,233.833 C169.4,233.672 168.671,232.89 167.96,232.314 C167.065,231.59 166.235,230.787 165.371,230.027 C159.298,224.694 161.499,225.453 152.755,225.739 C150.629,225.809 148.502,226.057 146.396,226.364 C145.571,226.484 144.801,226.99 144.006,227.32 L143.98,228.061 C145.558,228.596 147.113,229.208 148.716,229.646 C150.652,230.175 152.668,230.439 154.567,231.065 C155.282,231.3 156.224,232.22 156.234,232.841 C156.244,233.502 155.403,234.397 154.708,234.812 C150.569,237.282 146.109,236.236 141.727,235.782 C137.279,235.321 132.877,234.059 128.357,234.934 C125.139,235.556 121.943,236.295 118.738,236.986 C111.806,238.48 109.497,236.2 110.544,229.461 C111.608,222.613 114.63,216.322 117.997,210.261 C118.351,209.624 118.685,208.976 119.028,208.333 C118.904,208.189 118.781,208.045 118.657,207.901 C118.025,208.345 117.278,208.686 116.778,209.248 C112.991,213.503 109.147,217.714 105.527,222.108 C101.336,227.194 96.985,232.077 91.456,235.76 C84.35,240.494 76.644,243.355 68.068,244.34 C59.749,245.293 51.946,243.339 44.046,241.509 C43.01,241.269 41.829,240.497 40.79,242.315 C42.934,243.517 44.971,244.892 47.19,245.844 C49.983,247.043 52.934,247.868 55.799,248.905 C58.572,249.907 59.386,250.946 59.362,253.908 C59.317,259.462 59.849,264.939 61.026,270.368 C61.502,272.569 60.094,273.741 57.853,273.114 C57.096,272.903 56.341,272.54 56.037,273.617 C55.642,275.016 54.557,275.27 53.366,275.328 C52.103,275.389 51.128,274.856 50.573,273.684 C49.639,271.708 48.731,269.721 47.791,267.748 C47.562,267.267 47.253,266.825 46.979,266.365 L46.441,266.57 C46.784,267.84 47.235,269.093 47.434,270.385 C47.58,271.328 47.777,272.73 47.271,273.208 C46.304,274.118 44.864,273.908 43.808,272.961 C42.699,271.968 41.461,271.006 40.682,269.775 C36.708,263.508 31.11,259.37 24.358,256.5 C20.876,255.019 17.565,253.123 14.228,251.32 C13.129,250.726 12.137,249.897 11.191,249.066 C8.759,246.927 8.563,243.049 10.902,240.791 C12.467,239.28 14.285,238.031 16.006,236.685 C18.272,234.915 20.526,233.127 22.839,231.419 C23.961,230.591 24.032,230.013 22.939,229.031 C18.393,224.947 14.079,220.647 10.601,215.564 C6.848,210.078 4.27,204.1 2.876,197.621 C0.344,185.859 2.08,174.415 5.398,163.05 C10.426,145.821 22.414,135.587 38.779,129.984 C45.885,127.551 53.302,126.033 60.535,123.953 C62.324,123.438 64.013,122.458 65.638,121.504 C70.648,118.564 75.699,115.787 81.141,113.631 C84.272,112.391 86.942,109.962 89.777,108.009 C97.166,102.917 104.538,97.8 111.906,92.679 C118.798,87.889 126.488,84.895 134.487,82.595 C140.51,80.863 146.559,79.219 152.553,77.394 C154.171,76.902 155.83,76.136 157.125,75.075 C160.341,72.437 164.021,70.741 167.792,69.154 C170.335,68.084 172.836,66.911 175.39,65.866 C176.522,65.402 176.719,64.922 176.382,63.655 C175.71,61.123 175.217,58.506 175.02,55.897 C174.78,52.701 173.803,49.848 172.159,47.144 C171.6,46.224 171.091,45.196 170.894,44.155 C170.526,42.22 171.71,41.264 173.555,41.975 C174.67,42.403 175.686,43.095 176.726,43.702 C177.315,44.045 177.865,44.456 178.706,45.02 C179.231,43.855 179.603,42.791 180.168,41.841 C180.895,40.62 181.536,38.946 182.649,38.453 C184.204,37.766 185.33,36.912 186.202,35.552 C186.279,35.432 186.57,35.297 186.64,35.346 C188.373,36.549 189.037,34.741 190.019,34.075 C192.356,32.495 194.569,30.732 197.5,30.346 C197.94,30.288 198.54,30.145 198.746,29.832 C199.784,28.249 201.056,28.773 202.366,29.285 C202.577,29.367 202.818,29.486 203.025,29.455 C207.554,28.782 212.027,29.845 216.507,29.856 C219.785,29.864 221.582,31.704 223.693,33.454 C226.254,35.578 228.827,37.686 231.501,39.887 C231.407,40.075 231.105,40.388 231.147,40.645 C231.259,41.332 231.384,42.094 231.777,42.621 C231.975,42.886 232.861,42.889 233.281,42.688 C235.176,41.778 237.019,41.005 239.231,41.543 C241.552,42.109 242.962,43.576 242.57,45.951 C242.162,48.432 241.243,50.824 240.686,53.287 C240.244,55.236 239.876,57.222 239.719,59.21 C239.477,62.255 239.087,65.146 236.547,67.305 C236.014,67.758 235.624,68.7 235.627,69.414 C235.652,74.999 232.432,79.132 229.531,83.417 C229.378,83.642 229.059,84.002 228.931,83.959 C227.555,83.5 227.641,84.637 227.586,85.301 C227.462,86.821 226.861,86.853 225.537,86.498 C224.846,86.312 223.885,87.021 223.099,87.43 C223.002,87.48 223.097,88.336 223.338,88.533 C226.632,91.243 227.525,95.061 228.019,98.965 C228.544,103.127 228.637,107.343 229.186,111.499 C229.476,113.697 230.516,115.788 230.9,117.983 C232.174,125.235 232.039,132.56 231.604,139.87 C231.274,145.397 232.118,150.529 234.853,155.487 C239.295,163.541 241.319,172.551 244.396,181.147 C246.076,185.84 248.204,190.401 250.485,194.84 C253.69,201.078 257.16,207.183 260.665,213.26 C261.462,214.64 262.789,215.757 264.008,216.843 C268.243,220.614 273.518,221.975 278.869,223.224 C282.618,224.1 286.314,225.21 289.996,226.342 C291.001,226.651 291.873,227.409 292.79,227.985 C293.028,228.135 293.214,228.374 293.416,228.578 C295.761,230.977 298.509,233.054 299.667,236.401 z" fill="#000000"/>
    </g>
  </g>
</svg>
