<?xml version="1.0" encoding="UTF-8"?>
<!DOCTYPE svg PUBLIC "-//W3C//DTD SVG 1.1//EN" "http://www.w3.org/Graphics/SVG/1.1/DTD/svg11.dtd">
<svg version="1.1" xmlns="http://www.w3.org/2000/svg" xmlns:xlink="http://www.w3.org/1999/xlink" x="0" y="0" width="300" height="300" viewBox="0, 0, 300, 300">
  <defs>
    <clipPath id="Clip_1">
      <path d="M1.555,94.852 L299.555,94.852 L299.555,206.971 L1.555,206.971 z"/>
    </clipPath>
  </defs>
  <g id="Layer_1">
    <g clip-path="url(#Clip_1)" id="Isolation_Mode">
      <path d="M22.769,202.626 C23.251,204.181 23.634,205.417 24.116,206.971 C21.997,205.846 21.239,204.192 20.934,202.318 C20.701,200.885 20.366,199.94 18.556,200.067 C17.752,200.124 16.822,199.496 16.07,198.995 C14.025,197.635 11.783,197.024 9.086,196.708 C9.329,198.514 9.537,200.063 9.745,201.612 C9.516,201.662 9.286,201.713 9.057,201.763 C8.724,200.423 8.194,199.094 8.114,197.739 C8.038,196.464 7.587,195.652 6.54,195.046 C5.578,194.489 4.621,193.92 3.698,193.303 C1.543,191.859 0.961,189.604 2.189,187.334 C4.775,182.553 7.441,177.815 9.967,173.002 C10.773,171.467 11.197,169.736 11.887,168.134 C12.222,167.358 12.656,166.569 13.232,165.962 C15.634,163.419 18.107,160.946 20.552,158.445 C21.409,157.568 22.194,156.604 23.131,155.823 C25.381,153.947 25.365,154.004 24.028,151.287 C22.779,148.752 21.767,146.118 22.316,143.209 C22.85,140.374 24.494,138.195 27.087,137.098 C28.279,136.593 30.093,136.587 31.246,137.142 C34.337,138.629 37.398,140.308 40.139,142.354 C42.447,144.078 44.381,144.188 46.889,142.957 C60.715,136.166 74.841,130.104 90.016,126.991 C95.324,125.902 100.739,125.278 106.131,124.672 C112.117,123.999 118.131,123.569 124.136,123.077 C126.29,122.901 128.475,123.007 130.608,122.708 C134.291,122.19 137.371,120.25 140.397,118.201 C147.907,113.117 155.43,108.051 162.998,103.055 C166.636,100.653 170.576,98.885 174.922,98.161 C175.211,98.113 175.495,98.036 175.785,98.006 C179.297,97.649 180.008,98.433 179.406,101.862 C179.073,103.76 178.947,105.698 178.553,107.581 C178.138,109.563 177.467,111.489 176.992,113.46 C175.921,117.896 174.833,122.355 176.023,126.941 C176.872,130.215 177.882,133.447 178.783,136.707 C179.191,138.183 180.364,138.066 181.463,138.076 C185.216,138.11 188.747,137.125 192.166,135.659 C198.935,132.755 205.657,129.726 212.498,127.002 C215,126.006 217.772,125.324 220.448,125.22 C223.979,125.081 225.053,126.502 224.264,129.913 C223.775,132.026 222.804,134.117 221.65,135.97 C219.772,138.988 219.152,141.812 221.401,144.905 C222.109,145.88 222.652,147.062 222.944,148.231 C223.373,149.952 224.453,150.124 225.834,149.801 C229.133,149.03 232.458,148.341 235.705,147.387 C246.019,144.357 256.443,141.661 266.303,137.238 C272.783,134.331 278.383,130.102 283.784,125.628 C285.809,123.951 287.476,121.681 288.838,119.401 C290.841,116.047 292.413,112.438 294.187,108.947 C295.94,105.497 295.189,102 294.464,98.483 C293.865,95.577 295.27,94.209 298.088,95.144 C298.74,95.36 299.35,96.607 299.445,97.44 C299.828,100.809 299.185,104.089 298,107.244 C297.138,109.54 296.118,111.777 295.199,114.054 C293.867,117.351 292.759,120.756 291.197,123.94 C289.22,127.971 286.95,131.865 284.687,135.748 C280.32,143.245 275.507,150.424 269.161,156.438 C267.547,157.967 265.691,159.271 264.246,160.938 C262.392,163.082 260.711,165.407 259.208,167.812 C258.346,169.191 258.197,170.808 258.899,172.522 C259.946,175.078 258.998,176.393 256.193,176.553 C253.387,176.712 250.77,175.953 248.224,174.803 C242.313,172.13 236.397,169.463 230.434,166.904 C228.714,166.167 226.834,165.803 225.027,165.268 C224.878,165.448 224.729,165.629 224.579,165.809 C225.631,167.778 226.571,169.817 227.769,171.692 C228.706,173.159 230.03,174.372 231.043,175.798 C231.47,176.396 231.538,177.249 231.769,177.988 C231.059,178.084 230.311,178.379 229.647,178.249 C219.029,176.16 208.998,172.319 199.269,167.696 C195.755,166.026 192.242,165.101 188.334,165.006 C182.609,164.868 176.895,164.287 171.175,163.9 C170.592,163.861 170.006,163.858 169.421,163.844 C168.102,163.813 167.685,164.356 167.978,165.703 C168.575,168.442 168.776,171.29 169.612,173.946 C170.317,176.185 171.714,178.202 172.753,180.343 C173.143,181.148 173.386,182.024 173.696,182.867 C172.766,183.021 171.775,183.464 170.916,183.283 C162.112,181.423 153.291,179.593 145.449,174.814 C142.635,173.1 139.785,172.523 136.451,173.736 C132.126,175.31 127.613,176.368 123.185,177.659 C122.815,177.766 122.469,177.954 122.049,178.401 C139.051,184.961 155.385,193.303 173.681,196.11 C173.671,196.334 173.661,196.559 173.651,196.784 C171.807,197.176 169.924,198.031 168.126,197.878 C161.495,197.314 154.859,196.624 148.285,195.597 C136.34,193.732 124.916,189.882 113.521,185.972 C112.195,185.517 110.84,185.141 109.487,184.772 C106.372,183.923 103.319,183.89 100.178,184.927 C94.077,186.942 87.864,188.625 81.779,190.687 C77.084,192.277 72.632,194.678 67.864,195.937 C57.253,198.74 46.648,201.761 35.607,202.46 C32.108,202.68 28.589,202.581 25.079,202.625 C24.445,202.633 23.811,202.626 22.769,202.626" fill="#000000"/>
    </g>
  </g>
</svg>
