<?xml version="1.0" encoding="UTF-8"?>
<!DOCTYPE svg PUBLIC "-//W3C//DTD SVG 1.1//EN" "http://www.w3.org/Graphics/SVG/1.1/DTD/svg11.dtd">
<svg version="1.1" xmlns="http://www.w3.org/2000/svg" xmlns:xlink="http://www.w3.org/1999/xlink" x="0" y="0" width="300" height="300" viewBox="0, 0, 300, 300">
  <g id="Layer_1">
    <path d="M78.804,5.488 C79.28,6.536 80.175,7.589 80.159,8.629 C80.096,12.898 82.319,15.811 85.257,18.499 C88.426,21.399 91.467,24.44 94.53,27.453 C95.57,28.475 96.639,28.835 98.178,28.751 C104.759,28.395 111.357,28.003 117.938,28.137 C121.121,28.203 123.543,27.29 125.692,25.222 C128.844,22.19 131.595,18.902 133.396,14.798 C135.132,10.837 137.325,7.075 139.316,3.225 C139.386,3.09 139.411,2.924 139.502,2.809 C139.897,2.31 140.307,1.823 140.712,1.332 C141.193,1.915 141.873,2.424 142.12,3.093 C143.401,6.55 144.788,9.992 145.713,13.549 C146.521,16.66 146.787,19.915 147.242,23.114 C147.333,23.756 147.217,24.432 147.157,25.09 C146.62,30.943 149.569,35.085 153.884,38.449 C156.027,40.119 157.763,42.134 158.795,44.534 C160.347,48.144 161.842,51.858 162.677,55.678 C163.876,61.16 164.913,66.742 164.414,72.421 C164.213,74.693 164.702,76.417 166.447,78.101 C169.405,80.958 171.605,84.443 173.403,88.169 C175.376,92.26 177.416,96.32 179.452,100.381 C181.645,104.755 183.872,109.112 186.078,113.48 C187.692,116.676 189.404,119.829 190.86,123.097 C191.593,124.739 191.875,126.588 192.316,128.355 C192.916,130.756 193.421,133.182 194.071,135.569 C194.415,136.832 195.049,138.013 195.433,139.268 C196.572,142.986 197.846,146.679 198.683,150.466 C199.189,152.76 199.033,155.21 199.09,157.591 C199.225,163.328 199.033,169.088 199.49,174.798 C200.048,181.766 201.075,188.693 202.688,195.527 C204.083,201.434 205.404,207.371 206.399,213.354 C207.08,217.449 207.186,221.643 207.472,225.798 C207.623,227.975 207.637,230.163 207.66,232.346 C207.675,233.755 208.212,234.494 209.727,234.544 C214.469,234.699 218.084,236.855 221.239,240.419 C226.76,246.655 233.849,248.447 241.924,246.731 C243.303,246.438 244.73,246.36 246.137,246.195 C252.574,245.442 259.016,245.521 265.429,246.362 C267.88,246.683 270.254,247.558 272.701,247.947 C276.299,248.517 279.92,249.051 283.552,249.286 C288.405,249.6 292.581,251.026 295.457,255.2 C295.601,255.409 295.776,255.602 295.881,255.828 C296.113,256.327 296.311,256.841 296.587,257.501 C295.96,257.665 295.438,257.917 294.916,257.921 C287.246,257.976 279.571,258.185 271.911,257.929 C269.047,257.834 266.163,256.806 263.389,255.898 C258.867,254.418 254.361,253.63 249.628,254.728 C246.812,255.381 243.954,255.863 241.107,256.382 C237.178,257.1 233.441,255.967 229.697,255.082 C227.585,254.582 225.524,253.867 223.437,253.262 C221.061,252.573 219.26,251.088 217.659,249.259 C216.104,247.484 213.923,246.847 211.715,246.53 C209.763,246.25 207.761,246.322 205.783,246.207 C204.674,246.143 204.113,246.623 204.259,247.727 C204.648,250.672 203.676,253.038 201.536,255.089 C199.762,256.79 199.806,259.253 199.525,261.463 C199.305,263.198 199.508,265.018 199.74,266.772 C200.389,271.667 200.105,276.513 199.085,281.312 C198.938,281.999 198.208,282.799 197.546,283.096 C195.89,283.839 195.162,284.902 195.231,286.751 C195.314,289.03 195.27,291.33 195.042,293.598 C194.919,294.817 194.361,296.013 193.861,297.16 C193.697,297.538 193.131,297.898 192.697,297.974 C190.054,298.439 187.387,298.774 184.744,299.241 C182.382,299.658 180.87,298.609 179.766,296.655 C178.403,294.238 177.016,291.835 175.624,289.434 C175.396,289.043 175.064,288.711 174.833,288.321 C174.095,287.073 173.296,287.383 172.569,288.273 C171.995,288.974 171.597,289.822 171.007,290.506 C170.625,290.949 169.849,291.608 169.582,291.48 C168.984,291.191 168.419,290.545 168.153,289.913 C167.647,288.709 167.359,287.414 166.983,286.156 C166.664,285.087 166.232,284.708 165.167,285.554 C164.068,286.43 163.163,286.009 162.909,284.575 C162.395,281.682 161.956,278.776 161.47,275.878 C161.382,275.349 161.214,274.832 161.089,274.339 C159.738,274.533 158.546,274.776 157.343,274.861 C155.267,275.007 154.432,274.544 154.065,272.548 C153.442,269.167 152.97,265.749 152.631,262.327 C152.433,260.319 152.222,259.691 150.194,259.617 C144.816,259.423 139.433,259.324 134.052,259.302 C128.261,259.278 122.468,259.348 116.678,259.458 C115.066,259.489 113.457,259.799 111.851,260.003 C110.127,260.222 109.271,261.367 109.027,262.947 C108.83,264.226 108.173,264.625 106.959,264.623 C102.696,264.618 98.623,263.703 94.631,262.28 C90.821,260.923 87.063,259.284 83.139,258.43 C79.915,257.728 56.481,262.896 53.138,262.858 C47.493,262.795 25.135,272.473 19.733,273.827 C19.054,273.998 18.444,274.446 17.766,274.611 C16.776,274.851 16.141,274.53 16.39,273.345 C16.744,271.66 16.964,269.925 17.538,268.317 C17.75,267.723 18.764,267.136 19.477,267.044 C24.254,266.419 46.049,257.921 50.839,257.397 C54.163,257.034 77.489,251.69 80.816,251.346 C83.466,251.072 85.913,251.421 88.133,253.14 C89.828,254.452 93.574,254.055 95.149,252.647 C95.858,252.012 95.992,249.909 95.095,249.142 C93.387,247.682 91.643,246.123 89.644,245.178 C86.82,243.843 84.244,242.575 82.406,239.771 C80.16,236.342 56.737,239.103 53.065,237.212 C51.374,236.341 50.033,234.784 48.549,233.52 C47.146,232.325 45.763,231.105 44.339,229.869 C46.089,227.109 50.545,226.416 53.537,228.528 C58.69,232.166 82.901,231.713 86.626,236.762 C89.625,240.827 93.553,243.8 97.834,246.423 C99.937,247.71 102.089,247.868 104.389,247.829 C112.973,247.684 121.558,247.566 130.142,247.423 C130.714,247.413 131.286,247.276 132.236,247.146 C131.516,246.252 131.058,245.61 130.525,245.039 C127.823,242.146 124.905,239.429 122.465,236.332 C121.08,234.575 120.392,232.238 119.532,230.106 C118.828,228.359 118.347,228.048 116.605,228.731 C114.262,229.651 113.781,229.462 112.431,227.346 C110.421,224.193 109.096,220.801 108.347,217.127 C107.915,215.006 107.021,212.985 106.424,210.892 C105.787,208.656 105.259,206.388 104.677,204.136 C104.162,202.145 103.639,200.158 103.096,198.08 C101.801,198.456 100.712,198.686 99.69,199.088 C98.172,199.685 97.431,199.335 97.108,197.693 C96.785,196.055 96.506,194.408 96.159,192.776 C95.539,189.854 94.914,186.931 94.23,184.024 C93.594,181.318 92.87,178.633 92.201,175.935 C91.677,173.823 91.106,171.721 90.683,169.589 C89.774,165.013 88.93,160.423 88.103,155.831 C87.943,154.939 87.94,154.011 87.938,153.099 C87.932,150.494 86.048,149.215 83.592,150.187 C83.217,150.336 82.878,150.583 82.497,150.714 C80.882,151.272 80.327,150.833 80.115,149.127 C79.592,144.911 79.037,140.698 78.421,136.495 C77.408,129.575 77.215,122.64 77.931,115.684 C78.003,114.987 78.354,114.32 78.44,113.621 C78.55,112.725 78.801,111.707 78.505,110.925 C77.192,107.449 77.212,103.804 77.286,100.238 C77.374,96.05 78.061,91.873 78.501,87.693 C78.596,86.784 78.903,85.866 78.82,84.98 C78.745,84.191 78.479,83.198 77.929,82.711 C73.552,78.825 71.814,73.8 71.365,68.166 C70.85,61.687 71.399,55.268 72.72,48.936 C73.365,45.84 74.379,42.837 75.722,39.907 C76.425,38.372 76.128,36.232 75.839,34.437 C75.625,33.102 74.639,31.906 74.099,30.606 C72.481,26.719 71.798,22.72 72.969,18.574 C73.596,16.351 74.199,14.109 75.032,11.959 C75.88,9.769 76.996,7.683 77.995,5.552 C78.265,5.53 78.534,5.51 78.804,5.488" fill="#000000"/>
  </g>
</svg>
