<?xml version="1.0" encoding="UTF-8"?>
<!DOCTYPE svg PUBLIC "-//W3C//DTD SVG 1.1//EN" "http://www.w3.org/Graphics/SVG/1.1/DTD/svg11.dtd">
<svg version="1.1" xmlns="http://www.w3.org/2000/svg" xmlns:xlink="http://www.w3.org/1999/xlink" x="0" y="0" width="300" height="300" viewBox="0, 0, 300, 300">
  <defs>
    <clipPath id="Clip_1">
      <path d="M27.336,1.332 L270.587,1.332 L270.587,299.332 L27.336,299.332 z"/>
    </clipPath>
  </defs>
  <g id="Layer_1">
    <g clip-path="url(#Clip_1)" id="Isolation_Mode">
      <path d="M52.804,5.488 C53.28,6.536 54.175,7.589 54.159,8.629 C54.096,12.898 56.319,15.811 59.257,18.499 C62.426,21.399 65.467,24.44 68.53,27.453 C69.57,28.475 70.639,28.835 72.178,28.751 C78.759,28.395 85.357,28.003 91.938,28.137 C95.121,28.203 97.543,27.29 99.692,25.222 C102.844,22.19 105.595,18.902 107.396,14.798 C109.132,10.837 111.325,7.075 113.316,3.225 C113.386,3.09 113.411,2.924 113.502,2.809 C113.897,2.31 114.307,1.823 114.712,1.332 C115.193,1.915 115.873,2.424 116.12,3.093 C117.401,6.55 118.788,9.992 119.713,13.549 C120.521,16.66 120.787,19.915 121.242,23.114 C121.333,23.756 121.217,24.432 121.157,25.09 C120.62,30.943 123.569,35.085 127.884,38.449 C130.027,40.119 131.763,42.134 132.795,44.534 C134.347,48.144 135.842,51.858 136.677,55.678 C137.876,61.16 138.913,66.742 138.414,72.421 C138.213,74.693 138.702,76.417 140.447,78.101 C143.405,80.958 145.605,84.443 147.403,88.169 C149.376,92.26 151.416,96.32 153.452,100.381 C155.645,104.755 157.872,109.112 160.078,113.48 C161.692,116.676 163.404,119.829 164.86,123.097 C165.593,124.739 165.875,126.588 166.316,128.355 C166.916,130.756 167.421,133.182 168.071,135.569 C168.415,136.832 169.049,138.013 169.433,139.268 C170.572,142.986 171.846,146.679 172.683,150.466 C173.189,152.76 173.033,155.21 173.09,157.591 C173.225,163.328 173.033,169.088 173.49,174.798 C174.048,181.766 175.075,188.693 176.688,195.527 C178.083,201.434 179.404,207.371 180.399,213.354 C181.08,217.449 181.186,221.643 181.472,225.798 C181.623,227.975 181.637,230.163 181.66,232.346 C181.675,233.755 182.212,234.494 183.727,234.544 C188.469,234.699 192.084,236.855 195.239,240.419 C200.76,246.655 207.849,248.447 215.924,246.731 C217.303,246.438 218.73,246.36 220.137,246.195 C226.574,245.442 233.016,245.521 239.429,246.362 C241.88,246.683 244.254,247.558 246.701,247.947 C250.299,248.517 253.92,249.051 257.552,249.286 C262.405,249.6 266.581,251.026 269.457,255.2 C269.601,255.409 269.776,255.602 269.881,255.828 C270.113,256.327 270.311,256.841 270.587,257.501 C269.96,257.665 269.438,257.917 268.916,257.921 C261.246,257.976 253.571,258.185 245.911,257.929 C243.047,257.834 240.163,256.806 237.389,255.898 C232.867,254.418 228.361,253.63 223.628,254.728 C220.812,255.381 217.954,255.863 215.107,256.382 C211.178,257.1 207.441,255.967 203.697,255.082 C201.585,254.582 199.524,253.867 197.437,253.262 C195.061,252.573 193.26,251.088 191.659,249.259 C190.104,247.484 187.923,246.847 185.715,246.53 C183.763,246.25 181.761,246.322 179.783,246.207 C178.674,246.143 178.113,246.623 178.259,247.727 C178.648,250.672 177.676,253.038 175.536,255.089 C173.762,256.79 173.806,259.253 173.525,261.463 C173.305,263.198 173.508,265.018 173.74,266.772 C174.389,271.667 174.105,276.513 173.085,281.312 C172.938,281.999 172.208,282.799 171.546,283.096 C169.89,283.839 169.162,284.902 169.231,286.751 C169.314,289.03 169.27,291.33 169.042,293.598 C168.919,294.817 168.361,296.013 167.861,297.16 C167.697,297.538 167.131,297.898 166.697,297.974 C164.054,298.439 161.387,298.774 158.744,299.241 C156.382,299.658 154.87,298.609 153.766,296.655 C152.403,294.238 151.016,291.835 149.624,289.434 C149.396,289.043 149.064,288.711 148.833,288.321 C148.095,287.073 147.296,287.383 146.569,288.273 C145.995,288.974 145.597,289.822 145.007,290.506 C144.625,290.949 143.849,291.608 143.582,291.48 C142.984,291.191 142.419,290.545 142.153,289.913 C141.647,288.709 141.359,287.414 140.983,286.156 C140.664,285.087 140.232,284.708 139.167,285.554 C138.068,286.43 137.163,286.009 136.909,284.575 C136.395,281.682 135.956,278.776 135.47,275.878 C135.382,275.349 135.214,274.832 135.089,274.339 C133.738,274.533 132.546,274.776 131.343,274.861 C129.267,275.007 128.432,274.544 128.065,272.548 C127.442,269.167 126.97,265.749 126.631,262.327 C126.433,260.319 126.222,259.691 124.194,259.617 C118.816,259.423 113.433,259.324 108.052,259.302 C102.261,259.278 96.468,259.348 90.678,259.458 C89.066,259.489 87.457,259.799 85.851,260.003 C84.127,260.222 83.271,261.367 83.027,262.947 C82.83,264.226 82.173,264.625 80.959,264.623 C76.696,264.618 72.623,263.703 68.631,262.28 C64.821,260.923 61.063,259.284 57.139,258.43 C53.915,257.728 50.481,257.896 47.138,257.858 C41.493,257.795 36.135,259.473 30.733,260.827 C30.054,260.998 29.444,261.446 28.766,261.611 C27.776,261.851 27.141,261.53 27.39,260.345 C27.744,258.66 27.964,256.925 28.538,255.317 C28.75,254.723 29.764,254.136 30.477,254.044 C35.254,253.419 40.049,252.921 44.839,252.397 C48.163,252.034 51.489,251.69 54.816,251.346 C57.466,251.072 59.913,251.421 62.133,253.14 C63.828,254.452 67.574,254.055 69.149,252.647 C69.858,252.012 69.992,249.909 69.095,249.142 C67.387,247.682 65.643,246.123 63.644,245.178 C60.82,243.843 58.244,242.575 56.406,239.771 C54.16,236.342 50.737,234.103 47.065,232.212 C45.374,231.341 44.033,229.784 42.549,228.52 C41.146,227.325 39.763,226.105 38.339,224.869 C40.089,222.109 44.545,221.416 47.537,223.528 C52.69,227.166 56.901,231.713 60.626,236.762 C63.625,240.827 67.553,243.8 71.834,246.423 C73.937,247.71 76.089,247.868 78.389,247.829 C86.973,247.684 95.558,247.566 104.142,247.423 C104.714,247.413 105.286,247.276 106.236,247.146 C105.516,246.252 105.058,245.61 104.525,245.039 C101.823,242.146 98.905,239.429 96.465,236.332 C95.08,234.575 94.392,232.238 93.532,230.106 C92.828,228.359 92.347,228.048 90.605,228.731 C88.262,229.651 87.781,229.462 86.431,227.346 C84.421,224.193 83.096,220.801 82.347,217.127 C81.915,215.006 81.021,212.985 80.424,210.892 C79.787,208.656 79.259,206.388 78.677,204.136 C78.162,202.145 77.639,200.158 77.096,198.08 C75.801,198.456 74.712,198.686 73.69,199.088 C72.172,199.685 71.431,199.335 71.108,197.693 C70.785,196.055 70.506,194.408 70.159,192.776 C69.539,189.854 68.914,186.931 68.23,184.024 C67.594,181.318 66.87,178.633 66.201,175.935 C65.677,173.823 65.106,171.721 64.683,169.589 C63.774,165.013 62.93,160.423 62.103,155.831 C61.943,154.939 61.94,154.011 61.938,153.099 C61.932,150.494 60.048,149.215 57.592,150.187 C57.217,150.336 56.878,150.583 56.497,150.714 C54.882,151.272 54.327,150.833 54.115,149.127 C53.592,144.911 53.037,140.698 52.421,136.495 C51.408,129.575 51.215,122.64 51.931,115.684 C52.003,114.987 52.354,114.32 52.44,113.621 C52.55,112.725 52.801,111.707 52.505,110.925 C51.192,107.449 51.212,103.804 51.286,100.238 C51.374,96.05 52.061,91.873 52.501,87.693 C52.596,86.784 52.903,85.866 52.82,84.98 C52.745,84.191 52.479,83.198 51.929,82.711 C47.552,78.825 45.814,73.8 45.365,68.166 C44.85,61.687 45.399,55.268 46.72,48.936 C47.365,45.84 48.379,42.837 49.722,39.907 C50.425,38.372 50.128,36.232 49.839,34.437 C49.625,33.102 48.639,31.906 48.099,30.606 C46.481,26.719 45.798,22.72 46.969,18.574 C47.596,16.351 48.199,14.109 49.032,11.959 C49.88,9.769 50.996,7.683 51.995,5.552 C52.265,5.53 52.534,5.51 52.804,5.488" fill="#000000"/>
    </g>
  </g>
</svg>
