<?xml version="1.0" encoding="UTF-8"?>
<!DOCTYPE svg PUBLIC "-//W3C//DTD SVG 1.1//EN" "http://www.w3.org/Graphics/SVG/1.1/DTD/svg11.dtd">
<svg version="1.1" xmlns="http://www.w3.org/2000/svg" xmlns:xlink="http://www.w3.org/1999/xlink" x="0" y="0" width="300"
  height="300" viewBox="0, 0, 300, 300">
  <g id="Layer_1">
    <path
      d="M288.747,132.307 C287.117,139.085 285.616,146.035 283.729,152.856 C281.755,160.063 278.924,166.926 274.634,173.104 C272.532,176.064 272.446,179.195 273.261,182.499 C273.819,184.729 274.162,187.004 274.891,189.148 C276.735,194.468 276.564,199.702 275.234,205.149 C273.69,211.541 272.746,218.019 271.46,224.454 C271.202,225.698 270.515,226.856 269.829,228.486 C268.885,227.371 268.37,226.771 267.555,225.827 C267.041,230.975 263.651,231.189 259.877,230.846 C258.547,230.718 257.174,230.803 255.801,230.718 C254.171,230.632 253.613,229.859 254.428,228.358 C255.072,227.157 255.629,225.87 256.444,224.84 C259.233,221.322 259.791,217.332 259.062,213.086 C258.633,210.512 257.989,207.981 257.474,205.449 C257.217,205.449 257.002,205.449 256.745,205.407 C254.815,211.455 252.884,217.461 250.953,223.51 C250.61,224.54 250.524,225.655 250.01,226.556 C249.581,227.328 248.852,227.972 248.079,228.358 C247.822,228.486 247.05,227.457 246.449,226.899 C246.449,226.899 246.235,226.899 246.235,226.942 C245.119,230.288 242.76,231.232 239.371,230.889 C237.14,230.632 234.867,230.846 232.593,230.846 C232.464,230.588 232.292,230.288 232.164,230.031 C232.893,228.701 233.408,227.242 234.395,226.127 C241.859,217.676 240.358,208.667 236.068,199.573 C234.223,195.626 231.82,191.979 229.59,188.205 C227.788,185.158 224.871,184.129 221.096,184.815 C211.401,186.574 201.749,188.805 191.968,189.792 C174.851,191.55 157.692,191.465 140.789,187.561 C137.443,186.789 136.285,187.518 135.727,190.864 C134.612,197.899 132.467,204.592 129.55,211.112 C127.748,215.102 127.062,219.263 127.191,223.639 C127.234,225.57 126.805,227.457 126.547,229.387 C126.29,229.43 125.989,229.473 125.732,229.516 C125.131,228.744 124.488,227.972 123.973,227.285 C122.686,228.529 121.614,230.374 120.241,230.632 C117.452,231.147 114.45,230.803 111.361,230.803 C113.377,226.771 115.522,223.338 116.852,219.649 C118.181,215.874 117.795,211.799 116.637,207.38 C114.364,211.155 112.219,214.459 111.404,218.406 C110.631,222.223 110.031,226.127 109.345,229.988 C109.044,229.988 108.787,229.988 108.487,230.031 C107.972,229.258 107.414,228.443 106.684,227.371 C103.467,232.905 98.491,230.545 93.386,230.675 C94.33,229.173 94.931,228.229 95.531,227.285 C96.432,225.913 97.504,224.626 98.319,223.21 C101.366,217.804 102.824,212.185 100.764,205.965 C98.92,200.474 97.462,194.897 95.703,189.363 C94.802,186.531 92.743,185.416 89.783,185.544 C84.806,185.716 79.787,185.716 74.811,185.845 C73.738,185.888 72.666,185.931 71.679,186.231 C63.743,188.891 55.592,189.491 47.356,188.505 C44.61,188.162 41.907,187.304 39.334,186.274 C35.129,184.601 30.882,183.357 26.336,183.014 C22.303,182.714 18.313,181.641 14.324,180.912 C13.123,180.697 11.921,180.483 10.72,180.311 C9.219,180.139 8.061,179.667 8.103,177.866 C8.103,177.737 8.146,177.523 8.061,177.437 C5.272,175.163 5.786,171.431 4.028,168.643 C3.041,167.055 2.526,165.125 2.055,163.28 C1.669,161.65 2.612,161.092 4.285,161.049 C5.658,161.006 7.331,160.792 8.361,159.977 C12.865,156.502 17.283,152.813 21.616,149.124 C24.833,146.378 26.593,142.775 27.022,138.528 C27.279,135.739 27.965,133.037 28.266,130.248 C28.352,129.347 28.094,128.146 27.537,127.417 C22.946,121.582 19.128,115.362 17.326,108.027 C17.241,107.598 17.026,107.169 17.069,106.783 C17.198,106.011 17.541,105.238 17.755,104.466 C18.484,104.766 19.342,104.937 19.901,105.41 C22.131,107.34 24.319,109.356 26.507,111.373 C26.636,111.244 26.764,111.115 26.893,110.986 C25.907,108.413 24.876,105.882 23.976,103.265 C23.59,102.192 23.418,101.034 23.375,99.919 C23.332,99.318 23.675,98.374 24.147,98.159 C24.576,97.945 25.477,98.374 25.949,98.761 C27.451,100.048 28.78,101.592 30.325,102.836 C34.443,106.182 39.119,108.37 44.267,109.699 C47.484,110.557 50.315,109.914 52.89,107.855 C64.987,98.245 78.2,90.524 92.485,84.604 C105.312,79.284 118.782,76.496 132.467,74.437 C153.016,71.391 173.65,69.589 194.413,69.761 C209.814,69.889 225.171,70.662 240.1,74.737 C255.629,78.984 269.185,86.535 279.181,99.576 C279.825,100.391 281.026,100.777 282.012,101.291 C285.23,103.05 288.747,104.466 291.665,106.611 C294.968,109.099 295.955,112.703 294.496,116.82 C293.552,119.438 292.608,122.054 291.879,124.757 C291.021,127.803 291.793,130.248 294.581,132.179 C298.614,135.01 298.743,135.953 296.555,140.587 C295.697,142.345 295.096,144.362 293.809,145.735 C291.407,148.351 290.206,147.879 289.305,144.491 C288.79,142.474 288.747,140.63 289.906,138.742 C292.179,135.138 292.008,134.709 288.747,132.307 z"
      fill="#000000" />
  </g>
</svg>