<?xml version="1.0" encoding="UTF-8"?>
<!DOCTYPE svg PUBLIC "-//W3C//DTD SVG 1.1//EN" "http://www.w3.org/Graphics/SVG/1.1/DTD/svg11.dtd">
<svg version="1.1" xmlns="http://www.w3.org/2000/svg" xmlns:xlink="http://www.w3.org/1999/xlink" x="0" y="0" width="402" height="227" viewBox="0, 0, 402, 227">
  <defs>
    <clipPath id="Clip_1">
      <path d="M109.927,18.064 L292.902,18.064 L292.902,166.244 L109.927,166.244 z"/>
    </clipPath>
  </defs>
  <g id="Layer_2">
    <g>
      <path d="M219.01,219.064 L224.661,213.288 C393.795,43.636 390.511,47.079 392.579,45.036 C402.018,35.71 404.45,18.119 395.171,8.84 C389.309,3.069 381.18,1.1 373.363,1.379 L373.37,1.366 L28.786,1.159 C21.072,0.48 13.566,3.616 7.847,8.791 C-1.536,18.174 -1.621,33.302 7.658,42.581 C8.348,43.146 8.936,43.836 9.663,44.356 L180.637,215.018 C180.734,215.075 181.82,216.101 184.135,218.516 C193.216,227.988 209.627,228.447 219.01,219.063 L219.01,219.064 z" fill="#FF1744" fill-opacity="0.85"/>
      <path d="M219.01,219.064 L224.661,213.288 C393.795,43.636 390.511,47.079 392.579,45.036 C402.018,35.71 404.45,18.119 395.171,8.84 C389.309,3.069 381.18,1.1 373.363,1.379 L373.37,1.366 L28.786,1.159 C21.072,0.48 13.566,3.616 7.847,8.791 C-1.536,18.174 -1.621,33.302 7.658,42.581 C8.348,43.146 8.936,43.836 9.663,44.356 L180.637,215.018 C180.734,215.075 181.82,216.101 184.135,218.516 C193.216,227.988 209.627,228.447 219.01,219.063 L219.01,219.064 z" fill-opacity="0" stroke="#8E2736" stroke-width="2"/>
    </g>
    <path d="M212.473,21.615 L212.473,21.615 L212.474,21.615 L212.474,21.615 L241.372,50.514 C245.698,50.221 248.973,49.348 252.007,46.147 L321.786,115.404 L218.469,219.599 L218.466,219.596 L218.333,219.726 C216.712,221.113 215.098,222.336 213.174,223.27 L208.927,219.023 L208.914,219.036 L112.512,123.113 C112.639,120.332 113.119,117.586 113.612,114.852 C113.79,113.894 113.979,112.937 114.167,111.981 L200.055,26.094 L200.4,26.089 C204.72,25.817 209.631,25.239 212.473,21.615 z" fill="#000000" fill-opacity="0.25"/>
    <path d="M207.244,19.616 L206.023,20.125 L206.417,19.731 L207.244,19.616 z" fill="#000000" fill-opacity="0.25"/>
    <path d="M108.999,119.149 L108.938,119.54 L108.773,119.375 L108.999,119.149 z" fill="#000000" fill-opacity="0.25"/>
    <g clip-path="url(#Clip_1)" id="Isolation_Mode">
      <path d="M212.685,53.006 C212.685,62.417 212.677,71.828 212.686,81.238 C212.712,107.033 212.748,132.827 212.766,158.622 C212.766,159.584 212.738,160.578 212.508,161.504 C211.557,165.338 207.771,167.415 204.318,165.549 C200.573,163.525 197.064,161.022 193.618,158.5 C178.836,147.686 164.135,136.761 149.335,125.972 C148.092,125.066 146.346,124.464 144.808,124.409 C135.335,124.069 125.855,123.931 116.377,123.718 C112.095,123.622 109.962,121.579 109.953,117.317 C109.917,100.293 109.92,83.268 109.951,66.244 C109.959,62.031 112.463,59.599 116.729,59.585 C126.071,59.555 135.414,59.514 144.756,59.618 C146.915,59.643 148.552,58.96 150.225,57.688 C164.694,46.685 179.177,35.698 193.748,24.831 C196.778,22.572 200.083,20.616 203.454,18.9 C208.134,16.517 212.702,19.468 212.754,24.77 C212.828,32.244 212.777,39.718 212.781,47.192 C212.782,49.13 212.781,51.068 212.781,53.006 z" fill="#FFFFFF"/>
      <g>
        <path d="M269.603,88.119 C268.899,94.339 268.641,100.653 267.348,106.748 C266.362,111.406 264.24,115.861 262.311,120.269 C259.745,126.135 256.017,131.285 251.723,136.029 C249.85,138.097 247.703,139.369 244.783,138.878 C241.499,138.325 239.627,135.11 240.965,132.053 C241.452,130.94 242.181,129.88 242.999,128.975 C248.78,122.573 253.423,115.409 255.575,107.062 C257.997,97.669 258.328,88.125 255.737,78.562 C253.397,69.921 248.664,62.754 242.955,56.089 C240.934,53.73 240.385,51.158 241.505,49.056 C243.268,45.751 247.455,45.102 250.281,47.845 C256.714,54.087 261.828,61.308 264.813,69.768 C266.595,74.816 267.566,80.153 268.854,85.371 C269.066,86.23 269.033,87.147 269.114,88.038 z" fill="#FFFFFF"/>
        <path d="M269.603,88.119 C268.899,94.339 268.641,100.653 267.348,106.748 C266.362,111.406 264.24,115.861 262.311,120.269 C259.745,126.135 256.017,131.285 251.723,136.029 C249.85,138.097 247.703,139.369 244.783,138.878 C241.499,138.325 239.627,135.11 240.965,132.053 C241.452,130.94 242.181,129.88 242.999,128.975 C248.78,122.573 253.423,115.409 255.575,107.062 C257.997,97.669 258.328,88.125 255.737,78.562 C253.397,69.921 248.664,62.754 242.955,56.089 C240.934,53.73 240.385,51.158 241.505,49.056 C243.268,45.751 247.455,45.102 250.281,47.845 C256.714,54.087 261.828,61.308 264.813,69.768 C266.595,74.816 267.566,80.153 268.854,85.371 C269.066,86.23 269.033,87.147 269.114,88.038 z" fill-opacity="0" stroke="#FFFFFF" stroke-width="5"/>
      </g>
      <g>
        <path d="M244.937,90.559 C244.331,102.272 241.182,111.337 234.254,118.902 C232.694,120.607 230.962,122.083 228.445,122.095 C225.967,122.107 224.243,120.91 223.155,118.759 C222.129,116.729 222.898,115.07 224.251,113.47 C227.881,109.176 230.95,104.511 232.406,99.023 C234.953,89.424 232.307,81.029 226.084,73.567 C225.553,72.93 224.961,72.346 224.418,71.719 C222.56,69.574 222.402,67.393 223.941,65.308 C225.511,63.177 228.541,62.249 230.757,63.509 C232.229,64.346 233.588,65.494 234.754,66.734 C238.7,70.928 241.516,75.805 242.904,81.423 C243.773,84.941 244.483,88.499 244.937,90.559" fill="#FFFFFF"/>
        <path d="M244.937,90.559 C244.331,102.272 241.182,111.337 234.254,118.902 C232.694,120.607 230.962,122.083 228.445,122.095 C225.967,122.107 224.243,120.91 223.155,118.759 C222.129,116.729 222.898,115.07 224.251,113.47 C227.881,109.176 230.95,104.511 232.406,99.023 C234.953,89.424 232.307,81.029 226.084,73.567 C225.553,72.93 224.961,72.346 224.418,71.719 C222.56,69.574 222.402,67.393 223.941,65.308 C225.511,63.177 228.541,62.249 230.757,63.509 C232.229,64.346 233.588,65.494 234.754,66.734 C238.7,70.928 241.516,75.805 242.904,81.423 C243.773,84.941 244.483,88.499 244.937,90.559" fill-opacity="0" stroke="#FFFFFF" stroke-width="5"/>
      </g>
    </g>
  </g>
</svg>
