<?xml version="1.0" encoding="UTF-8"?>
<!DOCTYPE svg PUBLIC "-//W3C//DTD SVG 1.1//EN" "http://www.w3.org/Graphics/SVG/1.1/DTD/svg11.dtd">
<svg version="1.1" xmlns="http://www.w3.org/2000/svg" xmlns:xlink="http://www.w3.org/1999/xlink" x="0" y="0" width="402" height="227" viewBox="0, 0, 402, 227">
  <defs>
    <clipPath id="Clip_1">
      <path d="M109.908,18.199 L292.883,18.199 L292.883,166.378 L109.908,166.378 z"/>
    </clipPath>
  </defs>
  <g id="Layer_3">
    <g>
      <g>
        <path d="M218.991,219.198 L224.642,213.423 C393.776,43.771 390.492,47.214 392.559,45.171 C401.999,35.844 404.431,18.253 395.152,8.975 C389.289,3.203 381.161,1.235 373.344,1.514 L373.351,1.501 L28.766,1.294 C21.053,0.614 13.547,3.751 7.828,8.925 C-1.555,18.308 -1.64,33.437 7.639,42.716 C8.329,43.28 8.916,43.971 9.644,44.491 L180.618,215.153 C180.714,215.209 181.801,216.236 184.116,218.65 C193.197,228.122 209.608,228.581 218.991,219.198 L218.991,219.198 z" fill="#2E7D32" fill-opacity="0.85"/>
        <path d="M218.991,219.198 L224.642,213.423 C393.776,43.771 390.492,47.214 392.559,45.171 C401.999,35.844 404.431,18.253 395.152,8.975 C389.289,3.203 381.161,1.235 373.344,1.514 L373.351,1.501 L28.766,1.294 C21.053,0.614 13.547,3.751 7.828,8.925 C-1.555,18.308 -1.64,33.437 7.639,42.716 C8.329,43.28 8.916,43.971 9.644,44.491 L180.618,215.153 C180.714,215.209 181.801,216.236 184.116,218.65 C193.197,228.122 209.608,228.581 218.991,219.198 L218.991,219.198 z" fill-opacity="0" stroke="#2B4D2C" stroke-width="2"/>
      </g>
      <path d="M218.991,219.198 L224.642,213.423 C393.776,43.771 390.492,47.214 392.559,45.171 C401.999,35.844 404.431,18.253 395.152,8.975 C389.289,3.203 381.161,1.235 373.344,1.514 L373.351,1.501 L28.766,1.294 C21.053,0.614 13.547,3.751 7.828,8.925 C-1.555,18.308 -1.64,33.437 7.639,42.716 C8.329,43.28 8.916,43.971 9.644,44.491 L180.618,215.153 C180.714,215.209 181.801,216.236 184.116,218.65 C193.197,228.122 209.608,228.581 218.991,219.198 L218.991,219.198 z" fill-opacity="0" stroke="#2B4D2C" stroke-width="2"/>
    </g>
    <path d="M212.002,20.535 L241.72,50.161 L241.731,50.16 L314.411,122.84 L218.817,219.246 L218.814,219.243 L218.681,219.373 C217.06,220.76 215.446,221.983 213.522,222.917 L209.275,218.67 L209.262,218.683 L112.86,122.76 C112.987,119.978 113.467,117.232 113.96,114.499 C114.139,113.54 114.327,112.584 114.515,111.628 L200.403,25.741 L200.748,25.735" fill="#000000" fill-opacity="0.25"/>
    <g clip-path="url(#Clip_1)" id="Isolation_Mode">
      <path d="M212.666,53.14 C212.666,62.551 212.658,71.962 212.667,81.373 C212.693,107.168 212.729,132.962 212.747,158.757 C212.747,159.719 212.718,160.713 212.489,161.638 C211.537,165.473 207.752,167.55 204.299,165.684 C200.554,163.66 197.044,161.156 193.598,158.635 C178.817,147.82 164.116,136.896 149.316,126.107 C148.073,125.201 146.327,124.599 144.789,124.544 C135.316,124.204 125.835,124.065 116.357,123.853 C112.076,123.756 109.943,121.714 109.934,117.452 C109.897,100.427 109.901,83.403 109.932,66.378 C109.94,62.166 112.444,59.734 116.71,59.72 C126.051,59.689 135.395,59.649 144.737,59.752 C146.896,59.777 148.533,59.095 150.206,57.822 C164.675,46.819 179.158,35.833 193.729,24.966 C196.759,22.707 200.063,20.751 203.435,19.034 C208.115,16.651 212.683,19.602 212.735,24.905 C212.809,32.379 212.758,39.853 212.762,47.327 C212.762,49.264 212.762,51.203 212.762,53.14 z" fill="#FFFFFF"/>
    </g>
  </g>
</svg>
