<?xml version="1.0" encoding="UTF-8"?>
<!DOCTYPE svg PUBLIC "-//W3C//DTD SVG 1.1//EN" "http://www.w3.org/Graphics/SVG/1.1/DTD/svg11.dtd">
<svg version="1.1" xmlns="http://www.w3.org/2000/svg" xmlns:xlink="http://www.w3.org/1999/xlink" x="0" y="0" width="300" height="300" viewBox="0, 0, 300, 300">
  <defs>
    <clipPath id="Clip_1">
      <path d="M2.679,0.871 L271.714,0.871 L271.714,298.871 L2.679,298.871 z"/>
    </clipPath>
  </defs>
  <g id="Layer_1">
    <g clip-path="url(#Clip_1)" id="Isolation_Mode">
      <path d="M265.507,0.871 C267.928,2.687 269.552,4.888 268.607,8.1 C267.835,10.718 265.853,12.35 263.324,12.816 C260.816,13.278 258.16,13.397 255.623,13.143 C250.303,12.61 245.132,12.718 240.246,15.151 C239.36,15.592 238.62,16.329 237.812,16.929 C237.86,17.105 237.906,17.282 237.953,17.459 C238.706,17.502 239.463,17.619 240.212,17.576 C242.922,17.422 245.307,18.207 247.498,19.795 C253.333,24.024 259.473,27.748 265.797,31.214 C267.816,32.32 269.377,34.407 270.86,36.273 C271.499,37.078 271.41,38.463 271.714,39.877 C265.829,38.146 261.448,40.193 257.803,43.933 C254.72,47.097 251.92,50.546 249.102,53.958 C247.017,56.484 244.834,58.993 243.169,61.791 C239.125,68.585 238.95,75.857 241.794,83.074 C243.69,87.883 245.974,92.569 248.447,97.114 C253.324,106.075 255.679,115.734 256.069,125.766 C256.435,135.209 255.973,144.686 255.831,154.147 C255.752,159.41 253.98,164.31 252.526,169.291 C249.342,180.193 244.256,190.128 237.736,199.384 C235.015,203.247 232.271,207.111 229.808,211.139 C226.202,217.036 221.271,221.722 216.348,226.416 C213.209,229.408 210.766,232.697 210.214,237.126 C210.182,237.385 210.036,237.63 209.609,237.876 C209.532,236.771 209.455,235.668 209.352,234.2 C205.072,235.772 203.262,239.649 200.547,242.565 C200.163,242.152 199.83,241.793 199.257,241.175 C197.268,244.485 195.375,247.636 193.483,250.788 C193.287,250.753 193.091,250.719 192.894,250.685 C192.563,249.787 192.231,248.889 191.789,247.689 C189.599,251.496 187.542,255.073 185.484,258.649 C185.233,258.589 184.981,258.53 184.728,258.47 L184.407,254.092 L183.992,253.878 C183.3,254.932 182.603,255.985 181.918,257.044 C181.337,257.941 180.783,258.585 179.446,258.458 C177.522,258.273 175.493,260.525 175.346,262.672 C175.281,263.632 175.494,264.687 174.121,265.008 C173.895,265.061 173.717,265.646 173.654,266.01 C173.334,267.85 172.894,269.693 172.822,271.546 C172.765,273.019 173.14,274.518 173.388,275.993 C174.214,280.905 175.736,282.501 180.73,282.846 C184.043,283.074 187.397,282.798 190.728,282.655 C193.839,282.521 196.402,283.741 199.029,285.654 C198.229,285.971 197.656,286.197 196.736,286.56 C200.637,288.341 204.125,290.086 206.664,293.141 C206.612,293.327 206.561,293.512 206.509,293.697 C204.704,293.697 202.898,293.688 201.093,293.699 C199.273,293.71 199.062,294.117 199.883,295.726 C200.325,296.592 200.621,297.531 201.121,298.782 L193.553,298.782 C192.63,298.782 191.702,298.727 190.783,298.791 C182.842,299.335 175.543,297.06 168.494,293.715 C167.563,293.274 166.911,293.368 165.987,293.945 C164.548,294.84 162.901,295.441 161.277,295.962 C160.979,296.058 159.916,295.092 159.98,294.766 C160.289,293.171 160.829,291.617 161.349,290.07 C161.67,289.114 162.271,288.224 162.442,287.251 C162.711,285.726 162.775,284.159 162.812,282.606 C162.826,282.052 162.512,281.49 162.291,280.739 C161.771,281.189 161.496,281.427 161.222,281.665 C161.069,281.682 160.918,281.701 160.766,281.719 C161.577,277.584 159.251,274.406 157.711,270.71 C156.251,270.71 154.56,270.911 152.936,270.665 C150.232,270.254 147.578,269.524 144.891,268.989 C143.322,268.678 141.709,268.572 140.155,268.211 C139.078,267.963 137.893,267.654 137.058,266.992 C134.815,265.217 134.879,265.137 132.247,266.039 C131.573,264.763 131.528,263.626 132.647,262.509 C133.495,261.661 134.407,260.804 134.986,259.78 C135.768,258.398 135.225,257.501 133.66,257.236 C130.194,256.649 126.731,256.027 123.249,255.543 C118.796,254.922 114.559,255.755 110.437,257.536 C107.587,258.767 104.63,259.757 101.698,260.785 C101.012,261.026 100.223,261.095 99.49,261.059 C93.579,260.764 88.322,262.162 83.833,266.307 C73.735,275.631 62.288,283.055 50.22,289.538 C47.035,291.249 43.801,293.031 40.377,294.092 C35.736,295.532 30.984,294.605 26.41,293.234 C23.941,292.495 21.536,291.516 19.154,290.521 C16.288,289.322 13.499,287.934 10.635,286.728 C5.629,284.62 2.273,279.562 2.719,274.648 C3.256,268.716 7.064,264.328 12.788,263.19 C14.116,262.927 14.988,262.26 15.922,261.319 C21.646,255.545 27.424,249.822 33.259,244.16 C37.846,239.707 42.778,235.586 47.115,230.909 C50.545,227.21 53.332,222.912 56.356,218.843 C62.886,210.054 69.479,201.309 75.868,192.418 C81.585,184.462 87.12,176.372 92.632,168.273 C98.448,159.723 104.369,151.193 111.824,144.034 C118.796,137.339 126.23,131.056 134.773,126.316 C140.962,122.884 147.154,119.455 153.392,116.112 C157.95,113.67 162.701,111.567 167.165,108.967 C178.045,102.629 185.244,93.088 190.176,81.687 C191.502,78.621 193.064,75.613 193.974,72.423 C194.848,69.359 195.135,66.105 195.471,62.912 C196.261,55.401 197.98,48.082 201.154,41.282 C203.515,36.22 207.22,31.9 211.28,27.995 C213.313,26.038 215.401,24.134 217.525,22.276 C219.131,20.869 220.872,19.609 221.531,17.421 C221.625,17.109 221.865,16.764 222.138,16.595 C225.227,14.682 228.482,13.009 232.189,14.269 C233.653,14.766 234.4,14.525 235.275,13.51 C238.379,9.91 241.775,6.613 245.909,4.215 C248.083,2.952 250.424,1.976 252.69,0.871 z" fill="#000000"/>
    </g>
  </g>
</svg>
