<?xml version="1.0" encoding="UTF-8"?>
<!DOCTYPE svg PUBLIC "-//W3C//DTD SVG 1.1//EN" "http://www.w3.org/Graphics/SVG/1.1/DTD/svg11.dtd">
<svg version="1.1" xmlns="http://www.w3.org/2000/svg" xmlns:xlink="http://www.w3.org/1999/xlink" x="0" y="0" width="300" height="300" viewBox="0, 0, 300, 300">
  <g id="Layer_1">
    <g>
      <path d="M25.282,1.581 L33.366,1.669 C273.027,2.036 268.268,1.923 271.176,1.906 C284.451,1.826 298.616,12.545 298.616,25.667 C298.551,33.893 294.193,41.033 288.466,46.363 L288.48,46.368 L44.863,290.172 C39.888,296.107 32.359,299.197 24.653,299.581 C11.377,299.581 0.616,288.944 0.616,275.822 C0.704,274.934 0.631,274.031 0.778,273.149 L0.999,31.576 C1.027,31.467 1.07,29.973 0.999,26.629 C0.723,13.51 12.007,1.581 25.283,1.581 L25.282,1.581 z" fill="#FFFFFF" fill-opacity="0.7"/>
      <path d="M25.282,1.581 L33.366,1.669 C273.027,2.036 268.268,1.923 271.176,1.906 C284.451,1.826 298.616,12.545 298.616,25.667 C298.551,33.893 294.193,41.033 288.466,46.363 L288.48,46.368 L44.863,290.172 C39.888,296.107 32.359,299.197 24.653,299.581 C11.377,299.581 0.616,288.944 0.616,275.822 C0.704,274.934 0.631,274.031 0.778,273.149 L0.999,31.576 C1.027,31.467 1.07,29.973 0.999,26.629 C0.723,13.51 12.007,1.581 25.283,1.581 L25.282,1.581 z" fill-opacity="0" stroke="#000000" stroke-width="2"/>
    </g>
    <path d="M32.899,1.845 C33.04,1.845 33.04,1.845 33.04,1.845 C33.04,1.845 32.758,1.845 32.899,1.845 z" fill="#000000"/>
    <path d="M33.04,1.845 C33.04,1.845 33.04,1.845 33.04,1.845 z" fill="#000000"/>
    <path d="M1.803,28.959 C1.803,28.959 1.803,28.959 1.803,28.959 C1.803,28.959 1.803,28.924 1.803,28.959 z" fill="#000000"/>
  </g>
  <g id="Layer_3">
    <path d="M66.559,43.378 C70.851,46.034 75.444,48.129 80.053,50.16 C83.961,51.832 88.027,53.397 92.856,55.135 C94.808,55.83 96.761,56.521 98.714,57.215 L107.291,65.792 L110.036,63.046 C112.101,64.65 111.036,63.799 113.226,65.607 C113.375,65.732 113.375,65.732 113.525,65.858 C117.692,69.341 119.733,70.851 122.533,72.251 C124.981,73.475 134.47,78.441 135.016,78.722 C138.058,80.29 140.643,81.578 143.115,82.743 C146.725,84.526 150.485,85.952 154.255,87.349 C154.339,91.518 155.534,95.481 156.798,99.407 L170.605,85.601 L209.75,124.746 L193.995,140.5 L194.196,140.623 L115.097,219.722 L114.81,219.39 L109.503,224.698 L53.733,168.928 L85.737,136.923 L101.615,152.801 L117.476,136.941 L45.236,64.701 L66.559,43.378 z" fill="#000000" fill-opacity="0.25"/>
  </g>
  <g id="Layer_2">
    <path d="M71.352,176.921 C64.15,177.532 58.016,174.582 53.624,168.939 C47.605,160.343 49.694,148.496 58.29,142.477 L118.163,100.554 L51.92,69.664 C42.409,65.229 38.295,53.925 42.73,44.414 C47.164,34.904 58.469,30.789 67.979,35.224 L164.048,80.022 L164.334,80.173 C164.604,80.277 164.456,80.207 164.769,80.403 C166.084,81.099 165.465,80.708 166.631,81.571 C167.857,82.34 167.353,81.932 168.194,82.73 C169.128,83.421 168.637,82.995 169.609,84.07 C170.661,85.068 170.168,84.526 171.081,85.7 C171.328,85.974 171.234,85.84 171.383,86.088 L171.582,86.344 C172.721,88.159 172.358,87.396 172.853,88.537 C173.394,89.438 173.098,88.87 173.618,90.3 C174.197,91.632 174.034,91.049 174.24,92.008 C174.562,92.892 174.387,92.317 174.618,93.77 C174.934,95.244 174.891,94.632 174.907,95.589 C175.057,96.535 174.993,95.924 174.938,97.432 C174.963,98.901 175.035,98.305 174.872,99.231 C174.836,100.212 174.895,99.609 174.556,101.023 C174.292,102.52 174.485,101.91 174.109,102.89 C173.819,104.1 174.045,103.285 173.238,105.271 L173.086,105.558 C172.983,105.828 173.053,105.68 172.856,105.993 C172.161,107.307 172.552,106.688 171.689,107.853 C170.919,109.08 171.328,108.576 170.53,109.418 C169.839,110.351 170.265,109.861 169.189,110.832 C168.192,111.884 168.733,111.391 167.56,112.304 C167.286,112.552 167.42,112.457 167.172,112.607 L166.916,112.805 L80.086,173.605 C77.239,175.703 74.703,176.202 71.352,176.921 z" fill="#000000"/>
  </g>
</svg>
