<?xml version="1.0" encoding="UTF-8"?>
<!DOCTYPE svg PUBLIC "-//W3C//DTD SVG 1.1//EN" "http://www.w3.org/Graphics/SVG/1.1/DTD/svg11.dtd">
<svg version="1.1" xmlns="http://www.w3.org/2000/svg" xmlns:xlink="http://www.w3.org/1999/xlink" x="0" y="0" width="228" height="405" viewBox="0, 0, 228, 405">
  <defs>
    <linearGradient id="Gradient_1" gradientUnits="userSpaceOnUse" x1="1.725" y1="202.976" x2="226.522" y2="202.976">
      <stop offset="0" stop-color="#FFFFFF" stop-opacity="0.3"/>
      <stop offset="1" stop-color="#FFFFFF" stop-opacity="0.5"/>
    </linearGradient>
    <linearGradient id="Gradient_2" gradientUnits="userSpaceOnUse" x1="1.725" y1="202.976" x2="226.522" y2="202.976">
      <stop offset="0" stop-color="#FFFFFF" stop-opacity="0.3"/>
      <stop offset="1" stop-color="#FFFFFF" stop-opacity="0.5"/>
    </linearGradient>
    <linearGradient id="Gradient_3" gradientUnits="userSpaceOnUse" x1="1.725" y1="202.976" x2="226.522" y2="202.976">
      <stop offset="0" stop-color="#FFFFFF" stop-opacity="0.3"/>
      <stop offset="1" stop-color="#FFFFFF" stop-opacity="0.5"/>
    </linearGradient>
  </defs>
  <g id="Layer_1">
    <path d="M8.527,184.853 L14.301,179.202 C183.954,10.068 180.51,13.352 182.554,11.284 C191.88,1.844 209.471,-0.587 218.75,8.691 C224.521,14.555 226.49,22.683 226.211,30.5 L226.224,30.493 L226.43,375.077 C227.11,382.791 223.974,390.297 218.799,396.016 C209.417,405.399 194.287,405.483 185.009,396.205 C184.444,395.515 183.754,394.927 183.234,394.199 L12.572,223.225 C12.516,223.129 11.488,222.042 9.074,219.727 C-0.398,210.647 -0.856,194.236 8.527,184.853 L8.527,184.853 z" fill="url(#Gradient_1)"/>
    <g>
      <path d="M8.527,184.853 L14.301,179.202 C183.954,10.068 180.51,13.352 182.554,11.284 C191.88,1.844 209.471,-0.587 218.75,8.691 C224.521,14.555 226.49,22.683 226.211,30.5 L226.224,30.493 L226.43,375.077 C227.11,382.791 223.974,390.297 218.799,396.016 C209.417,405.399 194.287,405.483 185.009,396.205 C184.444,395.515 183.754,394.927 183.234,394.199 L12.572,223.225 C12.516,223.129 11.488,222.042 9.074,219.727 C-0.398,210.647 -0.856,194.236 8.527,184.853 L8.527,184.853 z" fill="url(#Gradient_2)"/>
      <g>
        <path d="M8.527,184.853 L14.301,179.202 C183.954,10.068 180.51,13.352 182.554,11.284 C191.88,1.844 209.471,-0.587 218.75,8.691 C224.521,14.555 226.49,22.683 226.211,30.5 L226.224,30.493 L226.43,375.077 C227.11,382.791 223.974,390.297 218.799,396.016 C209.417,405.399 194.287,405.483 185.009,396.205 C184.444,395.515 183.754,394.927 183.234,394.199 L12.572,223.225 C12.516,223.129 11.488,222.042 9.074,219.727 C-0.398,210.647 -0.856,194.236 8.527,184.853 L8.527,184.853 z" fill="url(#Gradient_3)"/>
        <path d="M8.527,184.853 L14.301,179.202 C183.954,10.068 180.51,13.352 182.554,11.284 C191.88,1.844 209.471,-0.587 218.75,8.691 C224.521,14.555 226.49,22.683 226.211,30.5 L226.224,30.493 L226.43,375.077 C227.11,382.791 223.974,390.297 218.799,396.016 C209.417,405.399 194.287,405.483 185.009,396.205 C184.444,395.515 183.754,394.927 183.234,394.199 L12.572,223.225 C12.516,223.129 11.488,222.042 9.074,219.727 C-0.398,210.647 -0.856,194.236 8.527,184.853 L8.527,184.853 z" fill-opacity="0" stroke="#000000" stroke-width="2"/>
      </g>
    </g>
  </g>
  <g id="Layer_3">
    <path d="M109.731,134.086 L181.986,206.341 L208.572,191.815 L226.06,209.304 L226.06,384.256 C223.429,389.095 220.511,393.767 216.512,397.595 L82.982,264.066 C83.247,263.085 83.382,262.075 83.534,261.072 C83.573,260.799 83.383,260.545 83.11,260.506 C82.836,260.467 82.583,260.657 82.544,260.931 C82.337,262.298 82.457,261.579 82.178,263.087 C82.118,262.658 82.164,263.003 82.07,262.05 C82.007,261.228 82.033,261.586 81.992,260.975 L148.841,224.45 L84.104,159.713 L109.731,134.086 z" fill="#000000" fill-opacity="0.25"/>
    <path d="M80.873,261.586 L80.872,261.956 L80.633,261.717 L80.873,261.586 z" fill="#000000" fill-opacity="0.25"/>
  </g>
  <g id="Layer_2">
    <path d="M99.813,129.099 C92.586,129.118 86.732,132.591 82.848,138.596 C77.602,147.683 80.715,159.304 89.803,164.55 L153.102,201.096 L89.803,237.641 C80.715,242.888 77.602,254.508 82.848,263.596 C88.095,272.683 99.715,275.797 108.803,270.55 L200.602,217.55 L200.874,217.374 C201.134,217.248 200.992,217.33 201.287,217.107 C202.536,216.3 201.953,216.744 203.039,215.782 C204.194,214.909 203.727,215.36 204.496,214.491 C205.366,213.721 204.914,214.188 205.788,213.033 C206.749,211.947 206.306,212.529 207.113,211.281 C207.336,210.986 207.253,211.128 207.38,210.868 L207.556,210.596 C208.533,208.688 208.237,209.479 208.631,208.3 C209.091,207.355 208.846,207.947 209.24,206.477 C209.7,205.099 209.589,205.695 209.71,204.722 C209.954,203.813 209.83,204.4 209.933,202.934 C210.119,201.437 210.13,202.051 210.062,201.096 C210.13,200.141 210.119,200.755 209.933,199.257 C209.83,197.791 209.954,198.379 209.71,197.471 C209.589,196.497 209.7,197.093 209.24,195.713 C208.846,194.245 209.091,194.836 208.631,193.892 C208.237,192.712 208.533,193.504 207.556,191.596 L207.38,191.324 C207.253,191.063 207.336,191.205 207.113,190.91 C206.306,189.662 206.749,190.244 205.788,189.159 C204.914,188.003 205.366,188.47 204.497,187.701 C203.727,186.832 204.194,187.283 203.038,186.409 C201.953,185.448 202.535,185.892 201.287,185.085 C200.992,184.862 201.134,184.944 200.874,184.817 L200.602,184.641 L108.803,131.641 C105.784,129.799 103.214,129.523 99.813,129.099 z" fill="#000000"/>
  </g>
</svg>
