<?xml version="1.0" encoding="UTF-8"?>
<!DOCTYPE svg PUBLIC "-//W3C//DTD SVG 1.1//EN" "http://www.w3.org/Graphics/SVG/1.1/DTD/svg11.dtd">
<svg version="1.1" xmlns="http://www.w3.org/2000/svg" xmlns:xlink="http://www.w3.org/1999/xlink" x="0" y="0" width="300" height="300" viewBox="0, 0, 300, 300">
  <g id="Layer_1">
    <g>
      <path d="M25.282,1.581 L33.366,1.669 C273.027,2.036 268.268,1.923 271.176,1.906 C284.451,1.826 298.616,12.545 298.616,25.667 C298.551,33.893 294.193,41.033 288.466,46.363 L288.48,46.368 L44.863,290.172 C39.888,296.107 32.359,299.197 24.653,299.581 C11.377,299.581 0.616,288.944 0.616,275.822 C0.704,274.934 0.631,274.031 0.778,273.149 L0.999,31.576 C1.027,31.467 1.07,29.973 0.999,26.629 C0.723,13.51 12.007,1.581 25.283,1.581 L25.282,1.581 z" fill="#FFFFFF" fill-opacity="0.8"/>
      <path d="M25.282,1.581 L33.366,1.669 C273.027,2.036 268.268,1.923 271.176,1.906 C284.451,1.826 298.616,12.545 298.616,25.667 C298.551,33.893 294.193,41.033 288.466,46.363 L288.48,46.368 L44.863,290.172 C39.888,296.107 32.359,299.197 24.653,299.581 C11.377,299.581 0.616,288.944 0.616,275.822 C0.704,274.934 0.631,274.031 0.778,273.149 L0.999,31.576 C1.027,31.467 1.07,29.973 0.999,26.629 C0.723,13.51 12.007,1.581 25.283,1.581 L25.282,1.581 z" fill-opacity="0" stroke="#000000" stroke-width="2"/>
    </g>
    <path d="M32.899,1.845 C33.04,1.845 33.04,1.845 33.04,1.845 C33.04,1.845 32.758,1.845 32.899,1.845 z" fill="#000000"/>
    <path d="M33.04,1.845 C33.04,1.845 33.04,1.845 33.04,1.845 z" fill="#000000"/>
    <path d="M1.803,28.959 C1.803,28.959 1.803,28.959 1.803,28.959 C1.803,28.959 1.803,28.924 1.803,28.959 z" fill="#000000"/>
  </g>
  <g id="Layer_3">
    <path d="M75.718,34.219 L107.291,65.792 L132.95,40.134 L173.616,80.801 L214.616,39.801 L254.817,80.002 L88.002,246.817 L47.801,206.616 L117.476,136.941 L45.236,64.701 L75.718,34.219 z" fill="#000000" fill-opacity="0.25"/>
    <path d="M45.104,163.621 L47.667,166.185 L45.104,168.748 L45.104,163.621 z" fill="#000000" fill-opacity="0.25"/>
  </g>
  <g id="Layer_2">
    <path d="M201.196,32.53 C211.949,32.53 220.665,41.259 220.665,52.027 C220.483,57.758 218.116,64.005 213.18,67.343 L73.519,207.202 C66.099,214.633 53.92,214.484 46.317,206.87 C38.714,199.256 38.566,187.06 45.986,179.63 L153.938,71.524 L59.986,71.524 C49.233,71.524 40.516,62.795 40.516,52.027 C40.516,41.259 49.233,32.53 59.986,32.53 L201.196,32.53 z" fill="#000000"/>
  </g>
</svg>
