<?xml version="1.0" encoding="UTF-8"?>
<!DOCTYPE svg PUBLIC "-//W3C//DTD SVG 1.1//EN" "http://www.w3.org/Graphics/SVG/1.1/DTD/svg11.dtd">
<svg version="1.1" xmlns="http://www.w3.org/2000/svg" xmlns:xlink="http://www.w3.org/1999/xlink" x="0" y="0" width="300" height="300" viewBox="0, 0, 300, 300">
  <defs>
    <clipPath id="Clip_1">
      <path d="M1.581,102.5 L298.581,102.5 L298.581,249.633 L1.581,249.633 z"/>
    </clipPath>
  </defs>
  <g id="Layer_1">
    <g clip-path="url(#Clip_1)" id="Isolation_Mode">
      <path d="M64.381,161.407 C64.533,161.499 64.685,161.592 64.837,161.684 C65.859,160.089 66.986,158.565 67.881,156.882 C69.811,153.254 69.719,148.883 71.148,145.034 C70.859,145.152 70.586,145.274 70.457,145.502 C69.414,147.343 68.184,149.098 67.426,151.083 C66.404,153.76 65.751,156.617 64.943,159.398 C64.749,160.065 64.568,160.737 64.381,161.407 M208.019,102.5 L213.673,102.5 C213.828,102.632 213.966,102.828 214.139,102.886 C216.617,103.708 219.095,104.524 221.581,105.314 C223.731,105.998 225.872,106.73 228.047,107.288 C230.913,108.024 233.788,108.808 236.698,109.208 C239.901,109.647 243.148,109.698 246.378,109.874 C250.255,110.086 254.035,110.786 257.634,112.515 C259.122,113.23 260.62,113.917 262.125,114.585 C263.25,115.084 264.329,115.29 265.228,113.985 C265.544,113.527 266.036,113.215 266.47,112.874 C268.957,110.925 271.804,111.293 273.483,113.788 C274.301,115.004 274.576,116.466 274.627,117.929 C274.672,119.221 275.045,120.098 276.124,120.565 C276.394,120.682 276.626,120.907 276.884,121.066 C280.16,123.087 283.214,125.408 285.542,128.814 C287.143,131.157 288.868,133.391 290.49,135.717 C290.957,136.385 291.389,137.158 291.607,137.963 C292.311,140.571 292.831,143.245 293.568,145.84 C294.477,149.042 295.451,152.239 297.065,155.098 C298.092,156.915 298.769,158.801 298.527,161.003 C298.512,161.134 298.505,161.274 298.528,161.403 C298.804,163.037 297.966,163.953 296.864,164.665 C296.432,164.942 295.926,165.067 295.487,165.333 C294.807,165.747 294.056,166.103 293.512,166.693 C292.229,168.081 290.813,169.182 289.107,169.711 C287.615,170.175 286.173,170.143 285.111,168.562 C284.642,167.864 284.149,168.018 283.867,168.668 C283.39,169.765 282.941,170.9 282.649,172.073 C282.055,174.456 280.713,175.926 278.65,176.541 C276.707,177.122 274.958,176.569 273.746,174.754 C272.367,172.69 271.104,170.514 269.93,168.292 C269.153,166.822 268.18,166.106 266.684,166.323 C265.924,166.433 265.166,166.579 264.403,166.627 C263.977,166.653 263.493,166.628 263.123,166.422 C262.156,165.884 261.181,165.759 260.125,165.929 C259.688,165.999 259.153,165.965 258.778,165.735 C257.528,164.969 256.311,164.125 255.123,163.24 C254.682,162.912 254.301,162.433 253.987,161.944 C252.968,160.363 252.074,158.671 250.978,157.166 C250.072,155.921 248.698,156.375 248.373,157.921 C248.121,159.12 247.892,160.331 247.726,161.549 C247.263,164.959 246.939,168.358 247.865,171.765 C248.375,173.641 248.641,175.601 249.102,177.496 C249.608,179.582 250.037,181.726 250.81,183.688 C252.067,186.877 253.497,189.988 254.997,193.042 C257.654,198.453 260.201,203.932 263.337,209.04 C265.378,212.363 267.029,215.995 268.843,219.497 C269.633,221.024 270.34,222.606 271.992,223.217 C272.825,223.525 273.659,223.898 274.415,224.393 C276.141,225.524 277.78,226.779 278.1,229.3 C278.128,229.526 278.316,229.806 278.498,229.913 C279.25,230.358 279.996,230.875 280.804,231.131 C283.851,232.098 286.391,233.879 288.299,236.774 C289.227,238.182 289.572,239.734 289.022,241.392 C288.704,242.347 288.223,243.252 287.714,244.1 C287.416,244.597 286.952,244.996 286.501,245.337 C285.699,245.945 284.881,246.549 284.011,247.013 C283.292,247.398 282.496,247.77 281.719,247.813 C279.555,247.932 277.401,247.324 275.211,247.775 C273.632,248.1 272.245,247.464 270.964,246.308 C269.731,245.196 268.356,244.28 267.02,243.322 C265.519,242.245 264.195,241.138 264.106,238.8 C264.043,237.135 263.287,235.63 262.22,234.489 C258.668,230.693 255.125,226.88 251.447,223.244 C248.991,220.816 246.22,218.798 243.761,216.372 C241.594,214.234 239.694,211.753 237.626,209.482 C234.838,206.42 232.053,203.34 228.753,200.969 C227.489,200.061 226.203,199.274 225.295,197.799 C224.57,196.621 223.533,195.689 222.624,194.66 C222.439,194.452 222.17,194.333 222,194.114 C220.142,191.719 218.167,189.426 217.22,186.298 C217.054,185.751 216.761,184.863 215.989,185.189 C215.276,185.49 214.913,185.103 214.433,184.677 C214.097,184.38 213.62,184.111 213.215,184.127 C212.325,184.163 211.437,184.367 210.555,184.54 C209.73,184.702 208.908,184.89 208.095,185.111 C207.53,185.265 206.989,185.524 206.426,185.685 C205.713,185.887 204.971,185.976 204.278,186.237 C203.932,186.366 203.566,186.702 203.381,187.058 C202.069,189.583 200.653,192.058 199.562,194.703 C198.396,197.529 197.474,200.494 196.588,203.453 C195.569,206.861 194.598,210.298 193.807,213.781 C193.024,217.232 192.422,220.743 191.897,224.257 C191.757,225.199 192.134,226.268 192.376,227.246 C192.562,227.995 193.099,228.248 193.807,228.307 C194.972,228.404 196.14,228.598 197.284,228.873 C199.776,229.472 201.805,230.824 203.058,233.489 C204.272,236.071 203.756,238.229 201.41,239.532 C200.387,240.1 199.268,240.438 198.209,240.926 C196.32,241.797 194.367,242.197 192.338,241.953 C190.174,241.693 188.01,241.414 185.856,241.067 C183.928,240.755 182.248,239.799 181.799,237.498 C181.139,234.117 180.752,230.668 180.2,227.259 C180.081,226.527 179.92,225.642 179.488,225.17 C178.478,224.071 178.257,222.775 178.34,221.336 C178.465,219.171 178.704,217.013 178.783,214.846 C178.968,209.779 179.318,204.699 179.173,199.641 C178.999,193.609 178.391,187.593 178.74,181.543 C178.744,181.477 178.764,181.386 178.735,181.347 C178.457,180.97 178.221,180.514 177.873,180.257 C177.485,179.971 177.085,180.049 176.726,180.55 C176.044,181.5 175.616,181.444 174.836,180.607 C174.61,180.365 174.038,180.123 173.903,180.252 C173.185,180.946 172.471,180.585 171.724,180.452 C170.531,180.24 169.33,180.069 168.128,179.956 C167.847,179.93 167.508,180.153 167.258,180.358 C166.676,180.835 166.07,181.006 165.449,180.571 C163.535,179.228 161.384,179.429 159.293,179.382 C156.676,179.323 154.078,179.227 151.567,178.265 C151.327,178.174 151.043,178.178 150.786,178.21 C149.029,178.433 147.503,177.979 145.999,176.806 C144.421,175.575 142.626,174.698 140.904,173.715 C138.719,172.47 136.513,171.274 134.315,170.058 C133.971,169.868 133.631,169.669 133.279,169.501 C131.774,168.786 130.501,169.206 129.682,170.778 C129.313,171.486 129.037,172.274 128.816,173.061 C128.3,174.902 127.916,176.793 127.337,178.607 C126.942,179.846 126.253,180.961 125.795,182.181 C125.002,184.292 124.394,186.499 123.513,188.559 C122.28,191.446 120.607,194.011 118.73,196.432 C116.909,198.779 115.197,201.249 113.581,203.782 C112.224,205.907 111.049,208.185 109.839,210.426 C109.106,211.783 108.304,213.133 107.809,214.606 C107.1,216.717 106.563,218.916 106.106,221.118 C105.754,222.813 105.619,224.589 106.589,226.147 C107.623,227.807 108.652,229.476 109.779,231.053 C111.878,233.989 114.374,236.058 117.964,235.86 C119.532,235.773 121.089,236.285 122.382,237.32 C123.306,238.06 124.089,239.051 124.858,240.009 C126.266,241.763 126.537,243.844 125.955,246.065 C125.577,247.507 124.593,248.282 123.328,248.355 C122.037,248.43 120.951,249.027 119.84,249.633 L112.242,249.633 C110.082,248.44 107.897,247.301 105.777,246.024 C105.106,245.62 104.417,244.963 104.068,244.22 C103.043,242.036 101.761,240.213 99.75,239.137 C99.488,238.997 99.233,238.801 99.028,238.57 C97.47,236.805 95.867,235.084 94.387,233.237 C91.523,229.664 88.539,226.211 86.426,221.93 C85.296,219.641 84.782,217.459 85.933,215.034 C86.477,213.89 87.06,212.764 87.521,211.577 C88.43,209.237 89.456,206.923 90.087,204.483 C90.919,201.263 91.463,197.942 92.036,194.643 C92.218,193.598 92.327,192.405 92.062,191.421 C91.631,189.817 91.517,188.242 91.512,186.594 C91.507,185.075 91.439,183.517 91.126,182.052 C90.825,180.646 90.173,179.337 89.675,177.986 C89.56,179.484 89.702,180.873 89.677,182.258 C89.623,185.126 88.21,187.095 85.796,187.88 C83.086,188.76 80.384,189.676 77.673,190.552 C73.187,192.002 68.96,194.155 64.842,196.605 C60.475,199.204 56.116,201.816 51.743,204.4 C51.485,204.553 51.136,204.506 50.83,204.559 C50.483,204.619 50.094,204.594 49.799,204.77 C49.234,205.109 48.672,205.502 48.202,205.988 C47.761,206.443 47.348,206.995 47.081,207.595 C45.971,210.085 45.013,212.668 43.827,215.108 C42.346,218.154 41.295,221.332 40.845,224.771 C40.592,226.701 41.357,228.354 41.927,230.061 C42.419,231.534 42.401,232.959 41.529,234.236 C40.359,235.951 38.792,236.948 36.895,237.203 C35.195,237.432 33.956,236.811 33.047,234.975 C31.582,232.011 31.415,228.733 30.907,225.533 C29.943,219.473 31.189,213.777 33.034,208.115 C34.19,204.566 34.953,200.848 35.828,197.186 C36.243,195.45 36.505,193.667 36.839,191.905 C37.152,190.248 38.011,189.346 39.492,188.854 C41.312,188.249 43.173,187.535 44.777,186.425 C47.727,184.384 50.527,182.055 53.34,179.77 C54.448,178.87 55.358,177.703 55.87,176.199 C55.604,176.324 55.37,176.488 55.18,176.703 C49.393,183.273 42.525,187.672 34.55,189.769 C31.193,190.651 27.782,190.777 24.386,189.967 C19.571,188.818 15.171,186.615 11.235,183.238 C8.117,180.563 5.248,177.63 3.332,173.684 C2.868,172.727 2.454,171.737 2.04,170.749 C1.86,170.318 1.619,169.857 1.611,169.405 C1.567,166.967 0.742,166.745 0.749,164.307 C0.751,164.014 1.581,161.418 1.726,161.225 C2.56,160.116 3.359,158.946 4.323,157.998 C5.76,156.584 7.716,156.473 8.909,157.656 C9.348,158.091 9.564,158.809 9.911,159.373 C10.836,160.881 10.734,162.432 10.283,164.117 C9.977,165.264 9.77,166.544 9.887,167.718 C10.255,171.404 12.303,173.931 14.819,176.003 C17.581,178.277 20.745,179.499 24.058,180.265 C29.358,181.49 34.468,181.302 39.154,177.731 C43.909,174.108 47.873,169.647 50.19,163.638 C52.756,156.984 55.059,150.2 57.554,143.51 C59.229,139.02 61.259,134.755 63.938,130.889 C67.791,125.331 72.327,120.889 78.233,118.302 C84.095,115.734 90.181,114.281 96.353,113.261 C100.6,112.559 104.883,112.045 109.166,111.727 C116.48,111.184 123.804,110.663 131.13,110.492 C142.697,110.221 154.27,110.267 165.84,110.139 C172.877,110.062 179.913,109.908 186.95,109.792 C191.121,109.722 195.1,108.888 198.833,106.576 C201.537,104.902 204.399,103.556 207.471,102.915 C207.669,102.874 207.837,102.643 208.019,102.5" fill="#000000"/>
    </g>
    <path d="M1.268,162.067 L1.065,162.269 L0.704,162.823 L0.47,163.422 L0.314,164.022 L0.269,164.584 L0.31,165.092 L0.465,165.674 L0.802,166.283 L1.213,166.747 L1.614,167.11 L2.014,167.448 L2.204,167.616 L2.204,167.616 C3.507,168.63 6.381,167.515 8.625,165.127 C10.869,162.739 11.632,159.981 10.329,158.968 C10.329,158.968 10.329,158.968 10.329,158.968 L10.045,158.768 L9.584,158.476 L9.252,158.309 L9.071,158.285 L8.969,158.393 L8.903,158.557 L8.853,158.754 L8.761,158.969 L8.606,159.181 L8.422,159.343 L8.162,159.406 L8.028,159.338 C8.028,159.338 8.028,159.338 8.028,159.338 C8.487,157.57 7.344,156.747 5.478,157.501 C3.611,158.254 1.726,160.299 1.268,162.067 L1.268,162.067" fill="#000000"/>
  </g>
</svg>
