<?xml version="1.0" encoding="UTF-8"?>
<!DOCTYPE svg PUBLIC "-//W3C//DTD SVG 1.1//EN" "http://www.w3.org/Graphics/SVG/1.1/DTD/svg11.dtd">
<svg version="1.1" xmlns="http://www.w3.org/2000/svg" xmlns:xlink="http://www.w3.org/1999/xlink" x="0" y="0" width="300" height="300" viewBox="0, 0, 300, 300">
  <g id="Layer_1">
    <path d="M30.057,267.523 C31.704,254.466 31.607,241.92 29.687,237.908 C28.52,247.788 29.458,257.654 30.057,267.523 M220.599,42.47 C220.547,42.202 220.542,42.028 220.48,41.872 C217.626,34.639 205.435,29.752 196.631,33.475 C194.944,34.188 194.127,35.431 194.422,37.002 C198.939,37.685 203.353,38.159 207.656,39.057 C211.959,39.955 216.152,41.278 220.599,42.47 M255.899,131.59 C256.016,130.296 256.117,129.17 256.219,128.045 C256.086,128.025 255.954,128.006 255.821,127.987 C255.497,129.084 255.356,130.26 254.812,131.262 C253.814,133.102 252.642,134.874 251.425,136.608 C250.34,138.154 249.116,139.624 247.911,141.1 C247.27,141.886 246.707,142.937 245.817,143.306 C243.351,144.325 242.377,146.168 241.483,148.232 C241.08,149.163 240.607,150.417 238.854,149.977 C238.662,149.928 238.297,150.254 238.085,150.465 C235.625,152.906 233.19,155.368 230.718,157.799 C230.367,158.144 229.828,158.617 229.417,158.587 C227.574,158.453 226.839,159.646 226.285,160.743 C225.03,163.23 223.924,165.783 222.925,168.362 C222.328,169.903 221.787,171.284 219.542,171.16 C219.293,171.147 218.924,171.195 218.798,171.341 C217.393,172.986 215.935,174.604 214.677,176.337 C213.693,177.691 212.64,178.719 210.691,178.852 C210.132,178.889 209.49,179.348 209.099,179.771 C203.945,185.353 197.664,189.325 189.522,190.514 C187.823,190.763 187.463,191.36 187.488,192.758 C187.633,200.943 187.586,209.131 187.796,217.315 C187.942,222.968 187.414,228.527 185.901,234.019 C184.473,239.203 184.809,244.473 185.478,249.666 C186.296,256.019 187.604,262.325 188.817,268.632 C189.381,271.561 191.151,273.94 193.691,275.871 C195.411,277.178 197.151,278.475 198.748,279.897 C199.321,280.407 200.003,281.648 199.765,281.9 C199.046,282.66 197.962,283.261 196.893,283.591 C196.338,283.762 195.41,283.359 194.822,282.994 C191.953,281.214 189.176,281.97 186.056,283.08 C189.297,284.702 190.253,286.975 189.133,289.839 C188.896,290.448 188.248,291.142 187.599,291.373 C183.775,292.731 179.857,293.033 176.066,291.355 C175.159,290.953 174.271,290.009 173.963,289.147 C173.303,287.308 172.224,285.897 170.478,284.769 C166.964,282.5 166.135,280.22 167.262,276.474 C168.701,271.694 169.004,266.838 168.371,261.936 C167.77,257.274 168.231,252.687 169.263,248.102 C170.387,243.109 169.663,238.093 168.662,233.194 C166.413,222.176 164.782,211.122 164.696,199.91 C164.675,197.215 163.46,195.367 160.759,193.783 C157.374,191.8 154.551,189.062 151.409,186.736 C150.598,186.135 149.483,185.452 148.532,185.478 C136.757,185.795 124.981,186.16 113.218,186.709 C110.53,186.834 107.838,187.559 105.233,188.26 C98.859,189.974 92.616,190.049 86.462,187.56 C86.22,187.463 85.945,187.43 85.348,187.286 C84.766,190.974 81.243,192.292 78.359,194.204 C70.726,199.266 65.386,206.102 60.621,213.253 C56.714,219.119 53.232,225.224 49.853,231.35 C48.964,232.96 49.034,235.038 48.883,236.914 C48.649,239.854 48.719,242.829 45.684,244.876 C45.364,245.092 45.282,245.632 45.164,246.037 C42.009,256.908 41.071,267.937 42.325,279.098 C42.74,282.788 44.649,285.918 47.396,288.721 C48.719,290.07 49.795,291.675 50.658,293.301 C51.498,294.882 50.923,296.405 49.454,297.608 C45.32,300.996 39.404,300.449 36.281,296.313 C35.04,294.67 33.456,293.718 31.242,293.562 C29.956,293.472 28.217,293.727 27.502,293.093 C26.383,292.101 25.687,290.545 25.296,289.123 C24.421,285.943 22.149,284.073 18.881,282.987 C14.792,281.628 13.987,280.177 15.479,276.565 C18.047,270.347 18.835,263.952 18.61,257.326 C18.292,247.927 18.425,238.515 18.442,229.109 C18.447,226.029 18.221,223.074 16.677,220.199 C15.279,217.596 15.36,215.124 17.791,212.628 C22.028,208.278 25.222,203.257 27.671,197.917 C28.322,196.5 28.681,194.849 28.62,193.324 C28.396,187.688 30.251,182.767 34.177,178.364 C34.898,177.555 35.008,176.292 35.323,175.218 C36.098,172.569 34.342,170.682 32.965,168.584 C31.348,166.12 30.048,163.476 28.78,160.846 C27.182,157.526 24.545,155.233 20.881,153.815 C19.218,155.634 19.102,155.61 17.858,153.142 C17.195,153.211 16.482,153.285 16.265,153.307 C15.025,152.327 14.015,151.588 13.097,150.768 C12.789,150.493 12.686,150.017 12.538,149.62 C12.088,148.409 11.874,147.084 11.183,145.997 C9.396,143.183 9.577,140.454 10.976,137.595 C11.244,137.048 10.743,136.238 10.803,135.564 C10.882,134.697 10.956,133.739 11.414,133.012 C12.189,131.777 12.668,130.639 12.726,129.137 C12.777,127.816 13.688,126.308 14.712,125.267 C18.452,121.467 22.075,117.55 26.98,114.789 C28.687,113.828 30.341,112.552 31.495,111.091 C37.6,103.353 46.301,98.971 55.87,95.591 C61.141,93.729 66.207,91.203 72.107,91.444 C77.088,91.648 82.053,92.143 87.032,92.403 C95.645,92.853 104.264,93.528 112.881,93.544 C123.112,93.561 133.205,94.424 143.3,95.752 C147.337,96.283 151.491,96.054 155.568,96.394 C161.49,96.89 167.436,97.351 173.285,98.269 C178.647,99.111 183.931,100.42 189.175,101.751 C192.06,102.485 194.783,102.261 197.417,101.351 C203.337,99.306 208.555,96.515 211.38,91.003 C213.019,87.803 215.199,84.823 217.109,81.73 C217.466,81.149 217.688,80.501 217.969,79.883 C218.909,77.815 219.846,75.744 220.947,73.314 C220.572,73.025 219.835,72.44 219.077,71.877 C218.136,71.177 217.178,70.493 216.226,69.803 C213.096,67.534 210.011,65.212 206.825,63.007 C198.29,57.099 185.433,60.66 180.088,66.796 C176.941,70.407 176.94,72.1 180.499,75.333 C183.656,78.201 187.325,80.407 191.441,82.031 C192.751,82.547 194.066,83.059 195.694,83.696 C193.084,86.167 190.136,87.493 186.537,87.037 C184.621,86.793 182.611,86.219 180.973,85.32 C170.272,79.443 163.59,71.102 163.156,59.694 C162.707,47.926 171.743,39.051 184.861,37.577 C185.191,37.54 185.516,37.452 185.833,37.39 C186.096,34.852 186.131,32.347 186.646,29.922 C188.563,20.896 193.876,14.291 204.111,11.593 C210.229,9.979 216.112,10.97 221.439,13.966 C230.362,18.982 237.255,25.79 242.57,33.87 C245.54,38.385 249.018,42.718 250.084,48.019 C250.59,50.535 250.815,53.101 251.068,55.653 C251.293,57.912 252.434,59.432 254.952,60.053 C256.463,60.424 257.941,60.905 259.46,61.243 C263.479,62.138 266.194,64.329 267.138,67.891 C267.744,70.175 269.005,71.853 270.962,73.325 C273.265,75.055 275.446,76.918 277.623,78.777 C280.138,80.922 283.063,81.678 286.486,81.178 C289.535,80.733 292.332,81.402 294.821,83.023 C297.964,85.069 299.175,87.83 298.356,91.215 C297.545,94.563 295.384,96.707 291.438,97.392 C286.875,98.183 282.724,99.91 278.99,102.387 C275.653,104.601 271.894,105.66 267.775,105.944 C266.837,106.01 265.772,106.402 265.058,106.948 C261.881,109.373 260.613,112.615 260.669,116.251 C260.747,121.233 259.685,125.957 257.104,130.389 C256.916,130.713 256.706,131.03 256.479,131.334 C256.418,131.416 256.256,131.438 255.899,131.59" fill="#000000"/>
  </g>
</svg>
