<?xml version="1.0" encoding="UTF-8"?>
<!DOCTYPE svg PUBLIC "-//W3C//DTD SVG 1.1//EN" "http://www.w3.org/Graphics/SVG/1.1/DTD/svg11.dtd">
<svg version="1.1" xmlns="http://www.w3.org/2000/svg" xmlns:xlink="http://www.w3.org/1999/xlink" x="0" y="0" width="300" height="300" viewBox="0, 0, 300, 300">
  <defs>
    <clipPath id="Clip_1">
      <path d="M0.615,44.795 L298.615,44.795 L298.615,236.454 L0.615,236.454 z"/>
    </clipPath>
  </defs>
  <g id="Layer_1">
    <g clip-path="url(#Clip_1)" id="Isolation_Mode">
      <path d="M94.919,181.335 C94.158,178.29 93.458,175.729 92.88,173.124 C91.713,167.874 90.748,162.546 89.454,157.349 C87.48,149.42 83.861,143.116 78.123,138.705 C71.772,133.822 62.935,135.82 58.271,140.771 C55.943,143.245 53.995,146.297 51.926,149.02 C51.916,148.905 51.875,148.343 51.815,147.784 C51.301,142.942 51.151,137.981 50.201,133.281 C46.799,116.451 36.731,105.905 23.045,104.906 C16.797,104.451 10.513,104.788 4.246,104.767 C3.16,104.764 2.074,104.767 0.988,104.767 C0.864,104.504 0.739,104.24 0.615,103.977 C1.118,103.519 1.652,103.106 2.119,102.593 C6.431,97.856 11.457,94.716 16.723,92.172 C20.989,90.112 25.305,88.221 29.619,86.33 C40.154,81.716 49.777,74.881 58.998,67.029 C62.771,63.816 65.11,59.495 65.854,53.765 C66.228,50.875 66.72,48.01 67.203,44.845 C67.498,45.266 67.67,45.427 67.753,45.643 C69.93,51.289 72.073,56.957 74.274,62.588 C76.182,67.472 78.187,72.295 80.092,77.181 C87.367,95.841 99.48,106.109 115.332,109.337 C120.999,110.491 126.843,110.22 132.602,110.67 C134.403,110.811 136.192,111.187 138,111.456 C139.469,101.722 140.931,92.028 142.394,82.333 C142.564,82.36 142.734,82.386 142.905,82.413 C143.017,85.065 143.059,87.725 143.262,90.365 C143.471,93.077 143.722,95.8 144.162,98.463 C144.865,102.715 146.419,103.859 150.735,103.654 C153.217,103.537 154.853,101.647 155.224,98.035 C155.764,92.775 156.137,87.485 156.586,82.163 C158.651,91.685 159.952,101.465 161.076,111.487 C162.838,111.214 164.501,110.831 166.174,110.72 C171.171,110.386 176.196,110.472 181.165,109.83 C195.598,107.967 207.33,99.817 215.885,84.724 C216.904,82.927 217.692,80.907 218.501,78.933 C221.653,71.245 224.8,63.551 227.888,55.821 C229.277,52.342 230.523,48.771 232,44.795 C232.307,46.551 232.703,47.964 232.783,49.406 C233.304,58.859 237.262,65.08 243.523,69.895 C253.36,77.459 263.535,83.886 274.456,88.528 C280.016,90.891 285.439,93.881 290.744,97.074 C293.567,98.773 296.003,101.51 298.616,103.778 C298.54,104.041 298.466,104.304 298.392,104.567 C297.778,104.624 297.163,104.738 296.55,104.73 C292.15,104.664 287.742,104.316 283.353,104.561 C278.812,104.815 274.143,104.912 269.789,106.347 C257.382,110.435 250.728,121.528 248.369,137.115 C247.759,141.145 247.617,145.292 247.249,149.517 C246.607,148.419 245.946,147.324 245.315,146.201 C241.713,139.798 236.709,136.47 230.649,135.923 C223.481,135.276 218.271,139.971 214.052,146.748 C211.271,151.215 209.872,156.551 208.702,161.975 C207.582,167.17 206.489,172.373 205.359,177.564 C205.127,178.624 204.78,179.643 204.359,181.135 C204.053,180.147 203.871,179.618 203.723,179.075 C200.94,168.843 194.76,164.538 186.479,167.143 C180.473,169.031 175.557,173.268 171.285,178.822 C164.01,188.281 159.292,199.72 156.075,212.109 C154.169,219.452 153.048,227.126 151.575,234.652 C151.513,234.971 151.467,235.296 151.207,235.63 C150.77,232.567 150.333,229.504 149.895,226.441 C149.73,226.436 149.564,226.43 149.399,226.425 C148.958,229.587 148.519,232.75 148.004,236.454 C147.748,234.635 147.565,233.293 147.371,231.954 C145.242,217.231 141.512,203.259 135.221,190.52 C131.557,183.098 127.118,176.567 121.248,171.799 C118.157,169.289 114.829,167.505 111.196,166.711 C104.397,165.225 98.986,168.908 96.236,176.933 C95.801,178.202 95.458,179.522 94.919,181.335" fill="#000000"/>
    </g>
  </g>
</svg>
