<?xml version="1.0" encoding="UTF-8"?>
<!DOCTYPE svg PUBLIC "-//W3C//DTD SVG 1.1//EN" "http://www.w3.org/Graphics/SVG/1.1/DTD/svg11.dtd">
<svg version="1.1" xmlns="http://www.w3.org/2000/svg" xmlns:xlink="http://www.w3.org/1999/xlink" x="0" y="0" width="300" height="300" viewBox="0, 0, 300, 300">
  <defs>
    <clipPath id="Clip_1">
      <path d="M0.043,104.806 L298.043,104.806 L298.043,230.182 L0.043,230.182 z"/>
    </clipPath>
    <clipPath id="Clip_2">
      <path d="M246,38.624 L110,38.624 L110,85 L246,85 z"/>
    </clipPath>
  </defs>
  <g id="Layer_1">
    <g clip-path="url(#Clip_1)" id="Isolation_Mode">
      <path d="M87.864,188.143 C88.298,187.895 88.734,187.647 89.297,187.325 C87.944,184.161 86.613,181.047 85.054,177.403 C83.686,181.886 82.445,185.987 81.176,190.076 C80.927,190.878 80.514,191.614 80.278,192.421 C79.967,193.485 79.631,194.574 79.524,195.682 C78.937,201.734 78.465,207.801 77.852,213.848 C77.573,216.596 76.871,216.852 75.008,215.125 C72.595,212.89 70.3,210.604 69.631,206.737 C69.458,205.74 68.526,204.925 67.859,203.898 C69.652,201.266 69.739,198.531 67.618,195.912 C69.992,193.58 70.266,191.496 68.496,188.393 C67.863,187.284 68.125,186.758 69,186.168 C71.362,184.578 71.711,183.023 70.385,180.081 C72.057,178.647 71.356,176.472 71.626,174.525 C72.154,170.728 70.664,169.154 67.861,167.562 C60.002,163.101 52.198,158.431 44.689,153.211 C36.051,147.209 26.917,143.483 16.967,142.374 C14.165,142.063 11.375,141.588 8.575,141.24 C7.093,141.056 6.014,140.566 5.546,138.577 C5.347,137.734 4.252,137.163 3.531,136.52 C3.106,136.14 2.385,135.988 2.198,135.514 C1.702,134.261 1.617,132.744 0.14,132.326 C0.039,132.298 -0.046,130.933 0.226,130.544 C1.934,128.104 3.499,125.38 5.603,123.523 C7.145,122.162 9.434,121.968 11.398,121.286 C12.638,120.857 13.896,120.501 15.138,120.081 C15.577,119.933 15.981,119.608 16.423,119.514 C21.728,118.385 27.033,117.25 32.35,116.197 C33.933,115.883 35.567,115.93 37.148,115.609 C38.37,115.361 39.573,114.882 40.733,114.349 C41.991,113.77 43.079,113.56 44.509,114.074 C46.209,114.685 48.135,114.608 49.954,114.531 C57.536,114.213 65.112,113.529 72.694,113.445 C92.132,113.228 111.543,114.108 130.895,116.385 C136.839,117.084 142.773,117.931 148.695,118.866 C154.423,119.771 160.026,118.69 165.676,117.902 C168.094,117.565 170.591,117.929 173.045,118.093 C173.723,118.139 174.379,118.61 175.524,119.083 C174.396,119.568 173.667,119.682 173.167,120.142 C172.455,120.795 171.406,121.722 171.429,122.496 C171.452,123.294 172.475,124.399 173.259,124.74 C174.58,125.315 176.053,125.607 177.469,125.649 C193.336,126.111 209.168,126.013 224.979,123.695 C232.305,122.621 239.771,122.905 247.171,122.503 C248.16,122.45 249.268,122.249 250.09,121.665 C254.66,118.409 259.2,115.088 263.67,111.645 C268.099,108.233 272.706,105.24 278.065,104.848 C280.872,104.643 283.76,105.228 286.553,105.833 C287.703,106.081 288.7,107.319 289.773,108.47 C286.73,109.706 286.152,112.733 285.237,115.495 C282.783,122.9 277.813,127.35 272.112,130.926 C271.471,131.328 270.815,131.693 270.117,132.104 C273.295,134.234 276.312,136.267 279.337,138.28 C282.334,140.273 285.241,142.511 288.371,144.154 C291.475,145.785 294.81,146.807 298.043,148.095 C298.009,148.344 297.973,148.593 297.939,148.843 C297.31,148.942 296.683,149.117 296.054,149.13 C286.585,149.303 277.607,146.537 268.862,142.597 C264.143,140.471 259.512,138.063 254.885,135.669 C251.676,134.008 248.455,133.979 245.11,134.9 C237.746,136.928 231.184,141.165 224.522,145.138 C210.632,153.424 196.772,161.748 182.169,168.268 C167.04,175.024 151.449,178.894 135.35,180.206 C129.16,180.711 122.977,181.335 116.608,181.922 C116.881,182.373 117.062,182.752 117.305,183.065 C120.214,186.809 123.124,190.554 126.06,194.271 C126.604,194.96 127.273,195.51 127.865,196.148 C130.19,198.656 132.59,201.074 134.803,203.711 C137.646,207.096 140.997,209.561 144.622,211.48 C149.029,213.814 152.639,217.254 155.67,221.613 C156.178,222.344 156.624,223.138 157.062,223.932 C157.675,225.044 157.499,226.118 156.549,226.713 C154.573,227.946 152.553,229.103 150.485,230.096 C149.982,230.338 149.093,230.035 148.603,229.62 C147.279,228.499 145.937,228.125 144.386,228.755 C143.275,229.205 142.445,229 141.82,227.593 C141.595,227.088 140.688,226.961 140.07,226.754 C139.469,226.553 138.527,226.718 138.28,226.287 C137.553,225.021 136.805,225.132 135.962,225.854 C134.895,226.767 134.172,226.763 133.575,225.175 C132.845,223.229 131.387,222.854 129.802,223.351 C128.707,223.695 128.161,223.521 127.756,222.133 C127.144,220.032 125.46,219.118 123.042,219.52 C121.48,219.779 120.615,219.662 119.331,217.914 C118.1,216.237 116.055,214.51 114.16,213.78 C112.431,213.116 111.105,212.376 109.924,210.801 C108.496,208.898 106.561,207.949 104.415,207.858 C103.088,207.802 102.42,207.302 102.335,205.631 C102.232,203.588 101.312,202.066 100.051,200.596 C97.577,197.713 95.401,194.476 92.952,191.562 C92.073,190.517 90.785,189.924 89.637,189.23 C89.111,188.912 88.473,188.848 87.886,188.668 C87.878,188.494 87.871,188.319 87.864,188.143" fill="#000000"/>
    </g>
    <g clip-path="url(#Clip_2)" id="Isolation_Mode">
      <path d="M205.921,69.45 C205.722,69.358 205.524,69.267 205.266,69.148 C205.884,67.977 206.492,66.825 207.203,65.477 C207.827,67.136 208.394,68.652 208.973,70.165 C209.087,70.462 209.275,70.734 209.383,71.032 C209.525,71.426 209.678,71.829 209.727,72.239 C209.995,74.477 210.21,76.721 210.49,78.958 C210.617,79.975 210.937,80.069 211.788,79.431 C212.889,78.604 213.936,77.758 214.242,76.328 C214.32,75.959 214.746,75.658 215.05,75.278 C214.232,74.304 214.192,73.293 215.161,72.324 C214.077,71.461 213.952,70.69 214.76,69.542 C215.049,69.132 214.929,68.938 214.53,68.72 C213.452,68.131 213.293,67.556 213.898,66.468 C213.134,65.938 213.455,65.133 213.331,64.413 C213.09,63.008 213.77,62.426 215.05,61.837 C218.636,60.187 222.198,58.46 225.625,56.529 C229.567,54.309 233.735,52.931 238.276,52.52 C239.555,52.405 240.828,52.23 242.106,52.101 C242.783,52.033 243.275,51.852 243.489,51.116 C243.579,50.804 244.079,50.593 244.408,50.355 C244.602,50.215 244.931,50.158 245.017,49.983 C245.243,49.519 245.282,48.958 245.956,48.804 C246.002,48.793 246.041,48.288 245.917,48.145 C245.137,47.242 244.423,46.234 243.462,45.547 C242.759,45.044 241.714,44.972 240.818,44.72 C240.252,44.561 239.678,44.43 239.111,44.274 C238.911,44.22 238.726,44.099 238.525,44.064 C236.103,43.647 233.682,43.227 231.256,42.838 C230.534,42.722 229.788,42.739 229.066,42.62 C228.508,42.528 227.959,42.351 227.43,42.154 C226.856,41.94 226.36,41.862 225.707,42.052 C224.931,42.278 224.052,42.25 223.222,42.221 C219.762,42.104 216.304,41.851 212.844,41.82 C203.973,41.739 195.114,42.065 186.283,42.907 C183.57,43.166 180.861,43.479 178.159,43.825 C175.545,44.16 172.987,43.76 170.409,43.468 C169.305,43.344 168.166,43.478 167.046,43.539 C166.737,43.556 166.437,43.73 165.915,43.905 C166.43,44.084 166.762,44.127 166.99,44.297 C167.316,44.538 167.794,44.881 167.784,45.168 C167.773,45.463 167.306,45.871 166.948,45.998 C166.345,46.21 165.673,46.318 165.027,46.334 C157.786,46.505 150.56,46.468 143.345,45.611 C140.001,45.214 136.594,45.319 133.217,45.17 C132.765,45.151 132.26,45.076 131.885,44.86 C129.799,43.656 127.727,42.427 125.687,41.154 C123.666,39.892 121.563,38.785 119.118,38.64 C117.836,38.564 116.518,38.78 115.244,39.004 C114.719,39.096 114.264,39.554 113.774,39.98 C115.163,40.437 115.427,41.556 115.844,42.578 C116.964,45.317 119.233,46.963 121.834,48.286 C122.127,48.434 122.426,48.57 122.745,48.722 C121.294,49.509 119.918,50.261 118.537,51.006 C117.169,51.743 115.843,52.571 114.414,53.179 C112.997,53.782 111.476,54.16 110,54.637 C110.016,54.729 110.032,54.821 110.048,54.913 C110.334,54.95 110.621,55.015 110.908,55.019 C115.229,55.083 119.326,54.06 123.317,52.603 C125.471,51.816 127.584,50.926 129.696,50.04 C131.161,49.426 132.631,49.415 134.157,49.756 C137.518,50.506 140.513,52.073 143.553,53.543 C149.892,56.608 156.218,59.687 162.882,62.099 C169.786,64.597 176.902,66.029 184.249,66.514 C187.074,66.701 189.896,66.932 192.802,67.149 C192.678,67.316 192.595,67.456 192.485,67.572 C191.157,68.957 189.829,70.342 188.489,71.717 C188.241,71.972 187.935,72.175 187.665,72.411 C186.604,73.339 185.509,74.233 184.499,75.209 C183.201,76.461 181.672,77.373 180.018,78.082 C178.006,78.946 176.359,80.218 174.975,81.83 C174.744,82.101 174.54,82.394 174.34,82.688 C174.06,83.1 174.141,83.497 174.575,83.717 C175.476,84.173 176.398,84.601 177.342,84.968 C177.571,85.058 177.977,84.946 178.201,84.792 C178.805,84.378 179.417,84.239 180.125,84.472 C180.632,84.639 181.011,84.563 181.297,84.042 C181.399,83.855 181.813,83.809 182.095,83.732 C182.369,83.658 182.799,83.719 182.912,83.559 C183.244,83.091 183.585,83.132 183.97,83.399 C184.457,83.737 184.787,83.735 185.059,83.148 C185.392,82.428 186.058,82.289 186.781,82.473 C187.281,82.6 187.53,82.536 187.715,82.023 C187.994,81.246 188.763,80.908 189.866,81.056 C190.579,81.152 190.974,81.109 191.56,80.462 C192.122,79.842 193.055,79.203 193.92,78.933 C194.709,78.687 195.314,78.414 195.853,77.831 C196.505,77.127 197.388,76.776 198.367,76.742 C198.973,76.722 199.278,76.537 199.316,75.919 C199.363,75.163 199.783,74.6 200.359,74.056 C201.488,72.99 202.481,71.793 203.599,70.715 C204,70.328 204.588,70.109 205.111,69.852 C205.351,69.734 205.643,69.711 205.911,69.644 C205.914,69.58 205.917,69.515 205.921,69.45" fill="#000000"/>
    </g>
  </g>
</svg>
