<?xml version="1.0" encoding="UTF-8"?>
<!DOCTYPE svg PUBLIC "-//W3C//DTD SVG 1.1//EN" "http://www.w3.org/Graphics/SVG/1.1/DTD/svg11.dtd">
<svg version="1.1" xmlns="http://www.w3.org/2000/svg" xmlns:xlink="http://www.w3.org/1999/xlink" x="0" y="0" width="300" height="300" viewBox="0, 0, 300, 300">
  <defs>
    <clipPath id="Clip_1">
      <path d="M1,103.357 L298.729,103.357 L298.729,190.5 L1,190.5 z"/>
    </clipPath>
    <clipPath id="Clip_2">
      <path d="M297.61,3.857 L182.293,3.857 L182.293,38 L297.61,38 z"/>
    </clipPath>
  </defs>
  <g id="Layer_1">
    <path d="M205.554,136.734 L205.879,136.811 C205.713,136.734 205.818,136.771 205.554,136.734 z" fill="#000000" fill-opacity="0.411"/>
    <path d="M213.346,139.113 L213.275,139.143 L213.363,139.273 L213.346,139.113 z" fill="#3FB4D5"/>
    <path d="M200.432,146.009" fill="#3FB4D5"/>
    <path d="M329.114,144.49 L328.993,144.519 C329.055,144.49 329.016,144.504 329.114,144.49 z" fill="#000000" fill-opacity="0.411"/>
    <path d="M326.218,145.375 L326.244,145.386 L326.211,145.434 L326.218,145.375 z" fill="#3FB4D5"/>
    <path d="M234.794,13.072 L234.691,13.096 C234.744,13.072 234.71,13.084 234.794,13.072 z" fill="#000000" fill-opacity="0.411"/>
    <path d="M232.306,13.815 L232.329,13.824 L232.301,13.864 L232.306,13.815 z" fill="#3FB4D5"/>
    <path d="M236.43,15.966" fill="#3FB4D5"/>
    <path d="M123.821,69.073 L123.879,69.088 C123.849,69.073 123.868,69.08 123.821,69.073 z" fill="#000000" fill-opacity="0.411"/>
    <path d="M125.213,62.523 L125.2,62.529 L125.216,62.553 L125.213,62.523 z" fill="#3FB4D5"/>
    <path d="M122.906,63.826" fill="#3FB4D5"/>
    <g clip-path="url(#Clip_1)" id="Isolation_Mode">
      <path d="M298.729,108.881 C297.69,110.466 297.035,111.607 296.247,112.639 C288.203,123.174 280.177,133.726 272.041,144.189 C270.365,146.344 270.704,147.828 272.281,149.865 C280.668,160.703 288.917,171.653 297.197,182.576 C297.655,183.179 297.984,183.885 298.655,185.016 C294.541,186 290.892,185.11 287.271,184.486 C276.482,182.623 267.254,177.456 259.649,169.527 C245.798,155.086 229.184,153.793 211.677,159.244 C199.381,163.074 187.39,168.103 175.547,173.283 C148.409,185.157 120.315,191.534 90.736,190.362 C56.039,188.988 26.749,175.248 2.541,149.722 C0.387,147.45 0.592,145.837 2.53,143.651 C18.409,125.749 37.374,113.67 60.575,107.946 C82.441,102.552 104.189,102.129 126.171,105.547 C142.862,108.143 158.85,113.306 174.341,120.228 C184.634,124.829 195.003,129.291 205.526,133.294 C215.489,137.086 225.861,138.963 236.591,138.76 C243.825,138.624 249.055,135.147 254.137,130.23 C260.019,124.54 266.267,119.105 272.962,114.492 C279.865,109.738 288.226,109.095 296.351,108.325 C296.86,108.277 297.399,108.557 298.729,108.881" fill="#000000"/>
    </g>
    <path d="M93.872,104.347 L93.872,104.347 L93.872,104.348 L93.872,104.348 L93.872,104.348 C95.062,107.112 95.908,110.048 96.732,112.978 C97.965,117.857 99.049,122.754 99.347,127.843 C99.354,127.953 99.324,128.09 99.37,128.169 C100.809,130.651 98.739,131.517 97.678,132.824 C97.1,133.538 96.385,133.504 95.697,133.029 C95.285,132.744 94.951,132.205 94.517,132.089 C93.305,131.783 92.586,130.833 92.242,129.527 C92.423,129.47 92.262,129.521 92.727,129.374 C92.372,126.028 91.399,123.052 90.429,119.945 C89.161,115.962 87.198,112.357 85.103,108.884 L85.103,108.883 L85.103,108.883 L85.103,108.882 L85.103,108.883 L85.103,108.883 L85.103,108.883 L85.103,108.883 C86.294,111.65 87.139,114.585 87.963,117.513 C89.071,121.574 89.816,125.733 90.36,129.935 L90.853,129.849 C91.241,131.743 89.723,132.59 88.634,133.606 C87.833,134.455 86.963,133.551 86.053,133.099 C83.981,132.065 83.67,130.076 83.209,127.992 C81.827,121.743 79.522,115.952 76.337,110.621 C76.183,110.363 75.999,110.129 75.58,109.526 C76.851,112.768 77.947,116.095 78.967,119.449 L78.998,119.512 C80.395,122.345 81.199,124.62 81.614,127.411 C81.713,128.237 81.659,129.14 81.219,129.844 L81.371,131.073 C81.397,132.13 81.402,132.144 79.618,134.116 C78.904,134.906 78.125,135.12 77.318,134.255 C76.715,133.607 76.044,133.096 75.282,132.693 C74.751,132.372 74.261,131.933 74.198,131.195 C74.185,131.031 74.267,130.875 74.301,130.715 L74.748,130.574 C74.393,127.228 73.42,124.252 72.45,121.146 C71.182,117.163 69.219,113.557 67.124,110.084 L67.124,110.083 L67.124,110.083 L67.124,110.083 L67.124,110.083 L67.124,110.083 L67.124,110.084 C68.315,112.851 69.16,115.785 69.984,118.714 C71.002,122.788 70.552,120.739 71.337,124.861 C71.349,125.426 71.356,125.99 71.363,126.555 L71.373,126.766 L71.67,128.325 C71.994,128.58 71.918,128.958 71.971,129.344 C72.107,129.778 72.058,129.61 72.125,129.845 L72.133,129.857 L72.133,129.872 C72.141,129.904 72.135,129.883 72.147,129.937 C72.155,129.975 72.155,129.975 72.159,130.129 C72.158,130.265 72.176,130.206 72.113,130.308 C72.114,130.743 71.902,131.125 71.521,131.245 L71.51,132.351 C71.416,133.162 71.516,132.88 71.369,133.246 C71.438,133.524 71.447,133.382 71.307,133.667 L71.045,134.053 C70.549,135.441 69.269,135.947 68.066,136.05 C67.357,135.947 67.599,136.058 67.293,135.901 C65.656,136.07 66.782,135.948 63.919,136.309 C62.765,136.481 62.343,135.919 62.25,134.699 C61.991,131.279 61.282,127.958 60.52,124.647 C59.084,118.409 54.816,115.432 49.339,117.098 C42.207,119.269 35.461,122.57 29.006,126.639 C24.059,129.758 19.417,133.413 14.86,137.211 C11.184,140.275 9.893,144.64 11.407,149.127 C11.991,150.854 12.956,152.274 14.3,153.372 C15.162,154.079 15.939,154.917 16.763,155.683 C17.409,156.283 17.333,157.011 17.078,157.782 C17.141,157.858 17.204,157.936 17.267,158.014 C17.732,158.311 18.221,158.356 18.76,158.382 C19.37,158.411 20.176,158.486 19.929,159.693 C19.761,160.522 20.374,160.401 20.762,160.372 C21.568,160.311 22.287,160.572 22.973,160.987 C23.3,161.185 24.335,161.003 23.354,162.01 C22.945,162.429 23.618,162.516 23.87,162.493 C25.517,162.336 26.683,163.364 27.823,164.478 C28.193,164.493 28.565,164.507 28.936,164.522 C29.048,164.375 47.517,176.163 47.618,176.31 C57.712,176.592 55.676,170.674 59.537,165.384 C60.612,163.911 60.896,162.006 61.185,160.159 L61.179,160.152 C61.395,159.076 62.008,156.051 62.1,155.462 C62.182,154.943 62.187,154.414 62.23,153.89 C62.302,150.225 63.245,146.662 63.05,142.973 C62.986,141.765 63.825,141.002 64.906,141.296 C65.947,141.579 66.795,141.259 67.683,140.786 C70.549,139.259 73.287,141.074 73.442,144.604 C73.477,145.374 73.443,146.148 73.441,146.919 C73.41,153.278 72.618,159.541 71.522,165.766 L72.093,165.764 C72.106,165.084 72.365,164.505 72.605,163.893 C73.001,162.887 73.384,161.842 73.575,160.77 C74.039,158.169 74.347,155.534 74.797,152.929 C75.302,150.007 75.459,147.015 75.618,144.088 C75.714,142.326 75.909,141.23 77.09,140.136 C78.431,138.894 81.89,139.618 82.606,141.476 C82.694,141.704 82.595,142.016 82.629,142.281 C82.881,144.271 82.347,146.221 82.371,148.194 C82.41,151.37 82.52,154.523 81.783,157.668 C81.448,159.098 81.652,160.689 81.607,162.415 C82.378,161.752 82.31,161.054 82.407,160.415 C82.696,158.513 82.846,156.562 83.333,154.726 C84.113,151.785 84.51,148.854 84.404,145.775 C84.328,143.568 83.636,140.973 86.178,139.663 C86.301,139.601 86.379,139.427 86.478,139.306 C87.914,137.568 87.744,137.887 89.454,139.064 C91.374,140.385 91.63,142.035 91.208,144.145 C90.922,145.579 91.635,146.94 91.337,148.339 C90.921,150.278 90.775,152.262 90.673,154.229 C90.502,157.479 90.304,160.699 89.19,163.751 C89.063,164.099 88.756,164.348 89.349,164.573 C89.811,164.747 90.111,164.515 90.151,164.179 C90.322,162.728 91.077,161.512 91.251,160.018 C91.449,158.31 91.975,156.653 92.144,154.891 C92.514,151.048 93.651,147.283 93.525,143.41 C93.462,141.484 93.57,140.14 95.222,139.264 C96.049,138.826 96.031,137.22 97.05,137.086 C98.13,136.945 98.469,138.457 99.398,138.824 C100.293,139.178 100.57,139.912 100.491,141.012 L100.285,143.938 C98.908,152.699 99.627,148.661 98.195,156.068 C97.246,160.876 96.054,165.613 94.727,170.304 L94.727,170.304 L94.727,170.305 L94.727,170.305 L94.727,170.305 L94.727,170.305 L94.727,170.305 L94.727,170.304 C97.321,164.521 99.229,158.398 100.828,152.185 C101.876,147.586 103.017,142.989 103.585,138.275 C104.404,137.458 104.044,137.892 104.68,136.988 C105.327,135.978 106.349,135.965 106.991,136.575 C108.429,137.942 109.972,139.373 109.181,142.031 C108.876,143.058 108.882,144.203 108.744,145.294 C107.828,152.567 106.28,159.682 104.466,166.729 C104.754,166.725 105.042,166.72 105.33,166.715 C105.475,164.969 106.378,163.529 106.858,161.914 C108.355,156.88 109.489,151.73 110.715,146.611 C111.096,145.019 111.374,143.117 111.239,141.719 C111.041,139.655 111.548,138.842 112.915,138.051 C113.28,137.84 113.597,137.393 113.8,136.97 C114.425,135.662 115.441,135.441 116.535,135.752 C117.573,136.046 118.988,138.49 118.851,139.502 C117.862,146.811 116.324,153.975 114.382,161.032 C113.836,163.014 113.255,164.982 112.691,166.957 C112.879,166.962 113.067,166.968 113.255,166.974 C113.787,165.509 114.321,164.045 114.85,162.579 C117.007,156.603 118.857,150.53 119.85,144.139 C120.298,141.256 120.044,138.025 122.944,136.158 C124.143,135.387 125.622,135.16 126.709,136.257 C127.941,137.5 127.953,138.78 127.706,140.492 C126.66,147.75 124.989,154.816 122.913,161.769 C122.781,162.347 122.858,162.088 122.696,162.552 L122.756,162.535 C123.325,162.622 123.069,162.575 123.525,162.668 C123.828,161.821 123.675,162.236 123.984,161.421 C126.748,154.203 128.959,146.799 129.996,138.996 C130.085,138.324 130.31,137.879 130.83,137.575 C131.495,137.187 131.963,136.56 132.411,135.89 C133.035,134.956 134.372,134.823 135.067,135.597 C136.316,136.989 136.896,138.4 136.578,140.659 C135.804,146.162 135.035,151.647 133.694,157.018 C133.618,157.324 133.525,157.665 133.744,157.968 C134.167,158.065 134.207,157.678 134.289,157.389 C136.011,151.351 137.798,145.332 138.31,138.958 C138.396,137.889 141.932,135.013 142.885,135.117 C143.387,135.172 143.577,135.641 143.917,135.878 C146.596,137.742 145.901,140.495 145.562,143.241 C144.879,148.766 143.841,154.2 142.555,159.583 C142.429,160.109 142.38,160.659 142.294,161.197 L142.342,161.241 C144.055,157.98 144.86,154.329 145.755,150.739 C146.694,146.969 147.441,143.136 147.597,139.199 C147.62,138.6 147.818,138.201 148.265,137.837 C148.811,137.391 149.295,136.826 149.743,136.249 C150.826,134.853 152.312,135.249 153.546,136.356 C156.733,139.216 154.774,142.599 154.424,145.686 C153.902,150.266 152.701,154.718 151.522,159.149 C151.412,159.561 151.278,159.963 151.589,160.643 C152.367,158.45 153.103,156.482 153.768,154.484 C155.123,150.413 156.126,146.231 156.769,141.941 C156.794,141.779 156.889,141.606 156.861,141.46 C156.353,138.773 158.35,137.668 159.517,136.041 C159.803,135.641 160.191,135.663 160.585,135.671 C162.223,135.706 164.075,138.378 163.754,140.238 C163.027,144.45 162.441,148.694 161.504,152.858 C161.458,153.059 161.487,153.28 161.611,153.54 C162.575,152.145 162.945,150.453 163.383,148.827 C164.202,145.78 164.97,142.717 165.302,139.531 C165.466,137.963 168.977,135.872 170.182,136.495 C171.281,137.063 172.484,139.781 172.236,141.177 C171.611,144.694 171.059,148.229 170.079,151.654 C169.916,152.222 169.848,152.826 170.003,153.523 C170.703,151.424 171.504,149.36 172.076,147.218 C172.667,145.007 173.44,142.835 173.607,140.495 C173.653,139.846 173.909,139.401 174.497,139.13 C174.979,138.908 175.43,138.522 175.816,138.113 C177.351,136.485 178.794,136.927 180.281,138.507 C182.778,141.16 180.794,143.822 180.678,146.463 C180.631,147.528 180.224,148.575 179.929,149.853 C180.715,149.569 180.817,148.937 180.958,148.443 C181.607,146.186 182.252,143.924 182.796,141.633 C182.962,140.932 183.128,140.439 183.754,140.154 C184.392,139.865 184.886,139.309 185.364,138.747 C186.252,137.702 187.702,137.904 188.384,139.15 C188.513,139.383 188.574,139.73 188.755,139.85 C190.773,141.185 190.093,143.128 189.686,145.026 C189.505,145.872 189.368,146.731 189.353,147.637 C190.147,146.237 190.596,144.675 190.898,143.085 C191.078,142.135 191.381,141.508 192.198,141.119 C192.718,140.874 193.173,140.404 193.601,139.964 C194.73,138.801 196.545,139.151 197.107,140.782 C197.559,142.094 199.001,142.564 199.03,144.299 C200.19,142.711 202.025,142.542 202.926,140.807 C203.237,140.21 205.57,141.211 205.933,141.983 C206.048,142.226 206.137,142.485 206.254,142.725 C207.394,145.064 209.11,145.374 210.891,143.566 C212.382,142.051 212.865,142.168 213.887,144.04 C214.313,144.817 214.842,145.495 215.242,146.331 C215.8,147.497 217.86,147.087 218.974,145.778 C220.58,143.893 221.829,144.126 222.831,146.498 C223.656,148.453 225.16,148.771 226.773,147.332 C228.178,146.08 229.839,146.528 230.609,148.368 C231.5,150.5 232.719,150.928 234.455,149.546 C235.237,148.923 235.891,148.982 236.739,149.227 C238.503,149.736 240.055,150.485 241.297,152.118 C242.15,153.24 243.413,153.854 244.689,154.277 C245.054,154.399 245.525,154.583 245.778,154.161 C246.092,153.64 245.699,153.231 245.382,152.894 C243.761,151.17 241.871,150 239.65,149.42 C241.366,148.749 243.092,148.252 244.537,147.022 C245.081,146.559 245.615,146.08 246.125,145.57 C246.487,145.207 246.954,144.751 246.627,144.176 C246.324,143.645 245.718,143.838 245.272,143.997 C243.152,144.756 241.245,145.919 239.724,147.827 C238.534,149.32 236.324,148.917 235.491,147.066 C235.109,146.219 234.698,145.43 233.951,144.927 C233.415,144.566 232.847,144.388 232.299,144.787 C231.374,145.459 230.396,145.429 229.355,145.373 C228.347,145.318 227.658,144.971 227.07,143.979 C226.075,142.3 225.17,142.156 223.6,143.152 C221.792,144.301 220.572,143.996 219.433,142.111 C218.055,139.831 216.755,139.539 214.776,141.064 C213.324,142.183 212.595,141.988 211.775,140.259 C211.73,140.163 211.713,140.046 211.658,139.958 C209.741,136.889 208.845,136.721 206.553,139.081 C205.219,140.455 203.443,140.189 202.659,138.303 C202.133,137.037 200.548,136.661 200.404,135.438 C200.264,134.25 200.583,132.973 199.942,131.618 C198.765,132.621 199.221,133.892 199.474,134.982 C199.656,135.765 199.703,136.147 198.937,136.484 C198.371,136.733 197.896,137.277 197.411,137.731 C196.423,138.658 194.825,138.427 194.184,137.193 C193.736,136.331 193.277,135.493 192.512,134.951 C191.548,134.267 191.72,133.049 191.365,131.945 C191.755,134.878 189.242,135.193 188.09,136.681 C187.649,137.251 186.295,137.083 185.74,135.951 C185.355,135.165 184.919,134.389 184.26,133.947 C183.5,133.438 183.422,132.747 183.38,131.886 C183.289,130.013 183,128.171 182.22,126.37 C182.261,127.399 182.165,128.464 182.369,129.448 C182.938,132.208 181.852,134.05 179.97,135.524 C179.441,135.938 176.888,135.382 176.48,134.782 C176.45,134.739 176.439,134.671 176.402,134.643 C174.064,132.902 174.248,130.029 173.9,127.396 C173.767,126.384 173.728,125.346 173.198,124.055 C172.688,126.477 173.274,128.525 173.138,130.575 C172.981,132.934 170.246,135.488 168.539,134.294 C167.291,133.421 165.557,132.403 165.482,130.158 C165.401,127.713 164.887,125.357 164.428,122.987 C164.347,122.572 164.378,122.089 163.859,121.789 C164.032,124.429 164.195,126.997 164.37,129.563 C164.538,132.032 162.592,134.063 160.472,133.649 C160.064,133.57 159.815,133.312 159.497,133.057 C157.144,131.169 156.731,128.331 156.443,125.386 C156.313,124.051 156.147,122.701 155.305,121.536 C155.384,123.26 155.459,124.984 155.547,126.707 C155.572,127.202 155.66,127.693 155.676,128.187 C155.771,131.142 153.795,133.257 151.19,133.004 C149.992,132.888 147.654,130.041 147.588,128.666 C147.432,125.453 146.839,122.295 146.091,119.2 C145.915,119.278 146.069,119.213 145.608,119.305 C145.919,122.277 145.817,120.959 145.958,123.255 C145.951,124.41 146.059,125.566 146.121,126.721 C146.317,130.339 146.339,130.372 143.935,132.375 C143.13,133.046 142.202,132.792 141.352,132.315 C141.274,132.272 141.251,132.101 141.174,132.062 C138.402,130.648 138.597,127.742 138.376,124.997 C137.941,121.135 138.236,122.988 137.521,119.431 L136.95,119.414 L136.406,119.367 C136.958,126.225 136.781,123.174 137.021,128.513 C137.1,130.461 135.499,132.429 133.915,132.421 C132.001,132.409 130.631,130.774 130.614,128.621 C130.566,122.651 129.517,116.903 127.591,111.364 C127.506,111.12 127.456,110.826 127.017,110.694 C126.89,112.151 127.336,113.482 127.564,114.811 C128.375,119.546 128.55,124.328 128.534,129.133 C128.53,130.207 127.132,131.932 125.968,132.356 C123.593,133.22 121,131.363 120.9,128.582 C120.743,124.202 120.12,119.925 119.102,115.711 C119.048,115.105 118.766,114.589 118.461,114.112 L118.461,114.112 L118.461,114.112 L118.461,114.112 L118.461,114.112 L118.459,114.1 L118.454,114.104 L118.461,114.112 L118.46,114.112 L118.461,114.112 L118.461,114.112 L118.461,114.112 C118.965,119.57 118.725,116.839 119.181,122.303 C119.34,124.665 119.356,127.039 119.481,129.404 C119.524,130.24 119.254,130.718 118.596,131.073 C118.124,131.327 117.703,131.731 117.303,132.127 C116.838,132.59 116.323,132.818 115.712,132.828 C113.818,132.856 111.506,130.199 111.42,128.079 C111.218,123.123 110.55,118.255 109.055,113.563 C108.721,114.622 108.972,115.663 109.112,116.682 C109.683,120.836 109.658,125.032 109.836,129.215 C109.839,129.27 109.854,129.333 109.836,129.379 C109.169,131.111 107.601,131.796 106.458,132.951 C105.791,133.624 104.886,132.907 104.183,132.155 C102.375,130.218 102.277,130.274 101.929,127.719 C101.356,123.513 100.595,119.356 99.198,115.41 C97.928,111.42 95.964,107.817 93.872,104.348 L93.872,104.348 L93.872,104.348 L93.872,104.347 z M61.166,159.872 C61.172,160.062 61.169,159.97 61.175,160.148 C61.066,160.025 61.122,160.088 61.006,159.958 C61.06,159.929 61.113,159.901 61.166,159.872 L61.166,159.872 z M20.801,145.68 C21.891,145.75 21.435,145.638 22.188,145.896 C22.874,146.198 23.63,146.542 23.554,147.551 C23.477,148.572 22.758,148.985 21.94,149.145 C21.656,149.201 21.363,149.198 21.073,149.217 C20.833,149.191 20.59,149.185 20.354,149.136 C19.495,148.956 18.694,148.563 18.654,147.455 C18.611,146.255 19.541,146.01 20.337,145.775 L20.801,145.68 z M37.697,135.719 L38.306,135.745 C40.601,135.938 42.772,139.054 42.566,141.92 C42.377,144.536 40.577,147.519 37.429,146.637 C33.36,146.339 32.194,144.93 32.409,140.568 C32.669,137.142 35,135.958 37.696,135.72 L37.697,135.719 z" fill="#454343"/>
    <g clip-path="url(#Clip_2)" id="Isolation_Mode">
      <path d="M182.293,6.021 C182.696,6.642 182.949,7.089 183.255,7.494 C186.37,11.621 189.479,15.756 192.63,19.855 C193.279,20.699 193.148,21.281 192.537,22.079 C189.288,26.325 186.094,30.616 182.886,34.895 C182.709,35.132 182.581,35.408 182.322,35.851 C183.915,36.237 185.329,35.888 186.731,35.644 C190.91,34.914 194.484,32.889 197.429,29.783 C202.794,24.125 209.229,23.618 216.01,25.754 C220.773,27.254 225.417,29.225 230.004,31.254 C240.515,35.907 251.396,38.405 262.853,37.946 C276.292,37.408 287.636,32.024 297.013,22.023 C297.847,21.133 297.768,20.501 297.017,19.644 C290.867,12.63 283.521,7.897 274.535,5.655 C266.066,3.542 257.642,3.376 249.128,4.715 C242.664,5.732 236.471,7.755 230.471,10.467 C226.484,12.27 222.468,14.018 218.393,15.586 C214.534,17.072 210.516,17.808 206.36,17.728 C203.559,17.674 201.533,16.312 199.564,14.386 C197.286,12.157 194.866,10.027 192.273,8.22 C189.599,6.357 186.361,6.105 183.214,5.803 C183.017,5.784 182.808,5.894 182.293,6.021" fill="#000000"/>
    </g>
    <path d="M261.638,4.245 L261.638,4.245 L261.638,4.245 L261.638,4.245 L261.638,4.245 C261.177,5.328 260.849,6.478 260.53,7.626 C260.053,9.538 259.633,11.457 259.517,13.451 C259.515,13.494 259.526,13.547 259.509,13.578 C258.951,14.551 259.753,14.89 260.164,15.402 C260.388,15.682 260.665,15.669 260.931,15.482 C261.091,15.371 261.22,15.16 261.388,15.114 C261.858,14.994 262.136,14.622 262.269,14.11 C262.199,14.088 262.262,14.108 262.081,14.051 C262.219,12.739 262.596,11.573 262.971,10.356 C263.462,8.796 264.223,7.383 265.034,6.022 L265.034,6.022 L265.034,6.022 L265.034,6.022 L265.034,6.022 L265.034,6.022 L265.034,6.022 L265.034,6.022 C264.573,7.106 264.246,8.256 263.926,9.403 C263.498,10.994 263.209,12.624 262.998,14.27 L262.807,14.237 C262.657,14.979 263.245,15.31 263.667,15.709 C263.977,16.041 264.314,15.687 264.666,15.51 C265.469,15.105 265.589,14.326 265.768,13.509 C266.303,11.061 267.196,8.792 268.43,6.703 C268.489,6.602 268.56,6.51 268.723,6.274 C268.23,7.544 267.806,8.848 267.411,10.162 L267.399,10.186 C266.858,11.297 266.546,12.188 266.386,13.281 C266.347,13.605 266.368,13.959 266.539,14.235 L266.48,14.716 C266.47,15.13 266.468,15.136 267.159,15.909 C267.435,16.218 267.737,16.302 268.05,15.963 C268.283,15.709 268.543,15.509 268.838,15.351 C269.044,15.225 269.234,15.053 269.258,14.764 C269.263,14.7 269.231,14.639 269.218,14.576 L269.045,14.521 C269.182,13.21 269.559,12.044 269.935,10.827 C270.426,9.266 271.186,7.853 271.998,6.493 L271.998,6.492 L271.998,6.492 L271.998,6.492 L271.998,6.492 L271.998,6.492 L271.998,6.493 C271.537,7.577 271.209,8.726 270.89,9.874 C270.496,11.47 270.67,10.667 270.366,12.282 C270.361,12.503 270.359,12.725 270.356,12.946 L270.352,13.029 L270.237,13.639 C270.112,13.739 270.141,13.887 270.121,14.039 C270.068,14.209 270.087,14.143 270.061,14.235 L270.058,14.24 L270.058,14.245 C270.055,14.258 270.057,14.25 270.052,14.271 C270.049,14.286 270.049,14.286 270.048,14.346 C270.048,14.399 270.041,14.377 270.066,14.416 C270.065,14.587 270.147,14.737 270.295,14.784 L270.299,15.217 C270.335,15.535 270.297,15.424 270.354,15.568 C270.327,15.676 270.324,15.621 270.378,15.733 L270.479,15.884 C270.671,16.428 271.167,16.626 271.633,16.666 C271.908,16.626 271.814,16.669 271.932,16.608 C272.566,16.674 272.13,16.626 273.239,16.768 C273.686,16.835 273.85,16.615 273.886,16.137 C273.986,14.797 274.261,13.496 274.556,12.199 C275.112,9.754 276.765,8.588 278.886,9.241 C281.649,10.091 284.262,11.385 286.762,12.979 C288.678,14.201 290.476,15.633 292.241,17.121 C293.665,18.322 294.165,20.032 293.578,21.79 C293.352,22.467 292.978,23.023 292.458,23.453 C292.124,23.73 291.823,24.058 291.504,24.359 C291.254,24.594 291.283,24.879 291.382,25.181 C291.357,25.211 291.333,25.241 291.309,25.272 C291.128,25.388 290.939,25.406 290.73,25.416 C290.494,25.427 290.182,25.457 290.277,25.93 C290.343,26.255 290.105,26.207 289.955,26.196 C289.643,26.172 289.364,26.274 289.099,26.437 C288.972,26.514 288.571,26.443 288.951,26.837 C289.109,27.002 288.849,27.036 288.751,27.027 C288.113,26.965 287.662,27.368 287.22,27.804 C287.077,27.81 286.933,27.816 286.789,27.822 C286.746,27.764 279.592,32.383 279.553,32.44 C275.643,32.551 276.432,30.232 274.937,28.16 C274.52,27.582 274.41,26.836 274.298,26.112 L274.301,26.109 C274.217,25.688 273.979,24.503 273.944,24.272 C273.912,24.069 273.91,23.861 273.893,23.656 C273.866,22.22 273.5,20.824 273.576,19.379 C273.601,18.906 273.276,18.606 272.857,18.722 C272.454,18.833 272.125,18.707 271.782,18.522 C270.671,17.924 269.611,18.635 269.551,20.018 C269.537,20.319 269.55,20.623 269.551,20.925 C269.563,23.416 269.87,25.87 270.294,28.309 L270.073,28.308 C270.068,28.042 269.968,27.815 269.875,27.575 C269.722,27.181 269.573,26.772 269.499,26.352 C269.32,25.333 269.2,24.3 269.026,23.28 C268.83,22.135 268.77,20.962 268.708,19.815 C268.671,19.125 268.595,18.696 268.138,18.267 C267.619,17.781 266.279,18.064 266.001,18.792 C265.967,18.881 266.006,19.004 265.992,19.108 C265.895,19.887 266.102,20.651 266.092,21.425 C266.077,22.669 266.035,23.904 266.32,25.136 C266.45,25.697 266.371,26.32 266.389,26.996 C266.09,26.736 266.116,26.463 266.079,26.213 C265.967,25.467 265.909,24.703 265.72,23.983 C265.418,22.831 265.264,21.683 265.305,20.477 C265.334,19.612 265.603,18.595 264.618,18.082 C264.57,18.057 264.54,17.989 264.502,17.942 C263.945,17.261 264.011,17.386 263.349,17.847 C262.606,18.365 262.506,19.011 262.67,19.838 C262.781,20.4 262.504,20.933 262.62,21.481 C262.781,22.241 262.837,23.018 262.877,23.789 C262.943,25.062 263.02,26.324 263.451,27.52 C263.5,27.656 263.619,27.754 263.39,27.842 C263.211,27.91 263.095,27.819 263.079,27.688 C263.013,27.119 262.72,26.643 262.653,26.057 C262.576,25.388 262.373,24.739 262.307,24.048 C262.164,22.543 261.724,21.068 261.772,19.55 C261.797,18.795 261.755,18.269 261.115,17.926 C260.795,17.754 260.802,17.124 260.407,17.072 C259.989,17.017 259.858,17.609 259.498,17.753 C259.151,17.892 259.043,18.179 259.074,18.61 L259.154,19.757 C259.687,23.189 259.409,21.607 259.964,24.509 C260.331,26.393 260.793,28.249 261.307,30.087 L261.307,30.087 L261.307,30.088 L261.307,30.088 L261.307,30.088 L261.307,30.088 L261.307,30.087 L261.307,30.087 C260.302,27.821 259.563,25.423 258.944,22.988 C258.538,21.186 258.096,19.385 257.876,17.538 C257.559,17.218 257.698,17.388 257.452,17.034 C257.201,16.638 256.805,16.633 256.557,16.872 C256,17.408 255.402,17.968 255.708,19.01 C255.827,19.412 255.824,19.861 255.877,20.288 C256.232,23.138 256.832,25.925 257.535,28.686 C257.423,28.685 257.312,28.683 257.2,28.681 C257.144,27.997 256.794,27.433 256.608,26.8 C256.028,24.827 255.589,22.81 255.114,20.804 C254.967,20.18 254.859,19.435 254.911,18.887 C254.988,18.079 254.792,17.76 254.262,17.45 C254.121,17.367 253.998,17.192 253.919,17.027 C253.677,16.514 253.284,16.428 252.86,16.549 C252.458,16.665 251.91,17.622 251.963,18.019 C252.346,20.882 252.942,23.689 253.694,26.454 C253.905,27.231 254.13,28.002 254.349,28.776 C254.276,28.778 254.203,28.78 254.13,28.782 C253.925,28.208 253.718,27.635 253.513,27.06 C252.677,24.719 251.961,22.34 251.576,19.836 C251.403,18.706 251.501,17.44 250.378,16.709 C249.913,16.406 249.341,16.318 248.92,16.747 C248.442,17.234 248.438,17.736 248.533,18.407 C248.939,21.25 249.586,24.019 250.39,26.743 C250.441,26.97 250.411,26.868 250.474,27.05 L250.45,27.043 C250.23,27.077 250.329,27.059 250.152,27.095 C250.035,26.763 250.095,26.926 249.975,26.607 C248.904,23.779 248.048,20.878 247.646,17.82 C247.612,17.557 247.525,17.383 247.323,17.264 C247.066,17.112 246.884,16.866 246.711,16.604 C246.469,16.238 245.952,16.185 245.682,16.489 C245.198,17.034 244.974,17.587 245.097,18.472 C245.397,20.628 245.695,22.777 246.214,24.881 C246.243,25.002 246.28,25.135 246.195,25.254 C246.031,25.292 246.015,25.14 245.984,25.027 C245.317,22.661 244.624,20.303 244.426,17.805 C244.393,17.387 243.023,16.26 242.654,16.301 C242.46,16.322 242.386,16.506 242.254,16.599 C241.217,17.329 241.486,18.408 241.617,19.484 C241.882,21.648 242.284,23.778 242.782,25.887 C242.831,26.093 242.85,26.308 242.883,26.519 L242.864,26.536 C242.201,25.259 241.889,23.828 241.543,22.421 C241.179,20.944 240.89,19.443 240.829,17.9 C240.82,17.665 240.744,17.509 240.57,17.366 C240.359,17.192 240.171,16.97 239.998,16.744 C239.578,16.197 239.003,16.352 238.525,16.786 C237.291,17.906 238.049,19.232 238.185,20.442 C238.387,22.236 238.852,23.98 239.309,25.717 C239.351,25.878 239.403,26.035 239.283,26.302 C238.981,25.443 238.697,24.672 238.439,23.889 C237.914,22.294 237.526,20.655 237.277,18.974 C237.267,18.911 237.23,18.843 237.241,18.786 C237.438,17.733 236.664,17.3 236.212,16.663 C236.101,16.506 235.951,16.515 235.799,16.518 C235.164,16.531 234.447,17.579 234.571,18.307 C234.853,19.957 235.08,21.62 235.443,23.252 C235.46,23.331 235.449,23.417 235.401,23.519 C235.028,22.973 234.884,22.309 234.715,21.672 C234.398,20.478 234.1,19.278 233.971,18.03 C233.908,17.416 232.548,16.596 232.081,16.841 C231.656,17.063 231.19,18.128 231.286,18.675 C231.528,20.053 231.742,21.438 232.122,22.78 C232.184,23.003 232.211,23.239 232.151,23.512 C231.879,22.69 231.569,21.881 231.348,21.042 C231.119,20.176 230.82,19.324 230.755,18.408 C230.737,18.153 230.638,17.979 230.41,17.873 C230.223,17.786 230.049,17.635 229.899,17.475 C229.305,16.837 228.746,17.01 228.17,17.629 C227.203,18.668 227.971,19.711 228.016,20.746 C228.034,21.163 228.192,21.573 228.306,22.074 C228.002,21.963 227.962,21.715 227.908,21.522 C227.656,20.638 227.407,19.751 227.196,18.854 C227.131,18.579 227.067,18.386 226.825,18.274 C226.578,18.161 226.386,17.943 226.201,17.723 C225.857,17.314 225.296,17.393 225.031,17.881 C224.982,17.972 224.958,18.108 224.888,18.155 C224.106,18.678 224.37,19.44 224.527,20.183 C224.597,20.515 224.65,20.851 224.656,21.206 C224.348,20.657 224.175,20.046 224.058,19.423 C223.988,19.051 223.871,18.805 223.554,18.652 C223.353,18.556 223.177,18.372 223.011,18.2 C222.574,17.744 221.87,17.881 221.653,18.52 C221.478,19.034 220.919,19.218 220.908,19.898 C220.459,19.276 219.748,19.21 219.399,18.53 C219.279,18.296 218.375,18.688 218.234,18.991 C218.19,19.086 218.156,19.187 218.11,19.282 C217.668,20.198 217.004,20.319 216.314,19.611 C215.737,19.017 215.549,19.063 215.154,19.797 C214.989,20.101 214.784,20.367 214.629,20.695 C214.413,21.151 213.615,20.99 213.183,20.478 C212.561,19.739 212.078,19.831 211.69,20.76 C211.37,21.526 210.788,21.65 210.163,21.087 C209.618,20.596 208.975,20.772 208.677,21.493 C208.332,22.328 207.86,22.496 207.187,21.954 C206.884,21.71 206.631,21.733 206.303,21.829 C205.619,22.029 205.018,22.322 204.537,22.962 C204.207,23.401 203.718,23.642 203.223,23.808 C203.082,23.855 202.9,23.928 202.802,23.762 C202.68,23.558 202.832,23.398 202.955,23.266 C203.583,22.59 204.315,22.132 205.175,21.904 C204.51,21.642 203.842,21.447 203.282,20.965 C203.072,20.784 202.865,20.596 202.667,20.396 C202.527,20.254 202.346,20.075 202.473,19.85 C202.59,19.642 202.825,19.717 202.998,19.78 C203.819,20.077 204.557,20.533 205.147,21.281 C205.608,21.865 206.463,21.707 206.786,20.982 C206.934,20.651 207.093,20.341 207.382,20.144 C207.59,20.003 207.81,19.933 208.022,20.089 C208.38,20.353 208.759,20.341 209.163,20.319 C209.553,20.297 209.82,20.161 210.048,19.773 C210.433,19.115 210.784,19.059 211.391,19.449 C212.092,19.899 212.564,19.779 213.006,19.041 C213.539,18.147 214.043,18.033 214.809,18.631 C215.372,19.069 215.654,18.993 215.972,18.315 C215.989,18.278 215.996,18.232 216.017,18.197 C216.759,16.995 217.107,16.929 217.994,17.854 C218.511,18.392 219.199,18.288 219.503,17.549 C219.706,17.053 220.32,16.906 220.376,16.426 C220.43,15.961 220.307,15.46 220.555,14.93 C221.011,15.323 220.834,15.821 220.736,16.248 C220.665,16.555 220.648,16.704 220.944,16.836 C221.163,16.934 221.347,17.147 221.535,17.325 C221.918,17.688 222.537,17.598 222.785,17.114 C222.959,16.776 223.136,16.448 223.432,16.236 C223.806,15.968 223.739,15.49 223.877,15.058 C223.726,16.207 224.699,16.33 225.145,16.914 C225.316,17.137 225.84,17.071 226.056,16.627 C226.205,16.319 226.374,16.015 226.629,15.842 C226.923,15.643 226.954,15.372 226.97,15.035 C227.005,14.301 227.117,13.579 227.419,12.874 C227.403,13.277 227.44,13.694 227.361,14.08 C227.141,15.161 227.561,15.883 228.29,16.46 C228.495,16.622 229.484,16.405 229.642,16.169 C229.654,16.152 229.658,16.126 229.672,16.115 C230.578,15.433 230.507,14.307 230.641,13.275 C230.693,12.879 230.708,12.472 230.913,11.966 C231.111,12.916 230.884,13.718 230.937,14.521 C230.997,15.445 232.057,16.446 232.718,15.978 C233.201,15.636 233.873,15.237 233.902,14.358 C233.933,13.4 234.132,12.477 234.31,11.548 C234.342,11.385 234.329,11.196 234.53,11.079 C234.463,12.113 234.401,13.119 234.333,14.124 C234.267,15.092 235.021,15.888 235.842,15.725 C236,15.695 236.097,15.593 236.22,15.493 C237.131,14.754 237.291,13.642 237.403,12.488 C237.453,11.965 237.517,11.436 237.844,10.98 C237.813,11.655 237.784,12.331 237.75,13.006 C237.74,13.2 237.706,13.392 237.7,13.586 C237.663,14.743 238.429,15.572 239.438,15.473 C239.901,15.427 240.807,14.312 240.833,13.773 C240.893,12.514 241.123,11.277 241.412,10.064 C241.481,10.095 241.421,10.069 241.599,10.106 C241.479,11.27 241.518,10.753 241.464,11.653 C241.467,12.105 241.425,12.558 241.401,13.011 C241.325,14.429 241.316,14.442 242.247,15.226 C242.559,15.489 242.919,15.39 243.248,15.203 C243.278,15.186 243.287,15.119 243.317,15.104 C244.391,14.55 244.315,13.411 244.4,12.336 C244.569,10.822 244.455,11.548 244.732,10.155 L244.953,10.148 L245.164,10.13 C244.95,12.817 245.018,11.621 244.925,13.713 C244.895,14.477 245.515,15.247 246.129,15.244 C246.87,15.24 247.4,14.599 247.407,13.755 C247.426,11.416 247.832,9.164 248.578,6.994 C248.611,6.899 248.63,6.783 248.8,6.732 C248.85,7.302 248.677,7.824 248.588,8.345 C248.274,10.2 248.206,12.074 248.213,13.956 C248.214,14.377 248.756,15.053 249.206,15.219 C250.126,15.557 251.131,14.83 251.169,13.74 C251.23,12.024 251.472,10.348 251.866,8.697 C251.887,8.46 251.996,8.258 252.114,8.071 L252.114,8.071 L252.114,8.071 L252.114,8.071 L252.114,8.071 L252.115,8.066 L252.117,8.068 L252.114,8.071 L252.114,8.071 L252.114,8.071 L252.114,8.071 L252.114,8.071 C251.919,10.209 252.012,9.139 251.835,11.28 C251.774,12.205 251.767,13.136 251.719,14.062 C251.702,14.39 251.807,14.577 252.062,14.716 C252.245,14.816 252.408,14.974 252.562,15.129 C252.743,15.31 252.942,15.4 253.179,15.404 C253.913,15.415 254.808,14.374 254.841,13.543 C254.919,11.601 255.178,9.694 255.757,7.856 C255.887,8.271 255.789,8.679 255.735,9.078 C255.514,10.705 255.523,12.349 255.455,13.988 C255.454,14.01 255.448,14.034 255.455,14.053 C255.713,14.731 256.32,15 256.763,15.452 C257.021,15.716 257.372,15.435 257.644,15.14 C258.345,14.381 258.383,14.403 258.517,13.402 C258.739,11.754 259.034,10.126 259.575,8.579 C260.067,7.016 260.827,5.604 261.638,4.245 L261.638,4.245 L261.638,4.245 L261.638,4.245 z M274.306,26 C274.303,26.074 274.304,26.038 274.302,26.108 C274.344,26.06 274.322,26.085 274.368,26.033 C274.347,26.022 274.326,26.011 274.306,26 L274.306,26 z M289.94,20.439 C289.518,20.467 289.694,20.423 289.402,20.524 C289.137,20.642 288.844,20.777 288.873,21.172 C288.903,21.572 289.182,21.734 289.499,21.797 C289.609,21.819 289.722,21.818 289.834,21.825 C289.927,21.815 290.021,21.812 290.113,21.793 C290.446,21.723 290.756,21.569 290.771,21.135 C290.788,20.665 290.428,20.569 290.12,20.476 L289.94,20.439 z M283.396,16.537 L283.16,16.547 C282.271,16.623 281.43,17.843 281.51,18.966 C281.583,19.991 282.28,21.16 283.499,20.814 C285.075,20.698 285.527,20.145 285.444,18.436 C285.343,17.094 284.44,16.63 283.396,16.537 L283.396,16.537 z" fill="#454343"/>
  </g>
</svg>
