<?xml version="1.0" encoding="UTF-8"?>
<!DOCTYPE svg PUBLIC "-//W3C//DTD SVG 1.1//EN" "http://www.w3.org/Graphics/SVG/1.1/DTD/svg11.dtd">
<svg version="1.1" xmlns="http://www.w3.org/2000/svg" xmlns:xlink="http://www.w3.org/1999/xlink" x="0" y="0" width="300" height="300" viewBox="0, 0, 300, 300">
  <defs>
    <clipPath id="Clip_1">
      <path d="M1.598,55.003 L297.5,55.003 L297.5,274.5 L1.598,274.5 z"/>
    </clipPath>
  </defs>
  <g id="Layer_1">
    <g clip-path="url(#Clip_1)" id="Isolation_Mode">
      <path d="M31.782,224.219 C27.085,228.041 27.809,235.141 33.536,239.334 C33.933,234.975 34.304,230.893 34.698,226.57 C33.426,226.706 32.684,226.786 31.782,226.882 z M247.283,162.552 C245.869,164.881 244.471,166.683 243.601,168.707 C239.547,178.141 238.263,188.27 236.342,198.235 C235.808,201.002 235.35,203.785 234.228,207.003 C234,206.47 233.774,205.936 233.381,205.01 C232.373,206.255 231.535,207.12 230.892,208.11 C225.578,216.297 222.609,225.495 219.75,234.684 C218.846,237.59 220.209,240.227 222.403,242.799 C227.166,248.384 231.799,254.277 231.351,262.769 C230.016,262.613 228.931,262.512 227.855,262.356 C223.023,261.657 218.193,260.943 213.363,260.232 C212.835,260.155 212.296,260.114 211.788,259.971 C207.859,258.873 206.481,256.98 206.953,252.991 C207.232,250.63 207.576,248.238 208.266,245.974 C210.147,239.804 209.05,233.723 208.05,227.619 C207.998,227.3 207.728,227.018 207.463,226.549 C206.776,228.424 206.616,230.695 205.407,231.651 C204.142,232.647 201.746,232.086 200.071,232.763 C198.881,233.242 198.067,234.644 197.144,235.574 C197.304,233.476 197.49,231.022 197.674,228.569 C197.483,228.537 197.291,228.508 197.099,228.477 C196.885,229.769 196.688,231.067 196.454,232.358 C194.681,242.142 196.649,250.926 202.947,258.85 C205.274,261.779 206.719,265.404 208.685,268.922 C206,270.734 203.4,272.554 200.716,274.243 C200.197,274.569 199.327,274.534 198.663,274.415 C193.069,273.417 187.496,272.292 181.891,271.36 C180.104,271.063 179.419,270.399 179.776,268.594 C180.787,263.497 181.213,258.219 182.829,253.324 C184.968,246.844 183.959,240.368 184.043,233.878 C184.049,233.402 183.149,232.51 182.649,232.494 C176.238,232.288 170.573,229.704 164.93,227.096 C157.906,223.851 150.911,220.606 143.015,219.963 C142.438,219.915 141.564,218.606 141.532,217.853 C141.47,216.402 141.912,214.93 142.144,213.468 C141.901,213.36 141.658,213.251 141.415,213.144 C140.407,215.138 139.398,217.133 138.39,219.128 L137.763,218.992 C138.14,216.781 138.519,214.57 138.896,212.358 C138.656,212.264 138.417,212.168 138.179,212.073 C137.271,214.076 136.373,216.082 135.452,218.079 C134.892,219.294 134.414,220.423 132.584,220.193 C108.195,217.133 83.791,218.405 59.385,220.026 C55.321,220.295 55.32,220.204 54.448,216.343 C54.357,215.939 54.163,215.559 53.394,215.08 L52.026,220.14 C51.797,220.156 51.568,220.173 51.338,220.188 C51.136,218.232 50.933,216.276 50.729,214.32 L50.441,214.252 C50.217,215.241 50.005,216.235 49.765,217.221 C49.19,219.586 49.121,222.253 46.106,223.153 C45.849,223.229 45.602,223.623 45.512,223.919 C45.049,225.457 46.897,230.541 48.267,231.547 C50.702,233.334 52.434,235.558 53.199,238.553 C53.437,239.488 54.172,240.402 54.903,241.092 C57.845,243.878 58.842,247.415 59.469,251.645 C52.04,250.862 44.964,250.115 37.338,249.31 C38.834,252.704 40.066,255.5 41.433,258.599 C37.912,260.19 34.555,261.736 31.162,263.197 C30.751,263.374 30.117,263.175 29.629,263.021 C24.549,261.416 19.494,259.729 14.394,258.192 C12.85,257.728 12.194,257.034 12.4,255.389 C13.266,248.487 14.275,241.592 14.8,234.662 C15.121,230.416 14.658,226.112 14.547,221.835 C14.215,221.814 13.884,221.796 13.552,221.776 C13.287,223.734 13.024,225.692 12.759,227.649 C12.534,227.649 12.31,227.65 12.085,227.651 C11.593,224.25 11.102,220.849 10.609,217.449 C10.435,217.412 10.26,217.374 10.085,217.336 C9.654,218.337 9.224,219.339 8.793,220.342 C8.548,220.322 8.302,220.306 8.056,220.286 C7.16,202.782 6.264,185.277 5.368,167.773 C4.982,167.744 4.595,167.717 4.209,167.689 C3.722,169.281 3.236,170.872 2.748,172.464 C2.59,172.45 2.433,172.434 2.274,172.419 C2.131,170.006 1.934,167.595 1.854,165.178 C1.453,153.073 1.14,140.978 4.022,129.055 C7.666,113.978 17.059,104.633 32.048,100.509 C42.885,97.529 53.995,97.362 65.074,96.783 C79.448,96.032 93.876,95.905 108.185,94.539 C120.468,93.367 132.545,90.454 144.071,85.875 C146.711,84.825 149.045,82.831 151.274,80.979 C160.422,73.386 169.504,65.724 180.266,60.381 C187.037,57.02 194.118,54.73 201.754,55.028 C210.622,55.375 219.485,55.961 228.337,56.604 C234.088,57.022 238.189,60.66 241.688,64.649 C247.761,71.568 253.376,78.883 259.284,85.948 C260.114,86.937 261.427,87.775 262.673,88.118 C264.97,88.751 267.372,89.069 269.752,89.326 C273.628,89.746 276.963,91.098 279.482,94.179 C279.842,94.619 280.408,95.094 280.934,95.169 C284.566,95.688 290.483,91.76 290.709,88.118 C291.053,82.597 290.719,77.033 290.657,71.489 C290.65,70.885 290.533,70.283 290.698,69.607 C293.463,74.506 295.639,79.639 296.824,85.129 C297.285,87.268 297.313,89.505 297.47,91.701 C297.755,95.686 295.986,98.853 292.851,101.013 C290.114,102.9 286.935,104.147 284.04,105.828 C283.302,106.257 282.321,107.359 282.432,107.98 C283.438,113.636 282.025,119.017 279.994,124.054 C275.284,135.739 274.971,147.525 277.408,159.696 C279.569,170.49 273.555,176.209 262.376,174.778 C257.942,174.21 254.839,171.982 252.231,168.664 C250.767,166.802 249.251,164.979 247.283,162.552" fill="#000000"/>
    </g>
  </g>
</svg>
