<?xml version="1.0" encoding="UTF-8"?>
<!DOCTYPE svg PUBLIC "-//W3C//DTD SVG 1.1//EN" "http://www.w3.org/Graphics/SVG/1.1/DTD/svg11.dtd">
<svg version="1.1" xmlns="http://www.w3.org/2000/svg" xmlns:xlink="http://www.w3.org/1999/xlink" x="0" y="0" width="300" height="300" viewBox="0, 0, 300, 300">
  <g id="Layer_2">
    <g>
      <path d="M248.83,60.43 C250.208,60.932 249.396,60.638 251.267,61.31 C252.63,61.798 253.591,62.148 254.544,62.506 C260.819,64.848 266.899,67.887 272.304,72.029 C272.154,73.502 273.319,74.521 274.158,75.527 C279.493,81.722 279.694,88.91 282,96.595 C284.192,103.898 287.35,110.761 291.002,117.444 C292.542,120.265 293.979,123.156 295.247,126.104 C298.487,133.641 296.706,140.572 290.363,145.827 C288.488,147.381 286.742,148.894 283.934,147.719 C282.878,147.278 281.483,147.632 280.243,147.602 C276.984,147.519 274.477,146.151 273.473,143.037 C272.51,140.052 270.465,138.29 267.884,136.692 C262.365,133.274 260.148,133.67 254.735,130.089 C251.295,127.814 250.576,127.856 247.852,130.925 C239.312,140.544 231.003,146.354 222.16,155.697 C217.592,160.524 213.802,165.576 211.378,171.727 C209.699,175.988 207.166,179.705 203.628,182.904 C202.055,184.326 201.506,187.07 200.963,189.324 C198.849,198.115 196.928,206.951 194.927,215.769 C193.83,220.603 193.109,225.452 193.299,230.449 C193.383,232.64 192.635,234.85 192.419,237.066 C191.961,241.79 191.593,246.524 191.21,251.255 C190.993,253.94 190.636,256.628 190.659,259.312 C190.712,265.491 193.075,270.804 197.424,275.249 C199.052,276.913 200.836,278.434 202.412,280.144 C203.494,281.32 204.509,282.622 205.249,284.022 C206.325,286.061 205.407,287.7 203.158,288.181 C202.27,288.371 201.376,288.532 200.299,288.742 C200.706,289.628 201.137,290.387 201.411,291.199 C202.019,293.007 201.418,294.3 199.566,294.767 C194.054,296.158 188.489,296.515 182.916,295.092 C180.691,294.524 179.768,293.328 179.773,291.063 C179.777,289.659 179.729,288.194 180.103,286.866 C180.805,284.381 180.252,282.184 178.24,280.837 C174.202,278.13 174.012,274.725 174.926,270.414 C177.096,260.166 176.77,249.913 174.158,239.707 C173.588,237.478 173.398,234.812 174.085,232.673 C177.01,223.574 175.471,214.675 173.721,205.671 C172.394,198.858 169.537,198.116 165.79,192.345 C165.093,191.272 164.199,190.316 163.348,189.346 C161.761,187.538 159.861,186.918 157.395,187.469 C148.048,189.556 138.689,191.593 129.305,193.516 C120.86,195.246 112.357,191.162 103.671,190.78 C95.466,190.421 87.421,189.399 79.966,185.716 C79.025,185.252 78.435,185.362 77.811,186.172 C77.183,186.987 76.458,187.736 75.734,188.474 C74.093,190.149 72.248,190.934 69.95,189.688 C69.558,189.477 69.091,189.358 68.645,189.291 C65.098,188.763 65.157,189.022 64.411,191.813 C62.619,198.506 61.235,205.393 58.56,211.744 C55.516,218.969 54.689,226.455 53.642,233.993 C53.526,234.818 53.483,235.682 53.193,236.45 C51.225,241.672 53.948,246.09 55.754,250.612 C58.733,258.069 61.874,265.464 65.003,272.862 C66.08,275.41 67.206,277.877 70.401,278.74 C71.345,278.995 72.414,280.381 72.619,281.405 C73.215,284.383 75.104,286.426 77.077,288.487 C77.837,289.282 78.629,290.054 79.315,290.907 C80.685,292.612 80.065,294.658 77.929,295.043 C73.297,295.878 68.635,296.388 63.922,295.499 C62.067,295.149 60.984,294.125 60.735,292.348 C60.504,290.702 60.23,289.011 60.384,287.377 C60.562,285.477 59.903,284.148 58.454,283.067 C57.623,282.447 56.778,281.844 55.915,281.268 C54.149,280.09 52.994,278.491 52.685,276.419 C51.343,267.456 47.992,259.109 44.679,250.738 C42.978,246.441 41.461,242.072 39.85,237.74 C39.694,237.322 39.492,236.909 39.245,236.537 C37.723,234.233 36.181,231.941 34.421,229.31 C33.768,232.988 32.704,236.594 32.571,240.234 C32.304,247.473 32.491,254.731 32.609,261.979 C32.671,265.761 33.64,269.101 37.21,271.436 C38.524,272.295 39.517,274.127 39.935,275.701 C40.726,278.668 42.224,281.087 44.241,283.343 C45.058,284.256 45.506,285.49 46.121,286.579 C44.958,287.03 43.806,287.829 42.628,287.869 C38.797,287.996 34.956,287.884 31.12,287.785 C29.354,287.741 28.398,286.695 28.239,284.984 C28.073,283.203 28.117,281.385 27.757,279.645 C27.506,278.43 27.053,276.856 26.136,276.237 C19.31,271.627 20.738,272.366 21.343,264.378 C21.672,260.031 22.234,255.701 22.721,251.365 C23.534,244.136 22.447,237.198 19.739,230.432 C18.72,227.883 18.209,225.139 17.433,222.492 C16.827,220.428 17.285,218.6 18.465,216.834 C22.987,210.068 27.157,203.127 29.881,195.421 C31.32,191.35 32.163,187.164 31.572,182.947 C31.2,180.294 30.033,177.659 28.787,175.233 C25.201,168.252 21.274,161.439 17.731,154.437 C16.321,151.651 15.569,148.544 14.52,145.582 C14.321,145.022 14.131,144.459 13.464,143.963 C13.388,145.018 13.194,146.079 13.256,147.126 C13.906,158.263 14.528,169.402 15.298,180.531 C16.027,191.085 15.269,201.561 13.883,212.01 C13.233,216.905 12.411,221.777 11.655,226.657 C11.55,227.333 11.372,227.998 11.174,228.919 C7.175,225.412 5.346,221.059 4.316,216.276 C2.614,208.381 2.797,200.443 4.069,192.541 C4.903,187.362 6.287,182.27 7.151,177.095 C7.696,173.83 8.081,170.468 7.927,167.177 C7.657,161.415 6.998,155.667 6.36,149.928 C4.293,131.329 15.24,113.944 30.511,106.577 C42.303,100.887 54.504,99.696 67.456,102.261 C79.971,104.739 92.648,106.642 105.346,107.936 C113.148,108.731 121.127,108.069 129.015,107.772 C141.082,107.319 153.141,106.651 165.2,105.997 C169.099,105.786 172.986,105.335 176.981,104.984 C176.874,104.361 176.806,103.962 176.72,103.46 C177.209,103.571 177.57,103.653 178.053,103.761 L178.053,102.245 C178.885,102.559 179.592,102.825 180.518,103.174 C180.409,102.455 180.325,101.895 180.21,101.133 C181.392,101.421 182.431,101.674 183.803,102.008 C183.355,101.32 183.094,100.919 182.692,100.301 C183.535,100.439 184.166,100.541 185.122,100.698 C184.459,99.566 183.955,98.706 183.192,97.403 C184.857,98.042 186.125,98.528 187.708,99.135 C187.411,98.123 187.189,97.371 186.926,96.475 C187.443,96.406 187.917,96.343 188.525,96.262 C188.079,95.739 187.683,95.276 187.077,94.566 C188.152,94.692 188.892,94.778 189.771,94.881 L189.77,93.367 C190.903,93.641 191.886,93.879 193.305,94.222 C192.432,92.753 191.773,91.644 190.896,90.167 C191.921,90.636 192.521,91.006 193.174,91.183 C193.799,91.351 194.479,91.318 195.136,91.374 C195.129,90.797 195.134,90.221 195.111,89.646 C195.101,89.404 195.029,89.165 194.905,88.475 C196.307,89.54 197.397,90.367 198.537,91.231 C200.329,89.59 198.284,88.054 198.591,86.417 C199.716,86.957 200.742,87.45 202.192,88.148 C201.698,87.007 201.384,86.283 200.961,85.304 C202.033,85.491 202.94,85.649 203.989,85.831 C204.329,84.893 204.651,84.007 204.976,83.112 C205.942,83.465 206.887,83.81 208.022,84.224 L208.022,81.731 C209.765,82.832 210.489,81.73 211.318,80.548 C211.933,79.675 212.19,78.436 213.63,78.197 C213.958,78.143 214.116,77.107 214.401,76.401 C215.301,76.512 216.237,76.627 217.063,76.73 C217.265,75.728 217.444,74.842 217.662,73.755 C218.442,74.069 218.947,74.272 219.58,74.527 C219.527,74.034 219.488,73.684 219.47,73.511 C220.854,73.413 222.212,73.316 223.667,73.212 C223.562,72.406 223.481,71.787 223.376,70.986 L227.682,70.986 C227.256,70.268 226.98,69.805 226.587,69.145 C227.154,69.1 227.569,69.108 227.965,69.027 C228.769,68.861 230.081,69.908 230.248,68.13 C230.253,68.069 230.601,68.038 230.789,67.994 C232.314,67.638 234.274,67.732 235.26,66.814 C236.591,65.576 238.042,66.247 239.278,65.681 C239.903,65.395 240.328,64.691 241.134,63.886 C242.501,63.56 244.349,63.122 246.341,62.649 C246.182,62.197 246.027,61.757 245.797,61.105 C247.038,61.346 248.177,61.567 249.559,61.835 C248.893,60.551 249.136,61.02 248.83,60.43 z" fill="#000000"/>
      <path d="M231.53,69.048 C232.687,68.931 233.512,69.392 234.325,70.19 C236.298,72.509 237.932,75.186 240.066,77.311 L240.297,77.565 C238.922,78.183 237.573,78.86 236.219,79.527 L235.32,79.963 C233.503,78.234 234.726,79.364 231.56,76.687 C230.969,76.232 229.865,76.521 228.996,76.469 C229.101,77.255 228.968,78.226 229.36,78.788 C230.075,79.825 230.898,80.787 231.865,81.566 C230.411,82.247 228.924,82.879 227.375,83.275 L226.305,82.335 C225.319,81.513 224.058,80.587 222.5,81.592 C221.982,81.926 221.11,81.644 220.085,81.984 C221.788,83.592 221.009,82.856 222.421,84.193 C219.771,84.508 221.323,84.344 217.762,84.632 L216.821,83.853 C215.744,83.022 214.192,82.88 212.524,82.316 C212.64,82.82 212.614,83.437 212.889,83.796 L213.762,84.953 C205.244,85.267 208.735,85.223 203.29,85.24 C204.095,84.687 204.614,83.831 205.25,83.093 C206.156,82.139 207.427,81.497 208.629,80.947 C210.831,79.939 213.166,79.242 215.319,78.137 C216.472,77.545 217.298,76.28 218.388,75.499 C219.197,74.918 220.199,74.646 221.102,74.203 C222.036,73.746 222.922,73.16 223.886,72.8 C224.546,72.554 225.302,72.599 226.434,72.465 C227.278,71.785 228.48,70.769 229.73,69.826 C230.679,69.217 230.098,69.521 231.53,69.048 z" fill="#000000"/>
      <path d="M278.275,74.249 C279.466,74.417 279.869,74.877 280.207,75.993 C280.316,76.517 280.767,76.961 281.299,77.828 C279.065,78.418 280.258,78.106 277.72,78.762 C271.24,77.086 273.787,77.659 270.115,76.868 C270.711,76.589 270.271,76.791 271.45,76.299 C273.413,75.612 275.366,74.855 277.374,74.365 L278.275,74.249 z" fill="#000000"/>
      <path d="M240.568,64.587 C241.703,64.968 242.093,65.959 242.515,67.022 C242.907,68.134 243.488,69.19 244.096,70.197 C246.605,74.258 245.585,72.632 247.135,75.09 C243.907,76.017 245.248,75.545 243.072,76.378 C239.574,72.239 241.148,73.995 238.417,71.043 C237.608,70.174 236.07,70.072 235.239,69.214 C233.663,67.589 234.068,66.312 236.154,65.555 C236.937,65.27 237.738,65.041 238.535,64.8 C239.725,64.503 239.051,64.608 240.568,64.587 z" fill="#000000"/>
      <path d="M254.536,58.982 L255.518,58.997 C257.083,59.125 258.518,59.849 260.26,59.71 C261.97,59.573 262.298,61.052 261.227,62.562 C260.92,62.995 260.818,63.608 260.685,64.155 C260.531,64.785 260.449,65.434 260.111,66.112 C259.273,64.518 259.568,62.301 257.066,61.396 L257.066,68.917 L256.424,68.896 C254.597,66.284 254.663,62.84 256.901,60.556 C255.711,60.407 254.735,60.064 253.895,60.289 C253.557,60.38 253.387,61.71 253.366,62.483 C253.318,64.3 253.346,66.127 253.464,67.941 C253.516,68.728 253.887,69.488 254.074,70.271 C254.233,70.935 254.334,71.615 254.461,72.288 C254.261,72.348 254.061,72.408 253.86,72.468 C253.07,70.669 252.28,68.87 251.49,67.071 C251.388,67.058 251.287,67.046 251.186,67.032 C251.307,68.296 251.176,69.665 251.598,70.805 C252.769,73.634 252.26,72.448 253.101,74.375 L252.04,74.363 L249.988,74.56 C248.21,71.352 249.061,72.802 247.466,70.188 C247.244,69.809 246.932,69.307 246.583,69.224 C244.517,68.724 243.764,66.854 242.813,65.239 C242.553,64.799 242.537,63.733 242.821,63.487 C243.64,62.777 244.621,62.175 245.63,61.845 C246.529,61.549 247.562,61.552 248.515,61.651 C249.202,61.723 249.855,62.167 250.522,62.445 C251.422,59.891 252.149,59.535 254.536,58.982 z" fill="#000000"/>
      <path d="M263.412,63.205 C263.119,63.643 262.825,64.082 262.482,64.594 C262.007,62.506 262.829,61.525 264.554,61.47 C265.916,61.427 266.97,61.898 268.063,62.615 C269.451,63.526 270.96,64.233 272.325,65.176 C273.337,65.875 273.106,67.14 272.058,67.769 C270.984,68.412 269.914,69.1 268.951,69.911 C267.31,71.294 266.805,71.175 265.267,69.548 C263.956,68.161 262.956,66.934 264.15,64.898 C264.367,64.53 263.994,63.777 263.893,63.201 C263.732,63.203 263.572,63.204 263.412,63.205" fill="#000000"/>
      <path d="M274.72,67.793 L274.918,67.801 C276.117,67.836 278.27,69.865 278.138,71.006 C277.986,72.325 276.981,72.772 275.792,73.079 C273.686,73.622 271.644,74.434 269.551,75.039 C269.123,75.163 268.222,74.971 268.17,74.756 C267.981,73.963 267.723,72.636 268.089,72.341 C270.126,70.704 272.338,69.307 274.499,67.842 L274.72,67.793 z" fill="#000000"/>
      <path d="M262.767,70.41 C264.264,70.64 263.663,70.418 264.626,70.882 C265.479,71.458 266.332,72.33 266.709,73.286 C266.927,73.84 266.421,75.171 265.879,75.513 L265.354,75.841 C261.937,75.105 263.129,75.239 261.83,75.099 C261.81,74.158 261.829,74.783 261.743,73.224 C261.766,72.306 261.858,71.172 262.374,70.569 L262.767,70.41 z" fill="#000000"/>
      <path d="M212.77,74.055 C213.871,73.665 214.773,73.915 215.736,74.498 C218.156,76.283 220.322,78.497 222.857,80.055 L223.136,80.247 C221.93,81.179 220.761,82.163 219.585,83.136 L218.803,83.777 C216.662,82.529 218.096,83.336 214.438,81.488 C213.765,81.187 212.752,81.733 211.894,81.891 C212.165,82.631 212.245,83.608 212.746,84.062 C213.665,84.9 214.673,85.64 215.783,86.167 C214.512,87.179 213.2,88.151 211.777,88.908 L210.532,88.249 C209.396,87.686 207.969,87.086 206.667,88.439 C206.235,88.888 205.325,88.823 204.399,89.4 C206.403,90.557 205.487,90.027 207.149,90.99 C204.636,91.933 206.112,91.401 202.705,92.536 L201.622,92.003 C200.394,91.452 198.853,91.685 197.107,91.536 C197.328,92 197.435,92.607 197.78,92.891 L198.879,93.808 C190.65,96.157 194.041,95.276 188.742,96.6 C189.407,95.867 189.729,94.909 190.189,94.038 C190.867,92.892 191.967,91.962 193.02,91.138 C194.948,89.628 197.073,88.388 198.932,86.796 C199.928,85.943 200.461,84.513 201.355,83.49 C202.018,82.731 202.936,82.225 203.72,81.578 C204.531,80.908 205.268,80.125 206.13,79.544 C206.72,79.146 207.466,79.008 208.54,78.606 C209.216,77.741 210.168,76.464 211.183,75.245 C211.977,74.424 211.477,74.86 212.77,74.055 z" fill="#000000"/>
      <path d="M259.411,67.908 C260.608,67.786 261.099,68.138 261.667,69.143 C261.886,69.627 262.421,69.951 263.125,70.668 C261.076,71.778 262.171,71.188 259.839,72.436 C253.169,72.359 255.772,72.306 252.027,72.416 C252.547,72.001 252.162,72.303 253.205,71.542 C254.969,70.402 256.708,69.196 258.559,68.237 L259.411,67.908 z" fill="#000000"/>
      <path d="M220.614,67.543 C221.801,67.642 222.394,68.513 223.033,69.447 C223.654,70.437 224.446,71.326 225.254,72.16 C228.569,75.514 227.227,74.174 229.264,76.197 C226.319,77.873 227.524,77.092 225.584,78.425 C221.289,75.233 223.199,76.566 219.905,74.347 C218.93,73.694 217.41,73.964 216.417,73.327 C214.533,72.123 214.653,70.782 216.523,69.544 C217.225,69.079 217.956,68.663 218.68,68.238 C219.775,67.664 219.142,67.927 220.614,67.543 z" fill="#000000"/>
      <path d="M233.015,58.734 L233.975,58.512 C235.526,58.261 237.079,58.623 238.745,58.069 C240.381,57.526 241.018,58.888 240.299,60.616 C240.093,61.11 240.126,61.732 240.113,62.297 C240.099,62.947 240.158,63.599 239.975,64.34 C238.816,62.989 238.628,60.759 235.997,60.478 L237.611,67.802 L236.981,67.937 C234.642,65.83 233.966,62.461 235.656,59.699 C234.464,59.84 233.44,59.74 232.671,60.16 C232.361,60.329 232.481,61.666 232.627,62.423 C232.969,64.205 233.389,65.978 233.894,67.716 C234.113,68.47 234.638,69.121 234.988,69.839 C235.285,70.448 235.529,71.086 235.798,71.711 C235.615,71.817 235.433,71.924 235.251,72.03 C234.096,70.467 232.94,68.905 231.784,67.342 C231.682,67.354 231.582,67.366 231.48,67.377 C231.869,68.579 232.035,69.944 232.691,70.953 C234.439,73.427 233.688,72.394 234.921,74.069 L233.885,74.312 L231.928,74.996 C229.509,72.298 230.649,73.506 228.535,71.343 C228.237,71.028 227.825,70.614 227.467,70.616 C225.348,70.624 224.213,68.984 222.94,67.64 C222.593,67.273 222.348,66.239 222.572,65.931 C223.217,65.044 224.043,64.222 224.955,63.658 C225.767,63.155 226.774,62.909 227.723,62.778 C228.408,62.682 229.139,62.958 229.849,63.069 C230.177,60.366 230.809,59.845 233.015,58.734 z" fill="#000000"/>
      <path d="M242.565,60.718 C242.374,61.215 242.182,61.712 241.958,62.293 C241.047,60.374 241.637,59.221 243.305,58.754 C244.622,58.385 245.75,58.591 246.969,59.027 C248.516,59.582 250.137,59.908 251.669,60.499 C252.805,60.937 252.851,62.225 251.966,63.088 C251.058,63.972 250.163,64.898 249.4,65.92 C248.098,67.661 247.581,67.665 245.734,66.45 C244.159,65.413 242.922,64.458 243.647,62.189 C243.78,61.779 243.255,61.134 243.033,60.598 C242.877,60.638 242.721,60.678 242.565,60.718" fill="#000000"/>
      <path d="M254.563,62.473 L254.757,62.434 C255.933,62.18 258.465,63.64 258.582,64.783 C258.716,66.103 257.834,66.78 256.742,67.364 C254.808,68.398 252.993,69.678 251.084,70.77 C250.694,70.993 249.775,71.023 249.679,70.825 C249.324,70.099 248.788,68.868 249.081,68.493 C250.714,66.41 252.568,64.519 254.358,62.574 L254.563,62.473 z" fill="#000000"/>
      <path d="M243.484,67.889 C244.992,67.754 244.358,67.682 245.396,67.902 C246.35,68.259 247.368,68.904 247.94,69.744 C248.272,70.232 248.064,71.65 247.61,72.112 L247.17,72.558 C243.684,72.66 244.873,72.506 243.578,72.68 C243.356,71.769 243.509,72.373 243.09,70.875 C242.916,69.975 242.762,68.849 243.135,68.139 L243.484,67.889 z" fill="#000000"/>
    </g>
  </g>
</svg>
