<?xml version="1.0" encoding="UTF-8"?>
<!DOCTYPE svg PUBLIC "-//W3C//DTD SVG 1.1//EN" "http://www.w3.org/Graphics/SVG/1.1/DTD/svg11.dtd">
<svg version="1.1" xmlns="http://www.w3.org/2000/svg" xmlns:xlink="http://www.w3.org/1999/xlink" x="0" y="0" width="544" height="182" viewBox="0, 0, 544, 182">
  <g id="Layer_1" opacity="0.488"/>
  <g id="Layer_2" opacity="0.597">
    <path d="M475.794,45.159 C475.794,49.944 478.504,54.836 479.127,59.826 C479.356,61.99 479.673,64.147 479.812,66.319 C480.38,75.207 480.843,84.327 479.334,93.162 C481.573,96.438 483.723,99.774 485.794,103.159 C490.362,110.559 495.863,118.013 498.858,126.237 L498.883,126.319 C498.052,117.748 497.091,108.642 500,100.333 C503.776,90.893 514.483,83.183 521.333,76.333 L512.112,142.819 C515.189,140.253 518.589,138.129 522.028,136.095 C529.453,132.756 535.647,130.063 543.912,132.087 L543.911,182.773 L-0.64,182.59 L-0.641,132.073 C-0.641,132.073 12.465,154.726 21.063,156.022 C22.91,156.386 22.145,156.316 23.338,156.378 C23.157,155.236 22.87,154.107 22.793,152.953 C22.505,148.627 22.64,148.578 23.127,145.159 C23.893,141.673 25.432,138.483 27.045,135.333 C24.759,131.893 25.756,133.57 24,130.333 C22.419,126.908 23.053,123.073 23.585,119.478 L22.912,118.519 C22.894,121.284 22.905,122.711 22.804,125.494 C22.802,125.544 22.718,128.186 22.526,128.78 C22.508,128.836 22.38,128.765 22.364,128.708 C22.193,128.087 22.086,125.957 22.07,125.642 C21.925,122.772 21.91,119.899 21.917,117.027 C17.957,110.896 16.812,103.47 17.333,96.333 L22.249,104.761 C22.335,102.655 22.463,99.192 22.667,97.667 C22.772,96.873 22.702,99.267 22.718,100.067 C22.799,104.16 22.784,103.259 22.819,105.737 L24.332,108.331 C24.294,107.848 24.332,108.303 24,107 L34.306,123.885 C40.424,116.004 37.727,119.413 42.355,113.623 C37.574,105.097 33.087,96.387 29.794,87.159 C27.57,79.375 28.744,71.107 28.46,63.16 L52.909,101.924 C63.521,90.644 76.051,78.649 91.127,73.826 L61.5,115.546 L75.187,137.248 C81.267,126.919 88.311,117.412 98.489,110.951 L98.507,110.598 C98.536,109.35 98.565,108.102 98.593,106.853 L98.593,106.848 L98.593,106.843 C98.578,105.783 98.627,104.725 98.666,103.667 C98.728,102.739 98.624,105.525 98.603,106.455 L98.593,106.843 L98.593,106.848 L98.593,106.853 C98.62,108.104 98.572,109.35 98.507,110.598 L98.499,110.945 C99.518,110.298 98.719,110.789 101,109.651 L98.447,113.189 C98.363,116.007 98.34,118.827 98.245,121.645 C98.244,121.694 98.246,121.547 98.247,121.498 C98.251,121.255 98.257,121.012 98.262,120.769 C98.271,120.354 98.28,119.94 98.289,119.526 C98.309,118.633 98.33,117.741 98.35,116.848 C98.378,115.634 98.407,114.419 98.435,113.205 L77.939,141.612 L81.137,146.682 C90.694,144.962 87.097,145.538 91.901,144.787 C92.237,143.202 92.707,141.671 93.677,140.338 C98.142,134.192 105.068,130.622 109.907,124.799 L109.907,124.798 C111.304,122.426 110.829,123.767 109.907,124.798 L109.907,124.799 L100.216,143.487 C105.838,142.608 111.505,141.996 117.199,141.904 C118.835,135.636 121.183,129.493 125.02,124.211 C120.473,109.041 122.945,117.444 117.666,98.984 C117.511,98.432 118.622,99.624 119.059,99.996 C119.948,100.752 120.834,101.516 121.637,102.361 C125.3,106.215 127.818,111.114 129.611,116.072 L130.784,116.952 C143.885,103.827 160.228,95.051 176.928,87.268 L144.461,47.826 C163.099,54.464 179.993,65.033 194.339,78.664 C201.545,75.146 208.889,71.818 216.46,69.159 L199.595,83.902 C207.303,91.918 214.538,100.589 219.983,110.33 C220.647,108.758 221.348,107.202 222.057,105.651 C224.021,101.356 226.065,97.099 228.132,92.853 C228.82,91.44 229.513,90.028 230.206,88.617 C230.58,87.855 231.486,85.498 231.333,86.333 C231.06,87.822 230.381,89.207 229.839,90.621 C228.757,93.443 227.636,96.251 226.461,99.036 C224.705,103.202 222.753,107.391 220.555,111.353 C227.11,122.125 231.131,134.091 233.354,146.449 C236.375,145.027 235.14,145.683 237.111,144.581 C236.289,133.304 239.647,122.411 242.411,111.615 C244.923,101.447 244.284,104.27 245.682,94.563 L246,89 C245.826,93.838 246.052,91.994 245.682,94.563 L243.021,141.122 C250.077,136.623 246.624,138.799 253.377,134.591 C257.918,132.085 262.664,128.879 268.031,128.718 L254,105.667 C266.426,109.808 273.818,120.859 278.486,132.506 C279.741,129.906 281.164,127.434 282.773,125.043 L271.794,75.826 C278.018,78.639 280.995,85.756 283.244,91.773 C285.977,99.806 288.459,107.972 289.458,116.432 C293.815,112.365 298.784,108.961 305,108.984 L290.827,125.991 C292.022,137.995 291.589,132.568 292.241,142.263 C299.926,145.083 307.927,146.616 316.051,147.549 C317.915,142.464 320.183,137.5 323.319,133.07 L315.333,98.333 C323.097,100.813 327.485,120.293 329.012,126.72 C330.927,124.811 333.361,123.594 335.794,122.492 L332.826,126.719 C336.956,128.146 341.05,129.702 344.938,131.71 C347.254,128.292 350.126,125.146 353.794,123.159 L349.121,133.926 C354.903,137.37 360.689,141.311 364.477,146.994 L371.563,128.286 L321.794,71.826 C341.02,84.272 361.428,95.362 377.924,111.494 L392,74.333 C393.84,89.153 388.621,102.984 382.273,116.05 C387.202,121.308 391.299,127.323 394.598,133.725 C396.088,117.409 402.112,101.298 415.333,91 L415.333,91 L415.333,91 L415.333,91 L400.981,134.536 C406.937,133.272 412.809,134.827 418.319,137.048 L419.45,137.633 L424,110.333 C435.937,118.557 433.202,131.089 427.674,142.403 C436.645,148.4 432.502,145.536 440.135,150.947 L446.005,133.532 L415.666,90.984 C430.161,96.436 441.312,108.661 450.277,120.859 L458.98,95.038 L430.461,50.492 C442.45,58.453 455.119,65.795 465.41,75.964 L475.794,45.159 z M473.157,117.18 C469.894,124.712 466.33,132.204 461.415,138.826 C465.344,146.767 468.966,155.018 469.992,163.91 C471.715,163.889 473.441,163.938 475.15,163.667 C483.03,162.24 490.421,158.993 496.945,154.335 L473.157,117.18 z M455.372,146.669 L453.794,148.492 C450.522,152.638 452.443,150.099 448.19,156.227 C454.162,159.72 460.51,163.016 467.518,163.703 L455.372,146.669 z M346.38,140.243 L339.659,155.731 C343.093,157.687 346.508,159.455 350.473,160.027 L351.685,160.146 C354.63,160.093 357.528,159.532 360.156,158.181 C360.356,157.524 360.666,156.909 360.956,156.29 L361.583,154.632 L346.38,140.243 z M361.684,154.727 C361.302,155.549 361.545,155.028 360.956,156.29 L360.259,158.127 C362.436,157.008 361.397,157.609 363.383,156.335 L361.684,154.727 z M184.802,96.834 L147.039,129.845 L150.015,132.331 C158.882,139.792 168.406,147.218 175.666,156.317 C175.909,157.044 175.898,156.78 175.905,157.073 L176.648,157.053 C183.694,156.731 180.969,156.914 184.829,156.633 C184.905,154.33 185.012,151.913 186.047,149.8 C186.249,149.386 186.893,148.196 187.609,148.516 C189.349,149.294 187.604,155.284 187.217,156.459 C197.182,155.732 193.132,156.223 199.404,155.348 L194.815,147.481 L172.461,127.159 C178.912,129.037 184.435,132.664 189.033,137.569 L181.794,125.159 C190.479,133.78 200.085,142.442 203.768,154.508 L203.946,154.714 C212.008,153.589 219.994,151.84 227.564,148.781 L184.802,96.834 z M144.866,131.744 L134.802,140.542 L135.088,142.995 C138.076,143.666 140.955,144.635 143.704,145.96 C148.929,148.52 148.428,148.787 153.46,151.557 C158.561,154.057 163.861,156.287 169.581,156.812 L144.866,131.744 z M38.486,147.952 L32.933,155.773 L34.545,155.528 C43.838,153.983 40.061,154.696 45.906,153.543 C43.217,151.985 40.815,149.995 38.487,147.952 z M332.532,127.137 L329.968,130.79 C330.911,136.134 331.765,141.552 331.604,147.001 C331.52,149.871 331.553,149.61 331.166,151.198 C333.274,151.968 335.203,153.149 337.125,154.288 C336.777,147.88 338.992,141.729 342.124,136.214 L332.532,127.137 z M374.053,131.111 L371.6,135.426 C369.326,139.487 366.945,143.493 364.948,147.7 C366.226,149.403 366.967,151.421 367.663,153.412 L367.892,153.242 C372.966,149.267 378.022,145.237 383.516,141.846 L374.053,131.111 z M51.998,128.926 L51.998,128.926 L44.139,139.993 L51.71,152.397 C61.942,150.378 56.708,151.411 67.412,149.297 C62.071,142.67 56.653,136.069 51.998,128.926 z M501.113,141.18 L501.113,141.18 C501.231,144.659 501.005,148.152 500.875,151.631 L503.006,149.962 C502.152,146.768 502.918,149.663 501.113,141.18 z M324.564,138.486 L318.005,147.828 C319.705,148.07 318.298,147.867 322.222,148.479 C325.2,149.09 323.552,148.701 327.147,149.721 L324.564,138.486 z M284.641,133.415 L282.036,136.541 C283.205,137.579 284.527,138.437 285.919,139.144 L284.641,133.415 z M129.71,116.372 L130.128,117.716 L130.551,117.224 L129.71,116.372 z" fill="#757575"/>
    <path d="M129.333,71.667 C100.667,92.36 118.415,73.05 129.333,71.667 z" fill="#757575"/>
    <g>
      <path d="M164.5,-11.167 L164.5,-11.167" fill="#757575"/>
      <path d="M164.35,-10.917 L164.35,-10.917 L164.35,-10.917 C164.46,-10.917 164.617,-11.029 164.7,-11.167 C164.783,-11.305 164.76,-11.416 164.65,-11.416 L164.65,-11.416 C164.65,-11.416 164.65,-11.416 164.65,-11.416 C164.539,-11.416 164.383,-11.305 164.3,-11.167 C164.217,-11.029 164.24,-10.917 164.35,-10.917 L164.35,-10.917" fill="#000000"/>
    </g>
    <path d="M475.882,3.386 C475.883,9.029 478.592,14.798 479.216,20.682 C479.444,23.234 479.762,25.777 479.901,28.339 C480.468,38.82 480.932,49.575 479.422,59.993 C481.662,63.857 483.811,67.79 485.883,71.782 C490.45,80.509 495.951,89.299 498.947,98.997 L498.972,99.094 C498.141,88.986 497.179,78.248 500.088,68.45 C503.865,57.317 514.572,48.226 521.422,40.148 L512.201,118.551 C515.278,115.526 518.678,113.021 522.117,110.622 C529.542,106.685 535.735,103.509 544,105.896 L544,165.667 L-0.552,165.451 L-0.552,105.879 C-0.552,105.879 12.553,132.592 21.151,134.121 C22.998,134.55 22.234,134.468 23.427,134.541 C23.245,133.195 22.959,131.862 22.882,130.502 C22.593,125.401 22.729,125.343 23.216,121.31 C23.981,117.2 25.521,113.439 27.133,109.723 C24.847,105.667 25.845,107.644 24.088,103.828 C22.508,99.788 23.141,95.266 23.673,91.026 L23,89.895 C22.983,93.156 22.994,94.84 22.892,98.121 C22.89,98.18 22.807,101.295 22.614,101.996 C22.596,102.062 22.469,101.978 22.453,101.911 C22.281,101.178 22.174,98.666 22.158,98.296 C22.013,94.911 21.999,91.524 22.005,88.136 C18.045,80.907 16.901,72.149 17.422,63.733 L22.338,73.671 C22.424,71.188 22.552,67.105 22.755,65.305 C22.861,64.37 22.791,67.193 22.807,68.136 C22.887,72.963 22.873,71.901 22.907,74.823 L24.42,77.881 C24.382,77.312 24.42,77.849 24.088,76.312 L34.395,96.223 C40.513,86.93 37.815,90.95 42.444,84.122 C37.663,74.068 33.175,63.797 29.883,52.914 C27.659,43.735 28.833,33.985 28.549,24.613 L52.997,70.326 C63.61,57.024 76.139,42.879 91.216,37.192 L61.588,86.39 L75.275,111.981 C81.355,99.801 88.399,88.591 98.577,80.972 L98.595,80.555 C98.624,79.083 98.653,77.611 98.682,76.139 L98.682,76.133 L98.682,76.127 C98.667,74.877 98.715,73.629 98.755,72.381 C98.817,71.287 98.712,74.573 98.691,75.669 L98.682,76.127 L98.682,76.133 L98.682,76.139 C98.709,77.613 98.661,79.083 98.595,80.555 L98.587,80.964 C99.607,80.201 98.807,80.78 101.088,79.438 L98.535,83.61 C98.451,86.933 98.428,90.259 98.334,93.582 C98.332,93.639 98.334,93.466 98.335,93.408 C98.34,93.122 98.345,92.835 98.35,92.548 C98.359,92.06 98.368,91.571 98.378,91.083 C98.398,90.03 98.418,88.978 98.439,87.925 C98.467,86.493 98.495,85.061 98.524,83.629 L78.028,117.128 L81.225,123.107 C90.783,121.078 87.186,121.758 91.989,120.872 C92.326,119.003 92.796,117.198 93.765,115.625 C98.23,108.377 105.157,104.168 109.995,97.301 L109.995,97.3 C111.393,94.503 110.917,96.084 109.995,97.3 L109.995,97.301 L100.305,119.339 C105.926,118.303 111.594,117.58 117.288,117.472 C118.923,110.081 121.271,102.837 125.109,96.608 C120.561,78.719 123.033,88.628 117.755,66.859 C117.599,66.208 118.711,67.614 119.148,68.053 C120.036,68.944 120.922,69.845 121.726,70.842 C125.388,75.386 127.906,81.164 129.7,87.01 L130.872,88.048 C143.973,72.57 160.317,62.221 177.017,53.044 L144.549,6.531 C163.187,14.359 180.081,26.823 194.428,42.897 C201.633,38.748 208.978,34.824 216.549,31.689 L199.684,49.074 C207.391,58.526 214.627,68.751 220.072,80.239 C220.735,78.386 221.436,76.55 222.145,74.721 C224.109,69.657 226.153,64.636 228.221,59.629 C228.909,57.963 229.602,56.298 230.295,54.634 C230.669,53.735 231.575,50.956 231.422,51.941 C231.149,53.696 230.469,55.33 229.927,56.997 C228.845,60.325 227.724,63.636 226.55,66.92 C224.793,71.833 222.842,76.773 220.643,81.445 C227.199,94.148 231.219,108.259 233.443,122.832 C236.464,121.155 235.229,121.929 237.2,120.629 C236.377,107.331 239.735,94.485 242.5,81.754 C245.012,69.764 244.372,73.092 245.77,61.646 L246.088,55.086 C245.915,60.79 246.141,58.616 245.77,61.646 L243.11,116.55 C250.165,111.245 246.712,113.81 253.466,108.849 C258.007,105.893 262.752,102.112 268.12,101.923 L254.088,74.74 C266.515,79.624 273.906,92.655 278.574,106.39 C279.829,103.323 281.252,100.408 282.861,97.589 L271.882,39.55 C278.107,42.867 281.083,51.26 283.333,58.355 C286.065,67.829 288.547,77.458 289.546,87.434 C293.903,82.638 298.873,78.625 305.088,78.652 L290.916,98.707 C292.111,112.863 291.677,106.463 292.329,117.895 C300.014,121.221 308.016,123.029 316.14,124.13 C318.004,118.133 320.271,112.279 323.407,107.055 L315.421,66.092 C323.186,69.016 327.574,91.988 329.1,99.567 C331.016,97.316 333.449,95.88 335.882,94.581 L332.915,99.565 C337.045,101.248 341.139,103.083 345.026,105.451 C347.343,101.42 350.215,97.711 353.883,95.367 L349.21,108.065 C354.992,112.126 360.777,116.773 364.565,123.475 L371.651,101.414 L321.882,34.833 C341.109,49.51 361.516,62.588 378.012,81.612 L392.088,37.79 C393.929,55.266 388.709,71.576 382.361,86.984 C387.291,93.185 391.387,100.278 394.687,107.827 C396.176,88.586 402.201,69.588 415.421,57.444 L415.422,57.444 L415.422,57.444 L415.421,57.444 L401.069,108.783 C407.025,107.293 412.898,109.126 418.408,111.746 L419.538,112.436 L424.088,80.243 C436.025,89.94 433.29,104.719 427.763,118.061 C436.733,125.132 432.591,121.755 440.223,128.136 L446.093,107.6 L415.755,57.425 C430.25,63.854 441.4,78.271 450.365,92.655 L459.069,62.206 L430.549,9.675 C442.538,19.063 455.207,27.721 465.499,39.713 L475.882,3.386 z M473.245,88.316 C469.983,97.199 466.419,106.034 461.504,113.842 C465.432,123.207 469.055,132.937 470.08,143.422 C471.804,143.398 473.529,143.456 475.238,143.137 C483.118,141.454 490.509,137.624 497.034,132.131 L473.245,88.316 z M455.46,123.091 L453.882,125.241 C450.61,130.13 452.532,127.136 448.279,134.363 C454.25,138.482 460.598,142.369 467.606,143.178 L455.46,123.091 z M346.468,115.513 L339.747,133.778 C343.181,136.084 346.596,138.17 350.562,138.844 L351.773,138.984 C354.719,138.922 357.617,138.26 360.245,136.666 C360.444,135.892 360.755,135.167 361.044,134.437 L361.672,132.482 L346.468,115.513 z M361.773,132.594 C361.391,133.564 361.633,132.949 361.044,134.437 L360.348,136.604 C362.524,135.284 361.485,135.993 363.471,134.49 L361.773,132.594 z M184.891,64.324 L147.127,103.252 L150.103,106.183 C158.97,114.981 168.494,123.738 175.755,134.469 C175.997,135.326 175.986,135.015 175.994,135.36 L176.737,135.336 C183.782,134.957 181.058,135.173 184.917,134.841 C184.993,132.126 185.101,129.276 186.135,126.783 C186.338,126.296 186.982,124.892 187.697,125.269 C189.437,126.186 187.692,133.25 187.306,134.636 C197.27,133.78 193.221,134.358 199.493,133.326 L194.904,124.049 L172.549,100.084 C179.001,102.299 184.524,106.576 189.122,112.36 L181.882,97.725 C190.567,107.892 200.174,118.107 203.857,132.335 L204.035,132.578 C212.096,131.252 220.083,129.189 227.652,125.582 L184.891,64.324 z M144.955,105.492 L134.89,115.866 L135.177,118.759 C138.164,119.55 141.044,120.693 143.793,122.255 C149.017,125.274 148.516,125.589 153.548,128.855 C158.649,131.804 163.95,134.433 169.67,135.052 L144.955,105.492 z M38.575,124.605 L33.021,133.827 L34.634,133.538 C43.927,131.717 40.149,132.557 45.995,131.197 C43.306,129.36 40.904,127.013 38.575,124.605 z M332.621,100.059 L330.056,104.366 C330.999,110.668 331.853,117.057 331.693,123.483 C331.608,126.867 331.641,126.56 331.255,128.432 C333.362,129.341 335.291,130.733 337.213,132.076 C336.865,124.519 339.08,117.266 342.212,110.763 L332.621,100.059 z M374.141,104.745 L371.689,109.833 C369.415,114.622 367.034,119.346 365.036,124.307 C366.315,126.316 367.056,128.696 367.751,131.042 L367.98,130.843 C373.054,126.155 378.11,121.403 383.604,117.404 L374.141,104.745 z M52.086,102.168 L52.086,102.168 L44.227,115.219 L51.798,129.846 C62.031,127.465 56.797,128.683 67.5,126.191 C62.159,118.375 56.741,110.591 52.086,102.168 z M501.201,116.619 L501.201,116.619 C501.32,120.721 501.094,124.841 500.963,128.942 L503.094,126.975 C502.24,123.208 503.006,126.622 501.201,116.619 z M324.652,113.442 L318.093,124.458 C319.794,124.743 318.386,124.505 322.31,125.226 C325.288,125.946 323.641,125.487 327.235,126.691 L324.652,113.442 z M284.729,107.462 L282.124,111.148 C283.293,112.372 284.615,113.383 286.007,114.218 L284.729,107.462 z M129.799,87.363 L130.217,88.948 L130.639,88.368 L129.799,87.363 z" fill="#757575"/>
    <path d="M129.422,29.894 C100.755,50.587 118.504,31.277 129.422,29.894 z" fill="#757575"/>
    <g>
      <path d="M164.588,-52.939 L164.588,-52.939" fill="#757575"/>
      <path d="M164.439,-52.69 L164.439,-52.69 L164.439,-52.69 C164.549,-52.69 164.705,-52.801 164.788,-52.939 C164.871,-53.077 164.849,-53.189 164.738,-53.189 L164.738,-53.189 C164.738,-53.189 164.738,-53.189 164.738,-53.189 C164.628,-53.189 164.471,-53.077 164.389,-52.939 C164.306,-52.801 164.328,-52.69 164.439,-52.69 L164.439,-52.69" fill="#000000"/>
    </g>
  </g>
</svg>
