<?xml version="1.0" encoding="UTF-8"?>
<!DOCTYPE svg PUBLIC "-//W3C//DTD SVG 1.1//EN" "http://www.w3.org/Graphics/SVG/1.1/DTD/svg11.dtd">
<svg version="1.1" xmlns="http://www.w3.org/2000/svg" xmlns:xlink="http://www.w3.org/1999/xlink" x="0" y="0" width="544" height="240" viewBox="0, 0, 544, 240">
  <g id="Layer_2" opacity="0.597">
    <path d="M475.794,62.159 C475.794,66.944 478.504,71.836 479.127,76.826 C479.356,78.99 479.673,81.147 479.812,83.319 C480.38,92.207 480.843,101.327 479.334,110.162 C481.573,113.438 483.723,116.774 485.794,120.159 C490.362,127.559 495.863,135.013 498.858,143.237 L498.883,143.319 C498.052,134.748 497.091,125.642 500,117.333 C503.776,107.893 514.483,100.183 521.333,93.333 L512.112,159.819 C515.189,157.253 518.589,155.129 522.028,153.095 C529.453,149.756 535.647,147.063 543.912,149.087 L543.911,199.773 L-0.64,199.59 L-0.641,149.073 C-0.641,149.073 12.465,171.726 21.063,173.022 C22.91,173.386 22.145,173.316 23.338,173.378 C23.157,172.236 22.87,171.107 22.793,169.953 C22.505,165.627 22.64,165.578 23.127,162.159 C23.893,158.673 25.432,155.483 27.045,152.333 C24.759,148.893 25.756,150.57 24,147.333 C22.419,143.908 23.053,140.073 23.585,136.478 L22.912,135.519 C22.894,138.284 22.905,139.711 22.804,142.494 C22.802,142.544 22.718,145.186 22.526,145.78 C22.508,145.836 22.38,145.765 22.364,145.708 C22.193,145.087 22.086,142.957 22.07,142.642 C21.925,139.772 21.91,136.899 21.917,134.027 C17.957,127.896 16.812,120.47 17.333,113.333 L22.249,121.761 C22.335,119.655 22.463,116.192 22.667,114.667 C22.772,113.873 22.702,116.267 22.718,117.067 C22.799,121.16 22.784,120.259 22.819,122.737 L24.332,125.331 C24.294,124.848 24.332,125.303 24,124 L34.306,140.885 C40.424,133.004 37.727,136.413 42.355,130.623 C37.574,122.097 33.087,113.387 29.794,104.159 C27.57,96.375 28.744,88.107 28.46,80.16 L52.909,118.924 C63.521,107.644 76.051,95.649 91.127,90.826 L61.5,132.546 L75.187,154.248 C81.267,143.919 88.311,134.412 98.489,127.951 L98.507,127.598 C98.536,126.35 98.565,125.102 98.593,123.853 L98.593,123.848 L98.593,123.843 C98.578,122.783 98.627,121.725 98.666,120.667 C98.728,119.739 98.624,122.525 98.603,123.455 L98.593,123.843 L98.593,123.848 L98.593,123.853 C98.62,125.104 98.572,126.35 98.507,127.598 L98.499,127.945 C99.518,127.298 98.719,127.789 101,126.651 L98.447,130.189 C98.363,133.007 98.34,135.827 98.245,138.645 C98.244,138.694 98.246,138.547 98.247,138.498 C98.251,138.255 98.257,138.012 98.262,137.769 C98.271,137.354 98.28,136.94 98.289,136.526 C98.309,135.633 98.33,134.741 98.35,133.848 C98.378,132.634 98.407,131.419 98.435,130.205 L77.939,158.612 L81.137,163.682 C90.694,161.962 87.097,162.538 91.901,161.787 C92.237,160.202 92.707,158.671 93.677,157.338 C98.142,151.192 105.068,147.622 109.907,141.799 L109.907,141.798 C111.304,139.426 110.829,140.767 109.907,141.798 L109.907,141.799 L100.216,160.487 C105.838,159.608 111.505,158.996 117.199,158.904 C118.835,152.636 121.183,146.493 125.02,141.211 C120.473,126.041 122.945,134.444 117.666,115.984 C117.511,115.432 118.622,116.624 119.059,116.996 C119.948,117.752 120.834,118.516 121.637,119.361 C125.3,123.215 127.818,128.114 129.611,133.072 L130.784,133.952 C143.885,120.827 160.228,112.051 176.928,104.268 L144.461,64.826 C163.099,71.464 179.993,82.033 194.339,95.664 C201.545,92.146 208.889,88.818 216.46,86.159 L199.595,100.902 C207.303,108.918 214.538,117.589 219.983,127.33 C220.647,125.758 221.348,124.202 222.057,122.651 C224.021,118.356 226.065,114.099 228.132,109.853 C228.82,108.44 229.513,107.028 230.206,105.617 C230.58,104.855 231.486,102.498 231.333,103.333 C231.06,104.822 230.381,106.207 229.839,107.621 C228.757,110.443 227.636,113.251 226.461,116.036 C224.705,120.202 222.753,124.391 220.555,128.353 C227.11,139.125 231.131,151.091 233.354,163.449 C236.375,162.027 235.14,162.683 237.111,161.581 C236.289,150.304 239.647,139.411 242.411,128.615 C244.923,118.447 244.284,121.27 245.682,111.563 L246,106 C245.826,110.838 246.052,108.994 245.682,111.563 L243.021,158.122 C250.077,153.623 246.624,155.799 253.377,151.591 C257.918,149.085 262.664,145.879 268.031,145.718 L254,122.667 C266.426,126.808 273.818,137.859 278.486,149.506 C279.741,146.906 281.164,144.434 282.773,142.043 L271.794,92.826 C278.018,95.639 280.995,102.756 283.244,108.773 C285.977,116.806 288.459,124.972 289.458,133.432 C293.815,129.365 298.784,125.961 305,125.984 L290.827,142.991 C292.022,154.995 291.589,149.568 292.241,159.263 C299.926,162.083 307.927,163.616 316.051,164.549 C317.915,159.464 320.183,154.5 323.319,150.07 L315.333,115.333 C323.097,117.813 327.485,137.293 329.012,143.72 C330.927,141.811 333.361,140.594 335.794,139.492 L332.826,143.719 C336.956,145.146 341.05,146.702 344.938,148.71 C347.254,145.292 350.126,142.146 353.794,140.159 L349.121,150.926 C354.903,154.37 360.689,158.311 364.477,163.994 L371.563,145.286 L321.794,88.826 C341.02,101.272 361.428,112.362 377.924,128.494 L392,91.333 C393.84,106.153 388.621,119.984 382.273,133.05 C387.202,138.308 391.299,144.323 394.598,150.725 C396.088,134.409 402.112,118.298 415.333,108 L415.333,108 L415.333,108 L415.333,108 L400.981,151.536 C406.937,150.272 412.809,151.827 418.319,154.048 L419.45,154.633 L424,127.333 C435.937,135.557 433.202,148.089 427.674,159.403 C436.645,165.4 432.502,162.536 440.135,167.947 L446.005,150.532 L415.666,107.984 C430.161,113.436 441.312,125.661 450.277,137.859 L458.98,112.038 L430.461,67.492 C442.45,75.453 455.119,82.795 465.41,92.964 L475.794,62.159 z M473.157,134.18 C469.894,141.712 466.33,149.204 461.415,155.826 C465.344,163.767 468.966,172.018 469.992,180.91 C471.715,180.889 473.441,180.938 475.15,180.667 C483.03,179.24 490.421,175.993 496.945,171.335 L473.157,134.18 z M455.372,163.669 L453.794,165.492 C450.522,169.638 452.443,167.099 448.19,173.227 C454.162,176.72 460.51,180.016 467.518,180.703 L455.372,163.669 z M346.38,157.243 L339.659,172.731 C343.093,174.687 346.508,176.455 350.473,177.027 L351.685,177.146 C354.63,177.093 357.528,176.532 360.156,175.181 C360.356,174.524 360.666,173.909 360.956,173.29 L361.583,171.632 L346.38,157.243 z M361.684,171.727 C361.302,172.549 361.545,172.028 360.956,173.29 L360.259,175.127 C362.436,174.008 361.397,174.609 363.383,173.335 L361.684,171.727 z M184.802,113.834 L147.039,146.845 L150.015,149.331 C158.882,156.792 168.406,164.218 175.666,173.317 C175.909,174.044 175.898,173.78 175.905,174.073 L176.648,174.053 C183.694,173.731 180.969,173.914 184.829,173.633 C184.905,171.33 185.012,168.913 186.047,166.8 C186.249,166.386 186.893,165.196 187.609,165.516 C189.349,166.294 187.604,172.284 187.217,173.459 C197.182,172.732 193.132,173.223 199.404,172.348 L194.815,164.481 L172.461,144.159 C178.912,146.037 184.435,149.664 189.033,154.569 L181.794,142.159 C190.479,150.78 200.085,159.442 203.768,171.508 L203.946,171.714 C212.008,170.589 219.994,168.84 227.564,165.781 L184.802,113.834 z M144.866,148.744 L134.802,157.542 L135.088,159.995 C138.076,160.666 140.955,161.635 143.704,162.96 C148.929,165.52 148.428,165.787 153.46,168.557 C158.561,171.057 163.861,173.287 169.581,173.812 L144.866,148.744 z M38.486,164.952 L32.933,172.773 L34.545,172.528 C43.838,170.983 40.061,171.696 45.906,170.543 C43.217,168.985 40.815,166.995 38.487,164.952 z M332.532,144.137 L329.968,147.79 C330.911,153.134 331.765,158.552 331.604,164.001 C331.52,166.871 331.553,166.61 331.166,168.198 C333.274,168.968 335.203,170.149 337.125,171.288 C336.777,164.88 338.992,158.729 342.124,153.214 L332.532,144.137 z M374.053,148.111 L371.6,152.426 C369.326,156.487 366.945,160.493 364.948,164.7 C366.226,166.403 366.967,168.421 367.663,170.412 L367.892,170.242 C372.966,166.267 378.022,162.237 383.516,158.846 L374.053,148.111 z M51.998,145.926 L51.998,145.926 L44.139,156.993 L51.71,169.397 C61.942,167.378 56.708,168.411 67.412,166.297 C62.071,159.67 56.653,153.069 51.998,145.926 z M501.113,158.18 L501.113,158.18 C501.231,161.659 501.005,165.152 500.875,168.631 L503.006,166.962 C502.152,163.768 502.918,166.663 501.113,158.18 z M324.564,155.486 L318.005,164.828 C319.705,165.07 318.298,164.867 322.222,165.479 C325.2,166.09 323.552,165.701 327.147,166.721 L324.564,155.486 z M284.641,150.415 L282.036,153.541 C283.205,154.579 284.527,155.437 285.919,156.144 L284.641,150.415 z M129.71,133.372 L130.128,134.716 L130.551,134.224 L129.71,133.372 z" fill="#4B4848"/>
    <path d="M129.333,88.667 C100.667,109.36 118.415,90.05 129.333,88.667 z" fill="#757575"/>
    <g>
      <path d="M164.5,5.833 L164.5,5.833" fill="#757575"/>
      <path d="M164.35,6.083 L164.35,6.083 L164.35,6.083 C164.46,6.083 164.617,5.971 164.7,5.833 C164.783,5.695 164.76,5.584 164.65,5.584 L164.65,5.584 C164.65,5.584 164.65,5.584 164.65,5.584 C164.539,5.584 164.383,5.695 164.3,5.833 C164.217,5.971 164.24,6.083 164.35,6.083 L164.35,6.083" fill="#757575"/>
    </g>
    <path d="M101.305,154.339 C106.926,153.303 112.594,152.58 118.288,152.472 C119.923,145.081 122.271,137.837 126.109,131.608 C121.561,113.719 124.033,123.628 118.755,101.859 C118.599,101.208 119.711,102.614 120.148,103.053 C121.036,103.944 121.922,104.845 122.726,105.842 C126.388,110.386 128.906,116.164 130.7,122.01 L131.872,123.048 C144.973,107.57 161.317,97.221 178.017,88.044 L145.549,41.531 C164.187,49.359 181.081,61.823 195.428,77.897 C202.633,73.748 209.978,69.824 217.549,66.689 L200.684,84.074 C208.391,93.526 215.627,103.751 221.072,115.239 C221.735,113.386 222.436,111.55 223.145,109.721 C225.109,104.657 227.153,99.636 229.221,94.629 C229.909,92.963 230.602,91.298 231.295,89.634 C231.669,88.735 232.575,85.956 232.422,86.941 C232.149,88.696 231.469,90.33 230.927,91.997 C229.845,95.325 228.724,98.636 227.55,101.92 C225.793,106.833 223.842,111.773 221.643,116.445 C228.199,129.148 232.219,143.259 234.443,157.832 C237.464,156.155 236.229,156.929 238.2,155.629 C237.377,142.331 240.735,129.485 243.5,116.754 C246.012,104.764 245.372,108.092 246.77,96.646 L247.088,90.086 C246.915,95.79 247.141,93.616 246.77,96.646 L244.11,151.55 C251.165,146.245 247.712,148.81 254.466,143.849 C259.007,140.893 263.752,137.112 269.12,136.923 L255.088,109.74 C267.515,114.624 274.906,127.655 279.574,141.39 C280.829,138.323 282.252,135.408 283.861,132.589 L272.882,74.55 C279.107,77.867 282.083,86.26 284.333,93.355 C287.065,102.829 289.547,112.458 290.546,122.434 C294.903,117.638 299.873,113.625 306.088,113.652 L291.916,133.707 C293.111,147.863 292.677,141.463 293.329,152.895 C301.014,156.221 309.016,158.029 317.14,159.13 C319.004,153.133 321.271,147.279 324.407,142.055 L316.421,101.092 C324.186,104.016 328.574,126.988 330.1,134.567 C332.016,132.316 334.449,130.88 336.882,129.581 L333.915,134.565 C338.045,136.248 342.139,138.083 346.026,140.451 C348.343,136.42 351.215,132.711 354.883,130.367 L350.21,143.065 C355.992,147.126 361.777,151.773 365.565,158.475 L372.651,136.414 L322.882,69.833 C342.109,84.51 362.516,97.588 379.012,116.612 L393.088,72.79 C394.929,90.266 389.709,106.576 383.361,121.984 C388.291,128.185 392.387,135.278 395.687,142.827 C397.176,123.586 403.201,104.588 416.421,92.444 L402.069,143.783 C408.025,142.293 413.898,144.126 419.408,146.746 L420.538,147.436 L425.088,115.243 C437.025,124.94 434.29,139.719 428.763,153.061 C437.733,160.132 433.591,156.755 441.223,163.136 L447.093,142.6 L416.755,92.425 C431.25,98.854 442.4,113.271 451.365,127.655 L460.069,97.206 L431.549,44.675 C443.538,54.063 456.207,62.721 466.499,74.713 L476.882,38.386 C476.883,44.029 479.592,49.798 480.216,55.682 C480.444,58.234 480.762,60.777 480.901,63.339 C481.468,73.82 481.932,84.575 480.422,94.993 C482.662,98.857 484.811,102.79 486.883,106.782 C491.45,115.509 496.951,124.299 499.947,133.997 L499.972,134.094 C499.141,123.986 498.179,113.248 501.088,103.45 C504.865,92.317 515.572,83.226 522.422,75.148 L513.201,153.551 C516.278,150.526 519.678,148.021 523.117,145.622 C530.542,141.685 536.735,138.509 545,140.896 L545,194 L547,194 L547,264 L1,264 L1,200.451 L0.448,200.451 L0.448,140.879 C0.448,140.879 13.553,167.592 22.151,169.121 C23.998,169.55 23.234,169.468 24.427,169.541 C24.245,168.195 23.959,166.862 23.882,165.502 C23.593,160.401 23.729,160.343 24.216,156.31 C24.981,152.2 26.521,148.439 28.133,144.723 C25.847,140.667 26.845,142.644 25.088,138.828 C23.508,134.788 24.141,130.266 24.673,126.026 L24,124.895 C23.983,128.156 23.994,129.84 23.892,133.121 C23.89,133.18 23.807,136.295 23.614,136.996 C23.596,137.062 23.469,136.978 23.453,136.911 C23.281,136.178 23.174,133.666 23.158,133.296 C23.013,129.911 22.999,126.524 23.005,123.136 C19.045,115.907 17.901,107.149 18.422,98.733 L23.338,108.671 C23.424,106.188 23.552,102.105 23.755,100.305 C23.861,99.37 23.791,102.193 23.807,103.136 C23.887,107.963 23.873,106.901 23.907,109.823 L25.42,112.881 C25.382,112.312 25.42,112.849 25.088,111.312 L35.395,131.223 C41.513,121.93 38.815,125.95 43.444,119.122 C38.663,109.068 34.175,98.797 30.883,87.914 C28.659,78.735 29.833,68.985 29.549,59.613 L53.997,105.326 C64.61,92.024 77.139,77.879 92.216,72.192 L62.588,121.39 L76.275,146.981 C82.355,134.801 89.399,123.591 99.577,115.972 L99.595,115.555 C99.624,114.083 99.653,112.611 99.682,111.139 C99.709,112.613 99.661,114.083 99.595,115.555 L99.587,115.964 C100.607,115.201 99.807,115.78 102.088,114.438 L99.535,118.61 C99.451,121.933 99.428,125.259 99.334,128.582 C99.332,128.639 99.334,128.466 99.335,128.408 C99.34,128.122 99.345,127.835 99.35,127.548 C99.359,127.06 99.368,126.571 99.378,126.083 C99.398,125.03 99.418,123.978 99.439,122.925 C99.467,121.493 99.495,120.061 99.524,118.629 L79.028,152.128 L82.225,158.107 C91.783,156.078 88.186,156.758 92.989,155.872 C93.326,154.003 93.796,152.198 94.765,150.625 C99.23,143.377 106.157,139.168 110.995,132.301 L101.305,154.339 z M474.245,123.316 C470.983,132.199 467.419,141.034 462.504,148.842 C466.432,158.207 470.055,167.937 471.08,178.422 C472.804,178.398 474.529,178.456 476.238,178.137 C484.118,176.454 491.509,172.624 498.034,167.131 L474.245,123.316 z M456.46,158.091 L454.882,160.241 C451.61,165.13 453.532,162.136 449.279,169.363 C455.25,173.482 461.598,177.369 468.606,178.178 L456.46,158.091 z M347.468,150.513 L340.747,168.778 C344.181,171.084 347.596,173.17 351.562,173.844 L352.773,173.984 C355.719,173.922 358.617,173.26 361.245,171.666 C361.444,170.892 361.755,170.167 362.044,169.437 L362.672,167.482 L347.468,150.513 z M362.773,167.594 C362.391,168.564 362.633,167.949 362.044,169.437 L361.348,171.604 C363.524,170.284 362.485,170.993 364.471,169.49 L362.773,167.594 z M185.891,99.324 L148.127,138.252 L151.103,141.183 C159.97,149.981 169.494,158.738 176.755,169.469 C176.997,170.326 176.986,170.015 176.994,170.36 L177.737,170.336 C184.782,169.957 182.058,170.173 185.917,169.841 C185.993,167.126 186.101,164.276 187.135,161.783 C187.338,161.296 187.982,159.892 188.697,160.269 C190.437,161.186 188.692,168.25 188.306,169.636 C198.27,168.78 194.221,169.358 200.493,168.326 L195.904,159.049 L173.549,135.084 C180.001,137.299 185.524,141.576 190.122,147.36 L182.882,132.725 C191.567,142.892 201.174,153.107 204.857,167.335 L205.035,167.578 C213.096,166.252 221.083,164.189 228.652,160.582 L185.891,99.324 z M145.955,140.492 L135.89,150.866 L136.177,153.759 C139.164,154.55 142.044,155.693 144.793,157.255 C150.017,160.274 149.516,160.589 154.548,163.855 C159.649,166.804 164.95,169.433 170.67,170.052 L145.955,140.492 z M39.575,159.605 L34.021,168.827 L35.634,168.538 C44.927,166.717 41.149,167.557 46.995,166.197 C44.306,164.36 41.904,162.013 39.575,159.605 z M333.621,135.059 L331.056,139.366 C331.999,145.668 332.853,152.057 332.693,158.483 C332.608,161.867 332.641,161.56 332.255,163.432 C334.362,164.341 336.291,165.733 338.213,167.076 C337.865,159.519 340.08,152.266 343.212,145.763 L333.621,135.059 z M375.141,139.745 L372.689,144.833 C370.415,149.622 368.034,154.346 366.036,159.307 C367.315,161.316 368.056,163.696 368.751,166.042 L368.98,165.843 C374.054,161.155 379.11,156.403 384.604,152.404 L375.141,139.745 z M53.086,137.168 L45.227,150.219 L52.798,164.846 C63.031,162.465 57.797,163.683 68.5,161.191 C63.159,153.375 57.741,145.591 53.086,137.168 z M502.201,151.619 C502.32,155.721 502.094,159.841 501.963,163.942 L504.094,161.975 C503.24,158.208 504.006,161.622 502.201,151.619 z M325.652,148.442 L319.093,159.458 C320.794,159.743 319.386,159.505 323.31,160.226 C326.288,160.946 324.641,160.487 328.235,161.691 L325.652,148.442 z M285.729,142.462 L283.124,146.148 C284.293,147.372 285.615,148.383 287.007,149.218 L285.729,142.462 z M130.799,122.363 L131.217,123.948 L131.639,123.368 L130.799,122.363 z" fill="#757575"/>
    <path d="M-10,184 L553,184 L553,271 L-10,271 L-10,184 z" fill="#757575"/>
    <path d="M111.236,130.826 C111.355,130.603 111.467,130.376 111.593,130.157 C111.673,130.018 111.723,129.845 111.852,129.75 C111.93,129.693 111.811,129.941 111.769,130.028 C111.632,130.305 111.477,130.572 111.317,130.836 C111.219,130.997 111.182,131.324 110.995,131.3 C110.819,131.278 111.155,130.984 111.236,130.826 z" fill="#757575"/>
    <path d="M99.698,108.253 L99.755,106.381 C99.817,105.287 99.712,108.573 99.691,109.669 L99.682,110.127 L99.698,108.253 z" fill="#757575"/>
    <path d="M129.422,46.894 C100.755,67.587 118.504,48.277 129.422,46.894 z" fill="#757575"/>
    <g>
      <path d="M164.588,-45.939 L164.588,-45.939" fill="#757575"/>
      <path d="M164.439,-45.69 L164.439,-45.69 L164.439,-45.69 C164.549,-45.69 164.705,-45.801 164.788,-45.939 C164.871,-46.077 164.849,-46.189 164.738,-46.189 L164.738,-46.189 C164.738,-46.189 164.738,-46.189 164.738,-46.189 C164.628,-46.189 164.471,-46.077 164.389,-45.939 C164.306,-45.801 164.328,-45.69 164.439,-45.69 L164.439,-45.69" fill="#000000"/>
    </g>
  </g>
</svg>
