<?xml version="1.0" encoding="UTF-8"?>
<!DOCTYPE svg PUBLIC "-//W3C//DTD SVG 1.1//EN" "http://www.w3.org/Graphics/SVG/1.1/DTD/svg11.dtd">
<svg version="1.1" xmlns="http://www.w3.org/2000/svg" xmlns:xlink="http://www.w3.org/1999/xlink" x="0" y="0" width="1400" height="240" viewBox="0, 0, 1400, 240">
  <g id="Layer_2" opacity="0.597">
    <g>
      <path d="M475.794,62.159 C475.794,66.944 478.504,71.836 479.127,76.826 C479.356,78.99 479.673,81.147 479.812,83.319 C480.38,92.207 480.843,101.327 479.334,110.162 C481.573,113.438 483.723,116.774 485.794,120.159 C490.362,127.559 495.863,135.013 498.858,143.237 L498.883,143.319 C498.052,134.748 497.091,125.642 500,117.333 C503.776,107.893 514.483,100.183 521.333,93.333 L512.112,159.819 C515.189,157.253 518.589,155.129 522.028,153.095 C529.453,149.756 535.647,147.063 543.912,149.087 L543.911,199.773 L-0.64,199.59 L-0.641,149.073 C-0.641,149.073 12.465,171.726 21.063,173.022 C22.91,173.386 22.145,173.316 23.338,173.378 C23.157,172.236 22.87,171.107 22.793,169.953 C22.505,165.627 22.64,165.578 23.127,162.159 C23.893,158.673 25.432,155.483 27.045,152.333 C24.759,148.893 25.756,150.57 24,147.333 C22.419,143.908 23.053,140.073 23.585,136.478 L22.912,135.519 C22.894,138.284 22.905,139.711 22.804,142.494 C22.802,142.544 22.718,145.186 22.526,145.78 C22.508,145.836 22.38,145.765 22.364,145.708 C22.193,145.087 22.086,142.957 22.07,142.642 C21.925,139.772 21.91,136.899 21.917,134.027 C17.957,127.896 16.812,120.47 17.333,113.333 L22.249,121.761 C22.335,119.655 22.463,116.192 22.667,114.667 C22.772,113.873 22.702,116.267 22.718,117.067 C22.799,121.16 22.784,120.259 22.819,122.737 L24.332,125.331 C24.294,124.848 24.332,125.303 24,124 L34.306,140.885 C40.424,133.004 37.727,136.413 42.355,130.623 C37.574,122.097 33.087,113.387 29.794,104.159 C27.57,96.375 28.744,88.107 28.46,80.16 L52.909,118.924 C63.521,107.644 76.051,95.649 91.127,90.826 L61.5,132.546 L75.187,154.248 C81.267,143.919 88.311,134.412 98.489,127.951 L98.507,127.598 C98.536,126.35 98.565,125.102 98.593,123.853 L98.593,123.848 L98.593,123.843 C98.578,122.783 98.627,121.725 98.666,120.667 C98.728,119.739 98.624,122.525 98.603,123.455 L98.593,123.843 L98.593,123.848 L98.593,123.853 C98.62,125.104 98.572,126.35 98.507,127.598 L98.499,127.945 C99.518,127.298 98.719,127.789 101,126.651 L98.447,130.189 C98.363,133.007 98.34,135.827 98.245,138.645 C98.244,138.694 98.246,138.547 98.247,138.498 C98.251,138.255 98.257,138.012 98.262,137.769 C98.271,137.354 98.28,136.94 98.289,136.526 C98.309,135.633 98.33,134.741 98.35,133.848 C98.378,132.634 98.407,131.419 98.435,130.205 L77.939,158.612 L81.137,163.682 C90.694,161.962 87.097,162.538 91.901,161.787 C92.237,160.202 92.707,158.671 93.677,157.338 C98.142,151.192 105.068,147.622 109.907,141.799 L109.907,141.798 C111.304,139.426 110.829,140.767 109.907,141.798 L109.907,141.799 L100.216,160.487 C105.838,159.608 111.505,158.996 117.199,158.904 C118.835,152.636 121.183,146.493 125.02,141.211 C120.473,126.041 122.945,134.444 117.666,115.984 C117.511,115.432 118.622,116.624 119.059,116.996 C119.948,117.752 120.834,118.516 121.637,119.361 C125.3,123.215 127.818,128.114 129.611,133.072 L130.784,133.952 C143.885,120.827 160.228,112.051 176.928,104.268 L144.461,64.826 C163.099,71.464 179.993,82.033 194.339,95.664 C201.545,92.146 208.889,88.818 216.46,86.159 L199.595,100.902 C207.303,108.918 214.538,117.589 219.983,127.33 C220.647,125.758 221.348,124.202 222.057,122.651 C224.021,118.356 226.065,114.099 228.132,109.853 C228.82,108.44 229.513,107.028 230.206,105.617 C230.58,104.855 231.486,102.498 231.333,103.333 C231.06,104.822 230.381,106.207 229.839,107.621 C228.757,110.443 227.636,113.251 226.461,116.036 C224.705,120.202 222.753,124.391 220.555,128.353 C227.11,139.125 231.131,151.091 233.354,163.449 C236.375,162.027 235.14,162.683 237.111,161.581 C236.289,150.304 239.647,139.411 242.411,128.615 C244.923,118.447 244.284,121.27 245.682,111.563 L246,106 C245.826,110.838 246.052,108.994 245.682,111.563 L243.021,158.122 C250.077,153.623 246.624,155.799 253.377,151.591 C257.918,149.085 262.664,145.879 268.031,145.718 L254,122.667 C266.426,126.808 273.818,137.859 278.486,149.506 C279.741,146.906 281.164,144.434 282.773,142.043 L271.794,92.826 C278.018,95.639 280.995,102.756 283.244,108.773 C285.977,116.806 288.459,124.972 289.458,133.432 C293.815,129.365 298.784,125.961 305,125.984 L290.827,142.991 C292.022,154.995 291.589,149.568 292.241,159.263 C299.926,162.083 307.927,163.616 316.051,164.549 C317.915,159.464 320.183,154.5 323.319,150.07 L315.333,115.333 C323.097,117.813 327.485,137.293 329.012,143.72 C330.927,141.811 333.361,140.594 335.794,139.492 L332.826,143.719 C336.956,145.146 341.05,146.702 344.938,148.71 C347.254,145.292 350.126,142.146 353.794,140.159 L349.121,150.926 C354.903,154.37 360.689,158.311 364.477,163.994 L371.563,145.286 L321.794,88.826 C341.02,101.272 361.428,112.362 377.924,128.494 L392,91.333 C393.84,106.153 388.621,119.984 382.273,133.05 C387.202,138.308 391.299,144.323 394.598,150.725 C396.088,134.409 402.112,118.298 415.333,108 L415.333,108 L415.333,108 L415.333,108 L400.981,151.536 C406.937,150.272 412.809,151.827 418.319,154.048 L419.45,154.633 L424,127.333 C435.937,135.557 433.202,148.089 427.674,159.403 C436.645,165.4 432.502,162.536 440.135,167.947 L446.005,150.532 L415.666,107.984 C430.161,113.436 441.312,125.661 450.277,137.859 L458.98,112.038 L430.461,67.492 C442.45,75.453 455.119,82.795 465.41,92.964 L475.794,62.159 z M473.157,134.18 C469.894,141.712 466.33,149.204 461.415,155.826 C465.344,163.767 468.966,172.018 469.992,180.91 C471.715,180.889 473.441,180.938 475.15,180.667 C483.03,179.24 490.421,175.993 496.945,171.335 L473.157,134.18 z M455.372,163.669 L453.794,165.492 C450.522,169.638 452.443,167.099 448.19,173.227 C454.162,176.72 460.51,180.016 467.518,180.703 L455.372,163.669 z M346.38,157.243 L339.659,172.731 C343.093,174.687 346.508,176.455 350.473,177.027 L351.685,177.146 C354.63,177.093 357.528,176.532 360.156,175.181 C360.356,174.524 360.666,173.909 360.956,173.29 L361.583,171.632 L346.38,157.243 z M361.684,171.727 C361.302,172.549 361.545,172.028 360.956,173.29 L360.259,175.127 C362.436,174.008 361.397,174.609 363.383,173.335 L361.684,171.727 z M184.802,113.834 L147.039,146.845 L150.015,149.331 C158.882,156.792 168.406,164.218 175.666,173.317 C175.909,174.044 175.898,173.78 175.905,174.073 L176.648,174.053 C183.694,173.731 180.969,173.914 184.829,173.633 C184.905,171.33 185.012,168.913 186.047,166.8 C186.249,166.386 186.893,165.196 187.609,165.516 C189.349,166.294 187.604,172.284 187.217,173.459 C197.182,172.732 193.132,173.223 199.404,172.348 L194.815,164.481 L172.461,144.159 C178.912,146.037 184.435,149.664 189.033,154.569 L181.794,142.159 C190.479,150.78 200.085,159.442 203.768,171.508 L203.946,171.714 C212.008,170.589 219.994,168.84 227.564,165.781 L184.802,113.834 z M144.866,148.744 L134.802,157.542 L135.088,159.995 C138.076,160.666 140.955,161.635 143.704,162.96 C148.929,165.52 148.428,165.787 153.46,168.557 C158.561,171.057 163.861,173.287 169.581,173.812 L144.866,148.744 z M38.486,164.952 L32.933,172.773 L34.545,172.528 C43.838,170.983 40.061,171.696 45.906,170.543 C43.217,168.985 40.815,166.995 38.487,164.952 z M332.532,144.137 L329.968,147.79 C330.911,153.134 331.765,158.552 331.604,164.001 C331.52,166.871 331.553,166.61 331.166,168.198 C333.274,168.968 335.203,170.149 337.125,171.288 C336.777,164.88 338.992,158.729 342.124,153.214 L332.532,144.137 z M374.053,148.111 L371.6,152.426 C369.326,156.487 366.945,160.493 364.948,164.7 C366.226,166.403 366.967,168.421 367.663,170.412 L367.892,170.242 C372.966,166.267 378.022,162.237 383.516,158.846 L374.053,148.111 z M51.998,145.926 L51.998,145.926 L44.139,156.993 L51.71,169.397 C61.942,167.378 56.708,168.411 67.412,166.297 C62.071,159.67 56.653,153.069 51.998,145.926 z M501.113,158.18 L501.113,158.18 C501.231,161.659 501.005,165.152 500.875,168.631 L503.006,166.962 C502.152,163.768 502.918,166.663 501.113,158.18 z M324.564,155.486 L318.005,164.828 C319.705,165.07 318.298,164.867 322.222,165.479 C325.2,166.09 323.552,165.701 327.147,166.721 L324.564,155.486 z M284.641,150.415 L282.036,153.541 C283.205,154.579 284.527,155.437 285.919,156.144 L284.641,150.415 z M129.71,133.372 L130.128,134.716 L130.551,134.224 L129.71,133.372 z" fill="#4B4848"/>
      <path d="M129.333,88.667 C100.667,109.36 118.415,90.05 129.333,88.667 z" fill="#757575"/>
      <g>
        <path d="M164.5,5.833 L164.5,5.833" fill="#757575"/>
        <path d="M164.35,6.083 L164.35,6.083 L164.35,6.083 C164.46,6.083 164.617,5.971 164.7,5.833 C164.783,5.695 164.76,5.584 164.65,5.584 L164.65,5.584 C164.65,5.584 164.65,5.584 164.65,5.584 C164.539,5.584 164.383,5.695 164.3,5.833 C164.217,5.971 164.24,6.083 164.35,6.083 L164.35,6.083" fill="#757575"/>
      </g>
      <path d="M100.49,154.339 C106.121,153.303 111.799,152.58 117.504,152.472 C119.142,145.081 121.494,137.837 125.339,131.608 C120.783,113.719 123.259,123.628 117.971,101.859 C117.815,101.208 118.929,102.614 119.367,103.053 C120.257,103.944 121.144,104.845 121.95,105.842 C125.618,110.386 128.141,116.164 129.938,122.01 L131.112,123.048 C144.237,107.57 160.611,97.221 177.342,88.044 L144.815,41.531 C163.487,49.359 180.412,61.823 194.785,77.897 C202.003,73.748 209.361,69.824 216.946,66.689 L200.05,84.074 C207.771,93.526 215.021,103.751 220.476,115.239 C221.14,113.386 221.842,111.55 222.552,109.721 C224.52,104.657 226.568,99.636 228.64,94.629 C229.329,92.963 230.023,91.298 230.717,89.634 C231.092,88.735 232,85.956 231.846,86.941 C231.573,88.696 230.892,90.33 230.349,91.997 C229.265,95.325 228.142,98.636 226.966,101.92 C225.205,106.833 223.251,111.773 221.048,116.445 C227.616,129.148 231.643,143.259 233.871,157.832 C236.898,156.155 235.66,156.929 237.635,155.629 C236.811,142.331 240.175,129.485 242.945,116.754 C245.461,104.764 244.82,108.092 246.221,96.646 L246.539,90.086 C246.366,95.79 246.592,93.616 246.221,96.646 L243.556,151.55 C250.624,146.245 247.164,148.81 253.931,143.849 C258.48,140.893 263.234,137.112 268.612,136.923 L254.554,109.74 C267.004,114.624 274.408,127.655 279.085,141.39 C280.342,138.323 281.768,135.408 283.38,132.589 L272.38,74.55 C278.617,77.867 281.598,86.26 283.852,93.355 C286.589,102.829 289.076,112.458 290.077,122.434 C294.442,117.638 299.421,113.625 305.647,113.652 L291.449,133.707 C292.646,147.863 292.212,141.463 292.865,152.895 C300.564,156.221 308.581,158.029 316.719,159.13 C318.587,153.133 320.858,147.279 324,142.055 L315.999,101.092 C323.778,104.016 328.174,126.988 329.703,134.567 C331.623,132.316 334.06,130.88 336.498,129.581 L333.525,134.565 C337.663,136.248 341.764,138.083 345.658,140.451 C347.98,136.42 350.857,132.711 354.532,130.367 L349.85,143.065 C355.643,147.126 361.438,151.773 365.233,158.475 L372.332,136.414 L322.472,69.833 C341.734,84.51 362.178,97.588 378.705,116.612 L392.806,72.79 C394.651,90.266 389.421,106.576 383.062,121.984 C388.001,128.185 392.104,135.278 395.41,142.827 C396.902,123.586 402.938,104.588 416.182,92.444 L401.804,143.783 C407.771,142.293 413.654,144.126 419.175,146.746 L420.307,147.436 L424.865,115.243 C436.824,124.94 434.084,139.719 428.547,153.061 C437.533,160.132 433.384,156.755 441.029,163.136 L446.91,142.6 L416.517,92.425 C431.038,98.854 442.209,113.271 451.19,127.655 L459.91,97.206 L431.338,44.675 C443.349,54.063 456.041,62.721 466.352,74.713 L476.754,38.386 C476.755,44.029 479.469,49.798 480.094,55.682 C480.322,58.234 480.641,60.777 480.78,63.339 C481.348,73.82 481.813,84.575 480.3,94.993 C482.544,98.857 484.697,102.79 486.773,106.782 C491.348,115.509 496.859,124.299 499.861,133.997 L499.886,134.094 C499.053,123.986 498.09,113.248 501.004,103.45 C504.788,92.317 515.515,83.226 522.377,75.148 L513.139,153.551 C516.222,150.526 519.628,148.021 523.073,145.622 C530.512,141.685 536.716,138.509 544.996,140.896 L544.996,194 L547,194 L547,264 L0.001,264 L0.001,200.451 L-0.552,200.451 L-0.552,140.879 C-0.552,140.879 12.577,167.592 21.191,169.121 C23.041,169.55 22.276,169.468 23.471,169.541 C23.289,168.195 23.002,166.862 22.925,165.502 C22.635,160.401 22.772,160.343 23.26,156.31 C24.026,152.2 25.569,148.439 27.184,144.723 C24.893,140.667 25.893,142.644 24.133,138.828 C22.55,134.788 23.184,130.266 23.717,126.026 L23.043,124.895 C23.026,128.156 23.037,129.84 22.935,133.121 C22.933,133.18 22.85,136.295 22.656,136.996 C22.638,137.062 22.511,136.978 22.495,136.911 C22.323,136.178 22.216,133.666 22.2,133.296 C22.054,129.911 22.04,126.524 22.046,123.136 C18.079,115.907 16.933,107.149 17.455,98.733 L22.38,108.671 C22.466,106.188 22.594,102.105 22.798,100.305 C22.904,99.37 22.834,102.193 22.85,103.136 C22.93,107.963 22.916,106.901 22.95,109.823 L24.466,112.881 C24.428,112.312 24.466,112.849 24.133,111.312 L34.459,131.223 C40.588,121.93 37.885,125.95 42.523,119.122 C37.733,109.068 33.237,98.797 29.939,87.914 C27.711,78.735 28.887,68.985 28.602,59.613 L53.095,105.326 C63.727,92.024 76.279,77.879 91.384,72.192 L61.702,121.39 L75.414,146.981 C81.505,134.801 88.562,123.591 98.758,115.972 L98.776,115.555 C98.805,114.083 98.835,112.611 98.864,111.139 C98.891,112.613 98.843,114.083 98.776,115.555 L98.768,115.964 C99.79,115.201 98.989,115.78 101.274,114.438 L98.716,118.61 C98.632,121.933 98.609,125.259 98.515,128.582 C98.513,128.639 98.515,128.466 98.516,128.408 C98.521,128.122 98.526,127.835 98.531,127.548 C98.54,127.06 98.549,126.571 98.559,126.083 C98.579,125.03 98.599,123.978 98.62,122.925 C98.648,121.493 98.676,120.061 98.705,118.629 L78.172,152.128 L81.375,158.107 C90.95,156.078 87.347,156.758 92.158,155.872 C92.496,154.003 92.967,152.198 93.938,150.625 C98.411,143.377 105.35,139.168 110.197,132.301 L100.49,154.339 z M474.112,123.316 C470.844,132.199 467.273,141.034 462.349,148.842 C466.285,158.207 469.914,167.937 470.941,178.422 C472.668,178.398 474.396,178.456 476.109,178.137 C484.003,176.454 491.408,172.624 497.944,167.131 L474.112,123.316 z M456.294,158.091 L454.713,160.241 C451.435,165.13 453.361,162.136 449.1,169.363 C455.082,173.482 461.442,177.369 468.463,178.178 L456.294,158.091 z M347.103,150.513 L340.37,168.778 C343.81,171.084 347.231,173.17 351.204,173.844 L352.418,173.984 C355.369,173.922 358.272,173.26 360.905,171.666 C361.105,170.892 361.416,170.167 361.706,169.437 L362.335,167.482 L347.103,150.513 z M362.436,167.594 C362.053,168.564 362.296,167.949 361.706,169.437 L361.008,171.604 C363.188,170.284 362.147,170.993 364.137,169.49 L362.436,167.594 z M185.23,99.324 L147.397,138.252 L150.379,141.183 C159.262,149.981 168.803,158.738 176.078,169.469 C176.32,170.326 176.309,170.015 176.317,170.36 L177.061,170.336 C184.119,169.957 181.39,170.173 185.256,169.841 C185.333,167.126 185.441,164.276 186.477,161.783 C186.68,161.296 187.325,159.892 188.041,160.269 C189.785,161.186 188.036,168.25 187.65,169.636 C197.632,168.78 193.576,169.358 199.859,168.326 L195.262,159.049 L172.866,135.084 C179.33,137.299 184.863,141.576 189.469,147.36 L182.216,132.725 C190.917,142.892 200.541,153.107 204.231,167.335 L204.409,167.578 C212.485,166.252 220.487,164.189 228.07,160.582 L185.23,99.324 z M145.221,140.492 L135.138,150.866 L135.425,153.759 C138.418,154.55 141.303,155.693 144.057,157.255 C149.291,160.274 148.789,160.589 153.83,163.855 C158.94,166.804 164.251,169.433 169.981,170.052 L145.221,140.492 z M38.647,159.605 L33.082,168.827 L34.698,168.538 C44.008,166.717 40.223,167.557 46.08,166.197 C43.386,164.36 40.98,162.013 38.647,159.605 z M333.231,135.059 L330.661,139.366 C331.606,145.668 332.461,152.057 332.301,158.483 C332.216,161.867 332.249,161.56 331.862,163.432 C333.973,164.341 335.905,165.733 337.831,167.076 C337.482,159.519 339.701,152.266 342.839,145.763 L333.231,135.059 z M374.827,139.745 L372.37,144.833 C370.092,149.622 367.707,154.346 365.705,159.307 C366.986,161.316 367.729,163.696 368.425,166.042 L368.654,165.843 C373.738,161.155 378.803,156.403 384.307,152.404 L374.827,139.745 z M52.182,137.168 L44.309,150.219 L51.894,164.846 C62.146,162.465 56.902,163.683 67.625,161.191 C62.274,153.375 56.846,145.591 52.182,137.168 z M502.119,151.619 C502.238,155.721 502.012,159.841 501.881,163.942 L504.016,161.975 C503.16,158.208 503.927,161.622 502.119,151.619 z M325.247,148.442 L318.676,159.458 C320.38,159.743 318.97,159.505 322.901,160.226 C325.884,160.946 324.234,160.487 327.835,161.691 L325.247,148.442 z M285.251,142.462 L282.641,146.148 C283.812,147.372 285.137,148.383 286.531,149.218 L285.251,142.462 z M130.038,122.363 L130.456,123.948 L130.879,123.368 L130.038,122.363 z" fill="#757575"/>
      <path d="M111.236,130.826 C111.355,130.603 111.467,130.376 111.593,130.157 C111.673,130.018 111.723,129.845 111.852,129.75 C111.93,129.693 111.811,129.941 111.769,130.028 C111.632,130.305 111.477,130.572 111.317,130.836 C111.219,130.997 111.182,131.324 110.995,131.3 C110.819,131.278 111.155,130.984 111.236,130.826 z" fill="#757575"/>
      <path d="M99.698,108.253 L99.755,106.381 C99.817,105.287 99.712,108.573 99.691,109.669 L99.682,110.127 L99.698,108.253 z" fill="#757575"/>
      <path d="M129.422,46.894 C100.755,67.587 118.504,48.277 129.422,46.894 z" fill="#757575"/>
      <g>
        <path d="M164.588,-45.939 L164.588,-45.939" fill="#757575"/>
        <path d="M164.439,-45.69 L164.439,-45.69 L164.439,-45.69 C164.549,-45.69 164.705,-45.801 164.788,-45.939 C164.871,-46.077 164.849,-46.189 164.738,-46.189 L164.738,-46.189 C164.738,-46.189 164.738,-46.189 164.738,-46.189 C164.628,-46.189 164.471,-46.077 164.389,-45.939 C164.306,-45.801 164.328,-45.69 164.439,-45.69 L164.439,-45.69" fill="#000000"/>
      </g>
    </g>
    <g>
      <path d="M1021.188,62.007 C1021.188,66.792 1023.898,71.684 1024.521,76.674 C1024.75,78.838 1025.067,80.995 1025.206,83.167 C1025.774,92.055 1026.237,101.175 1024.728,110.01 C1026.967,113.286 1029.117,116.622 1031.188,120.007 C1035.756,127.407 1041.257,134.861 1044.252,143.085 L1044.277,143.167 C1043.446,134.596 1042.485,125.49 1045.394,117.181 C1049.17,107.741 1059.877,100.031 1066.727,93.181 L1057.506,159.667 C1060.583,157.101 1063.983,154.977 1067.422,152.943 C1074.847,149.604 1081.041,146.911 1089.306,148.935 L1089.305,199.621 L544.754,199.438 L544.753,148.921 C544.753,148.921 557.859,171.574 566.457,172.87 C568.304,173.234 567.539,173.164 568.732,173.226 C568.551,172.084 568.264,170.955 568.187,169.801 C567.899,165.475 568.034,165.426 568.521,162.007 C569.287,158.521 570.826,155.331 572.439,152.181 C570.153,148.741 571.15,150.418 569.394,147.181 C567.813,143.756 568.447,139.921 568.979,136.326 L568.306,135.367 C568.288,138.132 568.299,139.559 568.198,142.342 C568.196,142.392 568.112,145.034 567.92,145.628 C567.902,145.684 567.774,145.613 567.758,145.556 C567.587,144.935 567.48,142.805 567.464,142.49 C567.319,139.62 567.304,136.747 567.311,133.875 C563.351,127.744 562.206,120.318 562.727,113.181 L567.643,121.609 C567.729,119.503 567.857,116.04 568.061,114.515 C568.166,113.721 568.096,116.115 568.112,116.915 C568.193,121.008 568.178,120.107 568.213,122.585 L569.726,125.179 C569.688,124.696 569.726,125.151 569.394,123.848 L579.7,140.733 C585.818,132.852 583.121,136.261 587.749,130.471 C582.968,121.945 578.481,113.235 575.188,104.007 C572.964,96.223 574.138,87.955 573.854,80.008 L598.303,118.772 C608.915,107.492 621.445,95.497 636.521,90.674 L606.894,132.394 L620.581,154.096 C626.661,143.767 633.705,134.26 643.883,127.799 L643.901,127.446 C643.93,126.198 643.959,124.95 643.987,123.701 L643.987,123.696 L643.987,123.691 C643.972,122.631 644.021,121.573 644.06,120.515 C644.122,119.587 644.018,122.373 643.997,123.303 L643.987,123.691 L643.987,123.696 L643.987,123.701 C644.014,124.952 643.966,126.198 643.901,127.446 L643.893,127.793 C644.912,127.146 644.113,127.637 646.394,126.499 L643.841,130.037 C643.757,132.855 643.734,135.675 643.639,138.493 C643.638,138.542 643.64,138.395 643.641,138.346 C643.645,138.103 643.651,137.86 643.656,137.617 C643.665,137.202 643.674,136.788 643.683,136.374 C643.703,135.481 643.724,134.589 643.744,133.696 C643.772,132.482 643.801,131.267 643.829,130.053 L623.333,158.46 L626.531,163.53 C636.088,161.81 632.491,162.386 637.295,161.635 C637.631,160.05 638.101,158.519 639.071,157.186 C643.536,151.04 650.462,147.47 655.301,141.647 L655.301,141.646 C656.698,139.274 656.223,140.615 655.301,141.646 L655.301,141.647 L645.61,160.335 C651.232,159.456 656.899,158.844 662.593,158.752 C664.229,152.484 666.577,146.341 670.414,141.059 C665.867,125.889 668.339,134.292 663.06,115.832 C662.905,115.28 664.016,116.472 664.453,116.844 C665.342,117.6 666.228,118.364 667.031,119.209 C670.694,123.063 673.212,127.962 675.005,132.92 L676.178,133.8 C689.279,120.675 705.622,111.899 722.322,104.116 L689.855,64.674 C708.493,71.312 725.387,81.881 739.733,95.512 C746.939,91.994 754.283,88.666 761.854,86.007 L744.989,100.75 C752.697,108.766 759.932,117.437 765.377,127.178 C766.041,125.606 766.742,124.05 767.451,122.499 C769.415,118.204 771.459,113.947 773.526,109.701 C774.214,108.288 774.907,106.876 775.6,105.465 C775.974,104.703 776.88,102.346 776.727,103.181 C776.454,104.67 775.775,106.055 775.233,107.469 C774.151,110.291 773.03,113.099 771.855,115.884 C770.099,120.05 768.147,124.239 765.949,128.201 C772.504,138.973 776.525,150.939 778.748,163.297 C781.769,161.875 780.534,162.531 782.505,161.429 C781.683,150.152 785.041,139.259 787.805,128.463 C790.317,118.295 789.678,121.118 791.076,111.411 L791.394,105.848 C791.22,110.686 791.446,108.842 791.076,111.411 L788.415,157.97 C795.471,153.471 792.018,155.647 798.771,151.439 C803.312,148.933 808.058,145.727 813.425,145.566 L799.394,122.515 C811.82,126.656 819.212,137.707 823.88,149.354 C825.135,146.754 826.558,144.282 828.167,141.891 L817.188,92.674 C823.412,95.487 826.389,102.604 828.638,108.621 C831.371,116.654 833.853,124.82 834.852,133.28 C839.209,129.213 844.178,125.809 850.394,125.832 L836.221,142.839 C837.416,154.843 836.983,149.416 837.635,159.111 C845.32,161.931 853.321,163.464 861.445,164.397 C863.309,159.312 865.577,154.348 868.713,149.918 L860.727,115.181 C868.491,117.661 872.879,137.141 874.406,143.568 C876.321,141.659 878.755,140.442 881.188,139.34 L878.22,143.567 C882.35,144.994 886.444,146.55 890.332,148.558 C892.648,145.14 895.52,141.994 899.188,140.007 L894.515,150.774 C900.297,154.218 906.083,158.159 909.871,163.842 L916.957,145.134 L867.188,88.674 C886.414,101.12 906.822,112.21 923.318,128.342 L937.394,91.181 C939.234,106.001 934.015,119.832 927.667,132.898 C932.596,138.156 936.693,144.171 939.992,150.573 C941.482,134.257 947.506,118.146 960.727,107.848 L960.727,107.848 L960.727,107.848 L960.727,107.848 L946.375,151.384 C952.331,150.12 958.203,151.675 963.713,153.896 L964.844,154.481 L969.394,127.181 C981.331,135.405 978.596,147.937 973.068,159.251 C982.039,165.248 977.896,162.384 985.529,167.795 L991.399,150.38 L961.06,107.832 C975.555,113.284 986.706,125.509 995.671,137.707 L1004.374,111.886 L975.855,67.34 C987.844,75.301 1000.513,82.643 1010.804,92.812 L1021.188,62.007 z M1018.551,134.028 C1015.288,141.56 1011.724,149.052 1006.809,155.674 C1010.738,163.615 1014.36,171.866 1015.386,180.758 C1017.109,180.737 1018.835,180.786 1020.544,180.515 C1028.424,179.088 1035.815,175.841 1042.339,171.183 L1018.551,134.028 z M1000.766,163.517 L999.188,165.34 C995.916,169.486 997.837,166.947 993.584,173.075 C999.556,176.568 1005.904,179.864 1012.912,180.551 L1000.766,163.517 z M891.774,157.091 L885.053,172.579 C888.487,174.535 891.902,176.303 895.867,176.875 L897.079,176.994 C900.024,176.941 902.922,176.38 905.55,175.029 C905.75,174.372 906.06,173.757 906.35,173.138 L906.977,171.48 L891.774,157.091 z M907.078,171.575 C906.696,172.397 906.939,171.876 906.35,173.138 L905.653,174.975 C907.83,173.856 906.791,174.457 908.777,173.183 L907.078,171.575 z M730.196,113.682 L692.433,146.693 L695.409,149.179 C704.276,156.64 713.8,164.066 721.06,173.165 C721.303,173.892 721.292,173.628 721.299,173.921 L722.042,173.901 C729.088,173.579 726.363,173.762 730.223,173.481 C730.299,171.178 730.406,168.761 731.441,166.648 C731.643,166.234 732.287,165.044 733.003,165.364 C734.743,166.142 732.998,172.132 732.611,173.307 C742.576,172.58 738.526,173.071 744.798,172.196 L740.209,164.329 L717.855,144.007 C724.306,145.885 729.829,149.512 734.427,154.417 L727.188,142.007 C735.873,150.628 745.479,159.29 749.162,171.356 L749.34,171.562 C757.402,170.437 765.388,168.688 772.958,165.629 L730.196,113.682 z M690.26,148.592 L680.196,157.39 L680.482,159.843 C683.47,160.514 686.349,161.483 689.098,162.808 C694.323,165.368 693.822,165.635 698.854,168.405 C703.955,170.905 709.255,173.135 714.975,173.66 L690.26,148.592 z M583.88,164.8 L578.327,172.621 L579.939,172.376 C589.232,170.831 585.455,171.544 591.3,170.391 C588.611,168.833 586.209,166.843 583.881,164.8 z M877.926,143.985 L875.362,147.638 C876.305,152.982 877.159,158.4 876.998,163.849 C876.914,166.719 876.947,166.458 876.56,168.046 C878.668,168.816 880.597,169.997 882.519,171.136 C882.171,164.728 884.386,158.577 887.518,153.062 L877.926,143.985 z M919.447,147.959 L916.994,152.274 C914.72,156.335 912.339,160.341 910.342,164.548 C911.62,166.251 912.361,168.269 913.057,170.26 L913.286,170.09 C918.36,166.115 923.416,162.085 928.91,158.694 L919.447,147.959 z M597.392,145.774 L597.392,145.774 L589.533,156.841 L597.104,169.245 C607.336,167.226 602.102,168.259 612.806,166.145 C607.465,159.518 602.047,152.917 597.392,145.774 z M1046.507,158.028 L1046.507,158.028 C1046.625,161.507 1046.399,165 1046.269,168.479 L1048.4,166.81 C1047.546,163.616 1048.312,166.511 1046.507,158.028 z M869.958,155.334 L863.399,164.676 C865.099,164.918 863.692,164.715 867.616,165.327 C870.594,165.938 868.946,165.549 872.541,166.569 L869.958,155.334 z M830.035,150.263 L827.43,153.389 C828.599,154.427 829.921,155.285 831.313,155.992 L830.035,150.263 z M675.104,133.22 L675.522,134.564 L675.945,134.072 L675.104,133.22 z" fill="#4B4848"/>
      <path d="M674.727,88.515 C646.061,109.208 663.809,89.898 674.727,88.515 z" fill="#757575"/>
      <g>
        <path d="M709.894,5.681 L709.894,5.681" fill="#757575"/>
        <path d="M709.744,5.931 L709.744,5.931 L709.744,5.931 C709.854,5.931 710.011,5.819 710.094,5.681 C710.177,5.543 710.154,5.432 710.044,5.432 L710.044,5.432 C710.044,5.432 710.044,5.432 710.044,5.432 C709.933,5.432 709.777,5.543 709.694,5.681 C709.611,5.819 709.634,5.931 709.744,5.931 L709.744,5.931" fill="#757575"/>
      </g>
      <path d="M645.883,154.187 C651.515,153.151 657.193,152.428 662.897,152.32 C664.535,144.929 666.888,137.685 670.733,131.456 C666.176,113.567 668.653,123.476 663.365,101.707 C663.209,101.056 664.323,102.462 664.761,102.901 C665.65,103.792 666.538,104.693 667.344,105.69 C671.012,110.234 673.535,116.012 675.332,121.858 L676.506,122.896 C689.631,107.418 706.005,97.069 722.736,87.892 L690.208,41.379 C708.88,49.207 725.805,61.671 740.179,77.745 C747.397,73.596 754.755,69.672 762.34,66.537 L745.444,83.922 C753.165,93.374 760.414,103.599 765.869,115.087 C766.534,113.234 767.236,111.398 767.946,109.569 C769.914,104.505 771.962,99.484 774.033,94.477 C774.723,92.811 775.417,91.146 776.111,89.482 C776.486,88.583 777.393,85.804 777.24,86.789 C776.967,88.544 776.285,90.178 775.742,91.845 C774.659,95.173 773.535,98.484 772.359,101.768 C770.599,106.681 768.645,111.621 766.441,116.293 C773.009,128.996 777.037,143.107 779.265,157.68 C782.291,156.003 781.054,156.777 783.029,155.477 C782.204,142.179 785.568,129.333 788.339,116.602 C790.855,104.612 790.214,107.94 791.614,96.494 L791.933,89.934 C791.76,95.638 791.986,93.464 791.614,96.494 L788.95,151.398 C796.018,146.093 792.558,148.658 799.325,143.697 C803.874,140.741 808.628,136.96 814.005,136.771 L799.948,109.588 C812.397,114.472 819.802,127.503 824.479,141.238 C825.736,138.171 827.161,135.256 828.773,132.437 L817.774,74.398 C824.011,77.715 826.992,86.108 829.246,93.203 C831.983,102.677 834.47,112.306 835.471,122.282 C839.836,117.486 844.815,113.473 851.041,113.5 L836.843,133.555 C838.04,147.711 837.605,141.311 838.259,152.743 C845.958,156.069 853.974,157.877 862.113,158.978 C863.981,152.981 866.252,147.127 869.393,141.903 L861.393,100.94 C869.172,103.864 873.568,126.836 875.097,134.415 C877.016,132.164 879.454,130.728 881.891,129.429 L878.919,134.413 C883.056,136.096 887.158,137.931 891.052,140.299 C893.373,136.268 896.251,132.559 899.925,130.215 L895.244,142.913 C901.036,146.974 906.832,151.621 910.627,158.323 L917.726,136.262 L867.866,69.681 C887.128,84.358 907.572,97.436 924.098,116.46 L938.2,72.638 C940.045,90.114 934.815,106.424 928.455,121.832 C933.394,128.033 937.498,135.126 940.804,142.675 C942.296,123.434 948.332,104.436 961.576,92.292 L947.198,143.631 C953.164,142.141 959.048,143.974 964.568,146.594 L965.7,147.284 L970.259,115.091 C982.218,124.788 979.478,139.567 973.94,152.909 C982.927,159.98 978.777,156.603 986.423,162.984 L992.304,142.448 L961.91,92.273 C976.432,98.702 987.602,113.119 996.584,127.503 L1005.304,97.054 L976.732,44.523 C988.742,53.911 1001.435,62.569 1011.745,74.561 L1022.147,38.234 C1022.148,43.877 1024.862,49.646 1025.488,55.53 C1025.716,58.082 1026.035,60.625 1026.174,63.187 C1026.742,73.668 1027.207,84.423 1025.694,94.841 C1027.938,98.705 1030.091,102.638 1032.167,106.63 C1036.742,115.357 1042.253,124.147 1045.255,133.845 L1045.28,133.942 C1044.447,123.834 1043.483,113.096 1046.398,103.298 C1050.182,92.165 1060.908,83.074 1067.771,74.996 L1058.533,153.399 C1061.616,150.374 1065.283,148.206 1068.467,145.47 C1082.333,133.555 1102.653,142.368 1110.933,144.755 L1090.39,193.848 L1092.394,193.848 L1092.394,263.848 L545.395,263.848 L545.395,200.299 L544.842,200.299 L544.869,140.208 C544.869,140.208 555.275,142.52 556.91,150.22 C558.081,155.732 567.669,169.316 568.865,169.389 C568.682,168.043 568.396,166.71 568.319,165.35 C568.029,160.249 568.165,160.191 568.653,156.158 C569.42,152.048 570.963,148.287 572.577,144.571 C570.287,140.515 571.287,142.492 569.527,138.676 C567.944,134.636 568.578,130.114 569.111,125.874 L568.437,124.743 C568.42,128.004 568.431,129.688 568.329,132.969 C568.327,133.028 568.244,136.143 568.05,136.844 C568.032,136.91 567.905,136.826 567.889,136.759 C567.717,136.026 567.609,133.514 567.593,133.144 C567.448,129.759 567.434,126.372 567.44,122.984 C563.473,115.755 562.797,107.179 563.319,98.763 L569.519,99.163 C569.605,96.68 567.988,101.953 568.191,100.153 C568.298,99.218 568.227,102.041 568.244,102.984 C568.324,107.811 568.31,106.749 568.344,109.671 L569.859,112.729 C569.821,112.16 569.859,112.697 569.527,111.16 L579.853,131.071 C585.982,121.778 583.279,125.798 587.916,118.97 C583.127,108.916 578.63,98.645 575.332,87.762 C573.104,78.583 566.003,62.935 565.719,53.563 L598.489,105.174 C609.121,91.872 621.673,77.727 636.778,72.04 L607.095,121.238 L620.807,146.829 C626.899,134.649 633.956,123.439 644.152,115.82 L644.17,115.403 C644.199,113.931 644.228,112.459 644.257,110.987 C644.284,112.461 644.236,113.931 644.17,115.403 L644.162,115.812 C645.184,115.049 644.383,115.628 646.668,114.286 L644.11,118.458 C644.026,121.781 644.003,125.107 643.909,128.43 C643.907,128.487 643.909,128.314 643.91,128.256 C643.915,127.97 643.92,127.683 643.925,127.396 C643.934,126.908 643.943,126.419 643.953,125.931 C643.973,124.878 643.993,123.826 644.014,122.773 C644.042,121.341 644.07,119.909 644.099,118.477 L623.566,151.976 L626.768,157.955 C636.344,155.926 632.74,156.606 637.552,155.72 C637.89,153.851 638.361,152.046 639.331,150.473 C643.805,143.225 650.744,139.016 655.591,132.149 L645.883,154.187 z M1019.506,123.164 C1016.238,132.047 1012.667,140.882 1007.743,148.69 C1011.678,158.055 1015.308,167.785 1016.335,178.27 C1018.062,178.246 1019.79,178.304 1021.502,177.985 C1029.397,176.302 1036.801,172.472 1043.338,166.979 L1019.506,123.164 z M1001.688,157.939 L1000.107,160.089 C996.829,164.978 998.755,161.984 994.494,169.211 C1000.476,173.33 1006.836,177.217 1013.856,178.026 L1001.688,157.939 z M892.497,150.361 L885.763,168.626 C889.204,170.932 892.625,173.018 896.598,173.692 L897.811,173.832 C900.763,173.77 903.666,173.108 906.299,171.514 C906.498,170.74 906.81,170.015 907.099,169.285 L907.729,167.33 L892.497,150.361 z M907.83,167.442 C907.447,168.412 907.689,167.797 907.099,169.285 L906.402,171.452 C908.582,170.132 907.541,170.841 909.531,169.338 L907.83,167.442 z M730.624,99.172 L692.791,138.1 L695.772,141.031 C704.656,149.829 714.197,158.586 721.471,169.317 C721.714,170.174 721.703,169.863 721.711,170.208 L722.455,170.184 C729.513,169.805 726.784,170.021 730.65,169.689 C730.726,166.974 730.834,164.124 731.87,161.631 C732.074,161.144 732.719,159.74 733.435,160.117 C735.178,161.034 733.43,168.098 733.044,169.484 C743.026,168.628 738.969,169.206 745.253,168.174 L740.655,158.897 L718.26,134.932 C724.723,137.147 730.256,141.424 734.863,147.208 L727.61,132.573 C736.31,142.74 745.935,152.955 749.625,167.183 L749.803,167.426 C757.879,166.1 765.88,164.037 773.463,160.43 L730.624,99.172 z M690.615,140.34 L680.532,150.714 L680.819,153.607 C683.812,154.398 686.697,155.541 689.451,157.103 C694.684,160.122 694.183,160.437 699.224,163.703 C704.334,166.652 709.645,169.281 715.375,169.9 L690.615,140.34 z M584.04,159.453 L578.476,168.675 L580.092,168.386 C589.402,166.565 585.617,167.405 591.474,166.045 C588.78,164.208 586.374,161.861 584.04,159.453 z M878.624,134.907 L876.055,139.214 C876.999,145.516 877.855,151.905 877.695,158.331 C877.609,161.715 877.643,161.408 877.256,163.28 C879.367,164.189 881.299,165.581 883.225,166.924 C882.876,159.367 885.095,152.114 888.233,145.611 L878.624,134.907 z M920.22,139.593 L917.764,144.681 C915.486,149.47 913.1,154.194 911.099,159.155 C912.38,161.164 913.122,163.544 913.819,165.89 L914.048,165.691 C919.131,161.003 924.197,156.251 929.701,152.252 L920.22,139.593 z M597.576,137.016 L589.703,150.067 L597.288,164.694 C607.539,162.313 602.296,163.531 613.018,161.039 C607.668,153.223 602.24,145.439 597.576,137.016 z M1047.513,151.467 C1047.632,155.569 1047.406,159.689 1047.274,163.79 L1049.409,161.823 C1048.554,158.056 1049.321,161.47 1047.513,151.467 z M870.641,148.29 L864.07,159.306 C865.774,159.591 864.363,159.353 868.294,160.074 C871.278,160.794 869.628,160.335 873.229,161.539 L870.641,148.29 z M830.645,142.31 L828.035,145.996 C829.206,147.22 830.531,148.231 831.925,149.066 L830.645,142.31 z M675.431,122.211 L675.85,123.796 L676.273,123.216 L675.431,122.211 z" fill="#757575"/>
      <path d="M656.63,130.674 C656.749,130.451 656.861,130.224 656.987,130.005 C657.067,129.866 657.117,129.693 657.246,129.598 C657.324,129.541 657.205,129.789 657.163,129.876 C657.026,130.153 656.871,130.42 656.711,130.684 C656.613,130.845 656.576,131.172 656.389,131.148 C656.213,131.126 656.549,130.832 656.63,130.674 z" fill="#757575"/>
      <path d="M645.092,108.101 L645.149,106.229 C645.211,105.135 645.106,108.421 645.085,109.517 L645.076,109.975 L645.092,108.101 z" fill="#757575"/>
      <path d="M674.816,46.742 C646.149,67.435 663.898,48.125 674.816,46.742 z" fill="#757575"/>
      <g>
        <path d="M709.982,-46.091 L709.982,-46.091" fill="#757575"/>
        <path d="M709.833,-45.842 L709.833,-45.842 L709.833,-45.842 C709.943,-45.842 710.099,-45.953 710.182,-46.091 C710.265,-46.229 710.243,-46.341 710.132,-46.341 L710.132,-46.341 C710.132,-46.341 710.132,-46.341 710.132,-46.341 C710.022,-46.341 709.865,-46.229 709.783,-46.091 C709.7,-45.953 709.722,-45.842 709.833,-45.842 L709.833,-45.842" fill="#000000"/>
      </g>
    </g>
    <g>
      <path d="M1328.396,70.159 C1328.396,74.944 1331.274,79.836 1331.935,84.826 C1332.178,86.99 1332.515,89.147 1332.662,91.319 C1333.266,100.207 1333.757,109.327 1332.155,118.162 C1334.532,121.438 1336.815,124.774 1339.014,128.159 C1343.864,135.559 1349.705,143.013 1352.885,151.237 L1352.911,151.319 C1352.029,142.748 1351.009,133.642 1354.097,125.333 C1358.106,115.893 1369.475,108.183 1376.748,101.333 L1366.957,167.819 C1370.224,165.253 1373.834,163.129 1377.486,161.095 C1385.369,157.756 1391.946,155.063 1400.721,157.087 L1400.72,207.773 L1086.834,207.674 C1086.572,202.624 1086.743,206.05 1086.365,197.395 C1085.908,186.16 1085.537,174.921 1085.311,163.679 C1087.607,162.295 1089.928,160.948 1092.242,159.591 C1097.064,157.085 1102.103,153.879 1107.802,153.718 L1092.904,130.667 C1106.097,134.808 1113.946,145.859 1118.902,157.506 C1120.235,154.906 1121.746,152.434 1123.454,150.043 L1111.797,100.826 C1118.405,103.639 1121.566,110.756 1123.954,116.773 C1126.856,124.806 1129.491,132.972 1130.552,141.432 C1135.178,137.365 1140.454,133.961 1147.054,133.984 L1132.005,150.991 C1133.274,162.995 1132.814,157.568 1133.507,167.263 C1141.666,170.083 1150.162,171.616 1158.787,172.549 C1160.766,167.464 1163.175,162.5 1166.504,158.07 L1158.025,123.333 C1166.268,125.813 1170.927,145.293 1172.549,151.72 C1174.582,149.811 1177.166,148.594 1179.75,147.492 L1176.598,151.719 C1180.983,153.146 1185.33,154.702 1189.458,156.71 C1191.917,153.292 1194.967,150.146 1198.861,148.159 L1193.9,158.926 C1200.039,162.37 1206.182,166.311 1210.204,171.994 L1217.728,153.286 L1164.885,96.826 C1185.298,109.272 1206.967,120.362 1224.482,136.494 L1239.427,99.333 C1241.381,114.153 1235.839,127.984 1229.099,141.05 C1234.333,146.308 1238.683,152.323 1242.185,158.725 C1243.767,142.409 1250.164,126.298 1264.201,116 L1248.963,159.536 C1255.286,158.272 1261.521,159.827 1267.371,162.048 L1268.572,162.633 L1273.403,135.333 C1286.078,143.557 1283.174,156.089 1277.304,167.403 C1286.829,173.4 1282.43,170.536 1290.535,175.947 L1296.767,158.532 L1264.555,115.984 C1279.945,121.436 1291.785,133.661 1301.303,145.859 L1310.544,120.038 L1280.263,75.492 C1292.993,83.453 1306.444,90.795 1317.371,100.964 L1328.396,70.159 z M1325.596,142.18 C1322.132,149.712 1318.348,157.204 1313.129,163.826 C1317.301,171.767 1321.146,180.018 1322.236,188.91 C1324.065,188.889 1325.898,188.938 1327.712,188.667 C1336.079,187.24 1343.927,183.993 1350.854,179.335 L1325.596,142.18 z M1306.713,171.669 L1305.037,173.492 C1301.563,177.638 1303.603,175.099 1299.087,181.227 C1305.428,184.72 1312.168,188.016 1319.609,188.703 L1306.713,171.669 z M1190.989,165.243 L1183.853,180.731 C1187.5,182.687 1191.125,184.455 1195.335,185.027 L1196.622,185.146 C1199.749,185.093 1202.826,184.532 1205.616,183.181 C1205.829,182.524 1206.158,181.909 1206.466,181.29 L1207.131,179.632 L1190.989,165.243 z M1207.239,179.727 C1206.833,180.549 1207.091,180.028 1206.466,181.29 L1205.726,183.127 C1208.037,182.008 1206.934,182.609 1209.043,181.335 L1207.239,179.727 z M1176.286,152.137 L1173.564,155.79 C1174.565,161.134 1175.472,166.552 1175.301,172.001 C1175.212,174.871 1175.247,174.61 1174.836,176.198 C1177.074,176.968 1179.122,178.149 1181.163,179.288 C1180.793,172.88 1183.145,166.729 1186.471,161.214 L1176.286,152.137 z M1220.372,156.111 L1217.767,160.426 C1215.353,164.487 1212.825,168.493 1210.704,172.7 C1212.061,174.403 1212.848,176.421 1213.587,178.412 L1213.83,178.242 C1219.217,174.267 1224.586,170.237 1230.419,166.846 L1220.372,156.111 z M1355.279,166.18 C1355.404,169.659 1355.164,173.152 1355.026,176.631 L1357.289,174.962 C1356.382,171.768 1357.195,174.663 1355.279,166.18 z M1167.826,163.486 L1160.862,172.828 C1162.667,173.07 1161.173,172.867 1165.339,173.479 C1168.501,174.09 1166.752,173.701 1170.569,174.721 L1167.826,163.486 z M1125.437,158.415 L1122.672,161.541 C1123.913,162.579 1125.316,163.437 1126.794,164.144 L1125.437,158.415 z" fill="#4B4848"/>
      <path d="M940.167,149.396 C940.293,149.207 940.413,149.014 940.546,148.829 C940.632,148.71 940.692,148.56 940.822,148.484 C940.897,148.44 940.777,148.647 940.733,148.719 C940.587,148.956 940.423,149.182 940.254,149.405 C940.149,149.542 940.091,149.816 939.912,149.798 C939.747,149.781 940.082,149.53 940.167,149.396 z" fill="#4B4848"/>
      <path d="M927.916,130.254 L927.976,128.667 C928.042,127.739 927.932,130.525 927.91,131.455 L927.899,131.843 L927.916,130.254 z" fill="#4B4848"/>
      <path d="M960.537,96.667 C930.101,117.36 948.945,98.05 960.537,96.667 z" fill="#757575"/>
      <g>
        <path d="M997.877,13.833 L997.877,13.833" fill="#757575"/>
        <path d="M997.717,14.083 L997.717,14.083 L997.717,14.083 C997.834,14.083 998.001,13.971 998.089,13.833 C998.177,13.695 998.153,13.584 998.036,13.584 L998.036,13.584 C998.036,13.584 998.036,13.584 998.036,13.584 C997.918,13.584 997.752,13.695 997.664,13.833 C997.576,13.971 997.6,14.083 997.717,14.083 L997.717,14.083" fill="#757575"/>
      </g>
      <path d="M1329.415,46.386 C1329.416,52.029 1332.298,57.798 1332.962,63.682 C1333.204,66.234 1333.542,68.777 1333.69,71.339 C1334.293,81.82 1334.787,92.575 1333.181,102.993 C1335.564,106.857 1337.849,110.79 1340.053,114.782 C1344.911,123.509 1350.763,132.299 1353.95,141.997 L1353.976,142.094 C1353.092,131.986 1352.069,121.248 1355.163,111.45 C1359.181,100.317 1370.57,91.226 1377.856,83.148 L1368.048,161.551 C1371.321,158.526 1374.938,156.021 1378.596,153.622 C1386.494,149.685 1393.081,146.509 1401.873,148.896 L1401.873,202 L1404,202 L1404,272 L1091.62,272 C1088.96,247.195 1087.453,222.299 1086.365,197.395 C1085.79,183.992 1085.45,170.581 1085.179,157.169 C1087.706,155.366 1084.776,143.243 1087.333,141.478 C1092.163,138.522 1102.708,145.112 1108.418,144.923 L1093.492,117.74 C1106.711,122.624 1114.573,135.655 1119.538,149.39 C1120.873,146.323 1122.387,143.408 1124.098,140.589 L1112.42,82.55 C1119.041,85.867 1122.207,94.26 1124.6,101.355 C1127.506,110.829 1130.146,120.458 1131.209,130.434 C1135.844,125.638 1141.13,121.625 1147.741,121.652 L1132.666,141.707 C1133.938,155.863 1133.476,149.463 1134.169,160.895 C1142.344,164.221 1150.856,166.029 1159.497,167.13 C1161.48,161.133 1163.891,155.279 1167.227,150.055 L1158.732,109.092 C1166.992,112.016 1171.66,134.988 1173.283,142.567 C1175.321,140.316 1177.909,138.88 1180.497,137.581 L1177.341,142.565 C1181.734,144.248 1186.089,146.083 1190.223,148.451 C1192.688,144.42 1195.743,140.711 1199.645,138.367 L1194.674,151.065 C1200.824,155.126 1206.978,159.773 1211.007,166.475 L1218.544,144.414 L1165.605,77.833 C1186.057,92.51 1207.764,105.588 1225.311,124.612 L1240.283,80.79 C1242.242,98.266 1236.689,114.576 1229.937,129.984 C1235.181,136.185 1239.538,143.278 1243.048,150.827 C1244.632,131.586 1251.041,112.588 1265.103,100.444 L1249.836,151.783 C1256.172,150.293 1262.419,152.126 1268.28,154.746 L1269.482,155.436 L1274.322,123.243 C1287.019,132.94 1284.11,147.719 1278.231,161.061 C1287.772,168.132 1283.367,164.755 1291.485,171.136 L1297.729,150.6 L1265.458,100.425 C1280.876,106.854 1292.737,121.271 1302.273,135.655 L1311.531,105.206 L1281.194,52.675 C1293.947,62.063 1307.423,70.721 1318.371,82.713 L1329.415,46.386 z M1326.61,131.316 C1323.141,140.199 1319.349,149.034 1314.121,156.842 C1318.3,166.207 1322.153,175.937 1323.244,186.422 C1325.078,186.398 1326.912,186.456 1328.73,186.137 C1337.112,184.454 1344.974,180.624 1351.915,175.131 L1326.61,131.316 z M1307.692,166.091 L1306.014,168.241 C1302.533,173.13 1304.578,170.136 1300.054,177.363 C1306.405,181.482 1313.158,185.369 1320.612,186.178 L1307.692,166.091 z M1191.757,158.513 L1184.608,176.778 C1188.261,179.084 1191.893,181.17 1196.112,181.844 L1197.4,181.984 C1200.534,181.922 1203.616,181.26 1206.412,179.666 C1206.624,178.892 1206.954,178.167 1207.262,177.437 L1207.93,175.482 L1191.757,158.513 z M1208.037,175.594 C1207.631,176.564 1207.888,175.949 1207.262,177.437 L1206.521,179.604 C1208.836,178.284 1207.731,178.993 1209.843,177.49 L1208.037,175.594 z M1177.028,143.059 L1174.3,147.366 C1175.303,153.668 1176.211,160.057 1176.041,166.483 C1175.951,169.867 1175.986,169.56 1175.575,171.432 C1177.816,172.341 1179.868,173.733 1181.913,175.076 C1181.542,167.519 1183.899,160.266 1187.23,153.763 L1177.028,143.059 z M1221.193,147.745 L1218.585,152.833 C1216.166,157.622 1213.633,162.346 1211.508,167.307 C1212.869,169.316 1213.657,171.696 1214.396,174.042 L1214.64,173.843 C1220.037,169.155 1225.415,164.403 1231.259,160.404 L1221.193,147.745 z M1356.347,159.619 C1356.474,163.721 1356.234,167.841 1356.094,171.942 L1358.361,169.975 C1357.453,166.208 1358.267,169.622 1356.347,159.619 z M1168.551,156.442 L1161.575,167.458 C1163.384,167.743 1161.886,167.505 1166.06,168.226 C1169.228,168.946 1167.476,168.487 1171.299,169.691 L1168.551,156.442 z M1126.085,150.462 L1123.314,154.148 C1124.558,155.372 1125.964,156.383 1127.445,157.218 L1126.085,150.462 z" fill="#757575"/>
      <path d="M1084.983,98.086 C1084.87,99.634 1084.988,101.195 1084.876,102.743 C1084.85,103.106 1084.734,103.961 1084.679,104.384 L1084.678,103.998 L1084.983,98.086 z" fill="#757575"/>
      <path d="M941.323,138.826 C941.449,138.603 941.568,138.376 941.702,138.157 C941.787,138.018 941.84,137.845 941.977,137.75 C942.06,137.693 941.933,137.941 941.889,138.028 C941.743,138.305 941.579,138.572 941.409,138.836 C941.305,138.997 941.265,139.324 941.067,139.3 C940.88,139.278 941.237,138.984 941.323,138.826 z" fill="#757575"/>
      <path d="M929.072,116.253 L929.133,114.381 C929.199,113.287 929.087,116.573 929.065,117.669 L929.055,118.127 L929.072,116.253 z" fill="#757575"/>
      <path d="M960.632,54.894 C930.194,75.587 949.04,56.277 960.632,54.894 z" fill="#757575"/>
      <g>
        <path d="M997.97,-37.939 L997.97,-37.939" fill="#757575"/>
        <path d="M997.812,-37.69 L997.812,-37.69 L997.812,-37.69 C997.928,-37.69 998.094,-37.801 998.182,-37.939 C998.27,-38.077 998.247,-38.189 998.129,-38.189 L998.129,-38.189 C998.129,-38.189 998.129,-38.189 998.129,-38.189 C998.012,-38.189 997.846,-38.077 997.759,-37.939 C997.67,-37.801 997.694,-37.69 997.812,-37.69 L997.812,-37.69" fill="#000000"/>
      </g>
    </g>
    <path d="M593.163,173.213 L594.103,170.061 L596.023,163.778 L595.518,159.644 L594.439,156.044 L593.349,152.493 L592.298,148.949 L591.248,145.447 L590.225,141.961 L589.205,138.515 L588.202,135.095 L587.202,131.713 L586.183,128.386 L585.139,125.119 L584.011,121.96 L582.786,118.915 L579.232,117.718 L577.555,115.089 L576.162,112.281 L574.844,109.454 L573.576,106.63 L572.355,103.812 L571.166,101.014 L570.033,98.218 L568.931,95.444 L567.86,92.693 L566.837,89.953 L565.841,87.243 L564.888,84.549 L563.972,81.879 L563.095,79.233 L562.267,76.603 L561.513,73.972 L561.191,72.639 L561.191,72.639 C560.997,71.773 559.846,71.794 558.619,72.685 C557.392,73.576 556.554,75 556.748,75.866 L557.03,77.232 L557.511,80.068 L557.953,82.988 L558.385,85.971 L558.818,89.008 L559.258,92.094 L559.701,95.232 L560.164,98.407 L560.631,101.632 L561.12,104.891 L561.632,108.185 L562.148,111.527 L562.692,114.897 L563.252,118.304 L563.826,121.748 L564.395,125.248 L564.749,128.96 L563.299,134.132 L564.254,137.483 L565.384,140.742 L566.677,143.91 L568.078,147.033 L569.583,150.113 L571.173,153.162 L572.835,156.188 L574.589,159.175 L576.408,162.143 L578.325,165.061 L580.303,167.961 L582.393,170.798 L585.163,173.082 L590.466,173.196 L593.138,173.234 C593.14,173.238 593.148,173.237 593.154,173.231 C593.161,173.225 593.165,173.217 593.163,173.213 L593.163,173.213" fill="#757575"/>
    <path d="M535.031,143.684 L535.345,143.927 L535.952,144.432 L536.531,144.963 L537.081,145.521 L537.604,146.103 L538.101,146.709 L538.571,147.339 L539.016,147.992 L539.435,148.666 L539.831,149.362 L540.203,150.078 L540.552,150.814 L540.878,151.569 L541.182,152.342 L541.599,153.534 L542.085,155.18 L542.495,156.882 L542.835,158.637 L543.108,160.439 L543.32,162.282 L543.474,164.159 L543.576,166.064 L543.631,167.991 L543.644,169.935 L543.62,171.889 L543.523,174.825 L543.309,178.717 L543.032,182.539 L542.81,185.33 L542.662,187.143 L542.522,188.91 L542.392,190.627 L542.279,192.287 L542.186,193.883 L542.12,195.41 L542.084,196.861 L542.08,197.557 L542.08,197.557 C542.079,197.606 542.128,197.616 542.188,197.58 C542.248,197.544 542.297,197.476 542.298,197.427 C542.298,197.427 542.298,197.427 542.298,197.427 L542.302,196.734 L542.338,195.285 L542.403,193.761 L542.495,192.167 L542.608,190.508 L542.737,188.793 L542.877,187.025 L543.024,185.213 L543.244,182.422 L543.513,178.602 L543.719,174.711 L543.81,171.776 L543.83,169.823 L543.813,167.879 L543.754,165.951 L543.647,164.046 L543.489,162.168 L543.273,160.326 L542.996,158.523 L542.651,156.767 L542.235,155.065 L541.74,153.423 L541.316,152.234 L541.007,151.463 L540.676,150.71 L540.322,149.976 L539.946,149.262 L539.546,148.568 L539.121,147.896 L538.672,147.245 L538.197,146.618 L537.696,146.014 L537.168,145.434 L536.613,144.88 L536.03,144.351 L535.418,143.849 L535.102,143.609 C535.09,143.6 535.065,143.61 535.045,143.631 C535.026,143.652 535.019,143.676 535.031,143.684 L535.031,143.684" fill="#757575"/>
    <path d="M500.38,165.956 L501.285,165.091 L503.129,163.354 L505.017,161.614 L506.949,159.877 L508.923,158.154 L510.937,156.453 L512.988,154.783 L515.077,153.159 L517.199,151.585 L519.352,150.069 L521.533,148.621 L523.74,147.248 L525.972,145.961 L528.226,144.767 L530.5,143.677 L532.792,142.698 L535.101,141.839 L536.84,141.28 L538.004,140.949 L539.171,140.653 L540.341,140.394 L541.513,140.171 L542.688,139.988 L543.864,139.844 L545.04,139.744 L546.218,139.686 L547.396,139.671 L548.575,139.7 L549.754,139.774 L550.934,139.895 L552.113,140.063 L553.292,140.28 L554.471,140.546 L555.648,140.863 L556.825,141.232 L558,141.654 L559.174,142.131 L560.345,142.663 L561.515,143.251 L562.682,143.897 L563.846,144.601 L565.007,145.366 L566.165,146.191 L567.319,147.079 L568.47,148.03 L569.616,149.045 L570.758,150.126 L571.327,150.691 L571.326,150.69 L571.912,151.295 L573.042,152.542 L574.119,153.838 L575.147,155.182 L576.128,156.57 L577.065,157.998 L577.961,159.466 L578.818,160.968 L579.638,162.504 L580.425,164.069 L581.18,165.661 L581.907,167.277 L582.608,168.915 L583.285,170.571 L584.263,173.083 L585.508,176.469 L586.705,179.877 L587.876,183.284 L589.043,186.665 L590.227,189.997 L591.446,193.259 L592.396,195.647 L593.051,197.205 L593.726,198.732 L594.424,200.226 L594.783,200.96 L594.783,200.96 C594.85,201.095 595.081,201.055 595.3,200.871 C595.519,200.686 595.643,200.427 595.576,200.292 C595.576,200.292 595.576,200.292 595.576,200.292 L595.216,199.565 L594.513,198.083 L593.832,196.567 L593.172,195.02 L592.213,192.648 L590.981,189.403 L589.782,186.086 L588.594,182.721 L587.397,179.333 L586.171,175.942 L584.898,172.572 L583.899,170.072 L583.208,168.423 L582.492,166.792 L581.751,165.183 L580.981,163.597 L580.179,162.038 L579.344,160.509 L578.472,159.012 L577.561,157.551 L576.608,156.128 L575.611,154.746 L574.568,153.409 L573.475,152.118 L572.332,150.878 L571.74,150.278 L571.74,150.278 C571.74,150.278 571.74,150.277 571.739,150.277 L571.739,150.277 L571.163,149.715 L570.008,148.641 L568.849,147.632 L567.685,146.687 L566.518,145.806 L565.348,144.987 L564.175,144.229 L562.998,143.53 L561.819,142.891 L560.638,142.309 L559.454,141.784 L558.268,141.314 L557.081,140.898 L555.893,140.536 L554.703,140.225 L553.513,139.966 L552.322,139.757 L551.131,139.596 L549.94,139.483 L548.749,139.417 L547.558,139.396 L546.369,139.419 L545.18,139.485 L543.993,139.594 L542.809,139.74 L541.627,139.925 L540.447,140.15 L539.27,140.412 L538.094,140.711 L536.921,141.045 L535.168,141.61 L532.844,142.476 L530.536,143.464 L528.247,144.564 L525.979,145.766 L523.734,147.063 L521.514,148.445 L519.322,149.902 L517.159,151.427 L515.027,153.009 L512.929,154.639 L510.865,156.304 L508.837,158.001 L506.849,159.72 L504.903,161.452 L503.001,163.189 L501.146,164.921 L500.237,165.781 C500.147,165.867 500.106,165.975 500.146,166.023 C500.185,166.072 500.29,166.041 500.38,165.956 L500.38,165.956" fill="#757575"/>
    <path d="M682.412,184.377 L681.67,183.674 L680.203,182.293 L678.768,180.954 L677.365,179.662 L675.985,178.421 L674.636,177.221 L673.317,176.062 L672.026,174.94 L670.762,173.857 L669.523,172.81 L668.308,171.799 L667.111,170.828 L665.929,169.898 L664.766,169 L663.623,168.135 L662.497,167.299 L661.386,166.493 L660.291,165.717 L659.208,164.967 L658.137,164.245 L656.559,163.215 L654.465,161.945 L652.384,160.759 L650.317,159.658 L648.254,158.634 L646.185,157.68 L644.1,156.79 L641.979,155.972 L639.828,155.206 L637.636,154.483 L635.394,153.795 L633.097,153.135 L630.732,152.495 L628.282,151.881 L625.74,151.276 L623.098,150.667 L621.044,150.204 L619.637,149.89 L618.202,149.572 L616.733,149.248 L615.227,148.921 L613.681,148.591 L612.099,148.253 L610.478,147.905 L608.815,147.546 L607.109,147.175 L605.36,146.792 L603.566,146.396 L602.655,146.193 L602.655,146.193 C602.619,146.186 602.584,146.179 602.548,146.172 L602.548,146.172 L601.73,146.006 L599.75,145.716 L597.659,145.537 L595.583,145.467 L593.538,145.484 L591.54,145.564 L588.701,145.752 L585.094,146.038 L582.601,146.208 L581.1,146.27 L579.647,146.282 L578.27,146.234 L576.958,146.118 L575.702,145.925 L575.201,145.816 L575.306,145.835 L574.741,145.716 L573.557,145.466 L572.314,145.206 L571.016,144.937 L569.663,144.666 L568.265,144.394 L566.092,143.984 L563.069,143.445 L559.915,142.929 L556.668,142.455 L553.35,142.04 L549.983,141.708 L547.414,141.518 L545.684,141.424 L543.977,141.362 L542.273,141.333 L540.566,141.339 L538.862,141.383 L537.156,141.47 L535.447,141.604 L533.73,141.793 L531.998,142.042 L530.24,142.361 L528.45,142.76 L526.6,143.26 L524.668,143.885 L523.423,144.344 L523.423,144.344 C523.288,144.396 523.151,144.45 523.014,144.506 L523.014,144.506 L521.628,145.072 L518.392,146.485 L515.018,148.085 L511.66,149.808 L508.322,151.649 L505.01,153.596 L501.731,155.641 L498.488,157.777 L495.286,159.993 L492.126,162.286 L489.01,164.648 L485.941,167.071 L482.923,169.548 L479.955,172.075 L477.036,174.647 L474.175,177.251 L471.366,179.888 L468.61,182.552 L465.908,185.238 L463.261,187.94 L460.672,190.651 L458.137,193.372 L455.658,196.094 L453.235,198.817 L450.867,201.535 L448.558,204.242 L446.307,206.935 L444.114,209.609 L441.978,212.264 L439.902,214.89 L437.886,217.487 L435.93,220.05 L434.939,221.365 L434.939,221.365 C429.617,228.43 429.225,235.255 434.065,236.61 C438.904,237.964 447.142,233.334 452.464,226.269 L453.234,225.247 L454.878,223.09 L456.567,220.912 L458.299,218.717 L460.07,216.514 L461.88,214.305 L463.727,212.094 L465.606,209.889 L467.516,207.693 L469.455,205.511 L471.422,203.346 L473.413,201.206 L475.428,199.09 L477.459,197.011 L479.506,194.969 L481.57,192.968 L483.647,191.01 L485.735,189.101 L487.828,187.247 L489.929,185.448 L492.036,183.706 L494.145,182.026 L496.257,180.41 L498.372,178.859 L500.49,177.375 L502.609,175.963 L504.731,174.621 L506.857,173.351 L508.99,172.154 L511.135,171.027 L513.292,169.976 L515.612,168.942 L517.013,168.365 L516.604,168.527 L516.495,168.551 L516.922,168.385 L517.541,168.194 L518.32,168.001 L519.226,167.82 L520.246,167.66 L521.36,167.523 L522.553,167.413 L523.815,167.333 L525.134,167.284 L526.501,167.264 L527.912,167.274 L529.354,167.312 L530.8,167.375 L533.03,167.516 L536.085,167.786 L539.161,168.124 L542.221,168.523 L545.225,168.967 L548.154,169.443 L550.273,169.809 L551.64,170.054 L552.966,170.296 L554.253,170.531 L555.496,170.762 L556.689,170.985 L557.27,171.095 L557.27,171.095 C557.304,171.102 557.339,171.108 557.374,171.115 L557.374,171.115 L558.538,171.307 L560.646,171.545 L562.739,171.658 L564.8,171.669 L566.814,171.599 L568.801,171.471 L571.568,171.219 L574.992,170.851 L577.413,170.617 L578.904,170.507 L580.325,170.442 L581.688,170.431 L583,170.481 L584.384,170.623 L585.232,170.758 L585.125,170.737 L586.08,170.907 L587.948,171.235 L589.765,171.551 L591.533,171.856 L593.255,172.15 L594.932,172.435 L596.565,172.711 L598.153,172.979 L599.703,173.236 L601.216,173.481 L602.69,173.722 L604.122,173.958 L606.203,174.304 L608.859,174.759 L611.389,175.211 L613.807,175.663 L616.128,176.112 L618.36,176.578 L620.511,177.066 L622.601,177.585 L624.64,178.14 L626.643,178.737 L628.638,179.371 L630.626,180.063 L632.622,180.821 L634.638,181.653 L636.686,182.566 L638.791,183.574 L640.421,184.379 L641.521,184.943 L642.641,185.533 L643.781,186.15 L644.941,186.795 L646.124,187.468 L647.332,188.171 L648.565,188.904 L649.825,189.669 L651.12,190.457 L652.451,191.273 L653.813,192.121 L655.208,193.004 L656.638,193.921 L658.104,194.874 L659.607,195.863 L661.149,196.89 L662.741,197.944 L664.377,199.032 L666.059,200.163 L666.921,200.746 C666.921,200.746 666.921,200.746 666.921,200.746 C669.363,202.703 674.81,200.626 679.088,196.106 C683.366,191.586 684.854,186.335 682.412,184.377 L682.412,184.377" fill="#757575"/>
    <path d="M537.57,70.674 L537.087,70.714 L536.127,70.823 L535.18,70.973 L534.248,71.164 L533.33,71.394 L532.426,71.663 L531.535,71.971 L530.657,72.317 L529.793,72.702 L528.942,73.125 L528.103,73.587 L527.278,74.088 L526.466,74.625 L525.669,75.198 L524.885,75.806 L524.115,76.448 L523.36,77.125 L522.62,77.834 L521.895,78.574 L521.185,79.346 L520.49,80.148 L519.811,80.979 L519.148,81.838 L518.5,82.725 L517.867,83.639 L517.249,84.579 L516.646,85.544 L516.058,86.535 L515.484,87.55 L514.93,88.588 L514.127,90.183 L513.105,92.39 L512.137,94.685 L511.223,97.059 L510.363,99.509 L509.554,102.03 L508.797,104.618 L508.094,107.266 L507.446,109.969 L506.847,112.726 L506.295,115.531 L505.789,118.38 L505.33,121.269 L504.915,124.193 L504.551,127.144 L504.236,130.119 L503.963,133.114 L503.732,136.127 L503.541,139.152 L503.391,142.184 L503.281,145.22 L503.208,148.254 L503.174,151.282 L503.176,154.299 L503.222,157.297 L503.307,160.273 L503.427,163.224 L503.581,166.146 L503.767,169.035 L503.985,171.886 L504.234,174.694 L504.513,177.455 L504.822,180.164 L505.16,182.817 L505.525,185.409 L505.917,187.936 L506.336,190.393 L506.78,192.775 L507.249,195.078 L507.746,197.294 L508.267,199.422 L508.809,201.456 L509.372,203.394 L509.956,205.23 L510.56,206.96 L511.182,208.578 L511.822,210.082 L512.48,211.465 L513.155,212.724 L513.499,213.308 L513.499,213.308 C513.58,213.447 513.836,213.394 514.071,213.188 C514.306,212.982 514.431,212.703 514.35,212.563 L514.021,211.984 L513.371,210.723 L512.739,209.336 L512.125,207.828 L511.529,206.203 L510.953,204.465 L510.398,202.62 L509.864,200.673 L509.352,198.627 L508.863,196.487 L508.398,194.259 L507.952,191.949 L507.531,189.561 L507.136,187.098 L506.767,184.564 L506.426,181.965 L506.113,179.305 L505.829,176.589 L505.575,173.821 L505.352,171.005 L505.16,168.148 L505,165.253 L504.873,162.324 L504.78,159.367 L504.721,156.387 L504.693,153.39 L504.693,150.382 L504.73,147.365 L504.805,144.342 L504.917,141.319 L505.069,138.299 L505.261,135.289 L505.494,132.291 L505.768,129.311 L506.084,126.354 L506.437,123.427 L506.829,120.535 L507.265,117.679 L507.746,114.864 L508.274,112.095 L508.848,109.376 L509.469,106.713 L510.134,104.112 L510.842,101.577 L511.601,99.111 L512.41,96.719 L513.269,94.407 L514.18,92.178 L515.144,90.033 L515.902,88.485 L516.422,87.485 L516.951,86.511 L517.493,85.562 L518.048,84.639 L518.617,83.742 L519.199,82.871 L519.795,82.028 L520.404,81.213 L521.026,80.425 L521.663,79.666 L522.313,78.936 L522.978,78.235 L523.658,77.562 L524.353,76.92 L525.063,76.306 L525.79,75.723 L526.534,75.171 L527.294,74.649 L528.072,74.158 L528.868,73.699 L529.683,73.27 L530.516,72.875 L531.369,72.514 L532.239,72.187 L533.129,71.897 L534.037,71.644 L534.964,71.428 L535.909,71.25 L536.874,71.112 L537.365,71.057 C537.365,71.057 537.365,71.057 537.365,71.057 C537.455,71.048 537.574,70.956 537.63,70.85 C537.687,70.744 537.66,70.665 537.57,70.674 L537.57,70.674" fill="#757575"/>
    <path d="M536.337,64.581 L535.684,64.847 L534.108,65.606 L532.432,66.575 L530.76,67.711 L529.102,68.984 L527.47,70.395 L525.859,71.912 L524.271,73.537 L522.7,75.261 L521.133,77.08 L519.572,78.994 L518.022,81.001 L516.5,83.103 L515.017,85.29 L513.574,87.556 L512.182,89.895 L510.826,92.302 L509.521,94.768 L508.257,97.292 L507.02,99.87 L505.805,102.501 L504.624,105.178 L503.464,107.9 L502.325,110.665 L501.211,113.467 L500.13,116.302 L499.073,119.167 L498.039,122.06 L497.032,124.975 L496.059,127.907 L494.653,132.315 L492.875,138.229 L491.217,144.159 L490.048,148.6 L489.314,151.547 L488.613,154.464 L487.942,157.362 L487.306,160.233 L486.71,163.072 L486.146,165.88 L485.615,168.649 L485.119,171.379 L484.666,174.059 L484.249,176.691 L483.867,179.271 L483.521,181.793 L483.217,184.254 L482.955,186.648 L482.731,188.973 L482.546,191.229 L482.4,193.408 L482.299,195.504 L482.243,197.517 L482.228,199.443 L482.255,201.28 L482.326,203.026 L482.409,204.283 L482.48,205.097 L482.564,205.872 L482.661,206.621 L482.77,207.345 L482.892,208.044 L483.026,208.716 L483.175,209.363 L483.337,209.983 L483.514,210.577 L483.614,210.883 L483.614,210.883 C483.618,210.895 483.622,210.907 483.626,210.919 L483.626,210.919 L483.841,211.526 L484.316,212.782 L484.837,214.045 L485.396,215.3 L485.999,216.543 L486.641,217.775 L487.322,218.999 L488.038,220.212 L488.79,221.417 L489.579,222.611 L490.401,223.795 L491.263,224.963 L492.162,226.117 L493.094,227.259 L494.059,228.389 L495.055,229.507 L496.082,230.611 L497.146,231.696 L498.246,232.762 L499.374,233.814 L500.531,234.85 L501.717,235.871 L502.935,236.871 L504.19,237.845 L505.472,238.801 L506.78,239.739 L508.113,240.659 L509.487,241.543 L510.889,242.404 L512.315,243.244 L513.766,244.061 L515.259,244.835 L516.018,245.217 L516.018,245.217 C516.999,245.838 519.02,244.969 520.532,243.277 C522.044,241.585 522.474,239.71 521.493,239.089 L520.872,238.598 L519.637,237.596 L518.405,236.599 L517.195,235.587 L516.01,234.557 L514.844,233.516 L513.689,232.476 L512.558,231.421 L511.454,230.351 L510.377,229.267 L509.317,228.18 L508.28,227.084 L507.272,225.976 L506.293,224.855 L505.344,223.724 L504.42,222.587 L503.521,221.446 L502.653,220.296 L501.816,219.136 L501.013,217.969 L500.242,216.794 L499.501,215.615 L498.789,214.435 L498.112,213.25 L497.47,212.061 L496.863,210.867 L496.293,209.67 L495.76,208.47 L495.261,207.272 L494.796,206.076 L494.368,204.88 L493.975,203.671 L493.785,203.042 L493.797,203.078 L493.742,202.882 L493.626,202.423 L493.519,201.928 L493.422,201.399 L493.334,200.837 L493.256,200.242 L493.189,199.614 L493.132,198.956 L493.084,198.268 L493.045,197.563 L493.006,196.445 L492.99,194.841 L493.017,193.13 L493.086,191.317 L493.197,189.409 L493.346,187.41 L493.531,185.329 L493.755,183.166 L494.018,180.926 L494.32,178.613 L494.656,176.235 L495.023,173.796 L495.426,171.298 L495.864,168.746 L496.338,166.144 L496.835,163.501 L497.365,160.816 L497.927,158.096 L498.522,155.343 L499.138,152.565 L499.782,149.765 L500.456,146.946 L501.155,144.124 L502.242,139.872 L503.784,134.179 L505.416,128.494 L506.698,124.261 L507.577,121.474 L508.468,118.714 L509.377,115.985 L510.306,113.288 L511.254,110.631 L512.208,108.018 L513.178,105.454 L514.164,102.941 L515.165,100.486 L516.168,98.095 L517.183,95.77 L518.202,93.519 L519.213,91.348 L520.201,89.26 L521.181,87.258 L522.138,85.344 L523.08,83.522 L524.008,81.79 L524.929,80.152 L525.862,78.614 L526.807,77.184 L527.768,75.872 L528.73,74.68 L529.683,73.609 L530.631,72.667 L531.565,71.833 L532.496,71.115 L533.435,70.491 L534.482,69.929 L535.144,69.638 C535.144,69.638 535.144,69.638 535.144,69.638 C536.642,69.002 538.124,67.355 538.453,65.958 C538.783,64.562 537.835,63.945 536.337,64.581 L536.337,64.581" fill="#757575"/>
    <path d="M540.662,84.623 L540.611,86.948 L540.497,91.636 L540.379,96.365 L540.268,101.125 L540.177,105.907 L540.117,110.7 L540.102,115.495 L540.144,120.282 L540.254,125.05 L540.445,129.791 L540.649,133.322 L540.817,135.662 L541.012,137.99 L541.236,140.303 L541.49,142.602 L541.775,144.884 L542.094,147.149 L542.448,149.395 L542.838,151.621 L543.266,153.826 L543.734,156.008 L544.242,158.167 L544.794,160.3 L545.389,162.408 L546.029,164.488 L546.717,166.539 L547.453,168.56 L548.24,170.55 L549.078,172.508 L549.97,174.432 L550.916,176.321 L551.919,178.174 L552.98,179.99 L554.099,181.767 L555.28,183.504 L556.524,185.2 L557.831,186.854 L559.204,188.464 L560.644,190.03 L562.153,191.548 L563.733,193.019 L565.384,194.442 L567.109,195.814 L568.908,197.136 L570.784,198.405 L572.737,199.621 L574.77,200.782 L576.883,201.887 L579.079,202.934 L581.359,203.924 L583.724,204.853 L585.555,205.511 L586.803,205.929 L588.073,206.333 L589.366,206.72 L590.681,207.092 L592.02,207.447 L592.697,207.619 L592.697,207.619 C592.708,207.622 592.727,207.611 592.739,207.595 C592.751,207.579 592.751,207.564 592.74,207.561 L592.063,207.388 L590.727,207.031 L589.413,206.658 L588.122,206.269 L586.854,205.864 L585.608,205.444 L583.779,204.784 L581.418,203.852 L579.142,202.86 L576.949,201.81 L574.839,200.702 L572.81,199.539 L570.86,198.321 L568.988,197.049 L567.192,195.726 L565.471,194.351 L563.823,192.927 L562.247,191.455 L560.74,189.935 L559.302,188.37 L557.93,186.761 L556.623,185.108 L555.381,183.413 L554.201,181.677 L553.081,179.9 L552.022,178.086 L551.02,176.234 L550.074,174.346 L549.183,172.422 L548.345,170.466 L547.559,168.477 L546.823,166.456 L546.136,164.406 L545.495,162.327 L544.901,160.221 L544.35,158.088 L543.842,155.93 L543.375,153.749 L542.947,151.545 L542.557,149.32 L542.203,147.075 L541.885,144.811 L541.599,142.529 L541.346,140.231 L541.122,137.918 L540.927,135.591 L540.76,133.252 L540.556,129.722 L540.365,124.982 L540.255,120.214 L540.214,115.428 L540.229,110.634 L540.289,105.841 L540.38,101.059 L540.491,96.299 L540.61,91.57 L540.724,86.882 L540.775,84.557 C540.776,84.531 540.751,84.526 540.72,84.544 C540.688,84.562 540.663,84.598 540.662,84.623 L540.662,84.623" fill="#757575"/>
    <path d="M510.084,48.763 L509.99,50.583 L509.82,54.147 L509.659,57.627 L509.494,61.036 L509.35,64.362 L509.205,67.622 L509.06,70.818 L508.924,73.948 L508.8,77.013 L508.682,80.019 L508.572,82.969 L508.471,85.864 L508.392,88.701 L508.328,91.486 L508.28,94.221 L508.25,96.909 L508.241,99.551 L508.255,102.148 L508.301,104.698 L508.373,107.208 L508.474,109.678 L508.607,112.11 L508.772,114.505 L508.974,116.866 L509.213,119.193 L509.499,121.484 L509.826,123.744 L510.198,125.974 L510.617,128.175 L511.084,130.35 L511.603,132.498 L512.174,134.622 L512.801,136.723 L513.488,138.798 L514.237,140.851 L515.046,142.884 L515.919,144.899 L516.856,146.896 L517.861,148.878 L518.935,150.845 L520.08,152.8 L521.297,154.742 L522.595,156.67 L523.97,158.589 L525.423,160.502 L526.957,162.408 L528.573,164.311 L530.273,166.212 L532.059,168.111 L533.936,170.01 L535.909,171.906 L537.973,173.806 L540.132,175.713 L542.387,177.627 L544.741,179.55 L547.195,181.484 L549.762,183.419 L552.434,185.368 L555.213,187.332 L558.1,189.314 L561.099,191.314 L564.223,193.322 L567.465,195.348 L570.826,197.396 L572.555,198.433 L572.555,198.432 L573.214,198.829 L574.531,199.637 L575.862,200.474 L577.219,201.333 L579.292,202.668 L582.114,204.509 L584.999,206.394 L587.956,208.281 L590.974,210.149 L594.056,211.957 L597.192,213.685 L599.595,214.902 L601.217,215.675 L602.843,216.406 L604.489,217.086 L606.148,217.719 L607.82,218.304 L609.511,218.825 L611.219,219.283 L612.939,219.681 L614.686,219.993 L616.448,220.231 L618.232,220.381 L620.047,220.426 L621.885,220.371 L622.855,220.294 L622.855,220.294 C624.917,220.322 627.871,218.239 629.452,215.641 C631.033,213.042 630.644,210.913 628.582,210.885 C628.582,210.885 628.582,210.885 628.582,210.885 L627.945,210.788 L626.57,210.566 L625.179,210.284 L623.762,209.956 L622.331,209.571 L620.892,209.125 L619.435,208.633 L617.976,208.082 L616.511,207.479 L615.038,206.834 L613.565,206.138 L612.092,205.398 L610.614,204.626 L609.146,203.819 L606.946,202.542 L604.005,200.748 L601.087,198.869 L598.189,196.943 L595.322,194.991 L592.482,193.052 L589.684,191.146 L587.617,189.757 L586.25,188.856 L584.887,187.986 L583.542,187.149 L582.883,186.747 L582.883,186.747 C582.882,186.747 582.882,186.747 582.882,186.747 L582.882,186.747 L581.189,185.718 L577.884,183.674 L574.698,181.656 L571.626,179.666 L568.659,177.711 L565.804,175.776 L563.061,173.86 L560.428,171.962 L557.901,170.081 L555.47,168.225 L553.141,166.382 L550.913,164.551 L548.784,162.729 L546.751,160.916 L544.812,159.11 L542.961,157.315 L541.197,155.526 L539.52,153.74 L537.929,151.955 L536.42,150.169 L534.992,148.382 L533.643,146.591 L532.37,144.795 L531.164,142.997 L530.03,141.192 L528.965,139.376 L527.967,137.549 L527.033,135.709 L526.161,133.853 L525.349,131.98 L524.594,130.088 L523.894,128.177 L523.243,126.247 L522.642,124.292 L522.091,122.312 L521.586,120.302 L521.125,118.263 L520.708,116.191 L520.331,114.086 L519.992,111.946 L519.684,109.772 L519.41,107.559 L519.168,105.304 L518.957,103.008 L518.774,100.666 L518.617,98.28 L518.485,95.846 L518.368,93.367 L518.27,90.838 L518.19,88.258 L518.126,85.624 L518.076,82.936 L518.036,80.192 L517.997,77.397 L517.965,74.543 L517.938,71.629 L517.913,68.654 L517.882,65.622 L517.841,62.53 L517.797,59.373 L517.746,56.15 L517.661,52.874 L517.563,49.533 L517.436,46.132 L517.354,44.417 C517.354,44.417 517.354,44.417 517.354,44.417 C517.359,42.807 515.736,42.476 513.728,43.676 C511.721,44.876 510.089,47.154 510.084,48.763 L510.084,48.763" fill="#757575"/>
  </g>
</svg>
