<?xml version="1.0" encoding="UTF-8"?>
<!DOCTYPE svg PUBLIC "-//W3C//DTD SVG 1.1//EN" "http://www.w3.org/Graphics/SVG/1.1/DTD/svg11.dtd">
<svg version="1.1" xmlns="http://www.w3.org/2000/svg" xmlns:xlink="http://www.w3.org/1999/xlink" x="0" y="0" width="300" height="300" viewBox="0, 0, 300, 300">
  <defs>
    <radialGradient id="Gradient_1" gradientUnits="userSpaceOnUse" cx="155.752" cy="183.493" r="250.129">
      <stop offset="0.037" stop-color="#35ACE9" stop-opacity="0.61"/>
      <stop offset="0.54" stop-color="#6397BB" stop-opacity="0"/>
      <stop offset="0.95" stop-color="#000000" stop-opacity="0"/>
    </radialGradient>
    <radialGradient id="Gradient_2" gradientUnits="userSpaceOnUse" cx="384.753" cy="NaN" r="NaN" fx="384.753" fy="NaN">
      <stop offset="0.021" stop-color="#35ACE9" stop-opacity="0.655"/>
      <stop offset="0.54" stop-color="#6397BB" stop-opacity="0"/>
      <stop offset="0.95" stop-color="#000000" stop-opacity="0"/>
    </radialGradient>
    <clipPath id="Clip_1">
      <path d="M8.019,276.723 L300,276.723 L300,302 L8.019,302 z"/>
    </clipPath>
    <clipPath id="Clip_2">
      <path d="M24.048,236.786 L172.379,236.786 L172.379,261.986 L24.048,261.986 z"/>
    </clipPath>
    <clipPath id="Clip_3">
      <path d="M8.76,17.326 L128,17.326 L128,95 L8.76,95 z M79.61,30.326 C78.297,30.398 76.971,30.339 75.671,30.54 C71.103,31.25 66.984,33.562 64.243,37.305 C63.647,38.152 63.168,38.698 61.794,38.37 C55.703,36.888 50.444,38.172 46.167,42.27 C45.651,42.866 44.813,43.183 43.961,43.103 C35.884,42.338 29.455,44.858 24.612,50.499 C24.487,50.656 24.361,50.806 24.244,50.963 C24.291,51.223 24.244,51.441 23.93,51.551 Q23.333,53.907 22.76,56.249 C22.784,56.611 22.838,56.966 22.838,57.328 C22.901,57.895 22.956,58.469 23.019,59.042 C23.217,59.214 23.281,59.47 23.184,59.698 C23.435,60.041 23.543,60.448 23.49,60.852 L23.835,61.399 C27.477,67.32 33.074,70.454 40.821,70.509 C42.073,70.399 43.25,71.047 43.67,72.08 C44.619,73.897 46.099,75.466 47.964,76.628 C55.146,81.115 62.886,81.6 70.962,78.752 C71.898,78.348 73.023,78.489 73.788,79.107 C76.375,80.839 79.508,81.842 82.768,81.982 C91.386,82.33 98.67,77.557 100.193,70.318 C100.253,69.512 100.987,68.868 101.912,68.808 C109.353,67.449 113.082,62.785 114,56.639 C113.969,56.468 113.914,56.304 113.914,56.133 C113.38,47.72 106.52,42.447 96.896,43.205 C95.593,43.301 95.303,42.809 95.122,41.935 C94.686,39.689 93.606,37.575 91.983,35.789 C88.508,32.486 84.455,30.573 79.61,30.326 z"/>
    </clipPath>
    <filter id="Shadow_4">
      <feGaussianBlur in="SourceAlpha" stdDeviation="5"/>
      <feOffset dx="3" dy="2" result="offsetblur"/>
      <feFlood flood-color="#1F5474"/>
      <feComposite in2="offsetblur" operator="in"/>
    </filter>
    <clipPath id="Clip_5">
      <path d="M156,70.331 L296.76,70.331 L296.76,160 L156,160 z M212.501,83.331 C205.695,84.315 202.337,84.998 197.21,90.061 C195.204,92.263 193.869,94.867 193.33,97.634 C193.107,98.712 192.748,99.317 191.138,99.2 C179.245,98.266 170.766,104.762 170.107,115.129 C170.107,115.339 170.039,115.541 170,115.751 C171.135,123.324 175.743,129.072 184.939,130.746 C186.083,130.82 186.989,131.613 187.063,132.606 C188.945,141.525 197.947,147.407 208.599,146.978 C212.628,146.806 216.5,145.57 219.696,143.435 C220.642,142.674 222.033,142.5 223.189,142.998 C233.17,146.507 242.735,145.909 251.611,140.381 C253.916,138.949 255.746,137.016 256.918,134.777 C257.437,133.505 258.891,132.706 260.439,132.841 C270.013,132.774 276.93,128.912 281.431,121.616 L281.858,120.943 C281.792,120.445 281.925,119.943 282.236,119.521 C282.116,119.24 282.196,118.925 282.44,118.713 C282.518,118.006 282.585,117.3 282.663,116.601 C282.663,116.155 282.731,115.718 282.76,115.271 Q282.052,112.385 281.315,109.482 C280.927,109.348 280.868,109.078 280.927,108.759 C280.781,108.565 280.626,108.38 280.471,108.186 C274.485,101.236 266.541,98.131 256.559,99.073 C255.505,99.172 254.469,98.782 253.833,98.047 C248.546,92.998 242.047,91.416 234.519,93.242 C232.821,93.646 232.229,92.973 231.492,91.929 C226.505,85.737 220.389,83.3 212.501,83.331 z"/>
    </clipPath>
    <filter id="Shadow_6">
      <feGaussianBlur in="SourceAlpha" stdDeviation="5"/>
      <feOffset dx="3" dy="2" result="offsetblur"/>
      <feFlood flood-color="#1F5474"/>
      <feComposite in2="offsetblur" operator="in"/>
    </filter>
  </defs>
  <g id="Layer_1" opacity="0.523">
    <path d="M383.086,-1.583 L383.086,182.417 L270.488,182.417 C263.987,178.93 257.115,176.361 249.815,175.254 C241.28,174.274 232.7,173.727 224.104,173.83 C208.768,174.088 193.455,174.913 178.174,176.262 C175.995,176.439 173.996,176.603 170.495,176.893 C142.695,179.19 131.354,179.917 117.753,179.917 C110.384,179.917 104.291,179.281 89.814,177.311 C88.155,177.085 87.262,176.964 86.259,176.83 C70.2,174.68 60.948,174.097 51.69,175.254 C41.159,176.668 30.903,179.581 20.685,182.417 L-71.581,182.417 L-71.581,-1.583 L383.086,-1.583 z" fill="url(#Gradient_1)"/>
    <g>
      <path d="M384.419,33.083 L385.086,33.083 L385.086,33.083 L384.419,33.083 L384.419,33.083 z" fill="url(#Gradient_2)"/>
      <path d="M384.419,33.083 L385.086,33.083 L385.086,33.083 L384.419,33.083 L384.419,33.083 z" fill-opacity="0" stroke="#0DA50C" stroke-width="2" stroke-opacity="0.598"/>
    </g>
    <path d="M267.086,62.416 C251.254,62.416 238.419,49.582 238.419,33.75 C238.419,17.918 251.254,5.083 267.086,5.083 C282.918,5.083 295.753,17.918 295.753,33.75 C295.753,49.582 282.918,62.416 267.086,62.416 z" fill="#FFCE00"/>
    <g clip-path="url(#Clip_1)" id="Isolation_Mode">
      <g>
        <path d="M90.655,288.066 C87.986,289.815 85.317,291.564 82.49,293.416 C81.663,290.951 78.384,288.901 74.683,286.91 C73.851,288.078 73.23,289.236 72.182,290.344 C71.126,291.459 69.718,292.54 66.981,293.315 C66.882,293.306 66.782,293.297 66.682,293.289 C66.799,293.088 66.729,292.833 67.064,292.697 C69.692,291.62 71.067,290.34 71.951,288.998 C72.628,287.969 72.958,286.912 73.443,285.868 C73.473,285.803 73.501,285.738 73.579,285.566 C77.665,287.589 81.236,289.597 83.041,291.931 C85.95,290.152 88.812,288.401 91.675,286.65 C91.754,286.662 91.832,286.673 91.91,286.685 C92.141,287.277 92.316,287.873 92.616,288.461 C93.153,289.514 93.964,290.54 95.741,291.443 C96.946,292.056 98.48,292.517 100.625,292.706 C101.38,292.773 101.934,292.72 102.258,292.494 C103.269,291.79 104.406,291.099 105.184,290.363 C107.311,288.354 108.599,286.26 109.862,284.167 C109.888,284.124 109.922,284.082 110.011,283.957 C110.149,284.122 110.238,284.211 110.299,284.302 C111.613,286.257 113.043,288.2 115.504,290.033 C116.407,290.706 117.423,291.362 119.128,291.85 C120.304,292.187 120.427,292.201 121.154,291.767 C123.338,290.464 125.894,289.258 128.791,288.137 C129.317,287.933 129.871,287.739 130.547,287.49 C131.006,288.115 131.325,288.672 131.827,289.21 C133.09,290.562 134.357,291.916 135.79,293.249 C136.263,293.688 137.139,294.096 138.033,294.458 C139.041,294.867 140.157,294.844 141.017,294.406 C141.785,294.015 142.498,293.587 142.9,293.138 C144.162,291.726 145.266,290.295 146.429,288.872 C146.54,288.736 146.624,288.597 146.781,288.373 C152.674,290.481 154.899,293.072 156.821,295.735 C160.713,292.58 162.432,289.233 164.114,285.804 C165.123,286.255 165.66,286.71 166.161,287.178 C168.036,288.932 168.324,290.787 169.276,292.599 C169.477,292.983 169.773,293.362 170.053,293.742 C170.234,293.987 170.777,294.026 171.211,293.873 C171.826,293.655 172.519,293.413 172.771,293.135 C173.479,292.353 174.048,291.552 174.537,290.748 C174.858,290.221 174.942,289.675 175.168,289.038 C180.613,291.024 183.451,293.396 186.127,295.824 C186.541,292.731 188.389,289.765 192.021,286.924 C192.05,287.032 192.09,287.141 192.105,287.25 C192.335,288.992 192.643,290.735 193.8,292.441 C194.268,293.131 195.06,293.803 195.882,294.457 C196.405,294.875 197.247,295.04 198.274,295.095 C199.487,293.751 201.943,292.684 204.899,291.603 C204.944,291.845 204.97,291.994 205,292.142 C205.154,292.939 205.46,293.73 206.587,294.444 C207.042,294.733 207.659,295.016 208.387,295.224 C209.555,295.559 210.894,295.646 212.372,295.411 C216.21,294.799 218.035,293.689 218.842,292.325 C219.437,291.321 219.361,290.306 218.955,289.291 C218.903,289.161 218.86,289.031 218.775,288.796 C219.719,288.997 220.475,289.139 221.172,289.309 C225.04,290.258 227.74,291.503 229.204,293.063 C229.582,293.465 229.863,293.532 230.826,293.287 C231.86,293.024 232.848,292.697 233.544,292.327 C235.431,291.323 236.218,290.165 236.88,289.005 C237.322,288.23 237.584,287.442 237.931,286.66 C237.959,286.597 238.018,286.536 238.133,286.376 C238.677,286.678 239.144,286.9 239.501,287.142 C241.469,288.473 242.587,289.898 243.468,291.347 C243.966,292.167 244.424,292.989 244.991,293.835 C246.488,291.798 249.552,290.201 255.407,289.31 C255.789,289.932 256.039,290.517 256.521,291.078 C257.079,291.73 257.806,292.366 258.535,292.998 C258.743,293.178 259.178,293.336 259.58,293.48 C260.168,293.69 260.822,293.72 261.586,293.555 C264.483,292.93 266.714,292.081 268.568,291.106 C270.683,289.994 272.255,288.791 273.429,287.524 C273.592,287.348 273.757,287.172 273.998,286.913 C278.192,288.849 281.786,290.789 283.052,293.122 C284.735,292.459 286.318,291.794 288.035,291.173 C289.744,290.555 291.744,290.052 293.879,289.615 C294.012,289.664 294.116,289.685 294.133,289.712 C295.043,291.123 297.111,292.358 299.167,293.597 C299.561,293.834 299.721,294.116 299.989,294.378 C299.862,294.403 299.736,294.428 299.61,294.453 C299.3,294.341 298.94,294.241 298.686,294.116 C296.546,293.062 294.877,291.924 293.563,290.724 C293.183,290.376 292.996,290.34 292.141,290.561 C289.247,291.313 286.674,292.174 284.715,293.237 C283.985,293.633 283.221,294.022 282.265,294.417 C281.965,291.953 278.644,289.939 274.563,287.94 C274.291,288.158 274.074,288.311 273.906,288.47 C272.294,290 270.074,291.416 266.868,292.608 C265.421,293.146 263.611,293.572 261.897,294.017 C261.02,294.246 259.769,294.206 258.972,293.896 C258.101,293.558 257.219,293.18 256.769,292.765 C255.919,291.983 255.374,291.163 254.706,290.358 C254.618,290.252 254.553,290.143 254.415,289.947 C253.332,290.23 252.288,290.461 251.39,290.745 C248.493,291.664 246.912,292.833 246.234,294.162 C245.969,294.682 245.731,295.204 245.47,295.724 C245.434,295.795 245.335,295.862 245.203,295.992 C245.009,295.88 244.85,295.824 244.814,295.761 C243.901,294.184 243.125,292.597 242.056,291.033 C241.31,289.94 240.169,288.878 239.204,287.803 C239.08,287.807 238.957,287.811 238.834,287.815 C238.65,288.176 238.493,288.539 238.279,288.898 C237.466,290.263 236.531,291.614 234.26,292.796 C233.11,293.394 231.589,293.803 229.492,293.943 C228.766,293.991 228.441,293.923 228.277,293.663 C227.259,292.058 224.678,290.799 220.918,289.809 C220.823,289.784 220.701,289.771 220.456,289.73 C220.453,290.261 220.483,290.757 220.442,291.251 C220.353,292.314 219.779,293.334 218.13,294.248 C216.669,295.056 214.651,295.635 212.03,295.95 C210.24,296.165 207.622,295.796 206.31,295.172 C205.074,294.583 204.507,293.91 204.083,293.216 C203.99,293.063 203.895,292.911 203.766,292.701 C201.897,293.533 200.045,294.314 199.643,295.365 C199.552,295.603 199.245,295.656 198.62,295.642 C196.519,295.597 195.37,295.106 194.509,294.54 C192.758,293.389 192.177,292.126 191.698,290.859 C191.482,290.286 191.296,289.712 191.094,289.13 C190.442,289.39 189.096,291.067 188.746,291.999 C188.374,292.992 187.852,293.979 187.62,294.976 C187.388,295.976 187.434,296.985 187.358,297.99 C187.249,297.996 187.14,298.002 187.031,298.007 C186.912,297.926 186.768,297.847 186.677,297.761 C185.589,296.742 184.56,295.714 183.409,294.703 C182.652,294.038 181.819,293.379 180.844,292.749 C179.61,291.953 178.199,291.189 176.858,290.413 C176.726,290.336 176.556,290.266 176.385,290.199 C176.333,290.178 176.219,290.176 176.048,290.154 C175.822,290.679 175.649,291.195 175.372,291.704 C174.953,292.473 174.391,293.231 173.098,293.886 C172.734,294.07 172.201,294.263 171.618,294.339 C169.948,294.557 169.202,294.482 168.907,293.948 C168.381,292.994 167.873,292.039 167.341,291.085 C166.747,290.021 166.153,288.956 165.519,287.893 C165.399,287.692 165.095,287.503 164.762,287.31 C162.904,290.697 160.942,294.06 156.332,297.264 C156.172,297.085 156.073,297.004 156.026,296.918 C155.222,295.433 154.315,293.955 152.725,292.54 C151.536,291.482 150.048,290.473 148.086,289.553 C147.976,289.502 147.836,289.458 147.587,289.364 C147.43,289.516 147.305,289.622 147.207,289.731 C145.992,291.089 144.839,292.454 143.529,293.8 C143.161,294.179 142.454,294.538 141.693,294.843 C140.478,295.331 138.756,295.345 137.424,294.889 C136.629,294.617 135.911,294.299 135.369,293.962 C133.238,292.637 132.044,291.191 130.86,289.747 C130.587,289.415 130.438,289.07 130.208,288.734 C130.144,288.642 129.991,288.557 129.801,288.408 C128.46,288.97 127.124,289.463 126.012,290.01 C124.544,290.733 123.229,291.495 121.891,292.248 C121.088,292.7 120.699,292.726 119.355,292.46 C117.08,292.011 115.839,291.277 114.732,290.513 C112.803,289.182 111.523,287.771 110.429,286.34 C110.373,286.266 110.287,286.195 110.028,286.115 C109.654,286.625 109.347,287.141 108.894,287.642 C107.698,288.966 106.52,290.294 105.163,291.598 C104.661,292.081 103.712,292.509 102.909,292.949 C102.481,293.183 101.854,293.246 100.985,293.193 C97.143,292.964 94.829,292.092 93.426,290.943 C92.415,290.114 91.912,289.214 91.185,288.345 C91.124,288.271 91.084,288.195 91.035,288.121 C90.909,288.102 90.782,288.084 90.655,288.066" fill="#076906" fill-opacity="0.593"/>
        <path d="M90.655,288.066 C87.986,289.815 85.317,291.564 82.49,293.416 C81.663,290.951 78.384,288.901 74.683,286.91 C73.851,288.078 73.23,289.236 72.182,290.344 C71.126,291.459 69.718,292.54 66.981,293.315 C66.882,293.306 66.782,293.297 66.682,293.289 C66.799,293.088 66.729,292.833 67.064,292.697 C69.692,291.62 71.067,290.34 71.951,288.998 C72.628,287.969 72.958,286.912 73.443,285.868 C73.473,285.803 73.501,285.738 73.579,285.566 C77.665,287.589 81.236,289.597 83.041,291.931 C85.95,290.152 88.812,288.401 91.675,286.65 C91.754,286.662 91.832,286.673 91.91,286.685 C92.141,287.277 92.316,287.873 92.616,288.461 C93.153,289.514 93.964,290.54 95.741,291.443 C96.946,292.056 98.48,292.517 100.625,292.706 C101.38,292.773 101.934,292.72 102.258,292.494 C103.269,291.79 104.406,291.099 105.184,290.363 C107.311,288.354 108.599,286.26 109.862,284.167 C109.888,284.124 109.922,284.082 110.011,283.957 C110.149,284.122 110.238,284.211 110.299,284.302 C111.613,286.257 113.043,288.2 115.504,290.033 C116.407,290.706 117.423,291.362 119.128,291.85 C120.304,292.187 120.427,292.201 121.154,291.767 C123.338,290.464 125.894,289.258 128.791,288.137 C129.317,287.933 129.871,287.739 130.547,287.49 C131.006,288.115 131.325,288.672 131.827,289.21 C133.09,290.562 134.357,291.916 135.79,293.249 C136.263,293.688 137.139,294.096 138.033,294.458 C139.041,294.867 140.157,294.844 141.017,294.406 C141.785,294.015 142.498,293.587 142.9,293.138 C144.162,291.726 145.266,290.295 146.429,288.872 C146.54,288.736 146.624,288.597 146.781,288.373 C152.674,290.481 154.899,293.072 156.821,295.735 C160.713,292.58 162.432,289.233 164.114,285.804 C165.123,286.255 165.66,286.71 166.161,287.178 C168.036,288.932 168.324,290.787 169.276,292.599 C169.477,292.983 169.773,293.362 170.053,293.742 C170.234,293.987 170.777,294.026 171.211,293.873 C171.826,293.655 172.519,293.413 172.771,293.135 C173.479,292.353 174.048,291.552 174.537,290.748 C174.858,290.221 174.942,289.675 175.168,289.038 C180.613,291.024 183.451,293.396 186.127,295.824 C186.541,292.731 188.389,289.765 192.021,286.924 C192.05,287.032 192.09,287.141 192.105,287.25 C192.335,288.992 192.643,290.735 193.8,292.441 C194.268,293.131 195.06,293.803 195.882,294.457 C196.405,294.875 197.247,295.04 198.274,295.095 C199.487,293.751 201.943,292.684 204.899,291.603 C204.944,291.845 204.97,291.994 205,292.142 C205.154,292.939 205.46,293.73 206.587,294.444 C207.042,294.733 207.659,295.016 208.387,295.224 C209.555,295.559 210.894,295.646 212.372,295.411 C216.21,294.799 218.035,293.689 218.842,292.325 C219.437,291.321 219.361,290.306 218.955,289.291 C218.903,289.161 218.86,289.031 218.775,288.796 C219.719,288.997 220.475,289.139 221.172,289.309 C225.04,290.258 227.74,291.503 229.204,293.063 C229.582,293.465 229.863,293.532 230.826,293.287 C231.86,293.024 232.848,292.697 233.544,292.327 C235.431,291.323 236.218,290.165 236.88,289.005 C237.322,288.23 237.584,287.442 237.931,286.66 C237.959,286.597 238.018,286.536 238.133,286.376 C238.677,286.678 239.144,286.9 239.501,287.142 C241.469,288.473 242.587,289.898 243.468,291.347 C243.966,292.167 244.424,292.989 244.991,293.835 C246.488,291.798 249.552,290.201 255.407,289.31 C255.789,289.932 256.039,290.517 256.521,291.078 C257.079,291.73 257.806,292.366 258.535,292.998 C258.743,293.178 259.178,293.336 259.58,293.48 C260.168,293.69 260.822,293.72 261.586,293.555 C264.483,292.93 266.714,292.081 268.568,291.106 C270.683,289.994 272.255,288.791 273.429,287.524 C273.592,287.348 273.757,287.172 273.998,286.913 C278.192,288.849 281.786,290.789 283.052,293.122 C284.735,292.459 286.318,291.794 288.035,291.173 C289.744,290.555 291.744,290.052 293.879,289.615 C294.012,289.664 294.116,289.685 294.133,289.712 C295.043,291.123 297.111,292.358 299.167,293.597 C299.561,293.834 299.721,294.116 299.989,294.378 C299.862,294.403 299.736,294.428 299.61,294.453 C299.3,294.341 298.94,294.241 298.686,294.116 C296.546,293.062 294.877,291.924 293.563,290.724 C293.183,290.376 292.996,290.34 292.141,290.561 C289.247,291.313 286.674,292.174 284.715,293.237 C283.985,293.633 283.221,294.022 282.265,294.417 C281.965,291.953 278.644,289.939 274.563,287.94 C274.291,288.158 274.074,288.311 273.906,288.47 C272.294,290 270.074,291.416 266.868,292.608 C265.421,293.146 263.611,293.572 261.897,294.017 C261.02,294.246 259.769,294.206 258.972,293.896 C258.101,293.558 257.219,293.18 256.769,292.765 C255.919,291.983 255.374,291.163 254.706,290.358 C254.618,290.252 254.553,290.143 254.415,289.947 C253.332,290.23 252.288,290.461 251.39,290.745 C248.493,291.664 246.912,292.833 246.234,294.162 C245.969,294.682 245.731,295.204 245.47,295.724 C245.434,295.795 245.335,295.862 245.203,295.992 C245.009,295.88 244.85,295.824 244.814,295.761 C243.901,294.184 243.125,292.597 242.056,291.033 C241.31,289.94 240.169,288.878 239.204,287.803 C239.08,287.807 238.957,287.811 238.834,287.815 C238.65,288.176 238.493,288.539 238.279,288.898 C237.466,290.263 236.531,291.614 234.26,292.796 C233.11,293.394 231.589,293.803 229.492,293.943 C228.766,293.991 228.441,293.923 228.277,293.663 C227.259,292.058 224.678,290.799 220.918,289.809 C220.823,289.784 220.701,289.771 220.456,289.73 C220.453,290.261 220.483,290.757 220.442,291.251 C220.353,292.314 219.779,293.334 218.13,294.248 C216.669,295.056 214.651,295.635 212.03,295.95 C210.24,296.165 207.622,295.796 206.31,295.172 C205.074,294.583 204.507,293.91 204.083,293.216 C203.99,293.063 203.895,292.911 203.766,292.701 C201.897,293.533 200.045,294.314 199.643,295.365 C199.552,295.603 199.245,295.656 198.62,295.642 C196.519,295.597 195.37,295.106 194.509,294.54 C192.758,293.389 192.177,292.126 191.698,290.859 C191.482,290.286 191.296,289.712 191.094,289.13 C190.442,289.39 189.096,291.067 188.746,291.999 C188.374,292.992 187.852,293.979 187.62,294.976 C187.388,295.976 187.434,296.985 187.358,297.99 C187.249,297.996 187.14,298.002 187.031,298.007 C186.912,297.926 186.768,297.847 186.677,297.761 C185.589,296.742 184.56,295.714 183.409,294.703 C182.652,294.038 181.819,293.379 180.844,292.749 C179.61,291.953 178.199,291.189 176.858,290.413 C176.726,290.336 176.556,290.266 176.385,290.199 C176.333,290.178 176.219,290.176 176.048,290.154 C175.822,290.679 175.649,291.195 175.372,291.704 C174.953,292.473 174.391,293.231 173.098,293.886 C172.734,294.07 172.201,294.263 171.618,294.339 C169.948,294.557 169.202,294.482 168.907,293.948 C168.381,292.994 167.873,292.039 167.341,291.085 C166.747,290.021 166.153,288.956 165.519,287.893 C165.399,287.692 165.095,287.503 164.762,287.31 C162.904,290.697 160.942,294.06 156.332,297.264 C156.172,297.085 156.073,297.004 156.026,296.918 C155.222,295.433 154.315,293.955 152.725,292.54 C151.536,291.482 150.048,290.473 148.086,289.553 C147.976,289.502 147.836,289.458 147.587,289.364 C147.43,289.516 147.305,289.622 147.207,289.731 C145.992,291.089 144.839,292.454 143.529,293.8 C143.161,294.179 142.454,294.538 141.693,294.843 C140.478,295.331 138.756,295.345 137.424,294.889 C136.629,294.617 135.911,294.299 135.369,293.962 C133.238,292.637 132.044,291.191 130.86,289.747 C130.587,289.415 130.438,289.07 130.208,288.734 C130.144,288.642 129.991,288.557 129.801,288.408 C128.46,288.97 127.124,289.463 126.012,290.01 C124.544,290.733 123.229,291.495 121.891,292.248 C121.088,292.7 120.699,292.726 119.355,292.46 C117.08,292.011 115.839,291.277 114.732,290.513 C112.803,289.182 111.523,287.771 110.429,286.34 C110.373,286.266 110.287,286.195 110.028,286.115 C109.654,286.625 109.347,287.141 108.894,287.642 C107.698,288.966 106.52,290.294 105.163,291.598 C104.661,292.081 103.712,292.509 102.909,292.949 C102.481,293.183 101.854,293.246 100.985,293.193 C97.143,292.964 94.829,292.092 93.426,290.943 C92.415,290.114 91.912,289.214 91.185,288.345 C91.124,288.271 91.084,288.195 91.035,288.121 C90.909,288.102 90.782,288.084 90.655,288.066" fill-opacity="0" stroke="#0DA50C" stroke-width="1" stroke-opacity="0.598"/>
      </g>
    </g>
    <g clip-path="url(#Clip_2)" id="Isolation_Mode">
      <g>
        <path d="M33.466,252.375 C31.701,254.162 29.936,255.95 28.066,257.842 C27.509,255.346 25.327,253.282 22.865,251.28 C22.317,252.47 21.908,253.647 21.216,254.776 C20.52,255.913 19.589,257.017 17.775,257.816 C17.709,257.807 17.643,257.799 17.577,257.79 C17.654,257.587 17.606,257.328 17.828,257.188 C19.568,256.083 20.477,254.778 21.059,253.412 C21.504,252.365 21.72,251.291 22.039,250.229 C22.058,250.164 22.077,250.098 22.128,249.923 C24.846,251.955 27.221,253.974 28.426,256.332 C30.351,254.513 32.244,252.724 34.138,250.934 C34.191,250.945 34.242,250.956 34.294,250.968 C34.45,251.567 34.567,252.171 34.768,252.766 C35.128,253.831 35.669,254.868 36.852,255.776 C37.653,256.391 38.672,256.851 40.096,257.033 C40.597,257.097 40.965,257.04 41.178,256.81 C41.847,256.09 42.599,255.384 43.114,254.634 C44.518,252.585 45.366,250.455 46.197,248.325 C46.214,248.281 46.237,248.239 46.295,248.112 C46.388,248.278 46.447,248.368 46.488,248.46 C47.366,250.436 48.321,252.4 49.96,254.248 C50.561,254.926 51.237,255.587 52.37,256.073 C53.152,256.409 53.233,256.423 53.714,255.979 C55.159,254.646 56.851,253.411 58.77,252.259 C59.118,252.05 59.485,251.85 59.933,251.595 C60.239,252.226 60.452,252.79 60.787,253.333 C61.629,254.699 62.475,256.066 63.43,257.41 C63.745,257.853 64.327,258.263 64.922,258.627 C65.592,259.036 66.332,259.008 66.902,258.559 C67.41,258.158 67.882,257.721 68.147,257.263 C68.979,255.824 69.708,254.368 70.474,252.918 C70.548,252.78 70.603,252.639 70.707,252.411 C74.624,254.52 76.108,257.137 77.392,259.829 C79.964,256.61 81.094,253.206 82.199,249.719 C82.87,250.171 83.227,250.631 83.561,251.103 C84.811,252.874 85.008,254.753 85.645,256.587 C85.781,256.976 85.978,257.359 86.165,257.742 C86.285,257.99 86.646,258.027 86.934,257.87 C87.341,257.646 87.8,257.396 87.966,257.114 C88.434,256.316 88.809,255.502 89.13,254.684 C89.341,254.147 89.396,253.593 89.543,252.946 C93.163,254.934 95.054,257.325 96.837,259.776 C97.101,256.636 98.318,253.618 100.719,250.718 C100.738,250.828 100.765,250.938 100.775,251.048 C100.934,252.814 101.144,254.581 101.917,256.306 C102.23,257.004 102.757,257.681 103.305,258.341 C103.653,258.762 104.212,258.925 104.894,258.976 C105.694,257.607 107.32,256.512 109.278,255.402 C109.309,255.647 109.327,255.798 109.347,255.948 C109.452,256.755 109.657,257.556 110.408,258.275 C110.711,258.566 111.121,258.85 111.604,259.058 C112.38,259.391 113.269,259.473 114.249,259.227 C116.794,258.587 118.001,257.453 118.532,256.066 C118.924,255.044 118.87,254.015 118.597,252.987 C118.562,252.856 118.533,252.724 118.476,252.486 C119.103,252.685 119.605,252.825 120.068,252.995 C122.638,253.938 124.433,255.188 125.409,256.763 C125.662,257.169 125.848,257.236 126.486,256.982 C127.172,256.71 127.826,256.374 128.287,255.995 C129.536,254.968 130.054,253.789 130.489,252.609 C130.78,251.821 130.951,251.02 131.179,250.225 C131.198,250.161 131.237,250.099 131.312,249.936 C131.674,250.239 131.985,250.463 132.223,250.706 C133.533,252.046 134.279,253.487 134.868,254.953 C135.202,255.781 135.507,256.613 135.886,257.469 C136.873,255.395 138.901,253.759 142.783,252.827 C143.039,253.457 143.207,254.048 143.528,254.616 C143.9,255.274 144.384,255.915 144.871,256.553 C145.009,256.735 145.298,256.893 145.566,257.037 C145.956,257.247 146.39,257.274 146.896,257.103 C148.817,256.455 150.294,255.583 151.521,254.585 C152.921,253.446 153.96,252.219 154.735,250.927 C154.843,250.747 154.952,250.568 155.111,250.305 C157.9,252.247 160.29,254.198 161.138,256.558 C162.253,255.878 163.301,255.195 164.438,254.557 C165.57,253.921 166.895,253.402 168.311,252.948 C168.399,252.997 168.468,253.017 168.479,253.045 C169.088,254.472 170.464,255.714 171.832,256.961 C172.094,257.2 172.201,257.485 172.38,257.749 C172.296,257.775 172.212,257.801 172.128,257.827 C171.922,257.715 171.683,257.616 171.514,257.49 C170.091,256.431 168.98,255.285 168.104,254.074 C167.851,253.723 167.727,253.687 167.161,253.916 C165.242,254.693 163.538,255.579 162.242,256.667 C161.758,257.073 161.253,257.471 160.62,257.876 C160.413,255.378 158.203,253.351 155.489,251.344 C155.309,251.566 155.165,251.722 155.054,251.884 C153.99,253.445 152.521,254.892 150.398,256.117 C149.44,256.669 148.24,257.11 147.104,257.571 C146.523,257.806 145.693,257.772 145.163,257.462 C144.584,257.123 143.998,256.744 143.698,256.326 C143.132,255.537 142.767,254.707 142.322,253.894 C142.262,253.786 142.219,253.676 142.127,253.479 C141.409,253.771 140.717,254.01 140.122,254.303 C138.203,255.249 137.158,256.443 136.712,257.794 C136.538,258.323 136.382,258.853 136.21,259.383 C136.187,259.454 136.122,259.523 136.034,259.656 C135.905,259.543 135.8,259.487 135.775,259.423 C135.164,257.828 134.645,256.222 133.931,254.641 C133.432,253.536 132.671,252.464 132.027,251.378 C131.946,251.382 131.864,251.387 131.782,251.392 C131.662,251.759 131.558,252.128 131.418,252.494 C130.882,253.883 130.266,255.258 128.763,256.467 C128.003,257.079 126.994,257.503 125.604,257.654 C125.122,257.706 124.906,257.639 124.796,257.376 C124.116,255.754 122.399,254.489 119.901,253.503 C119.838,253.478 119.757,253.466 119.594,253.425 C119.594,253.963 119.616,254.466 119.59,254.968 C119.534,256.047 119.157,257.085 118.065,258.02 C117.099,258.847 115.762,259.443 114.024,259.776 C112.837,260.003 111.099,259.641 110.226,259.015 C109.404,258.423 109.026,257.743 108.742,257.042 C108.68,256.887 108.617,256.733 108.53,256.521 C107.293,257.374 106.066,258.175 105.803,259.244 C105.744,259.485 105.54,259.541 105.125,259.53 C103.731,259.494 102.967,259.002 102.394,258.432 C101.228,257.273 100.839,255.994 100.517,254.711 C100.372,254.132 100.247,253.551 100.111,252.961 C99.679,253.227 98.791,254.936 98.562,255.883 C98.318,256.891 97.975,257.896 97.825,258.908 C97.674,259.923 97.708,260.947 97.661,261.967 C97.588,261.973 97.516,261.979 97.444,261.986 C97.364,261.903 97.268,261.824 97.208,261.738 C96.482,260.709 95.797,259.672 95.029,258.651 C94.525,257.981 93.971,257.316 93.321,256.683 C92.5,255.881 91.562,255.113 90.669,254.332 C90.581,254.255 90.469,254.185 90.355,254.117 C90.32,254.097 90.245,254.095 90.131,254.073 C89.983,254.607 89.87,255.131 89.687,255.649 C89.412,256.431 89.041,257.203 88.186,257.873 C87.945,258.062 87.592,258.26 87.205,258.34 C86.098,258.57 85.603,258.498 85.405,257.957 C85.053,256.992 84.713,256.026 84.357,255.061 C83.959,253.984 83.562,252.906 83.138,251.832 C83.058,251.629 82.855,251.438 82.634,251.244 C81.412,254.689 80.121,258.11 77.072,261.382 C76.966,261.202 76.899,261.12 76.868,261.033 C76.33,259.531 75.724,258.036 74.664,256.608 C73.872,255.541 72.881,254.525 71.576,253.601 C71.503,253.55 71.41,253.506 71.244,253.412 C71.141,253.566 71.058,253.675 70.994,253.786 C70.192,255.169 69.431,256.56 68.566,257.932 C68.323,258.318 67.856,258.685 67.352,258.999 C66.547,259.5 65.404,259.522 64.519,259.067 C63.991,258.795 63.513,258.475 63.152,258.136 C61.735,256.803 60.938,255.342 60.147,253.883 C59.965,253.547 59.866,253.198 59.711,252.858 C59.669,252.765 59.567,252.679 59.441,252.53 C58.553,253.106 57.668,253.612 56.932,254.173 C55.96,254.914 55.09,255.693 54.204,256.464 C53.673,256.926 53.415,256.954 52.522,256.691 C51.012,256.246 50.186,255.508 49.449,254.739 C48.165,253.399 47.311,251.973 46.581,250.526 C46.543,250.452 46.486,250.381 46.313,250.301 C46.067,250.819 45.865,251.345 45.566,251.855 C44.777,253.204 43.999,254.557 43.103,255.887 C42.772,256.379 42.144,256.817 41.612,257.268 C41.329,257.508 40.913,257.574 40.336,257.525 C37.786,257.311 36.248,256.439 35.314,255.279 C34.64,254.444 34.304,253.533 33.819,252.655 C33.778,252.58 33.751,252.504 33.718,252.428 C33.634,252.41 33.55,252.393 33.466,252.375" fill="#0DA50C" fill-opacity="0.593"/>
        <path d="M33.466,252.375 C31.701,254.162 29.936,255.95 28.066,257.842 C27.509,255.346 25.327,253.282 22.865,251.28 C22.317,252.47 21.908,253.647 21.216,254.776 C20.52,255.913 19.589,257.017 17.775,257.816 C17.709,257.807 17.643,257.799 17.577,257.79 C17.654,257.587 17.606,257.328 17.828,257.188 C19.568,256.083 20.477,254.778 21.059,253.412 C21.504,252.365 21.72,251.291 22.039,250.229 C22.058,250.164 22.077,250.098 22.128,249.923 C24.846,251.955 27.221,253.974 28.426,256.332 C30.351,254.513 32.244,252.724 34.138,250.934 C34.191,250.945 34.242,250.956 34.294,250.968 C34.45,251.567 34.567,252.171 34.768,252.766 C35.128,253.831 35.669,254.868 36.852,255.776 C37.653,256.391 38.672,256.851 40.096,257.033 C40.597,257.097 40.965,257.04 41.178,256.81 C41.847,256.09 42.599,255.384 43.114,254.634 C44.518,252.585 45.366,250.455 46.197,248.325 C46.214,248.281 46.237,248.239 46.295,248.112 C46.388,248.278 46.447,248.368 46.488,248.46 C47.366,250.436 48.321,252.4 49.96,254.248 C50.561,254.926 51.237,255.587 52.37,256.073 C53.152,256.409 53.233,256.423 53.714,255.979 C55.159,254.646 56.851,253.411 58.77,252.259 C59.118,252.05 59.485,251.85 59.933,251.595 C60.239,252.226 60.452,252.79 60.787,253.333 C61.629,254.699 62.475,256.066 63.43,257.41 C63.745,257.853 64.327,258.263 64.922,258.627 C65.592,259.036 66.332,259.008 66.902,258.559 C67.41,258.158 67.882,257.721 68.147,257.263 C68.979,255.824 69.708,254.368 70.474,252.918 C70.548,252.78 70.603,252.639 70.707,252.411 C74.624,254.52 76.108,257.137 77.392,259.829 C79.964,256.61 81.094,253.206 82.199,249.719 C82.87,250.171 83.227,250.631 83.561,251.103 C84.811,252.874 85.008,254.753 85.645,256.587 C85.781,256.976 85.978,257.359 86.165,257.742 C86.285,257.99 86.646,258.027 86.934,257.87 C87.341,257.646 87.8,257.396 87.966,257.114 C88.434,256.316 88.809,255.502 89.13,254.684 C89.341,254.147 89.396,253.593 89.543,252.946 C93.163,254.934 95.054,257.325 96.837,259.776 C97.101,256.636 98.318,253.618 100.719,250.718 C100.738,250.828 100.765,250.938 100.775,251.048 C100.934,252.814 101.144,254.581 101.917,256.306 C102.23,257.004 102.757,257.681 103.305,258.341 C103.653,258.762 104.212,258.925 104.894,258.976 C105.694,257.607 107.32,256.512 109.278,255.402 C109.309,255.647 109.327,255.798 109.347,255.948 C109.452,256.755 109.657,257.556 110.408,258.275 C110.711,258.566 111.121,258.85 111.604,259.058 C112.38,259.391 113.269,259.473 114.249,259.227 C116.794,258.587 118.001,257.453 118.532,256.066 C118.924,255.044 118.87,254.015 118.597,252.987 C118.562,252.856 118.533,252.724 118.476,252.486 C119.103,252.685 119.605,252.825 120.068,252.995 C122.638,253.938 124.433,255.188 125.409,256.763 C125.662,257.169 125.848,257.236 126.486,256.982 C127.172,256.71 127.826,256.374 128.287,255.995 C129.536,254.968 130.054,253.789 130.489,252.609 C130.78,251.821 130.951,251.02 131.179,250.225 C131.198,250.161 131.237,250.099 131.312,249.936 C131.674,250.239 131.985,250.463 132.223,250.706 C133.533,252.046 134.279,253.487 134.868,254.953 C135.202,255.781 135.507,256.613 135.886,257.469 C136.873,255.395 138.901,253.759 142.783,252.827 C143.039,253.457 143.207,254.048 143.528,254.616 C143.9,255.274 144.384,255.915 144.871,256.553 C145.009,256.735 145.298,256.893 145.566,257.037 C145.956,257.247 146.39,257.274 146.896,257.103 C148.817,256.455 150.294,255.583 151.521,254.585 C152.921,253.446 153.96,252.219 154.735,250.927 C154.843,250.747 154.952,250.568 155.111,250.305 C157.9,252.247 160.29,254.198 161.138,256.558 C162.253,255.878 163.301,255.195 164.438,254.557 C165.57,253.921 166.895,253.402 168.311,252.948 C168.399,252.997 168.468,253.017 168.479,253.045 C169.088,254.472 170.464,255.714 171.832,256.961 C172.094,257.2 172.201,257.485 172.38,257.749 C172.296,257.775 172.212,257.801 172.128,257.827 C171.922,257.715 171.683,257.616 171.514,257.49 C170.091,256.431 168.98,255.285 168.104,254.074 C167.851,253.723 167.727,253.687 167.161,253.916 C165.242,254.693 163.538,255.579 162.242,256.667 C161.758,257.073 161.253,257.471 160.62,257.876 C160.413,255.378 158.203,253.351 155.489,251.344 C155.309,251.566 155.165,251.722 155.054,251.884 C153.99,253.445 152.521,254.892 150.398,256.117 C149.44,256.669 148.24,257.11 147.104,257.571 C146.523,257.806 145.693,257.772 145.163,257.462 C144.584,257.123 143.998,256.744 143.698,256.326 C143.132,255.537 142.767,254.707 142.322,253.894 C142.262,253.786 142.219,253.676 142.127,253.479 C141.409,253.771 140.717,254.01 140.122,254.303 C138.203,255.249 137.158,256.443 136.712,257.794 C136.538,258.323 136.382,258.853 136.21,259.383 C136.187,259.454 136.122,259.523 136.034,259.656 C135.905,259.543 135.8,259.487 135.775,259.423 C135.164,257.828 134.645,256.222 133.931,254.641 C133.432,253.536 132.671,252.464 132.027,251.378 C131.946,251.382 131.864,251.387 131.782,251.392 C131.662,251.759 131.558,252.128 131.418,252.494 C130.882,253.883 130.266,255.258 128.763,256.467 C128.003,257.079 126.994,257.503 125.604,257.654 C125.122,257.706 124.906,257.639 124.796,257.376 C124.116,255.754 122.399,254.489 119.901,253.503 C119.838,253.478 119.757,253.466 119.594,253.425 C119.594,253.963 119.616,254.466 119.59,254.968 C119.534,256.047 119.157,257.085 118.065,258.02 C117.099,258.847 115.762,259.443 114.024,259.776 C112.837,260.003 111.099,259.641 110.226,259.015 C109.404,258.423 109.026,257.743 108.742,257.042 C108.68,256.887 108.617,256.733 108.53,256.521 C107.293,257.374 106.066,258.175 105.803,259.244 C105.744,259.485 105.54,259.541 105.125,259.53 C103.731,259.494 102.967,259.002 102.394,258.432 C101.228,257.273 100.839,255.994 100.517,254.711 C100.372,254.132 100.247,253.551 100.111,252.961 C99.679,253.227 98.791,254.936 98.562,255.883 C98.318,256.891 97.975,257.896 97.825,258.908 C97.674,259.923 97.708,260.947 97.661,261.967 C97.588,261.973 97.516,261.979 97.444,261.986 C97.364,261.903 97.268,261.824 97.208,261.738 C96.482,260.709 95.797,259.672 95.029,258.651 C94.525,257.981 93.971,257.316 93.321,256.683 C92.5,255.881 91.562,255.113 90.669,254.332 C90.581,254.255 90.469,254.185 90.355,254.117 C90.32,254.097 90.245,254.095 90.131,254.073 C89.983,254.607 89.87,255.131 89.687,255.649 C89.412,256.431 89.041,257.203 88.186,257.873 C87.945,258.062 87.592,258.26 87.205,258.34 C86.098,258.57 85.603,258.498 85.405,257.957 C85.053,256.992 84.713,256.026 84.357,255.061 C83.959,253.984 83.562,252.906 83.138,251.832 C83.058,251.629 82.855,251.438 82.634,251.244 C81.412,254.689 80.121,258.11 77.072,261.382 C76.966,261.202 76.899,261.12 76.868,261.033 C76.33,259.531 75.724,258.036 74.664,256.608 C73.872,255.541 72.881,254.525 71.576,253.601 C71.503,253.55 71.41,253.506 71.244,253.412 C71.141,253.566 71.058,253.675 70.994,253.786 C70.192,255.169 69.431,256.56 68.566,257.932 C68.323,258.318 67.856,258.685 67.352,258.999 C66.547,259.5 65.404,259.522 64.519,259.067 C63.991,258.795 63.513,258.475 63.152,258.136 C61.735,256.803 60.938,255.342 60.147,253.883 C59.965,253.547 59.866,253.198 59.711,252.858 C59.669,252.765 59.567,252.679 59.441,252.53 C58.553,253.106 57.668,253.612 56.932,254.173 C55.96,254.914 55.09,255.693 54.204,256.464 C53.673,256.926 53.415,256.954 52.522,256.691 C51.012,256.246 50.186,255.508 49.449,254.739 C48.165,253.399 47.311,251.973 46.581,250.526 C46.543,250.452 46.486,250.381 46.313,250.301 C46.067,250.819 45.865,251.345 45.566,251.855 C44.777,253.204 43.999,254.557 43.103,255.887 C42.772,256.379 42.144,256.817 41.612,257.268 C41.329,257.508 40.913,257.574 40.336,257.525 C37.786,257.311 36.248,256.439 35.314,255.279 C34.64,254.444 34.304,253.533 33.819,252.655 C33.778,252.58 33.751,252.504 33.718,252.428 C33.634,252.41 33.55,252.393 33.466,252.375" fill-opacity="0" stroke="#0DA50C" stroke-width="1" stroke-opacity="0.598"/>
      </g>
    </g>
    <g>
      <g>
        <path d="M267.039,230.395 C267.585,230.919 267.876,231.451 268.148,231.998 C269.166,234.049 269.326,236.226 269.845,238.35 C269.955,238.8 270.115,239.244 270.267,239.688 C270.366,239.975 270.659,240.018 270.893,239.836 C271.225,239.577 271.599,239.288 271.734,238.96 C272.115,238.037 272.42,237.093 272.682,236.146 C272.854,235.524 272.898,234.882 273.018,234.133 C275.965,236.435 277.504,239.206 278.956,242.044 C279.171,238.407 280.162,234.911 282.117,231.552 C282.132,231.68 282.155,231.807 282.163,231.935 C282.291,233.98 282.463,236.026 283.092,238.024 C283.347,238.833 283.776,239.618 284.222,240.382 C284.506,240.87 284.961,241.058 285.516,241.118 C286.167,239.532 287.491,238.264 289.085,236.977 C289.11,237.262 289.125,237.436 289.141,237.61 C289.227,238.545 289.394,239.473 290.005,240.306 C290.251,240.642 290.585,240.971 290.979,241.212 C291.478,241.515 292.136,241.654 292.765,241.499 L293.103,241.99 L292.949,242.044 C291.982,242.307 290.567,241.888 289.857,241.162 C289.188,240.477 288.88,239.69 288.649,238.877 C288.598,238.698 288.547,238.519 288.476,238.274 C287.469,239.262 286.47,240.19 286.256,241.427 C286.208,241.707 286.042,241.771 285.704,241.759 C284.569,241.718 283.947,241.147 283.48,240.487 C282.531,239.145 282.214,237.664 281.952,236.177 C281.834,235.506 281.732,234.833 281.621,234.15 C281.27,234.459 280.547,236.438 280.361,237.535 C280.162,238.703 279.883,239.866 279.76,241.038 C279.638,242.215 279.665,243.4 279.627,244.582 C279.568,244.589 279.509,244.596 279.45,244.604 C279.385,244.508 279.307,244.416 279.258,244.317 C278.668,243.125 278.109,241.923 277.485,240.741 C277.074,239.965 276.623,239.195 276.094,238.461 C275.426,237.532 274.661,236.643 273.935,235.738 C273.863,235.649 273.771,235.568 273.679,235.49 C273.65,235.466 273.589,235.463 273.496,235.439 C273.376,236.057 273.284,236.664 273.135,237.264 C272.911,238.169 272.609,239.064 271.913,239.84 C271.716,240.059 271.429,240.288 271.115,240.381 C270.213,240.647 269.81,240.563 269.649,239.937 C269.363,238.819 269.085,237.7 268.795,236.583 C268.472,235.335 268.148,234.087 267.803,232.843 C267.738,232.607 267.573,232.387 267.393,232.161 C266.398,236.151 265.347,240.114 262.865,243.905 C262.778,243.696 262.724,243.6 262.699,243.501 C262.26,241.76 261.767,240.029 260.904,238.374 C260.259,237.139 259.452,235.962 258.39,234.892 C258.331,234.832 258.255,234.781 258.12,234.673 C258.036,234.851 257.969,234.977 257.916,235.106 C257.263,236.708 256.644,238.319 255.94,239.908 C255.742,240.355 255.361,240.781 254.951,241.144 C254.296,241.724 253.365,241.75 252.645,241.222 C252.214,240.907 251.826,240.537 251.532,240.144 C250.406,238.648 249.772,236.986 249.135,235.345 C249.589,234.954 249.397,235.125 249.718,234.835 C250.994,237.742 250.317,236.251 251.758,239.304 C252.014,239.817 252.489,240.291 252.973,240.713 C253.518,241.187 254.121,241.154 254.584,240.634 C254.998,240.17 255.382,239.663 255.598,239.134 C256.276,237.467 256.869,235.78 257.493,234.101 C257.553,233.94 257.598,233.777 257.682,233.513 C260.871,235.956 262.08,238.987 263.125,242.105 C265.219,238.377 266.139,234.435 267.039,230.395 z" fill="#086608" fill-opacity="0.593"/>
        <path d="M267.039,230.395 C267.585,230.919 267.876,231.451 268.148,231.998 C269.166,234.049 269.326,236.226 269.845,238.35 C269.955,238.8 270.115,239.244 270.267,239.688 C270.366,239.975 270.659,240.018 270.893,239.836 C271.225,239.577 271.599,239.288 271.734,238.96 C272.115,238.037 272.42,237.093 272.682,236.146 C272.854,235.524 272.898,234.882 273.018,234.133 C275.965,236.435 277.504,239.206 278.956,242.044 C279.171,238.407 280.162,234.911 282.117,231.552 C282.132,231.68 282.155,231.807 282.163,231.935 C282.291,233.98 282.463,236.026 283.092,238.024 C283.347,238.833 283.776,239.618 284.222,240.382 C284.506,240.87 284.961,241.058 285.516,241.118 C286.167,239.532 287.491,238.264 289.085,236.977 C289.11,237.262 289.125,237.436 289.141,237.61 C289.227,238.545 289.394,239.473 290.005,240.306 C290.251,240.642 290.585,240.971 290.979,241.212 C291.478,241.515 292.136,241.654 292.765,241.499 L293.103,241.99 L292.949,242.044 C291.982,242.307 290.567,241.888 289.857,241.162 C289.188,240.477 288.88,239.69 288.649,238.877 C288.598,238.698 288.547,238.519 288.476,238.274 C287.469,239.262 286.47,240.19 286.256,241.427 C286.208,241.707 286.042,241.771 285.704,241.759 C284.569,241.718 283.947,241.147 283.48,240.487 C282.531,239.145 282.214,237.664 281.952,236.177 C281.834,235.506 281.732,234.833 281.621,234.15 C281.27,234.459 280.547,236.438 280.361,237.535 C280.162,238.703 279.883,239.866 279.76,241.038 C279.638,242.215 279.665,243.4 279.627,244.582 C279.568,244.589 279.509,244.596 279.45,244.604 C279.385,244.508 279.307,244.416 279.258,244.317 C278.668,243.125 278.109,241.923 277.485,240.741 C277.074,239.965 276.623,239.195 276.094,238.461 C275.426,237.532 274.661,236.643 273.935,235.738 C273.863,235.649 273.771,235.568 273.679,235.49 C273.65,235.466 273.589,235.463 273.496,235.439 C273.376,236.057 273.284,236.664 273.135,237.264 C272.911,238.169 272.609,239.064 271.913,239.84 C271.716,240.059 271.429,240.288 271.115,240.381 C270.213,240.647 269.81,240.563 269.649,239.937 C269.363,238.819 269.085,237.7 268.795,236.583 C268.472,235.335 268.148,234.087 267.803,232.843 C267.738,232.607 267.573,232.387 267.393,232.161 C266.398,236.151 265.347,240.114 262.865,243.905 C262.778,243.696 262.724,243.6 262.699,243.501 C262.26,241.76 261.767,240.029 260.904,238.374 C260.259,237.139 259.452,235.962 258.39,234.892 C258.331,234.832 258.255,234.781 258.12,234.673 C258.036,234.851 257.969,234.977 257.916,235.106 C257.263,236.708 256.644,238.319 255.94,239.908 C255.742,240.355 255.361,240.781 254.951,241.144 C254.296,241.724 253.365,241.75 252.645,241.222 C252.214,240.907 251.826,240.537 251.532,240.144 C250.406,238.648 249.772,236.986 249.135,235.345 C249.589,234.954 249.397,235.125 249.718,234.835 C250.994,237.742 250.317,236.251 251.758,239.304 C252.014,239.817 252.489,240.291 252.973,240.713 C253.518,241.187 254.121,241.154 254.584,240.634 C254.998,240.17 255.382,239.663 255.598,239.134 C256.276,237.467 256.869,235.78 257.493,234.101 C257.553,233.94 257.598,233.777 257.682,233.513 C260.871,235.956 262.08,238.987 263.125,242.105 C265.219,238.377 266.139,234.435 267.039,230.395 z" fill-opacity="0" stroke="#0DA50C" stroke-width="1" stroke-opacity="0.598"/>
      </g>
      <g>
        <path d="M280.207,203.786 C280.287,203.898 280.338,203.958 280.374,204.02 C281.135,205.342 281.963,206.657 283.384,207.894 C283.905,208.348 284.492,208.79 285.474,209.116 C286.151,209.341 286.222,209.35 286.639,209.053 C287.892,208.161 289.359,207.334 291.023,206.563 C291.325,206.423 291.643,206.289 292.031,206.118 C292.465,206.844 292.257,206.522 292.639,207.085 C292.088,207.355 292.287,207.262 292.055,207.37 C291.953,207.194 292.03,207.329 291.839,206.964 C291.803,206.901 291.714,206.844 291.605,206.744 C290.834,207.129 290.067,207.469 289.429,207.844 C288.586,208.34 287.832,208.861 287.064,209.378 C286.604,209.687 286.38,209.706 285.606,209.53 C284.296,209.232 283.58,208.738 282.941,208.223 C281.827,207.326 281.087,206.371 280.454,205.403 C280.421,205.353 280.371,205.305 280.222,205.252 C280.009,205.599 279.834,205.951 279.575,206.292 C278.89,207.196 278.216,208.101 277.439,208.991 C277.152,209.321 276.607,209.614 276.146,209.916 C275.9,210.076 275.54,210.121 275.039,210.088 C272.829,209.945 271.495,209.361 270.685,208.585 C270.101,208.025 269.809,207.415 269.388,206.828 C269.353,206.778 269.33,206.727 269.301,206.676 C269.229,206.664 269.156,206.652 269.083,206.64 C267.552,207.837 266.021,209.033 264.4,210.3 C263.917,208.629 262.025,207.248 259.89,205.908 C259.415,206.704 259.061,207.492 258.461,208.248 C257.857,209.009 257.05,209.748 255.478,210.283 C255.42,210.277 255.363,210.271 255.306,210.266 C255.372,210.129 255.331,209.956 255.523,209.862 C257.032,209.123 257.82,208.249 258.324,207.335 C258.711,206.634 258.898,205.915 259.174,205.204 C259.191,205.16 259.207,205.116 259.252,204.999 C261.608,206.359 263.668,207.711 264.713,209.29 C266.381,208.072 268.023,206.874 269.666,205.675 C269.711,205.683 269.756,205.691 269.801,205.698 C269.935,206.1 270.038,206.503 270.212,206.902 C270.523,207.615 270.993,208.309 272.018,208.917 C272.713,209.329 273.597,209.637 274.831,209.758 C275.266,209.801 275.584,209.763 275.77,209.609 C276.35,209.127 277.002,208.655 277.448,208.153 C278.666,206.781 279.401,205.355 280.122,203.929 C280.136,203.9 280.156,203.871 280.207,203.786 z" fill="#086608" fill-opacity="0.593"/>
        <path d="M280.207,203.786 C280.287,203.898 280.338,203.958 280.374,204.02 C281.135,205.342 281.963,206.657 283.384,207.894 C283.905,208.348 284.492,208.79 285.474,209.116 C286.151,209.341 286.222,209.35 286.639,209.053 C287.892,208.161 289.359,207.334 291.023,206.563 C291.325,206.423 291.643,206.289 292.031,206.118 C292.465,206.844 292.257,206.522 292.639,207.085 C292.088,207.355 292.287,207.262 292.055,207.37 C291.953,207.194 292.03,207.329 291.839,206.964 C291.803,206.901 291.714,206.844 291.605,206.744 C290.834,207.129 290.067,207.469 289.429,207.844 C288.586,208.34 287.832,208.861 287.064,209.378 C286.604,209.687 286.38,209.706 285.606,209.53 C284.296,209.232 283.58,208.738 282.941,208.223 C281.827,207.326 281.087,206.371 280.454,205.403 C280.421,205.353 280.371,205.305 280.222,205.252 C280.009,205.599 279.834,205.951 279.575,206.292 C278.89,207.196 278.216,208.101 277.439,208.991 C277.152,209.321 276.607,209.614 276.146,209.916 C275.9,210.076 275.54,210.121 275.039,210.088 C272.829,209.945 271.495,209.361 270.685,208.585 C270.101,208.025 269.809,207.415 269.388,206.828 C269.353,206.778 269.33,206.727 269.301,206.676 C269.229,206.664 269.156,206.652 269.083,206.64 C267.552,207.837 266.021,209.033 264.4,210.3 C263.917,208.629 262.025,207.248 259.89,205.908 C259.415,206.704 259.061,207.492 258.461,208.248 C257.857,209.009 257.05,209.748 255.478,210.283 C255.42,210.277 255.363,210.271 255.306,210.266 C255.372,210.129 255.331,209.956 255.523,209.862 C257.032,209.123 257.82,208.249 258.324,207.335 C258.711,206.634 258.898,205.915 259.174,205.204 C259.191,205.16 259.207,205.116 259.252,204.999 C261.608,206.359 263.668,207.711 264.713,209.29 C266.381,208.072 268.023,206.874 269.666,205.675 C269.711,205.683 269.756,205.691 269.801,205.698 C269.935,206.1 270.038,206.503 270.212,206.902 C270.523,207.615 270.993,208.309 272.018,208.917 C272.713,209.329 273.597,209.637 274.831,209.758 C275.266,209.801 275.584,209.763 275.77,209.609 C276.35,209.127 277.002,208.655 277.448,208.153 C278.666,206.781 279.401,205.355 280.122,203.929 C280.136,203.9 280.156,203.871 280.207,203.786 z" fill-opacity="0" stroke="#0DA50C" stroke-width="1" stroke-opacity="0.598"/>
      </g>
      <g>
        <path d="M27.268,200.882 C27.63,201.199 27.941,201.432 28.179,201.686 C29.489,203.087 30.235,204.592 30.824,206.124 C31.157,206.99 31.463,207.859 31.842,208.754 C32.829,206.586 34.857,204.877 38.739,203.903 C38.994,204.561 39.162,205.179 39.483,205.772 C39.856,206.46 40.34,207.13 40.826,207.797 C40.964,207.987 41.254,208.151 41.521,208.302 C41.912,208.522 42.345,208.55 42.852,208.372 C44.772,207.694 46.249,206.783 47.476,205.74 C48.876,204.55 49.915,203.267 50.69,201.917 C50.797,201.73 50.906,201.543 51.066,201.267 C53.854,203.297 56.245,205.336 57.092,207.802 C58.207,207.091 59.255,206.378 60.392,205.711 C61.524,205.046 62.85,204.504 64.265,204.029 C64.353,204.081 64.422,204.102 64.433,204.13 C65.042,205.622 66.418,206.92 67.786,208.223 C68.048,208.472 68.155,208.771 68.333,209.047 C68.25,209.074 68.166,209.101 68.082,209.128 C67.876,209.011 67.637,208.907 67.468,208.776 C66.045,207.669 64.934,206.471 64.058,205.206 C63.805,204.839 63.681,204.802 63.115,205.041 C61.197,205.853 59.492,206.778 58.196,207.916 C57.713,208.34 57.207,208.756 56.575,209.179 C56.368,206.569 54.158,204.451 51.444,202.353 C51.264,202.585 51.12,202.748 51.009,202.918 C49.944,204.548 48.476,206.061 46.353,207.341 C45.395,207.918 44.195,208.379 43.06,208.86 C42.478,209.106 41.649,209.07 41.119,208.747 C40.539,208.393 39.953,207.996 39.653,207.559 C39.087,206.735 38.723,205.868 38.277,205.018 C38.218,204.906 38.175,204.791 38.083,204.584 C37.365,204.889 36.673,205.139 36.078,205.446 C34.159,206.434 33.114,207.682 32.668,209.094 C32.494,209.646 32.338,210.201 32.166,210.754 C32.143,210.829 32.077,210.9 31.99,211.039 C31.861,210.921 31.756,210.863 31.731,210.796 C31.12,209.129 30.6,207.451 29.886,205.798 C29.388,204.644 28.627,203.524 27.983,202.389 C27.902,202.393 27.82,202.398 27.738,202.403 C27.618,202.787 27.514,203.173 27.374,203.555 C26.838,205.006 26.222,206.443 24.72,207.707 C23.959,208.347 22.95,208.789 21.56,208.947 C21.078,209.002 20.862,208.932 20.752,208.657 C20.072,206.961 18.356,205.64 15.858,204.609 C15.795,204.583 15.714,204.57 15.551,204.528 C15.551,205.09 15.572,205.616 15.547,206.141 C15.491,207.268 15.114,208.352 14.022,209.329 C13.248,209.986 12.263,210.586 10.938,210.922 L10.534,210.49 C12.858,209.856 13.912,208.606 14.489,207.287 C14.88,206.22 14.827,205.145 14.554,204.071 C14.519,203.933 14.49,203.795 14.433,203.547 C15.059,203.755 15.562,203.901 16.025,204.078 C18.594,205.064 20.389,206.37 21.366,208.016 C21.618,208.441 21.805,208.51 22.442,208.245 C23.128,207.961 23.782,207.609 24.243,207.213 C25.492,206.14 26.01,204.908 26.445,203.675 C26.736,202.851 26.908,202.015 27.135,201.184 C27.154,201.117 27.193,201.052 27.268,200.882 z" fill="#086608" fill-opacity="0.593"/>
        <path d="M27.268,200.882 C27.63,201.199 27.941,201.432 28.179,201.686 C29.489,203.087 30.235,204.592 30.824,206.124 C31.157,206.99 31.463,207.859 31.842,208.754 C32.829,206.586 34.857,204.877 38.739,203.903 C38.994,204.561 39.162,205.179 39.483,205.772 C39.856,206.46 40.34,207.13 40.826,207.797 C40.964,207.987 41.254,208.151 41.521,208.302 C41.912,208.522 42.345,208.55 42.852,208.372 C44.772,207.694 46.249,206.783 47.476,205.74 C48.876,204.55 49.915,203.267 50.69,201.917 C50.797,201.73 50.906,201.543 51.066,201.267 C53.854,203.297 56.245,205.336 57.092,207.802 C58.207,207.091 59.255,206.378 60.392,205.711 C61.524,205.046 62.85,204.504 64.265,204.029 C64.353,204.081 64.422,204.102 64.433,204.13 C65.042,205.622 66.418,206.92 67.786,208.223 C68.048,208.472 68.155,208.771 68.333,209.047 C68.25,209.074 68.166,209.101 68.082,209.128 C67.876,209.011 67.637,208.907 67.468,208.776 C66.045,207.669 64.934,206.471 64.058,205.206 C63.805,204.839 63.681,204.802 63.115,205.041 C61.197,205.853 59.492,206.778 58.196,207.916 C57.713,208.34 57.207,208.756 56.575,209.179 C56.368,206.569 54.158,204.451 51.444,202.353 C51.264,202.585 51.12,202.748 51.009,202.918 C49.944,204.548 48.476,206.061 46.353,207.341 C45.395,207.918 44.195,208.379 43.06,208.86 C42.478,209.106 41.649,209.07 41.119,208.747 C40.539,208.393 39.953,207.996 39.653,207.559 C39.087,206.735 38.723,205.868 38.277,205.018 C38.218,204.906 38.175,204.791 38.083,204.584 C37.365,204.889 36.673,205.139 36.078,205.446 C34.159,206.434 33.114,207.682 32.668,209.094 C32.494,209.646 32.338,210.201 32.166,210.754 C32.143,210.829 32.077,210.9 31.99,211.039 C31.861,210.921 31.756,210.863 31.731,210.796 C31.12,209.129 30.6,207.451 29.886,205.798 C29.388,204.644 28.627,203.524 27.983,202.389 C27.902,202.393 27.82,202.398 27.738,202.403 C27.618,202.787 27.514,203.173 27.374,203.555 C26.838,205.006 26.222,206.443 24.72,207.707 C23.959,208.347 22.95,208.789 21.56,208.947 C21.078,209.002 20.862,208.932 20.752,208.657 C20.072,206.961 18.356,205.64 15.858,204.609 C15.795,204.583 15.714,204.57 15.551,204.528 C15.551,205.09 15.572,205.616 15.547,206.141 C15.491,207.268 15.114,208.352 14.022,209.329 C13.248,209.986 12.263,210.586 10.938,210.922 L10.534,210.49 C12.858,209.856 13.912,208.606 14.489,207.287 C14.88,206.22 14.827,205.145 14.554,204.071 C14.519,203.933 14.49,203.795 14.433,203.547 C15.059,203.755 15.562,203.901 16.025,204.078 C18.594,205.064 20.389,206.37 21.366,208.016 C21.618,208.441 21.805,208.51 22.442,208.245 C23.128,207.961 23.782,207.609 24.243,207.213 C25.492,206.14 26.01,204.908 26.445,203.675 C26.736,202.851 26.908,202.015 27.135,201.184 C27.154,201.117 27.193,201.052 27.268,200.882 z" fill-opacity="0" stroke="#0DA50C" stroke-width="1" stroke-opacity="0.598"/>
      </g>
    </g>
    <g>
      <path d="M210.9,225.422 C210.976,225.58 211.025,225.666 211.058,225.754 C211.779,227.635 212.563,229.505 213.907,231.264 C214.401,231.909 214.956,232.538 215.885,233.001 C216.527,233.321 216.594,233.334 216.988,232.912 C218.174,231.643 219.562,230.466 221.137,229.37 C221.423,229.171 221.724,228.981 222.092,228.738 C222.502,229.77 222.305,229.313 222.667,230.113 C222.145,230.497 222.333,230.365 222.114,230.518 C222.018,230.267 222.09,230.459 221.91,229.94 C221.875,229.852 221.791,229.77 221.688,229.628 C220.959,230.176 220.233,230.659 219.629,231.193 C218.831,231.898 218.118,232.639 217.391,233.374 C216.955,233.814 216.743,233.84 216.01,233.59 C214.771,233.166 214.093,232.463 213.488,231.731 C212.434,230.455 211.734,229.098 211.135,227.721 C211.104,227.65 211.057,227.582 210.915,227.506 C210.713,227.999 210.547,228.5 210.302,228.986 C209.654,230.27 209.016,231.558 208.281,232.824 C208.009,233.292 207.493,233.71 207.057,234.139 C206.825,234.367 206.484,234.43 206.01,234.384 C203.918,234.18 202.655,233.35 201.889,232.246 C201.336,231.45 201.06,230.583 200.662,229.747 C200.628,229.676 200.606,229.603 200.579,229.531 C200.51,229.514 200.442,229.497 200.373,229.48 C198.924,231.182 197.475,232.884 195.941,234.686 C195.484,232.309 193.693,230.344 191.673,228.438 C191.223,229.571 190.888,230.692 190.32,231.766 C189.748,232.848 188.984,233.9 187.496,234.66 C187.442,234.652 187.387,234.644 187.333,234.636 C187.397,234.442 187.358,234.196 187.539,234.063 C188.968,233.011 189.713,231.768 190.191,230.468 C190.556,229.471 190.734,228.449 190.995,227.438 C191.011,227.375 191.026,227.312 191.068,227.146 C193.298,229.081 195.248,231.003 196.237,233.248 C197.816,231.516 199.37,229.812 200.924,228.108 C200.967,228.119 201.009,228.13 201.052,228.141 C201.179,228.712 201.276,229.286 201.441,229.853 C201.736,230.867 202.18,231.854 203.151,232.718 C203.808,233.304 204.645,233.742 205.813,233.915 C206.224,233.976 206.526,233.922 206.701,233.703 C207.25,233.017 207.867,232.346 208.289,231.631 C209.442,229.68 210.138,227.652 210.82,225.625 C210.834,225.583 210.852,225.542 210.9,225.422 z" fill="#0DA50C" fill-opacity="0.593"/>
      <path d="M210.9,225.422 C210.976,225.58 211.025,225.666 211.058,225.754 C211.779,227.635 212.563,229.505 213.907,231.264 C214.401,231.909 214.956,232.538 215.885,233.001 C216.527,233.321 216.594,233.334 216.988,232.912 C218.174,231.643 219.562,230.466 221.137,229.37 C221.423,229.171 221.724,228.981 222.092,228.738 C222.502,229.77 222.305,229.313 222.667,230.113 C222.145,230.497 222.333,230.365 222.114,230.518 C222.018,230.267 222.09,230.459 221.91,229.94 C221.875,229.852 221.791,229.77 221.688,229.628 C220.959,230.176 220.233,230.659 219.629,231.193 C218.831,231.898 218.118,232.639 217.391,233.374 C216.955,233.814 216.743,233.84 216.01,233.59 C214.771,233.166 214.093,232.463 213.488,231.731 C212.434,230.455 211.734,229.098 211.135,227.721 C211.104,227.65 211.057,227.582 210.915,227.506 C210.713,227.999 210.547,228.5 210.302,228.986 C209.654,230.27 209.016,231.558 208.281,232.824 C208.009,233.292 207.493,233.71 207.057,234.139 C206.825,234.367 206.484,234.43 206.01,234.384 C203.918,234.18 202.655,233.35 201.889,232.246 C201.336,231.45 201.06,230.583 200.662,229.747 C200.628,229.676 200.606,229.603 200.579,229.531 C200.51,229.514 200.442,229.497 200.373,229.48 C198.924,231.182 197.475,232.884 195.941,234.686 C195.484,232.309 193.693,230.344 191.673,228.438 C191.223,229.571 190.888,230.692 190.32,231.766 C189.748,232.848 188.984,233.9 187.496,234.66 C187.442,234.652 187.387,234.644 187.333,234.636 C187.397,234.442 187.358,234.196 187.539,234.063 C188.968,233.011 189.713,231.768 190.191,230.468 C190.556,229.471 190.734,228.449 190.995,227.438 C191.011,227.375 191.026,227.312 191.068,227.146 C193.298,229.081 195.248,231.003 196.237,233.248 C197.816,231.516 199.37,229.812 200.924,228.108 C200.967,228.119 201.009,228.13 201.052,228.141 C201.179,228.712 201.276,229.286 201.441,229.853 C201.736,230.867 202.18,231.854 203.151,232.718 C203.808,233.304 204.645,233.742 205.813,233.915 C206.224,233.976 206.526,233.922 206.701,233.703 C207.25,233.017 207.867,232.346 208.289,231.631 C209.442,229.68 210.138,227.652 210.82,225.625 C210.834,225.583 210.852,225.542 210.9,225.422 z" fill-opacity="0" stroke="#0DA50C" stroke-width="1" stroke-opacity="0.598"/>
    </g>
    <g>
      <path d="M244.596,257.755 C244.677,257.902 244.729,257.982 244.766,258.063 C245.541,259.809 246.383,261.544 247.83,263.177 C248.361,263.776 248.957,264.36 249.957,264.789 C250.647,265.086 250.719,265.098 251.143,264.706 C252.418,263.529 253.912,262.437 255.605,261.419 C255.912,261.235 256.236,261.058 256.632,260.832 C257.073,261.791 256.861,261.366 257.25,262.109 C256.689,262.465 256.892,262.342 256.656,262.485 C256.552,262.252 256.63,262.43 256.436,261.948 C256.399,261.866 256.309,261.791 256.197,261.658 C255.413,262.167 254.633,262.615 253.983,263.111 C253.125,263.765 252.358,264.453 251.576,265.135 C251.107,265.543 250.879,265.568 250.091,265.335 C248.758,264.942 248.03,264.29 247.379,263.61 C246.245,262.426 245.492,261.167 244.848,259.888 C244.814,259.823 244.764,259.76 244.612,259.689 C244.394,260.147 244.216,260.612 243.952,261.062 C243.256,262.255 242.569,263.45 241.779,264.625 C241.486,265.059 240.932,265.447 240.462,265.845 C240.212,266.057 239.845,266.115 239.336,266.072 C237.086,265.883 235.729,265.112 234.904,264.088 C234.309,263.35 234.012,262.545 233.584,261.769 C233.548,261.703 233.525,261.636 233.496,261.569 C233.422,261.553 233.347,261.537 233.273,261.522 C231.715,263.101 230.157,264.68 228.507,266.352 C228.016,264.147 226.09,262.324 223.917,260.555 C223.433,261.606 223.073,262.646 222.462,263.643 C221.847,264.647 221.025,265.623 219.425,266.329 C219.367,266.321 219.308,266.314 219.25,266.307 C219.318,266.127 219.276,265.898 219.472,265.774 C221.008,264.798 221.809,263.645 222.323,262.438 C222.716,261.513 222.907,260.564 223.188,259.626 C223.205,259.568 223.222,259.51 223.267,259.355 C225.665,261.151 227.762,262.935 228.825,265.018 C230.524,263.411 232.195,261.83 233.867,260.248 C233.913,260.258 233.958,260.268 234.004,260.278 C234.141,260.808 234.245,261.341 234.423,261.867 C234.74,262.809 235.218,263.725 236.261,264.527 C236.969,265.07 237.868,265.477 239.124,265.637 C239.567,265.694 239.891,265.644 240.08,265.44 C240.67,264.804 241.334,264.181 241.788,263.518 C243.027,261.707 243.775,259.825 244.509,257.943 C244.524,257.905 244.544,257.867 244.596,257.755 z" fill="#0DA50C" fill-opacity="0.593"/>
      <path d="M244.596,257.755 C244.677,257.902 244.729,257.982 244.766,258.063 C245.541,259.809 246.383,261.544 247.83,263.177 C248.361,263.776 248.957,264.36 249.957,264.789 C250.647,265.086 250.719,265.098 251.143,264.706 C252.418,263.529 253.912,262.437 255.605,261.419 C255.912,261.235 256.236,261.058 256.632,260.832 C257.073,261.791 256.861,261.366 257.25,262.109 C256.689,262.465 256.892,262.342 256.656,262.485 C256.552,262.252 256.63,262.43 256.436,261.948 C256.399,261.866 256.309,261.791 256.197,261.658 C255.413,262.167 254.633,262.615 253.983,263.111 C253.125,263.765 252.358,264.453 251.576,265.135 C251.107,265.543 250.879,265.568 250.091,265.335 C248.758,264.942 248.03,264.29 247.379,263.61 C246.245,262.426 245.492,261.167 244.848,259.888 C244.814,259.823 244.764,259.76 244.612,259.689 C244.394,260.147 244.216,260.612 243.952,261.062 C243.256,262.255 242.569,263.45 241.779,264.625 C241.486,265.059 240.932,265.447 240.462,265.845 C240.212,266.057 239.845,266.115 239.336,266.072 C237.086,265.883 235.729,265.112 234.904,264.088 C234.309,263.35 234.012,262.545 233.584,261.769 C233.548,261.703 233.525,261.636 233.496,261.569 C233.422,261.553 233.347,261.537 233.273,261.522 C231.715,263.101 230.157,264.68 228.507,266.352 C228.016,264.147 226.09,262.324 223.917,260.555 C223.433,261.606 223.073,262.646 222.462,263.643 C221.847,264.647 221.025,265.623 219.425,266.329 C219.367,266.321 219.308,266.314 219.25,266.307 C219.318,266.127 219.276,265.898 219.472,265.774 C221.008,264.798 221.809,263.645 222.323,262.438 C222.716,261.513 222.907,260.564 223.188,259.626 C223.205,259.568 223.222,259.51 223.267,259.355 C225.665,261.151 227.762,262.935 228.825,265.018 C230.524,263.411 232.195,261.83 233.867,260.248 C233.913,260.258 233.958,260.268 234.004,260.278 C234.141,260.808 234.245,261.341 234.423,261.867 C234.74,262.809 235.218,263.725 236.261,264.527 C236.969,265.07 237.868,265.477 239.124,265.637 C239.567,265.694 239.891,265.644 240.08,265.44 C240.67,264.804 241.334,264.181 241.788,263.518 C243.027,261.707 243.775,259.825 244.509,257.943 C244.524,257.905 244.544,257.867 244.596,257.755 z" fill-opacity="0" stroke="#0DA50C" stroke-width="1" stroke-opacity="0.598"/>
    </g>
    <g>
      <path d="M164.293,201.422 C164.392,201.535 164.455,201.596 164.499,201.658 C165.441,202.998 166.465,204.329 168.222,205.582 C168.867,206.042 169.592,206.49 170.806,206.82 C171.644,207.047 171.732,207.057 172.247,206.756 C173.797,205.852 175.611,205.014 177.668,204.234 C178.041,204.092 178.435,203.956 178.915,203.783 C179.452,204.519 179.194,204.193 179.667,204.763 C178.985,205.036 179.231,204.942 178.945,205.051 C178.819,204.872 178.914,205.009 178.678,204.639 C178.633,204.576 178.523,204.519 178.388,204.417 C177.435,204.808 176.487,205.151 175.698,205.532 C174.655,206.034 173.723,206.562 172.773,207.085 C172.204,207.398 171.927,207.417 170.97,207.239 C169.35,206.937 168.465,206.436 167.674,205.915 C166.297,205.006 165.381,204.04 164.599,203.059 C164.558,203.008 164.497,202.96 164.312,202.906 C164.048,203.257 163.832,203.614 163.511,203.96 C162.665,204.875 161.831,205.792 160.87,206.693 C160.515,207.027 159.841,207.324 159.271,207.63 C158.967,207.792 158.522,207.837 157.903,207.804 C155.169,207.659 153.52,207.068 152.518,206.281 C151.796,205.715 151.435,205.097 150.915,204.502 C150.871,204.452 150.843,204.4 150.807,204.348 C150.717,204.336 150.627,204.324 150.537,204.312 C148.644,205.524 146.751,206.736 144.747,208.019 C144.149,206.327 141.81,204.927 139.17,203.57 C138.582,204.376 138.144,205.175 137.402,205.94 C136.655,206.711 135.657,207.459 133.713,208.001 C133.642,207.995 133.571,207.99 133.5,207.984 C133.583,207.846 133.532,207.671 133.769,207.575 C135.635,206.826 136.609,205.941 137.233,205.015 C137.711,204.306 137.943,203.577 138.284,202.857 C138.305,202.813 138.325,202.768 138.38,202.65 C141.294,204.028 143.841,205.397 145.133,206.995 C147.197,205.762 149.227,204.549 151.258,203.335 C151.314,203.343 151.369,203.35 151.425,203.358 C151.591,203.765 151.718,204.174 151.933,204.577 C152.319,205.3 152.899,206.003 154.167,206.618 C155.026,207.035 156.119,207.347 157.646,207.47 C158.183,207.514 158.577,207.475 158.806,207.319 C159.523,206.831 160.33,206.353 160.881,205.844 C162.388,204.455 163.296,203.01 164.188,201.566 C164.206,201.537 164.23,201.508 164.293,201.422 z" fill="#0DA50C" fill-opacity="0.593"/>
      <path d="M164.293,201.422 C164.392,201.535 164.455,201.596 164.499,201.658 C165.441,202.998 166.465,204.329 168.222,205.582 C168.867,206.042 169.592,206.49 170.806,206.82 C171.644,207.047 171.732,207.057 172.247,206.756 C173.797,205.852 175.611,205.014 177.668,204.234 C178.041,204.092 178.435,203.956 178.915,203.783 C179.452,204.519 179.194,204.193 179.667,204.763 C178.985,205.036 179.231,204.942 178.945,205.051 C178.819,204.872 178.914,205.009 178.678,204.639 C178.633,204.576 178.523,204.519 178.388,204.417 C177.435,204.808 176.487,205.151 175.698,205.532 C174.655,206.034 173.723,206.562 172.773,207.085 C172.204,207.398 171.927,207.417 170.97,207.239 C169.35,206.937 168.465,206.436 167.674,205.915 C166.297,205.006 165.381,204.04 164.599,203.059 C164.558,203.008 164.497,202.96 164.312,202.906 C164.048,203.257 163.832,203.614 163.511,203.96 C162.665,204.875 161.831,205.792 160.87,206.693 C160.515,207.027 159.841,207.324 159.271,207.63 C158.967,207.792 158.522,207.837 157.903,207.804 C155.169,207.659 153.52,207.068 152.518,206.281 C151.796,205.715 151.435,205.097 150.915,204.502 C150.871,204.452 150.843,204.4 150.807,204.348 C150.717,204.336 150.627,204.324 150.537,204.312 C148.644,205.524 146.751,206.736 144.747,208.019 C144.149,206.327 141.81,204.927 139.17,203.57 C138.582,204.376 138.144,205.175 137.402,205.94 C136.655,206.711 135.657,207.459 133.713,208.001 C133.642,207.995 133.571,207.99 133.5,207.984 C133.583,207.846 133.532,207.671 133.769,207.575 C135.635,206.826 136.609,205.941 137.233,205.015 C137.711,204.306 137.943,203.577 138.284,202.857 C138.305,202.813 138.325,202.768 138.38,202.65 C141.294,204.028 143.841,205.397 145.133,206.995 C147.197,205.762 149.227,204.549 151.258,203.335 C151.314,203.343 151.369,203.35 151.425,203.358 C151.591,203.765 151.718,204.174 151.933,204.577 C152.319,205.3 152.899,206.003 154.167,206.618 C155.026,207.035 156.119,207.347 157.646,207.47 C158.183,207.514 158.577,207.475 158.806,207.319 C159.523,206.831 160.33,206.353 160.881,205.844 C162.388,204.455 163.296,203.01 164.188,201.566 C164.206,201.537 164.23,201.508 164.293,201.422 z" fill-opacity="0" stroke="#0DA50C" stroke-width="1" stroke-opacity="0.598"/>
    </g>
    <g>
      <path d="M116.407,224.672 C116.525,224.796 116.6,224.863 116.652,224.932 C117.77,226.407 118.987,227.873 121.073,229.252 C121.839,229.759 122.7,230.252 124.143,230.615 C125.138,230.866 125.242,230.876 125.855,230.545 C127.695,229.55 129.849,228.627 132.293,227.768 C132.736,227.612 133.203,227.463 133.774,227.272 C134.412,228.081 134.106,227.723 134.667,228.35 C133.857,228.652 134.15,228.548 133.81,228.668 C133.659,228.471 133.773,228.622 133.492,228.215 C133.438,228.145 133.308,228.081 133.148,227.97 C132.016,228.4 130.89,228.778 129.952,229.197 C128.715,229.75 127.607,230.331 126.479,230.907 C125.803,231.252 125.474,231.273 124.337,231.076 C122.413,230.744 121.362,230.193 120.423,229.619 C118.787,228.618 117.7,227.554 116.77,226.474 C116.722,226.419 116.649,226.366 116.43,226.306 C116.116,226.693 115.859,227.085 115.479,227.466 C114.473,228.474 113.483,229.483 112.342,230.476 C111.92,230.843 111.12,231.171 110.442,231.507 C110.082,231.686 109.552,231.735 108.818,231.699 C105.571,231.539 103.612,230.888 102.421,230.022 C101.564,229.399 101.135,228.718 100.517,228.063 C100.465,228.008 100.432,227.95 100.39,227.894 C100.283,227.881 100.176,227.868 100.069,227.854 C97.821,229.188 95.572,230.523 93.191,231.936 C92.482,230.072 89.703,228.532 86.567,227.037 C85.87,227.925 85.35,228.804 84.468,229.647 C83.581,230.495 82.395,231.319 80.086,231.916 C80.002,231.91 79.917,231.903 79.833,231.897 C79.931,231.745 79.871,231.552 80.153,231.447 C82.369,230.623 83.527,229.648 84.267,228.628 C84.835,227.847 85.11,227.045 85.515,226.253 C85.54,226.203 85.564,226.154 85.63,226.024 C89.09,227.541 92.116,229.048 93.65,230.809 C96.101,229.451 98.513,228.114 100.925,226.778 C100.991,226.787 101.057,226.795 101.123,226.804 C101.321,227.251 101.471,227.702 101.727,228.146 C102.185,228.942 102.874,229.715 104.38,230.393 C105.401,230.852 106.699,231.196 108.512,231.331 C109.15,231.379 109.618,231.337 109.89,231.165 C110.742,230.628 111.7,230.101 112.355,229.541 C114.144,228.011 115.223,226.421 116.282,224.831 C116.304,224.798 116.332,224.766 116.407,224.672 z" fill="#0DA50C" fill-opacity="0.593"/>
      <path d="M116.407,224.672 C116.525,224.796 116.6,224.863 116.652,224.932 C117.77,226.407 118.987,227.873 121.073,229.252 C121.839,229.759 122.7,230.252 124.143,230.615 C125.138,230.866 125.242,230.876 125.855,230.545 C127.695,229.55 129.849,228.627 132.293,227.768 C132.736,227.612 133.203,227.463 133.774,227.272 C134.412,228.081 134.106,227.723 134.667,228.35 C133.857,228.652 134.15,228.548 133.81,228.668 C133.659,228.471 133.773,228.622 133.492,228.215 C133.438,228.145 133.308,228.081 133.148,227.97 C132.016,228.4 130.89,228.778 129.952,229.197 C128.715,229.75 127.607,230.331 126.479,230.907 C125.803,231.252 125.474,231.273 124.337,231.076 C122.413,230.744 121.362,230.193 120.423,229.619 C118.787,228.618 117.7,227.554 116.77,226.474 C116.722,226.419 116.649,226.366 116.43,226.306 C116.116,226.693 115.859,227.085 115.479,227.466 C114.473,228.474 113.483,229.483 112.342,230.476 C111.92,230.843 111.12,231.171 110.442,231.507 C110.082,231.686 109.552,231.735 108.818,231.699 C105.571,231.539 103.612,230.888 102.421,230.022 C101.564,229.399 101.135,228.718 100.517,228.063 C100.465,228.008 100.432,227.95 100.39,227.894 C100.283,227.881 100.176,227.868 100.069,227.854 C97.821,229.188 95.572,230.523 93.191,231.936 C92.482,230.072 89.703,228.532 86.567,227.037 C85.87,227.925 85.35,228.804 84.468,229.647 C83.581,230.495 82.395,231.319 80.086,231.916 C80.002,231.91 79.917,231.903 79.833,231.897 C79.931,231.745 79.871,231.552 80.153,231.447 C82.369,230.623 83.527,229.648 84.267,228.628 C84.835,227.847 85.11,227.045 85.515,226.253 C85.54,226.203 85.564,226.154 85.63,226.024 C89.09,227.541 92.116,229.048 93.65,230.809 C96.101,229.451 98.513,228.114 100.925,226.778 C100.991,226.787 101.057,226.795 101.123,226.804 C101.321,227.251 101.471,227.702 101.727,228.146 C102.185,228.942 102.874,229.715 104.38,230.393 C105.401,230.852 106.699,231.196 108.512,231.331 C109.15,231.379 109.618,231.337 109.89,231.165 C110.742,230.628 111.7,230.101 112.355,229.541 C114.144,228.011 115.223,226.421 116.282,224.831 C116.304,224.798 116.332,224.766 116.407,224.672 z" fill-opacity="0" stroke="#0DA50C" stroke-width="1" stroke-opacity="0.598"/>
    </g>
    <g>
      <path d="M171.624,176.402 C171.711,176.47 171.766,176.506 171.804,176.543 C172.623,177.341 173.514,178.135 175.043,178.881 C175.604,179.155 176.235,179.422 177.291,179.619 C178.02,179.754 178.096,179.76 178.545,179.581 C179.893,179.042 181.471,178.543 183.261,178.078 C183.586,177.994 183.928,177.913 184.346,177.809 C184.813,178.248 184.589,178.053 185,178.393 C184.407,178.556 184.621,178.5 184.372,178.565 C184.262,178.458 184.345,178.54 184.14,178.32 C184.1,178.282 184.005,178.248 183.887,178.187 C183.059,178.42 182.234,178.625 181.547,178.851 C180.64,179.15 179.829,179.465 179.002,179.777 C178.507,179.963 178.266,179.974 177.433,179.868 C176.024,179.689 175.254,179.39 174.566,179.08 C173.368,178.538 172.571,177.962 171.891,177.378 C171.855,177.348 171.802,177.319 171.641,177.287 C171.412,177.496 171.223,177.709 170.944,177.915 C170.208,178.46 169.482,179.006 168.647,179.543 C168.338,179.742 167.751,179.919 167.255,180.101 C166.991,180.198 166.603,180.225 166.065,180.205 C163.687,180.119 162.252,179.766 161.38,179.298 C160.751,178.96 160.438,178.592 159.985,178.238 C159.947,178.208 159.922,178.177 159.892,178.146 C159.813,178.139 159.735,178.132 159.656,178.125 C158.009,178.847 156.363,179.569 154.618,180.333 C154.099,179.325 152.063,178.491 149.766,177.682 C149.255,178.163 148.874,178.639 148.229,179.095 C147.579,179.554 146.71,180 145.019,180.323 C144.957,180.319 144.895,180.316 144.833,180.312 C144.905,180.23 144.861,180.126 145.068,180.069 C146.691,179.623 147.539,179.095 148.081,178.544 C148.497,178.121 148.699,177.687 148.996,177.258 C149.014,177.231 149.032,177.205 149.079,177.134 C151.614,177.955 153.83,178.771 154.955,179.723 C156.75,178.989 158.517,178.265 160.283,177.542 C160.332,177.547 160.38,177.552 160.429,177.556 C160.574,177.798 160.684,178.042 160.871,178.283 C161.206,178.713 161.711,179.132 162.814,179.498 C163.562,179.747 164.513,179.933 165.841,180.006 C166.308,180.032 166.651,180.009 166.851,179.916 C167.475,179.625 168.176,179.34 168.656,179.037 C169.967,178.21 170.757,177.349 171.533,176.489 C171.549,176.471 171.57,176.454 171.624,176.402 z" fill="#0DA50C" fill-opacity="0.593"/>
      <path d="M171.624,176.402 C171.711,176.47 171.766,176.506 171.804,176.543 C172.623,177.341 173.514,178.135 175.043,178.881 C175.604,179.155 176.235,179.422 177.291,179.619 C178.02,179.754 178.096,179.76 178.545,179.581 C179.893,179.042 181.471,178.543 183.261,178.078 C183.586,177.994 183.928,177.913 184.346,177.809 C184.813,178.248 184.589,178.053 185,178.393 C184.407,178.556 184.621,178.5 184.372,178.565 C184.262,178.458 184.345,178.54 184.14,178.32 C184.1,178.282 184.005,178.248 183.887,178.187 C183.059,178.42 182.234,178.625 181.547,178.851 C180.64,179.15 179.829,179.465 179.002,179.777 C178.507,179.963 178.266,179.974 177.433,179.868 C176.024,179.689 175.254,179.39 174.566,179.08 C173.368,178.538 172.571,177.962 171.891,177.378 C171.855,177.348 171.802,177.319 171.641,177.287 C171.412,177.496 171.223,177.709 170.944,177.915 C170.208,178.46 169.482,179.006 168.647,179.543 C168.338,179.742 167.751,179.919 167.255,180.101 C166.991,180.198 166.603,180.225 166.065,180.205 C163.687,180.119 162.252,179.766 161.38,179.298 C160.751,178.96 160.438,178.592 159.985,178.238 C159.947,178.208 159.922,178.177 159.892,178.146 C159.813,178.139 159.735,178.132 159.656,178.125 C158.009,178.847 156.363,179.569 154.618,180.333 C154.099,179.325 152.063,178.491 149.766,177.682 C149.255,178.163 148.874,178.639 148.229,179.095 C147.579,179.554 146.71,180 145.019,180.323 C144.957,180.319 144.895,180.316 144.833,180.312 C144.905,180.23 144.861,180.126 145.068,180.069 C146.691,179.623 147.539,179.095 148.081,178.544 C148.497,178.121 148.699,177.687 148.996,177.258 C149.014,177.231 149.032,177.205 149.079,177.134 C151.614,177.955 153.83,178.771 154.955,179.723 C156.75,178.989 158.517,178.265 160.283,177.542 C160.332,177.547 160.38,177.552 160.429,177.556 C160.574,177.798 160.684,178.042 160.871,178.283 C161.206,178.713 161.711,179.132 162.814,179.498 C163.562,179.747 164.513,179.933 165.841,180.006 C166.308,180.032 166.651,180.009 166.851,179.916 C167.475,179.625 168.176,179.34 168.656,179.037 C169.967,178.21 170.757,177.349 171.533,176.489 C171.549,176.471 171.57,176.454 171.624,176.402 z" fill-opacity="0" stroke="#0DA50C" stroke-width="2" stroke-opacity="0.598"/>
    </g>
    <g>
      <path d="M62.951,172.842 C63.184,173.055 63.384,173.212 63.536,173.383 C64.378,174.324 64.857,175.335 65.236,176.364 C65.45,176.946 65.646,177.53 65.89,178.131 C66.524,176.675 67.826,175.527 70.32,174.872 C70.485,175.314 70.592,175.73 70.799,176.128 C71.038,176.59 71.349,177.04 71.661,177.488 C71.75,177.616 71.936,177.727 72.108,177.828 C72.359,177.976 72.637,177.994 72.963,177.875 C74.196,177.419 75.145,176.807 75.934,176.106 C76.833,175.307 77.5,174.445 77.998,173.538 C78.067,173.412 78.137,173.286 78.24,173.101 C80.031,174.465 81.567,175.835 82.111,177.492 C82.828,177.014 83.501,176.535 84.231,176.087 C84.959,175.64 85.81,175.276 86.719,174.957 C86.776,174.992 86.82,175.006 86.828,175.025 C87.219,176.027 88.103,176.899 88.982,177.775 C89.15,177.942 89.219,178.143 89.333,178.328 C89.28,178.346 89.226,178.364 89.172,178.382 C89.04,178.304 88.886,178.234 88.777,178.146 C87.863,177.403 87.149,176.598 86.587,175.748 C86.424,175.501 86.344,175.476 85.981,175.637 C84.748,176.182 83.654,176.804 82.821,177.568 C82.51,177.853 82.185,178.133 81.779,178.417 C81.646,176.663 80.226,175.24 78.483,173.831 C78.367,173.987 78.275,174.096 78.204,174.21 C77.519,175.306 76.576,176.322 75.212,177.182 C74.596,177.57 73.826,177.879 73.096,178.203 C72.723,178.368 72.19,178.344 71.849,178.126 C71.477,177.889 71.101,177.622 70.908,177.329 C70.544,176.775 70.31,176.192 70.024,175.621 C69.986,175.546 69.958,175.469 69.899,175.33 C69.438,175.535 68.993,175.703 68.611,175.909 C67.378,176.573 66.707,177.411 66.42,178.36 C66.308,178.731 66.208,179.103 66.098,179.475 C66.083,179.525 66.041,179.573 65.985,179.667 C65.902,179.587 65.834,179.548 65.818,179.503 C65.426,178.383 65.092,177.256 64.633,176.145 C64.313,175.37 63.824,174.617 63.411,173.855 C63.358,173.858 63.306,173.861 63.253,173.865 C63.176,174.123 63.109,174.382 63.019,174.638 C62.675,175.613 62.279,176.579 61.314,177.428 C60.825,177.858 60.177,178.155 59.284,178.261 C58.975,178.298 58.836,178.251 58.765,178.066 C58.328,176.927 57.225,176.039 55.621,175.347 C55.58,175.329 55.528,175.321 55.424,175.292 C55.424,175.67 55.437,176.023 55.421,176.376 C55.385,177.133 55.143,177.861 54.441,178.518 C53.944,178.959 53.311,179.362 52.46,179.588 L52.2,179.298 C53.693,178.872 54.371,178.032 54.741,177.146 C54.993,176.429 54.958,175.706 54.783,174.985 C54.76,174.892 54.742,174.8 54.705,174.633 C55.108,174.773 55.431,174.871 55.728,174.99 C57.379,175.652 58.532,176.53 59.159,177.635 C59.321,177.921 59.441,177.967 59.851,177.79 C60.291,177.599 60.712,177.362 61.008,177.096 C61.81,176.375 62.143,175.548 62.423,174.719 C62.61,174.166 62.72,173.604 62.866,173.046 C62.878,173.001 62.903,172.957 62.951,172.842 z" fill="#086608" fill-opacity="0.593"/>
      <path d="M62.951,172.842 C63.184,173.055 63.384,173.212 63.536,173.383 C64.378,174.324 64.857,175.335 65.236,176.364 C65.45,176.946 65.646,177.53 65.89,178.131 C66.524,176.675 67.826,175.527 70.32,174.872 C70.485,175.314 70.592,175.73 70.799,176.128 C71.038,176.59 71.349,177.04 71.661,177.488 C71.75,177.616 71.936,177.727 72.108,177.828 C72.359,177.976 72.637,177.994 72.963,177.875 C74.196,177.419 75.145,176.807 75.934,176.106 C76.833,175.307 77.5,174.445 77.998,173.538 C78.067,173.412 78.137,173.286 78.24,173.101 C80.031,174.465 81.567,175.835 82.111,177.492 C82.828,177.014 83.501,176.535 84.231,176.087 C84.959,175.64 85.81,175.276 86.719,174.957 C86.776,174.992 86.82,175.006 86.828,175.025 C87.219,176.027 88.103,176.899 88.982,177.775 C89.15,177.942 89.219,178.143 89.333,178.328 C89.28,178.346 89.226,178.364 89.172,178.382 C89.04,178.304 88.886,178.234 88.777,178.146 C87.863,177.403 87.149,176.598 86.587,175.748 C86.424,175.501 86.344,175.476 85.981,175.637 C84.748,176.182 83.654,176.804 82.821,177.568 C82.51,177.853 82.185,178.133 81.779,178.417 C81.646,176.663 80.226,175.24 78.483,173.831 C78.367,173.987 78.275,174.096 78.204,174.21 C77.519,175.306 76.576,176.322 75.212,177.182 C74.596,177.57 73.826,177.879 73.096,178.203 C72.723,178.368 72.19,178.344 71.849,178.126 C71.477,177.889 71.101,177.622 70.908,177.329 C70.544,176.775 70.31,176.192 70.024,175.621 C69.986,175.546 69.958,175.469 69.899,175.33 C69.438,175.535 68.993,175.703 68.611,175.909 C67.378,176.573 66.707,177.411 66.42,178.36 C66.308,178.731 66.208,179.103 66.098,179.475 C66.083,179.525 66.041,179.573 65.985,179.667 C65.902,179.587 65.834,179.548 65.818,179.503 C65.426,178.383 65.092,177.256 64.633,176.145 C64.313,175.37 63.824,174.617 63.411,173.855 C63.358,173.858 63.306,173.861 63.253,173.865 C63.176,174.123 63.109,174.382 63.019,174.638 C62.675,175.613 62.279,176.579 61.314,177.428 C60.825,177.858 60.177,178.155 59.284,178.261 C58.975,178.298 58.836,178.251 58.765,178.066 C58.328,176.927 57.225,176.039 55.621,175.347 C55.58,175.329 55.528,175.321 55.424,175.292 C55.424,175.67 55.437,176.023 55.421,176.376 C55.385,177.133 55.143,177.861 54.441,178.518 C53.944,178.959 53.311,179.362 52.46,179.588 L52.2,179.298 C53.693,178.872 54.371,178.032 54.741,177.146 C54.993,176.429 54.958,175.706 54.783,174.985 C54.76,174.892 54.742,174.8 54.705,174.633 C55.108,174.773 55.431,174.871 55.728,174.99 C57.379,175.652 58.532,176.53 59.159,177.635 C59.321,177.921 59.441,177.967 59.851,177.79 C60.291,177.599 60.712,177.362 61.008,177.096 C61.81,176.375 62.143,175.548 62.423,174.719 C62.61,174.166 62.72,173.604 62.866,173.046 C62.878,173.001 62.903,172.957 62.951,172.842 z" fill-opacity="0" stroke="#0DA50C" stroke-width="1" stroke-opacity="0.598"/>
    </g>
    <g>
      <path d="M22.503,284.125 C23.107,284.649 23.429,285.181 23.73,285.728 C24.855,287.779 25.033,289.956 25.606,292.08 C25.728,292.53 25.906,292.974 26.074,293.418 C26.183,293.705 26.508,293.748 26.767,293.565 C27.133,293.306 27.547,293.017 27.696,292.69 C28.117,291.766 28.455,290.823 28.745,289.875 C28.935,289.254 28.984,288.612 29.117,287.862 C32.376,290.165 34.079,292.935 35.685,295.773 C35.923,292.137 37.019,288.641 39.181,285.282 C39.198,285.409 39.223,285.537 39.232,285.664 C39.374,287.71 39.564,289.756 40.26,291.754 C40.541,292.563 41.017,293.348 41.51,294.112 C41.824,294.599 42.327,294.788 42.941,294.847 C43.662,293.262 45.126,291.994 46.889,290.707 C46.917,290.991 46.933,291.166 46.951,291.34 C47.045,292.275 47.23,293.202 47.906,294.035 C48.179,294.372 48.548,294.701 48.984,294.942 C49.536,295.245 50.263,295.384 50.959,295.229 L51.333,295.72 L51.163,295.773 C50.094,296.036 48.529,295.618 47.743,294.892 C47.003,294.207 46.662,293.419 46.406,292.607 C46.35,292.428 46.293,292.249 46.216,292.003 C45.101,292.992 43.997,293.919 43.76,295.157 C43.706,295.437 43.523,295.501 43.149,295.489 C41.894,295.448 41.206,294.877 40.69,294.217 C39.64,292.874 39.289,291.393 38.999,289.907 C38.869,289.236 38.756,288.563 38.633,287.88 C38.245,288.189 37.445,290.167 37.239,291.264 C37.019,292.433 36.71,293.596 36.575,294.768 C36.439,295.945 36.469,297.13 36.427,298.311 C36.362,298.319 36.297,298.326 36.231,298.333 C36.16,298.238 36.074,298.146 36.019,298.046 C35.366,296.854 34.748,295.653 34.057,294.471 C33.603,293.695 33.104,292.925 32.519,292.191 C31.78,291.262 30.934,290.372 30.131,289.468 C30.052,289.378 29.95,289.298 29.848,289.219 C29.816,289.195 29.748,289.193 29.646,289.168 C29.513,289.787 29.41,290.394 29.246,290.993 C28.998,291.899 28.665,292.793 27.894,293.57 C27.677,293.789 27.359,294.018 27.011,294.111 C26.014,294.376 25.568,294.293 25.39,293.667 C25.073,292.549 24.766,291.43 24.446,290.312 C24.088,289.064 23.73,287.817 23.348,286.572 C23.276,286.337 23.094,286.116 22.894,285.891 C21.794,289.881 20.631,293.844 17.886,297.634 C17.79,297.426 17.73,297.33 17.702,297.23 C17.217,295.49 16.671,293.759 15.717,292.104 C15.003,290.868 14.111,289.691 12.936,288.622 C12.871,288.562 12.787,288.511 12.637,288.403 C12.544,288.581 12.47,288.707 12.412,288.836 C11.689,290.438 11.004,292.048 10.226,293.638 C10.007,294.085 9.586,294.51 9.132,294.874 C8.407,295.454 7.378,295.479 6.581,294.952 C6.105,294.637 5.675,294.267 5.35,293.874 C4.105,292.377 3.403,290.715 2.698,289.075 C3.201,288.684 2.988,288.855 3.344,288.565 C4.756,291.471 4.006,289.981 5.6,293.034 C5.884,293.547 6.408,294.021 6.944,294.442 C7.547,294.916 8.214,294.884 8.727,294.364 C9.184,293.9 9.609,293.393 9.848,292.863 C10.598,291.196 11.254,289.51 11.944,287.83 C12.01,287.67 12.06,287.507 12.153,287.242 C15.681,289.685 17.017,292.717 18.174,295.835 C20.49,292.106 21.508,288.164 22.503,284.125 z" fill="#086608" fill-opacity="0.593"/>
      <path d="M22.503,284.125 C23.107,284.649 23.429,285.181 23.73,285.728 C24.855,287.779 25.033,289.956 25.606,292.08 C25.728,292.53 25.906,292.974 26.074,293.418 C26.183,293.705 26.508,293.748 26.767,293.565 C27.133,293.306 27.547,293.017 27.696,292.69 C28.117,291.766 28.455,290.823 28.745,289.875 C28.935,289.254 28.984,288.612 29.117,287.862 C32.376,290.165 34.079,292.935 35.685,295.773 C35.923,292.137 37.019,288.641 39.181,285.282 C39.198,285.409 39.223,285.537 39.232,285.664 C39.374,287.71 39.564,289.756 40.26,291.754 C40.541,292.563 41.017,293.348 41.51,294.112 C41.824,294.599 42.327,294.788 42.941,294.847 C43.662,293.262 45.126,291.994 46.889,290.707 C46.917,290.991 46.933,291.166 46.951,291.34 C47.045,292.275 47.23,293.202 47.906,294.035 C48.179,294.372 48.548,294.701 48.984,294.942 C49.536,295.245 50.263,295.384 50.959,295.229 L51.333,295.72 L51.163,295.773 C50.094,296.036 48.529,295.618 47.743,294.892 C47.003,294.207 46.662,293.419 46.406,292.607 C46.35,292.428 46.293,292.249 46.216,292.003 C45.101,292.992 43.997,293.919 43.76,295.157 C43.706,295.437 43.523,295.501 43.149,295.489 C41.894,295.448 41.206,294.877 40.69,294.217 C39.64,292.874 39.289,291.393 38.999,289.907 C38.869,289.236 38.756,288.563 38.633,287.88 C38.245,288.189 37.445,290.167 37.239,291.264 C37.019,292.433 36.71,293.596 36.575,294.768 C36.439,295.945 36.469,297.13 36.427,298.311 C36.362,298.319 36.297,298.326 36.231,298.333 C36.16,298.238 36.074,298.146 36.019,298.046 C35.366,296.854 34.748,295.653 34.057,294.471 C33.603,293.695 33.104,292.925 32.519,292.191 C31.78,291.262 30.934,290.372 30.131,289.468 C30.052,289.378 29.95,289.298 29.848,289.219 C29.816,289.195 29.748,289.193 29.646,289.168 C29.513,289.787 29.41,290.394 29.246,290.993 C28.998,291.899 28.665,292.793 27.894,293.57 C27.677,293.789 27.359,294.018 27.011,294.111 C26.014,294.376 25.568,294.293 25.39,293.667 C25.073,292.549 24.766,291.43 24.446,290.312 C24.088,289.064 23.73,287.817 23.348,286.572 C23.276,286.337 23.094,286.116 22.894,285.891 C21.794,289.881 20.631,293.844 17.886,297.634 C17.79,297.426 17.73,297.33 17.702,297.23 C17.217,295.49 16.671,293.759 15.717,292.104 C15.003,290.868 14.111,289.691 12.936,288.622 C12.871,288.562 12.787,288.511 12.637,288.403 C12.544,288.581 12.47,288.707 12.412,288.836 C11.689,290.438 11.004,292.048 10.226,293.638 C10.007,294.085 9.586,294.51 9.132,294.874 C8.407,295.454 7.378,295.479 6.581,294.952 C6.105,294.637 5.675,294.267 5.35,293.874 C4.105,292.377 3.403,290.715 2.698,289.075 C3.201,288.684 2.988,288.855 3.344,288.565 C4.756,291.471 4.006,289.981 5.6,293.034 C5.884,293.547 6.408,294.021 6.944,294.442 C7.547,294.916 8.214,294.884 8.727,294.364 C9.184,293.9 9.609,293.393 9.848,292.863 C10.598,291.196 11.254,289.51 11.944,287.83 C12.01,287.67 12.06,287.507 12.153,287.242 C15.681,289.685 17.017,292.717 18.174,295.835 C20.49,292.106 21.508,288.164 22.503,284.125 z" fill-opacity="0" stroke="#0DA50C" stroke-width="1" stroke-opacity="0.598"/>
    </g>
    <g>
      <path d="M79.61,30.326 C84.455,30.573 88.508,32.486 91.983,35.789 C93.606,37.575 94.686,39.689 95.122,41.935 C95.303,42.809 95.593,43.301 96.896,43.205 C106.52,42.447 113.38,47.72 113.914,56.133 C113.914,56.304 113.969,56.468 114,56.639 C113.082,62.785 109.353,67.449 101.912,68.808 C100.987,68.868 100.253,69.512 100.193,70.318 C98.67,77.557 91.386,82.33 82.768,81.982 C79.508,81.842 76.375,80.839 73.788,79.107 C73.023,78.489 71.898,78.348 70.962,78.752 C62.886,81.6 55.146,81.115 47.964,76.628 C46.099,75.466 44.619,73.897 43.67,72.08 C43.25,71.047 42.073,70.399 40.821,70.509 C33.074,70.454 27.477,67.32 23.835,61.399 L23.49,60.852 C23.543,60.448 23.435,60.041 23.184,59.698 C23.281,59.47 23.217,59.214 23.019,59.042 C22.956,58.469 22.901,57.895 22.838,57.328 C22.838,56.966 22.784,56.611 22.76,56.249 Q23.333,53.907 23.93,51.551 C24.244,51.441 24.291,51.223 24.244,50.963 C24.361,50.806 24.487,50.656 24.612,50.499 C29.455,44.858 35.884,42.338 43.961,43.103 C44.813,43.183 45.651,42.866 46.167,42.27 C50.444,38.172 55.703,36.888 61.794,38.37 C63.168,38.698 63.647,38.152 64.243,37.305 C66.984,33.562 71.103,31.25 75.671,30.54 C76.971,30.339 78.297,30.398 79.61,30.326 z" clip-path="url(#Clip_3)" filter="url(#Shadow_4)" fill="rgba(0,0,0,1)"/>
      <path d="M23.019,59.042 C22.956,58.469 22.901,57.895 22.838,57.328 C22.838,56.966 22.784,56.611 22.76,56.249 Q23.333,53.907 23.93,51.551 C24.244,51.441 24.291,51.223 24.244,50.963 C24.361,50.806 24.487,50.656 24.612,50.499 C29.455,44.858 35.884,42.338 43.961,43.103 C44.813,43.183 45.651,42.866 46.167,42.27 C50.444,38.172 55.703,36.888 61.794,38.37 C63.168,38.698 63.647,38.152 64.243,37.305 C70.295,28.652 84.652,27.88 91.983,35.789 C93.606,37.575 94.686,39.689 95.122,41.935 C95.303,42.809 95.593,43.301 96.896,43.205 C106.52,42.447 113.38,47.72 113.914,56.133 C113.914,56.304 113.969,56.468 114,56.639 C113.082,62.785 109.353,67.449 101.912,68.808 C100.987,68.868 100.253,69.512 100.193,70.318 C98.67,77.557 91.386,82.33 82.768,81.982 C79.508,81.842 76.375,80.839 73.788,79.107 C73.023,78.489 71.898,78.348 70.962,78.752 C62.886,81.6 55.146,81.115 47.964,76.628 C46.099,75.466 44.619,73.897 43.67,72.08 C43.25,71.047 42.073,70.399 40.821,70.509 C33.074,70.454 27.477,67.32 23.835,61.399 L23.49,60.852 C23.543,60.448 23.435,60.041 23.184,59.698 C23.281,59.47 23.217,59.214 23.019,59.042 z" fill="#FFFFFF"/>
    </g>
    <g>
      <path d="M212.501,83.331 C220.389,83.3 226.505,85.737 231.492,91.929 C232.229,92.973 232.821,93.646 234.519,93.242 C242.047,91.416 248.546,92.998 253.833,98.047 C254.469,98.782 255.505,99.172 256.559,99.073 C266.541,98.131 274.485,101.236 280.471,108.186 C280.626,108.38 280.781,108.565 280.927,108.759 C280.868,109.078 280.927,109.348 281.315,109.482 Q282.052,112.385 282.76,115.271 C282.731,115.718 282.663,116.155 282.663,116.601 C282.585,117.3 282.518,118.006 282.44,118.713 C282.196,118.925 282.116,119.24 282.236,119.521 C281.925,119.943 281.792,120.445 281.858,120.943 L281.431,121.616 C276.93,128.912 270.013,132.774 260.439,132.841 C258.891,132.706 257.437,133.505 256.918,134.777 C255.746,137.016 253.916,138.949 251.611,140.381 C242.735,145.909 233.17,146.507 223.189,142.998 C222.033,142.5 220.642,142.674 219.696,143.435 C216.5,145.57 212.628,146.806 208.599,146.978 C197.947,147.407 188.945,141.525 187.063,132.606 C186.989,131.613 186.083,130.82 184.939,130.746 C175.743,129.072 171.135,123.324 170,115.751 C170.039,115.541 170.107,115.339 170.107,115.129 C170.766,104.762 179.245,98.266 191.138,99.2 C192.748,99.317 193.107,98.712 193.33,97.634 C193.869,94.867 195.204,92.263 197.21,90.061 C202.337,84.998 205.695,84.315 212.501,83.331 z" clip-path="url(#Clip_5)" filter="url(#Shadow_6)" fill="rgba(0,0,0,1)"/>
      <path d="M282.44,118.713 C282.518,118.006 282.585,117.3 282.663,116.601 C282.663,116.155 282.731,115.718 282.76,115.272 Q282.052,112.385 281.315,109.482 C280.927,109.348 280.868,109.078 280.927,108.759 C280.781,108.565 280.626,108.38 280.471,108.186 C274.485,101.236 266.541,98.131 256.559,99.073 C255.505,99.172 254.469,98.782 253.833,98.047 C248.546,92.998 242.047,91.416 234.519,93.242 C232.821,93.646 232.229,92.973 231.492,91.929 C224.013,81.268 206.271,80.317 197.21,90.061 C195.204,92.263 193.869,94.867 193.33,97.634 C193.107,98.712 192.748,99.317 191.138,99.2 C179.245,98.266 170.766,104.762 170.107,115.129 C170.107,115.339 170.039,115.541 170,115.751 C171.135,123.324 175.743,129.072 184.939,130.746 C186.083,130.82 186.989,131.613 187.063,132.606 C188.945,141.525 197.947,147.407 208.599,146.978 C212.628,146.806 216.5,145.57 219.696,143.435 C220.642,142.674 222.033,142.5 223.189,142.998 C233.17,146.507 242.735,145.909 251.611,140.381 C253.916,138.949 255.746,137.016 256.918,134.777 C257.437,133.505 258.891,132.706 260.439,132.841 C270.013,132.774 276.93,128.912 281.431,121.616 L281.858,120.943 C281.792,120.445 281.925,119.943 282.236,119.521 C282.116,119.24 282.196,118.925 282.44,118.713 z" fill="#FFFFFF"/>
    </g>
  </g>
</svg>
