<?xml version="1.0" encoding="UTF-8"?>
<!DOCTYPE svg PUBLIC "-//W3C//DTD SVG 1.1//EN" "http://www.w3.org/Graphics/SVG/1.1/DTD/svg11.dtd">
<svg version="1.1" xmlns="http://www.w3.org/2000/svg" xmlns:xlink="http://www.w3.org/1999/xlink" x="0" y="0" width="300" height="300" viewBox="0, 0, 300, 300">
  <defs>
    <clipPath id="Clip_1">
      <path d="M6.005,12.568 L46.284,12.568 L46.284,54.412 L6.005,54.412 z"/>
    </clipPath>
    <clipPath id="Clip_2">
      <path d="M232.951,58.964 L288.287,58.964 L288.287,108.07 L232.951,108.07 z"/>
    </clipPath>
    <clipPath id="Clip_3">
      <path d="M12.087,248.904 L59.594,248.904 L59.594,297.536 L12.087,297.536 z"/>
    </clipPath>
    <clipPath id="Clip_4">
      <path d="M12.087,248.904 L59.594,248.904 L59.594,297.536 L12.087,297.536 z"/>
    </clipPath>
  </defs>
  <g id="Layer_1" opacity="0.487">
    <g>
      <path d="M200.737,273.948 C203.84,273.927 206.168,275.335 208.314,277.179 C209.3,278.107 210.172,279.326 211.057,280.481 C215.39,286.139 221.239,286.012 225.422,280.138 C231.288,271.901 239.184,271.87 245.006,280.061 C249.076,285.787 254.629,286.178 259.014,281.045 C259.964,279.932 260.982,278.099 262.101,280.313 C263.175,282.437 261.804,283.661 260.873,284.756 C255.529,291.038 248.103,290.582 243.083,283.723 C237.956,276.716 232.556,276.721 227.4,283.736 C222.035,291.035 214.264,291.037 208.768,283.631 C207.021,281.276 205.173,279.4 202.808,278.81 C199.353,277.948 196.353,279.35 193.792,282.855 C187.558,291.386 180.148,291.407 173.99,282.868 C169.808,277.07 163.816,277.103 159.479,282.949 C157.272,285.945 154.438,288.844 150.117,289.061 C148.603,287.608 149.456,288.432 147.564,286.583 C147.52,286.54 146.171,285.216 145.779,284.831 C141.973,281.128 138.175,277.396 133.922,274.088 C137.632,274.78 140.012,277.152 142.099,279.792 C146.737,286.204 152.308,286.279 157.046,279.995 C163.227,271.796 170.512,271.891 176.614,280.25 C180.972,286.217 186.896,286.089 191.365,279.928 C193.146,277.562 195.391,275.232 198.54,274.307 C199.247,274.1 200.005,274.067 200.737,273.948 z" fill="#009EFF"/>
    </g>
    <g>
      <path d="M202.251,245.313 C206.007,245.65 208.569,247.083 210.771,248.906 C211.681,249.741 212.217,250.699 211.27,251.71 C210.38,252.661 209.448,252.15 208.566,251.413 C203.603,247.266 197.624,247.549 192.797,252.122 C187.912,256.751 180.965,257.636 175.216,254.291 C174.14,253.666 173.167,252.833 172.228,252.004 C167.338,247.686 161.022,247.786 156.298,252.289 C150.315,257.992 141.822,258.106 135.705,252.563 C130.696,248.024 124.73,248.026 119.698,252.565 C113.133,258.488 105.332,258.491 98.742,252.575 C94.037,248.352 87.694,248.501 82.949,252.95 C77.693,257.878 70.736,258.721 64.818,255.082 C63.756,254.428 62.814,253.565 61.859,252.748 C57.182,248.745 50.92,248.894 46.479,253.134 C44.298,255.024 41.142,257.533 37.001,257.582 C35.681,256.555 34.69,255.417 33.986,254.179 C38.467,255.185 41.983,252.618 44.338,250.582 C50.035,245.31 58.355,245.233 64.29,250.474 C66.176,252.14 68.167,253.463 70.703,253.862 C74.409,254.444 77.611,253.412 80.331,250.881 C86.95,244.721 94.885,244.633 101.535,250.677 C106.052,254.782 112.467,254.699 117.074,250.477 C120.634,247.215 123.463,246.009 128.421,245.957 C131.427,245.948 134.723,247.165 137.526,249.699 C143.081,254.72 148.931,254.652 154.454,249.506 C160.024,244.319 168.625,244.278 174.274,249.414 C179.677,254.326 185.571,254.287 190.919,249.307 C192.997,247.432 195.854,245.773 199.566,245.366 C200.449,245.27 201.356,245.331 202.251,245.313 z" fill="#009EFF"/>
    </g>
    <g>
      <path d="M138.564,206.112 C140.992,206.408 142.81,207.711 144.385,209.497 C145.004,210.276 145.366,211.164 144.711,212.091 C144.096,212.962 143.46,212.482 142.859,211.794 C139.48,207.926 135.38,208.14 132.045,212.324 C128.67,216.559 123.903,217.321 119.981,214.187 C119.247,213.601 118.584,212.824 117.945,212.051 C114.617,208.026 110.286,208.067 107.023,212.187 C102.89,217.406 97.067,217.443 92.904,212.277 C89.496,208.046 85.406,208 81.931,212.151 C77.397,217.567 72.049,217.508 67.565,211.994 C64.363,208.057 60.013,208.145 56.736,212.214 C53.105,216.722 48.331,217.445 44.294,214.038 C43.57,213.426 42.929,212.622 42.279,211.86 C39.095,208.127 34.801,208.214 31.733,212.094 C27.968,216.738 22.322,217.912 18.1,213.018 C17.99,212.841 18.054,212.944 17.907,212.709 C16.659,210.667 15.355,208.654 14.221,206.545 C16.092,207.002 17.524,208.342 18.766,209.737 C22.533,214.36 26.498,214.354 30.28,209.72 C34.215,204.899 39.919,204.893 43.958,209.779 C45.242,211.333 46.599,212.571 48.336,212.959 C50.873,213.525 53.074,212.599 54.953,210.283 C59.525,204.648 64.965,204.631 69.49,210.264 C72.563,214.089 76.962,214.064 80.143,210.202 C82.602,207.219 84.548,206.128 87.947,206.12 C90.008,206.135 92.261,207.285 94.169,209.647 C97.948,214.327 101.959,214.31 105.775,209.604 C109.622,204.858 115.518,204.89 119.362,209.676 C123.038,214.254 127.08,214.265 130.773,209.71 C132.293,207.881 134.32,206.466 136.723,206.14 C137.332,206.058 137.951,206.121 138.564,206.112 z" fill="#009EFF"/>
    </g>
    <g>
      <path d="M245.412,147.353 C248.053,147.362 249.886,148.523 251.566,149.955 C252.368,150.702 253.076,151.683 253.794,152.613 C257.314,157.168 262.064,157.066 265.462,152.337 C270.227,145.706 276.64,145.681 281.369,152.275 C284.674,156.884 289.185,157.2 292.746,153.067 C293.518,152.171 294.344,150.696 295.253,152.478 C296.126,154.188 295.012,155.173 294.256,156.055 C289.915,161.112 283.884,160.745 279.807,155.223 C275.643,149.582 271.256,149.586 267.068,155.233 C262.711,161.11 256.4,161.111 251.935,155.149 C250.516,153.253 249.015,151.743 247.094,151.268 C244.288,150.574 241.852,151.702 239.772,154.524 C234.708,161.393 228.69,161.409 223.688,154.535 C220.291,149.867 215.424,149.894 211.901,154.6 C209.179,158.237 207.025,159.565 203.264,159.572 C200.984,159.551 198.492,158.147 196.384,155.264 C192.206,149.554 187.768,149.571 183.544,155.307 C179.283,161.09 172.76,161.047 168.511,155.206 C164.447,149.62 159.976,149.602 155.886,155.155 C151.601,160.972 144.909,161.073 140.826,155.401 C140.142,154.451 139.742,153.367 140.467,152.238 C141.149,151.177 141.852,151.763 142.516,152.602 C146.252,157.322 150.788,157.065 154.481,151.966 C158.218,146.804 163.494,145.879 167.83,149.705 C168.642,150.42 169.374,151.367 170.081,152.311 C173.759,157.223 178.551,157.177 182.164,152.155 C186.742,145.795 193.184,145.754 197.785,152.059 C201.552,157.221 206.078,157.281 209.925,152.222 C214.946,145.621 220.863,145.698 225.819,152.427 C229.359,157.231 234.171,157.128 237.8,152.168 C239.202,150.352 240.935,148.426 243.628,147.643 C244.196,147.477 244.818,147.45 245.412,147.353 z" fill="#009EFF"/>
    </g>
    <path d="M126.157,117.128 L127.665,117.169 C131.434,117.802 134.394,119.467 136.792,121.792 C134.218,124.261 135.113,123.355 134.027,124.461 C128.471,119.324 122.255,120.67 117.324,125.412 C111.491,131.501 103.825,132.478 97.343,127.877 C96.179,127.051 95.15,125.965 94.107,124.937 C88.994,119.896 82.098,120.014 77.17,125.255 C70.259,132.603 60.951,132.638 54.081,125.341 C49.278,120.239 42.731,119.895 37.565,124.476 C36.446,125.469 35.247,127.103 33.926,125.131 C32.659,123.238 34.274,122.146 35.371,121.169 C41.667,115.563 50.423,115.963 56.345,122.074 C62.395,128.316 68.762,128.307 74.836,122.049 C81.157,115.536 90.318,115.528 96.803,122.126 C98.864,124.224 101.044,125.895 103.833,126.419 C107.907,127.184 111.443,125.932 114.46,122.804 C117.037,120.229 120.307,117.699 124.659,117.174 L126.157,117.128 z" fill="#009EFF"/>
    <path d="M247.845,106.432 C252.256,106.133 255.528,107.961 258.209,110.606 C263.154,115.975 268.59,115.988 273.56,110.644 C275.551,108.561 278.246,106.85 281.564,106.457 L281.852,106.446 L282.076,107.116 C282.771,108.874 282.376,107.951 283.281,109.88 C279.77,109.8 277.326,111.623 275.27,113.71 C270.73,118.677 264.316,119.572 259.041,115.896 C258.054,115.209 257.162,114.299 256.302,113.392 C251.826,108.671 246.001,108.72 241.61,113.553 C236.05,119.674 228.216,119.718 222.618,113.66 C218.033,108.699 212.531,108.645 207.857,113.514 C201.757,119.866 194.563,119.798 188.531,113.331 L188.492,113.293 C189.47,112.26 188.721,113.044 190.798,110.977 L191.121,111.302 C195.255,115.788 201.172,115.758 205.452,111.228 C208.76,107.729 211.378,106.45 215.951,106.44 C218.723,106.457 221.753,107.806 224.319,110.576 C229.403,116.063 234.799,116.044 239.931,110.523 C242.52,107.902 243.948,107.258 247.845,106.432 z" fill="#009EFF"/>
    <g>
      <path d="M118.078,43.767 C120.729,43.754 122.718,44.722 124.551,45.991 C125.393,46.629 126.138,47.468 126.894,48.263 C130.596,52.156 135.592,52.069 139.165,48.027 C144.177,42.359 150.921,42.338 155.895,47.974 C159.372,51.914 164.115,52.183 167.861,48.651 C168.673,47.885 169.542,46.624 170.498,48.147 C171.415,49.609 170.244,50.451 169.449,51.204 C164.884,55.527 158.54,55.213 154.253,50.494 C149.873,45.672 145.259,45.676 140.855,50.502 C136.272,55.525 129.634,55.526 124.939,50.43 C123.446,48.81 121.867,47.519 119.847,47.113 C116.896,46.52 114.333,47.484 112.145,49.896 C106.82,55.767 100.49,55.781 95.23,49.906 C91.657,45.916 86.539,45.939 82.833,49.961 C79.97,53.069 77.704,54.205 73.749,54.211 C71.351,54.193 68.73,52.993 66.513,50.529 C62.119,45.649 57.451,45.663 53.008,50.565 C48.527,55.509 41.666,55.472 37.198,50.479 C32.924,45.705 28.221,45.69 23.919,50.436 C21.294,53.354 16.446,55.4 11.879,53.357 C13.13,52.021 12.305,52.85 14.499,50.945 C18.013,51.728 20.654,49.571 22.442,47.71 C26.372,43.298 31.921,42.507 36.482,45.777 C37.335,46.388 38.105,47.198 38.849,48.005 C42.717,52.203 47.757,52.163 51.557,47.871 C56.372,42.435 63.147,42.401 67.986,47.789 C71.949,52.201 76.708,52.253 80.755,47.929 C86.035,42.287 92.258,42.353 97.471,48.104 C101.194,52.21 106.255,52.122 110.072,47.882 C111.593,46.254 113.511,44.651 116.201,44.015 C116.805,43.872 117.452,43.85 118.078,43.767 z" fill="#009EFF"/>
    </g>
    <g>
      <path d="M235.577,17.323 C239.373,17.803 241.95,19.563 244.191,21.712 C248.089,25.813 253.375,27.754 258.662,23.554 C260.033,23.983 261.416,24.392 262.801,24.797 L262.718,24.882 C257.84,30.247 250.894,31.264 245.141,27.374 C244.064,26.646 243.09,25.678 242.149,24.714 C237.253,19.696 230.937,19.802 226.22,25.022 C220.245,31.632 211.752,31.751 205.627,25.31 C200.611,20.035 194.645,20.027 189.62,25.288 C183.063,32.152 175.262,32.144 168.664,25.269 C163.952,20.361 157.609,20.525 152.871,25.681 C147.621,31.392 140.666,32.36 134.742,28.128 C133.679,27.368 132.736,26.365 131.78,25.416 C129.701,23.378 126.682,21.679 122.985,22.124 C122.485,22.184 122.027,22.366 121.549,22.486 C124.565,19.627 123.112,20.985 125.9,18.408 C129.538,18.905 132.031,20.739 134.207,22.779 C136.096,24.716 138.089,26.255 140.626,26.721 C144.332,27.402 147.533,26.21 150.249,23.276 C156.86,16.136 164.794,16.046 171.454,23.07 C175.976,27.841 182.392,27.754 186.992,22.861 C190.547,19.08 193.375,17.685 198.332,17.632 C201.338,17.626 204.637,19.043 207.444,21.989 C213.006,27.823 218.856,27.753 224.372,21.79 C226.417,19.648 229.233,17.739 232.916,17.333 C233.794,17.236 234.69,17.326 235.577,17.323 z" fill="#009EFF"/>
    </g>
    <path d="M281.494,182.021 L282.703,182.043 C285.967,182.566 288.31,184.751 290.327,187.64 C291.138,188.926 291.612,190.395 290.755,191.926 C289.949,193.365 289.116,192.571 288.329,191.435 C283.903,185.041 278.533,185.394 274.167,192.308 C269.748,199.305 263.504,200.564 258.367,195.383 C257.405,194.415 256.538,193.131 255.7,191.853 C251.341,185.2 245.669,185.267 241.396,192.076 C235.984,200.699 228.358,200.759 222.906,192.22 C218.441,185.228 213.084,185.15 208.534,192.009 C202.598,200.959 195.594,200.86 189.72,191.746 L189.681,191.691 C190.633,190.236 189.904,191.34 191.926,188.429 L192.24,188.887 C196.266,195.21 202.027,195.169 206.193,188.788 C209.412,183.858 211.961,182.056 216.412,182.043 C219.111,182.069 222.062,183.97 224.561,187.874 C229.512,195.609 234.765,195.583 239.761,187.805 C244.798,179.964 252.52,180.017 257.555,187.929 C262.372,195.495 267.664,195.515 272.5,187.987 C274.439,185.051 277.062,182.642 280.292,182.089 L281.494,182.021 z" fill="#009EFF"/>
    <path d="M129.391,76.089 C131.746,76.107 134.321,77.462 136.501,80.246 C140.821,85.76 145.405,85.741 149.765,80.195 C154.161,74.603 160.9,74.64 165.293,80.281 C169.495,85.675 174.114,85.689 178.335,80.32 C179.127,79.405 178.744,79.789 179.443,79.141 C179.507,79.735 179.571,80.329 179.635,80.923 C179.83,82.706 179.742,81.924 179.897,83.27 L179.788,83.401 C175.932,88.391 170.483,89.289 166.001,85.596 C165.162,84.906 164.405,83.99 163.674,83.079 C159.871,78.336 154.921,78.384 151.192,83.24 C146.468,89.389 139.813,89.433 135.056,83.345 C131.161,78.359 126.486,78.305 122.515,83.196 C117.334,89.578 111.222,89.509 106.097,83.011 L106.063,82.972 C106.895,81.934 106.258,82.721 108.023,80.646 L108.297,80.972 C111.809,85.48 116.836,85.45 120.472,80.9 C123.282,77.384 125.506,76.099 129.391,76.089 z" fill="#009EFF"/>
    <path d="M104.211,164.593 L105.745,164.633 C109.579,165.24 112.591,166.836 115.031,169.065 C112.412,171.433 113.323,170.564 112.218,171.625 C106.564,166.699 100.241,167.99 95.223,172.537 C89.289,178.376 81.489,179.314 74.895,174.902 C73.711,174.11 72.664,173.069 71.602,172.083 C66.4,167.249 59.385,167.363 54.371,172.388 C47.34,179.435 37.869,179.469 30.88,172.472 C26.89,168.479 21.118,167.379 16.169,170.243 C15.587,166.554 15.813,167.919 15.517,166.145 C19.802,163.884 25.368,164.332 29.526,166.623 C31.389,167.649 31.822,168.127 33.184,169.339 C39.338,175.325 45.817,175.316 51.997,169.314 C58.428,163.069 67.748,163.061 74.346,169.387 C76.443,171.399 78.661,173.001 81.498,173.504 C85.643,174.237 89.24,173.036 92.31,170.037 C94.932,167.568 98.259,165.141 102.686,164.638 L104.211,164.593 z" fill="#009EFF"/>
    <path d="M250.433,219.113 L251.507,219.131 C254.406,219.541 256.485,221.253 258.277,223.517 C258.997,224.526 259.418,225.677 258.657,226.877 C257.941,228.005 257.201,227.384 256.502,226.493 C252.572,221.481 247.803,221.758 243.925,227.178 C240.001,232.664 234.456,233.651 229.895,229.59 C229.041,228.831 228.27,227.825 227.527,226.823 C226.133,225.097 224.161,222.976 221.723,223.008 C220.58,219.264 220.999,220.547 220.537,219.136 C224.242,218.859 226.981,220.982 229.175,223.746 C233.451,229.677 238.151,229.693 242.446,223.791 C244.168,221.49 246.497,219.601 249.366,219.167 L250.433,219.113 z" fill="#009EFF"/>
    <g clip-path="url(#Clip_1)" id="Isolation_Mode">
      <path d="M24.515,50.786 C24.895,48.757 24.185,47.055 23.885,45.295 C23.552,43.342 23.256,41.382 22.923,39.429 C22.766,38.506 22.336,38.242 21.437,38.277 C19.491,38.352 17.763,39.128 16.024,39.895 C15.773,40.006 15.483,40.025 15.223,40.12 C14.962,40.214 14.704,40.331 14.465,40.473 C12.47,41.66 10.887,43.461 8.744,44.43 C8.354,44.606 7.976,44.811 7.588,44.994 C6.918,45.309 6.607,45.199 6.24,44.541 C5.888,43.909 5.928,43.295 6.389,42.756 C9.254,39.401 11.935,35.872 15.409,33.099 C15.966,32.654 16.47,32.134 16.959,31.609 C17.549,30.976 17.502,30.588 16.933,29.886 C15.692,28.356 14.336,26.898 13.283,25.243 C11.844,22.985 10.086,21.022 8.35,19.025 C8.189,18.839 8.012,18.665 7.866,18.467 C7.417,17.86 7.574,17.313 8.28,17.061 C9.28,16.705 10.237,16.768 11.127,17.404 C11.627,17.761 12.094,18.228 12.652,18.424 C13.614,18.762 14.384,19.316 15.09,20.031 C15.546,20.492 16.075,20.878 16.573,21.297 C16.76,21.454 16.937,21.628 17.141,21.759 C17.793,22.175 18.431,22.626 19.122,22.967 C19.847,23.325 20.61,23.637 21.39,23.83 C21.666,23.898 22.152,23.643 22.35,23.384 C23.098,22.411 23.745,21.359 24.473,20.369 C24.871,19.827 25.399,19.381 25.79,18.835 C26.4,17.984 26.888,17.04 27.529,16.217 C28.398,15.1 29.361,14.06 30.287,12.99 C30.673,12.545 31.125,12.441 31.655,12.728 C32.222,13.036 32.52,13.567 32.363,14.158 C32.232,14.655 32.004,15.124 31.85,15.615 C31.159,17.815 30.432,20.006 29.815,22.228 C29.487,23.411 29.556,24.656 29.865,25.849 C29.949,26.17 30.265,26.485 30.555,26.681 C30.847,26.88 31.232,26.966 31.589,27.036 C34.199,27.553 36.805,28.096 39.428,28.531 C40.125,28.646 40.883,28.326 41.606,28.356 C42.94,28.411 44.274,28.544 45.597,28.726 C45.846,28.76 46.155,29.143 46.237,29.425 C46.376,29.902 46.198,30.373 45.772,30.676 C45.594,30.802 45.372,30.883 45.159,30.94 C40.752,32.118 36.343,33.293 31.933,34.464 C30.465,34.854 30.402,35.021 30.212,36.574 C30.097,37.518 29.733,38.43 29.478,39.356 C29.451,39.454 29.373,39.543 29.368,39.64 C29.257,41.688 28.712,43.67 28.884,45.787 C29.017,47.419 28.435,49.112 28.161,50.777 C27.961,51.989 27.444,53.064 26.649,53.978 C26.439,54.22 26.006,54.464 25.743,54.403 C25.441,54.333 25.056,53.964 24.985,53.659 C24.752,52.661 24.644,51.632 24.515,50.786" fill="#9C6812"/>
    </g>
    <g clip-path="url(#Clip_2)" id="Isolation_Mode">
      <path d="M260.36,95.031 C260.669,95.258 261,95.457 261.282,95.716 C263.397,97.66 265.113,99.983 266.905,102.234 C267.546,103.04 268.229,103.811 268.893,104.598 C269.004,104.729 269.123,104.853 269.226,104.99 C269.852,105.823 269.937,106.841 269.445,107.546 C268.977,108.214 267.938,108.466 267.043,108.043 C265.902,107.503 264.766,106.942 263.67,106.311 C260.433,104.445 257.216,102.541 253.993,100.649 C253.381,100.29 253.065,100.351 252.537,100.994 C250.713,103.218 248.916,105.468 247.064,107.666 C245.987,108.944 244.854,110.175 243.69,111.367 C242.784,112.294 241.679,112.761 240.373,112.511 C238.886,112.226 238.342,111.346 238.918,109.87 C239.309,108.867 239.871,107.926 240.441,107.014 C241.37,105.527 242.188,104.002 242.811,102.333 C243.472,100.566 244.353,98.89 245.136,97.173 C245.253,96.917 245.387,96.663 245.462,96.394 C245.631,95.788 245.413,95.375 244.817,95.299 C241.691,94.903 238.847,93.585 235.976,92.361 C234.758,91.842 233.564,91.262 232.369,90.687 C231.592,90.314 231.01,89.743 230.876,88.802 C230.722,87.721 231.332,86.907 232.37,86.935 C233.641,86.97 234.91,87.115 236.18,87.192 C236.505,87.212 236.834,87.165 237.16,87.136 C237.283,87.125 237.405,87.049 237.526,87.054 C239.441,87.125 241.326,86.705 243.278,86.927 C244.876,87.109 246.446,87.418 248.034,87.629 C248.886,87.742 249.036,87.519 249.026,86.631 C249.009,85.126 248.953,83.604 249.12,82.116 C249.48,78.929 249.953,75.755 250.422,72.583 C250.529,71.856 250.772,71.142 251.022,70.45 C251.201,69.954 251.51,69.48 252.094,69.482 C252.66,69.483 253.001,69.905 253.217,70.402 C254.135,72.514 254.987,74.642 255.348,76.966 C255.541,78.211 256.046,79.4 256.264,80.643 C256.573,82.405 256.747,84.193 256.976,85.97 C257.006,86.204 257.023,86.44 257.048,86.692 C257.173,86.701 257.264,86.738 257.329,86.709 C259.913,85.558 262.569,84.826 265.4,84.608 C267.508,84.445 269.589,83.848 271.675,83.41 C272.907,83.152 274.117,83.059 275.299,83.612 C276.285,84.073 276.508,84.81 275.825,85.692 C275.429,86.205 274.918,86.68 274.367,86.994 C269.947,89.512 265.504,91.986 261.069,94.474 C260.889,94.576 260.711,94.681 260.532,94.784 C260.475,94.866 260.417,94.949 260.36,95.031" fill="#976100" fill-opacity="0.963"/>
    </g>
    <g clip-path="url(#Clip_3)" id="Isolation_Mode">
      <path d="M31.679,287.596 C31.829,284.725 31.991,281.856 32.125,278.984 C32.256,276.158 32.131,276.134 29.281,275.895 C26.835,275.691 24.414,275.203 21.972,274.929 C19.204,274.619 16.42,274.433 13.65,274.135 C13.114,274.077 12.393,273.881 12.156,273.506 C11.962,273.199 12.202,272.363 12.532,272.054 C13.214,271.414 14.028,270.841 14.89,270.477 C16.044,269.991 17.276,269.622 18.511,269.4 C19.852,269.158 21.249,269.228 22.596,269.009 C24.261,268.739 25.909,268.35 27.546,267.941 C29.518,267.447 30.052,266.286 29.582,264.279 C28.93,261.493 28.569,258.635 28.189,255.794 C27.949,254.005 27.901,252.19 27.768,250.386 C27.711,249.624 28.064,249.142 28.812,248.967 C29.651,248.771 30.316,249.028 30.689,249.819 C31.257,251.021 31.738,252.266 32.361,253.439 C33.319,255.241 34.256,257.07 35.415,258.744 C36.137,259.787 37.193,260.637 38.215,261.428 C38.579,261.711 39.291,261.643 39.829,261.591 C40.195,261.556 40.561,261.306 40.885,261.09 C43.57,259.301 46.253,257.508 48.916,255.686 C49.282,255.435 49.584,255.055 49.832,254.681 C50.915,253.046 52.401,251.842 54.023,250.771 C54.611,250.383 55.194,250.122 55.793,250.71 C56.373,251.281 56.47,251.928 56.047,252.649 C54.338,255.56 52.65,258.482 50.935,261.389 C49.746,263.402 48.519,265.393 47.322,267.402 C46.658,268.516 46.794,268.919 47.535,269.937 C48.327,271.025 48.859,272.297 49.661,273.378 C50.911,275.064 52.104,276.863 53.663,278.239 C56.004,280.306 57.549,282.853 58.993,285.497 C59.382,286.211 59.488,287.103 59.586,287.93 C59.632,288.314 59.467,288.929 59.188,289.091 C58.846,289.291 58.143,289.311 57.843,289.088 C56.542,288.118 55.328,287.034 54.088,285.985 C53.816,285.755 53.595,285.459 53.304,285.259 C50.342,283.226 47.372,281.203 44.398,279.186 C42.922,278.185 42.381,278.215 41.385,279.629 C40.533,280.841 39.823,282.155 39.109,283.456 C38.553,284.468 37.961,285.49 37.619,286.58 C37.236,287.8 36.98,289.095 36.913,290.37 C36.802,292.473 36.229,294.444 35.529,296.4 C35.334,296.946 35.208,297.59 34.411,297.532 C33.576,297.472 32.869,297.166 32.579,296.308 C32.487,296.035 32.447,295.739 32.425,295.45 C32.226,292.837 32.036,290.223 31.844,287.61 C31.789,287.605 31.734,287.6 31.679,287.596" fill="#F5F200"/>
    </g>
    <g clip-path="url(#Clip_4)" id="Isolation_Mode">
      <path d="M31.679,287.596 C31.829,284.725 31.991,281.856 32.125,278.984 C32.256,276.158 32.131,276.134 29.281,275.895 C26.835,275.691 24.414,275.202 21.972,274.929 C19.204,274.619 16.42,274.433 13.65,274.135 C13.114,274.077 12.393,273.881 12.156,273.506 C11.962,273.199 12.202,272.363 12.532,272.054 C13.214,271.414 14.028,270.841 14.89,270.477 C16.044,269.991 17.276,269.622 18.511,269.4 C19.852,269.158 21.249,269.228 22.596,269.009 C24.261,268.739 25.909,268.35 27.546,267.941 C29.518,267.447 30.052,266.286 29.582,264.279 C28.93,261.493 28.569,258.635 28.189,255.794 C27.949,254.005 27.901,252.19 27.768,250.386 C27.711,249.624 28.064,249.142 28.812,248.967 C29.651,248.771 30.316,249.028 30.689,249.819 C31.257,251.021 31.738,252.266 32.361,253.439 C33.319,255.241 34.256,257.07 35.415,258.744 C36.137,259.787 37.193,260.637 38.215,261.428 C38.579,261.711 39.291,261.643 39.829,261.591 C40.195,261.556 40.561,261.306 40.885,261.09 C43.57,259.301 46.253,257.508 48.916,255.686 C49.282,255.435 49.584,255.055 49.832,254.681 C50.915,253.046 52.401,251.842 54.023,250.771 C54.611,250.383 55.194,250.122 55.793,250.71 C56.373,251.281 56.47,251.928 56.047,252.649 C54.338,255.56 52.65,258.482 50.935,261.389 C49.746,263.402 48.519,265.393 47.322,267.402 C46.658,268.516 46.794,268.919 47.535,269.937 C48.327,271.025 48.859,272.297 49.661,273.378 C50.911,275.064 52.104,276.863 53.663,278.239 C56.004,280.306 57.549,282.853 58.993,285.497 C59.382,286.211 59.488,287.103 59.586,287.93 C59.632,288.314 59.467,288.929 59.188,289.091 C58.846,289.291 58.143,289.311 57.843,289.088 C56.542,288.118 55.328,287.034 54.088,285.985 C53.816,285.755 53.595,285.459 53.304,285.259 C50.342,283.226 47.372,281.203 44.398,279.186 C42.922,278.185 42.381,278.215 41.385,279.629 C40.533,280.841 39.823,282.155 39.109,283.456 C38.553,284.468 37.961,285.49 37.619,286.58 C37.236,287.8 36.98,289.095 36.913,290.37 C36.802,292.473 36.229,294.444 35.529,296.4 C35.334,296.946 35.208,297.59 34.411,297.532 C33.576,297.472 32.869,297.166 32.579,296.308 C32.487,296.035 32.447,295.739 32.425,295.45 C32.226,292.837 32.036,290.223 31.844,287.61 C31.789,287.605 31.734,287.6 31.679,287.596" fill="#9C6812"/>
    </g>
  </g>
</svg>
