<?xml version="1.0" encoding="UTF-8"?>
<!DOCTYPE svg PUBLIC "-//W3C//DTD SVG 1.1//EN" "http://www.w3.org/Graphics/SVG/1.1/DTD/svg11.dtd">
<svg version="1.1" xmlns="http://www.w3.org/2000/svg" xmlns:xlink="http://www.w3.org/1999/xlink" x="0" y="0" width="300" height="300" viewBox="0, 0, 300, 300">
  <defs>
    <radialGradient id="Gradient_1" gradientUnits="userSpaceOnUse" cx="384.753" cy="33.083" r="0.333">
      <stop offset="0.021" stop-color="#35ACE9" stop-opacity="0.655"/>
      <stop offset="0.54" stop-color="#6397BB" stop-opacity="0"/>
      <stop offset="0.95" stop-color="#000000" stop-opacity="0"/>
    </radialGradient>
    <radialGradient id="Gradient_2" gradientUnits="userSpaceOnUse" cx="149.333" cy="150" r="148">
      <stop offset="0" stop-color="#0046FF" stop-opacity="0.178"/>
      <stop offset="0.642" stop-color="#345EFF" stop-opacity="0.208"/>
      <stop offset="1" stop-color="#FFFFFF" stop-opacity="0"/>
    </radialGradient>
    <clipPath id="Clip_1">
      <path d="M13.093,44.669 L157.333,44.669 L157.333,146.333 L13.093,146.333 z M99.521,57.669 C97.848,57.773 96.152,57.688 94.502,57.982 C88.449,59.062 83.152,62.678 79.943,67.887 C79.183,69.127 78.573,69.927 76.823,69.447 C69.063,67.277 62.363,69.157 56.913,75.157 C56.257,76.031 55.19,76.494 54.103,76.377 C43.813,75.257 35.623,78.947 29.453,87.207 C29.293,87.437 29.133,87.657 28.983,87.887 C29.043,88.267 28.983,88.587 28.583,88.747 Q27.823,92.197 27.093,95.627 C27.123,96.157 27.193,96.677 27.193,97.207 C27.273,98.037 27.343,98.877 27.423,99.717 C27.675,99.969 27.757,100.344 27.633,100.677 C27.954,101.179 28.091,101.776 28.023,102.367 L28.463,103.167 C33.103,111.837 40.233,116.427 50.103,116.507 C51.699,116.346 53.198,117.296 53.733,118.807 C54.941,121.468 56.828,123.765 59.203,125.467 C68.353,132.037 78.213,132.747 88.503,128.577 C89.695,127.985 91.128,128.192 92.103,129.097 C95.398,131.634 99.39,133.103 103.543,133.307 C114.523,133.817 123.803,126.827 125.743,116.227 C125.82,115.047 126.754,114.104 127.933,114.017 C137.413,112.027 142.163,105.197 143.333,96.197 C143.293,95.947 143.223,95.707 143.223,95.457 C142.543,83.137 133.803,75.417 121.543,76.527 C119.883,76.667 119.513,75.947 119.283,74.667 C118.728,71.379 117.352,68.283 115.283,65.667 C111.198,60.915 105.842,58.129 99.521,57.669 z"/>
    </clipPath>
    <filter id="Shadow_2">
      <feGaussianBlur in="SourceAlpha" stdDeviation="5"/>
      <feOffset dx="3" dy="2" result="offsetblur"/>
      <feFlood flood-color="#1F5474"/>
      <feComposite in2="offsetblur" operator="in"/>
    </filter>
    <clipPath id="Clip_3">
      <path d="M194.427,149.326 L302,149.326 L302,225 L194.427,225 z M258.008,162.326 C256.862,162.394 255.703,162.338 254.572,162.531 C250.456,163.236 246.903,165.563 244.606,169.034 C244.085,169.848 243.668,170.373 242.47,170.058 C237.158,168.634 232.571,169.868 228.84,173.807 C228.391,174.38 227.66,174.685 226.917,174.608 C219.873,173.873 214.266,176.295 210.042,181.718 C209.933,181.869 209.823,182.013 209.72,182.164 C209.762,182.414 209.72,182.624 209.447,182.729 Q208.926,184.994 208.427,187.246 C208.447,187.594 208.495,187.935 208.495,188.283 C208.55,188.828 208.598,189.379 208.653,189.931 C208.825,190.096 208.881,190.342 208.796,190.561 C209.016,190.89 209.11,191.282 209.063,191.67 L209.365,192.196 C212.541,197.888 217.422,200.901 224.178,200.953 C225.271,200.848 226.297,201.471 226.663,202.463 C227.49,204.21 228.782,205.718 230.408,206.836 C236.672,211.149 243.421,211.615 250.466,208.878 C251.281,208.489 252.262,208.625 252.93,209.219 C255.186,210.884 257.918,211.849 260.761,211.983 C268.278,212.318 274.631,207.729 275.959,200.77 C276.011,199.995 276.651,199.376 277.458,199.319 C283.947,198.012 287.199,193.528 288,187.62 C287.973,187.456 287.925,187.298 287.925,187.134 C287.459,179.046 281.476,173.978 273.083,174.706 C271.947,174.798 271.694,174.326 271.536,173.485 C271.156,171.326 270.214,169.294 268.798,167.577 C265.84,164.478 262.354,162.588 258.008,162.326 z"/>
    </clipPath>
    <filter id="Shadow_4">
      <feGaussianBlur in="SourceAlpha" stdDeviation="5"/>
      <feOffset dx="3" dy="2" result="offsetblur"/>
      <feFlood flood-color="#347094"/>
      <feComposite in2="offsetblur" operator="in"/>
    </filter>
    <clipPath id="Clip_5">
      <path d="M56.333,212.325 L175.427,212.325 L175.427,288 L56.333,288 z M104.668,225.326 C99.406,226.06 96.286,226.694 92.315,230.577 C90.694,232.294 89.616,234.326 89.18,236.485 C89,237.326 88.71,237.798 87.409,237.706 C77.802,236.978 70.952,242.046 70.42,250.134 C70.42,250.298 70.365,250.456 70.333,250.62 C71.25,256.528 74.973,261.012 82.402,262.319 C83.326,262.376 84.058,262.995 84.118,263.77 C85.638,270.729 92.911,275.318 101.515,274.983 C104.77,274.849 107.898,273.884 110.48,272.219 C111.245,271.625 112.368,271.489 113.302,271.878 C121.366,274.615 129.093,274.149 136.263,269.836 C138.125,268.718 139.603,267.21 140.55,265.463 C140.97,264.471 142.144,263.848 143.395,263.953 C151.129,263.901 156.717,260.888 160.353,255.196 L160.698,254.67 C160.644,254.282 160.752,253.89 161.003,253.561 C160.907,253.342 160.971,253.096 161.168,252.931 C161.231,252.379 161.286,251.828 161.348,251.283 C161.348,250.935 161.403,250.594 161.427,250.245 Q160.855,247.994 160.259,245.729 C159.946,245.624 159.899,245.414 159.945,245.164 C159.828,245.013 159.703,244.869 159.577,244.718 C154.742,239.295 148.324,236.873 140.26,237.608 C139.409,237.685 138.572,237.38 138.058,236.807 C133.787,232.868 128.536,231.634 122.455,233.058 C121.084,233.373 120.605,232.848 120.01,232.034 C115.94,227.153 110.959,225.297 104.668,225.326 z"/>
    </clipPath>
    <filter id="Shadow_6">
      <feGaussianBlur in="SourceAlpha" stdDeviation="5"/>
      <feOffset dx="3" dy="2" result="offsetblur"/>
      <feFlood flood-color="#347094"/>
      <feComposite in2="offsetblur" operator="in"/>
    </filter>
    <clipPath id="Clip_7">
      <path d="M197.427,14.321 L300.333,14.321 L300.333,76.667 L197.427,76.667 z M258.1,27.32 C252.964,27.56 249.098,28.189 245.484,32.229 C244.994,32.825 244.601,33.209 243.473,32.978 C238.473,31.936 234.155,32.839 230.643,35.721 C230.22,36.141 229.532,36.363 228.832,36.307 C222.201,35.769 216.924,37.542 212.947,41.51 C212.844,41.62 212.741,41.726 212.645,41.836 C212.683,42.019 212.645,42.172 212.387,42.249 Q211.897,43.907 211.427,45.554 C211.446,45.809 211.491,46.059 211.491,46.313 C211.543,46.712 211.588,47.115 211.639,47.519 C211.801,47.64 211.854,47.82 211.775,47.98 C211.981,48.221 212.07,48.508 212.026,48.792 L212.31,49.176 C215.3,53.341 219.894,55.546 226.255,55.584 C227.283,55.507 228.249,55.963 228.594,56.689 C229.372,57.967 230.588,59.07 232.119,59.888 C238.015,63.044 244.369,63.385 251,61.382 C251.768,61.098 252.692,61.197 253.32,61.632 C255.443,62.85 258.016,63.556 260.692,63.654 C267.768,63.899 273.748,60.541 274.998,55.45 C275.047,54.883 275.65,54.43 276.409,54.388 C282.518,53.432 285.579,50.151 286.333,45.828 C286.308,45.708 286.262,45.593 286.262,45.473 C285.824,39.555 280.192,35.846 272.292,36.379 C271.222,36.447 270.983,36.101 270.835,35.486 C270.477,33.906 269.591,32.419 268.258,31.163 C265.307,28.759 261.927,27.469 258.1,27.32 z"/>
    </clipPath>
    <filter id="Shadow_8">
      <feGaussianBlur in="SourceAlpha" stdDeviation="5"/>
      <feOffset dx="3" dy="2" result="offsetblur"/>
      <feFlood flood-color="#347094"/>
      <feComposite in2="offsetblur" operator="in"/>
    </filter>
  </defs>
  <g id="Layer_1" opacity="0.308">
    <g>
      <path d="M384.419,33.083 L385.086,33.083 L385.086,33.083 L384.419,33.083 L384.419,33.083 z" fill="url(#Gradient_1)"/>
      <path d="M384.419,33.083 L385.086,33.083 L385.086,33.083 L384.419,33.083 L384.419,33.083 z" fill-opacity="0" stroke="#0DA50C" stroke-width="2" stroke-opacity="0.598"/>
    </g>
    <path d="M1.333,3.333 L297.333,3.333 L297.333,296.667 L1.333,296.667 L1.333,3.333 z" fill="url(#Gradient_2)"/>
    <path d="M40.419,80.75 C24.587,80.75 11.753,67.915 11.753,52.083 C11.753,36.251 24.587,23.417 40.419,23.417 C56.251,23.417 69.086,36.251 69.086,52.083 C69.086,67.915 56.251,80.75 40.419,80.75 z" fill="#FFCE00"/>
    <g>
      <path d="M99.521,57.669 C105.842,58.129 111.198,60.915 115.283,65.667 C117.352,68.283 118.728,71.379 119.283,74.667 C119.513,75.947 119.883,76.667 121.543,76.527 C133.803,75.417 142.543,83.137 143.223,95.457 C143.223,95.707 143.293,95.947 143.333,96.197 C142.163,105.197 137.413,112.027 127.933,114.017 C126.754,114.104 125.82,115.047 125.743,116.227 C123.803,126.827 114.523,133.817 103.543,133.307 C99.39,133.103 95.398,131.634 92.103,129.097 C91.128,128.192 89.695,127.985 88.503,128.577 C78.213,132.747 68.353,132.037 59.203,125.467 C56.828,123.765 54.941,121.468 53.733,118.807 C53.198,117.296 51.699,116.346 50.103,116.507 C40.233,116.427 33.103,111.837 28.463,103.167 L28.023,102.367 C28.091,101.776 27.954,101.179 27.633,100.677 C27.757,100.344 27.675,99.969 27.423,99.717 C27.343,98.877 27.273,98.037 27.193,97.207 C27.193,96.677 27.123,96.157 27.093,95.627 Q27.823,92.197 28.583,88.747 C28.983,88.587 29.043,88.267 28.983,87.887 C29.133,87.657 29.293,87.437 29.453,87.207 C35.623,78.947 43.813,75.257 54.103,76.377 C55.19,76.494 56.257,76.031 56.913,75.157 C62.363,69.157 69.063,67.277 76.823,69.447 C78.573,69.927 79.183,69.127 79.943,67.887 C83.152,62.678 88.449,59.062 94.502,57.982 C96.152,57.688 97.848,57.773 99.521,57.669 z" clip-path="url(#Clip_1)" filter="url(#Shadow_2)" fill="rgba(0,0,0,1)"/>
      <path d="M27.423,99.717 C27.343,98.877 27.273,98.037 27.193,97.207 C27.193,96.677 27.123,96.157 27.093,95.627 Q27.823,92.197 28.583,88.747 C28.983,88.587 29.043,88.267 28.983,87.887 C29.133,87.657 29.293,87.437 29.453,87.207 C35.623,78.947 43.813,75.257 54.103,76.377 C55.19,76.494 56.257,76.031 56.913,75.157 C62.363,69.157 69.063,67.277 76.823,69.447 C78.573,69.927 79.183,69.127 79.943,67.887 C87.653,55.217 105.943,54.087 115.283,65.667 C117.352,68.283 118.728,71.379 119.283,74.667 C119.513,75.947 119.883,76.667 121.543,76.527 C133.803,75.417 142.543,83.137 143.223,95.457 C143.223,95.707 143.293,95.947 143.333,96.197 C142.163,105.197 137.413,112.027 127.933,114.017 C126.754,114.104 125.82,115.047 125.743,116.227 C123.803,126.827 114.523,133.817 103.543,133.307 C99.39,133.103 95.398,131.634 92.103,129.097 C91.128,128.192 89.695,127.985 88.503,128.577 C78.213,132.747 68.353,132.037 59.203,125.467 C56.828,123.765 54.941,121.468 53.733,118.807 C53.198,117.296 51.699,116.346 50.103,116.507 C40.233,116.427 33.103,111.837 28.463,103.167 L28.023,102.367 C28.091,101.776 27.954,101.179 27.633,100.677 C27.757,100.344 27.675,99.969 27.423,99.717 z" fill="#FFFFFF"/>
    </g>
    <g>
      <path d="M258.008,162.326 C262.354,162.588 265.84,164.478 268.798,167.577 C270.214,169.294 271.156,171.326 271.536,173.485 C271.694,174.326 271.947,174.798 273.083,174.706 C281.476,173.978 287.459,179.046 287.925,187.134 C287.925,187.298 287.973,187.456 288,187.62 C287.199,193.528 283.947,198.012 277.458,199.319 C276.651,199.376 276.011,199.995 275.959,200.77 C274.631,207.729 268.278,212.318 260.761,211.983 C257.918,211.849 255.186,210.884 252.93,209.219 C252.262,208.625 251.281,208.489 250.466,208.878 C243.421,211.615 236.672,211.149 230.408,206.836 C228.782,205.718 227.49,204.21 226.663,202.463 C226.297,201.471 225.271,200.848 224.178,200.953 C217.422,200.901 212.541,197.888 209.365,192.196 L209.063,191.67 C209.11,191.282 209.016,190.89 208.796,190.561 C208.881,190.342 208.825,190.096 208.653,189.931 C208.598,189.379 208.55,188.828 208.495,188.283 C208.495,187.935 208.447,187.594 208.427,187.246 Q208.926,184.994 209.447,182.729 C209.72,182.624 209.762,182.414 209.72,182.164 C209.823,182.013 209.933,181.869 210.042,181.718 C214.266,176.295 219.873,173.873 226.917,174.608 C227.66,174.685 228.391,174.38 228.84,173.807 C232.571,169.868 237.158,168.634 242.47,170.058 C243.668,170.373 244.085,169.848 244.606,169.034 C246.903,165.563 250.456,163.236 254.572,162.531 C255.703,162.338 256.862,162.394 258.008,162.326 z" clip-path="url(#Clip_3)" filter="url(#Shadow_4)" fill="rgba(0,0,0,1)"/>
      <path d="M208.653,189.931 C208.598,189.379 208.55,188.828 208.495,188.283 C208.495,187.935 208.447,187.594 208.427,187.246 Q208.926,184.994 209.447,182.729 C209.72,182.624 209.762,182.414 209.72,182.164 C209.823,182.013 209.933,181.869 210.042,181.718 C214.266,176.295 219.873,173.873 226.917,174.608 C227.66,174.685 228.391,174.38 228.84,173.807 C232.571,169.868 237.158,168.634 242.47,170.058 C243.668,170.373 244.085,169.848 244.606,169.034 C249.884,160.716 262.404,159.974 268.798,167.577 C270.214,169.294 271.156,171.326 271.536,173.485 C271.694,174.326 271.947,174.798 273.083,174.706 C281.476,173.978 287.459,179.046 287.925,187.134 C287.925,187.298 287.973,187.456 288,187.62 C287.199,193.528 283.947,198.012 277.458,199.319 C276.651,199.376 276.011,199.995 275.959,200.77 C274.631,207.729 268.278,212.318 260.761,211.983 C257.918,211.849 255.186,210.884 252.93,209.219 C252.262,208.625 251.281,208.489 250.466,208.878 C243.421,211.615 236.672,211.149 230.408,206.836 C228.782,205.718 227.49,204.21 226.663,202.463 C226.297,201.471 225.271,200.848 224.178,200.953 C217.422,200.901 212.541,197.888 209.365,192.196 L209.063,191.67 C209.11,191.282 209.016,190.89 208.796,190.561 C208.881,190.342 208.825,190.096 208.653,189.931 z" fill="#FFFFFF"/>
    </g>
    <g>
      <path d="M104.668,225.326 C110.959,225.297 115.94,227.153 120.01,232.034 C120.605,232.848 121.084,233.373 122.455,233.058 C128.536,231.634 133.787,232.868 138.058,236.807 C138.572,237.38 139.409,237.685 140.26,237.608 C148.324,236.873 154.742,239.295 159.577,244.718 C159.703,244.869 159.828,245.013 159.945,245.164 C159.899,245.414 159.946,245.624 160.259,245.729 Q160.855,247.994 161.427,250.245 C161.403,250.594 161.348,250.935 161.348,251.283 C161.286,251.828 161.231,252.379 161.168,252.931 C160.971,253.096 160.907,253.342 161.003,253.561 C160.752,253.89 160.644,254.282 160.698,254.67 L160.353,255.196 C156.717,260.888 151.129,263.901 143.395,263.953 C142.144,263.848 140.97,264.471 140.55,265.463 C139.603,267.21 138.125,268.718 136.263,269.836 C129.093,274.149 121.366,274.615 113.302,271.878 C112.368,271.489 111.245,271.625 110.48,272.219 C107.898,273.884 104.77,274.849 101.515,274.983 C92.911,275.318 85.638,270.729 84.118,263.77 C84.058,262.995 83.326,262.376 82.402,262.319 C74.973,261.012 71.25,256.528 70.333,250.62 C70.365,250.456 70.42,250.298 70.42,250.134 C70.952,242.046 77.802,236.978 87.409,237.706 C88.71,237.798 89,237.326 89.18,236.485 C89.616,234.326 90.694,232.294 92.315,230.577 C96.286,226.694 99.406,226.06 104.668,225.326 z" clip-path="url(#Clip_5)" filter="url(#Shadow_6)" fill="rgba(0,0,0,1)"/>
      <path d="M161.168,252.931 C161.231,252.379 161.286,251.828 161.348,251.283 C161.348,250.935 161.403,250.594 161.427,250.246 Q160.855,247.994 160.259,245.729 C159.946,245.624 159.899,245.414 159.946,245.164 C159.828,245.013 159.703,244.869 159.577,244.718 C154.742,239.295 148.324,236.873 140.26,237.608 C139.409,237.685 138.572,237.38 138.058,236.807 C133.787,232.868 128.536,231.634 122.455,233.058 C121.084,233.373 120.605,232.848 120.01,232.034 C113.968,223.716 99.635,222.974 92.315,230.577 C90.694,232.294 89.616,234.326 89.18,236.485 C89,237.326 88.71,237.798 87.409,237.706 C77.802,236.978 70.952,242.046 70.42,250.134 C70.42,250.298 70.365,250.456 70.333,250.62 C71.25,256.528 74.973,261.012 82.402,262.319 C83.326,262.376 84.058,262.995 84.118,263.77 C85.638,270.729 92.911,275.318 101.515,274.983 C104.77,274.849 107.898,273.884 110.481,272.219 C111.245,271.625 112.368,271.489 113.302,271.878 C121.366,274.615 129.093,274.149 136.263,269.836 C138.125,268.718 139.603,267.21 140.55,265.463 C140.97,264.471 142.144,263.848 143.395,263.953 C151.129,263.901 156.717,260.888 160.353,255.196 L160.698,254.67 C160.644,254.282 160.752,253.89 161.003,253.561 C160.907,253.342 160.971,253.096 161.168,252.931 z" fill="#FFFFFF"/>
    </g>
    <g>
      <path d="M258.1,27.32 C261.927,27.469 265.307,28.759 268.258,31.163 C269.591,32.419 270.477,33.906 270.835,35.486 C270.983,36.101 271.222,36.447 272.292,36.379 C280.192,35.846 285.824,39.555 286.262,45.473 C286.262,45.593 286.308,45.708 286.333,45.828 C285.579,50.151 282.518,53.432 276.409,54.388 C275.65,54.43 275.047,54.883 274.998,55.45 C273.748,60.541 267.768,63.899 260.692,63.654 C258.016,63.556 255.443,62.85 253.32,61.632 C252.692,61.197 251.768,61.098 251,61.382 C244.369,63.385 238.015,63.044 232.119,59.888 C230.588,59.07 229.372,57.967 228.594,56.689 C228.249,55.963 227.283,55.507 226.255,55.584 C219.894,55.546 215.3,53.341 212.31,49.176 L212.026,48.792 C212.07,48.508 211.981,48.221 211.775,47.98 C211.854,47.82 211.801,47.64 211.639,47.519 C211.588,47.115 211.543,46.712 211.491,46.313 C211.491,46.059 211.446,45.809 211.427,45.554 Q211.897,43.907 212.387,42.249 C212.645,42.172 212.683,42.019 212.645,41.836 C212.741,41.726 212.844,41.62 212.947,41.51 C216.924,37.542 222.201,35.769 228.832,36.307 C229.532,36.363 230.22,36.141 230.643,35.721 C234.155,32.839 238.473,31.936 243.473,32.978 C244.601,33.209 244.994,32.825 245.484,32.229 C249.098,28.189 252.964,27.56 258.1,27.32 z" clip-path="url(#Clip_7)" filter="url(#Shadow_8)" fill="rgba(0,0,0,1)"/>
      <path d="M211.639,47.519 C211.588,47.115 211.543,46.712 211.491,46.313 C211.491,46.059 211.446,45.809 211.427,45.554 Q211.897,43.907 212.387,42.249 C212.645,42.172 212.683,42.019 212.645,41.836 C212.741,41.726 212.844,41.62 212.947,41.51 C216.924,37.542 222.201,35.769 228.832,36.307 C229.532,36.363 230.22,36.141 230.643,35.721 C234.155,32.839 238.473,31.936 243.473,32.978 C244.601,33.209 244.994,32.825 245.484,32.229 C250.452,26.143 262.239,25.6 268.258,31.163 C269.591,32.419 270.477,33.906 270.835,35.486 C270.983,36.101 271.222,36.447 272.292,36.379 C280.192,35.846 285.824,39.555 286.262,45.473 C286.262,45.593 286.308,45.708 286.333,45.828 C285.579,50.151 282.518,53.432 276.409,54.388 C275.65,54.43 275.047,54.883 274.998,55.45 C273.748,60.541 267.768,63.899 260.692,63.654 C258.016,63.556 255.443,62.85 253.32,61.632 C252.692,61.197 251.768,61.098 251,61.382 C244.369,63.385 238.015,63.044 232.119,59.888 C230.588,59.07 229.372,57.967 228.594,56.689 C228.249,55.963 227.283,55.507 226.255,55.584 C219.894,55.546 215.3,53.341 212.31,49.176 L212.026,48.792 C212.07,48.508 211.981,48.221 211.775,47.98 C211.854,47.82 211.801,47.64 211.639,47.519 z" fill="#FFFFFF"/>
    </g>
  </g>
</svg>
