<?xml version="1.0" encoding="UTF-8"?>
<!DOCTYPE svg PUBLIC "-//W3C//DTD SVG 1.1//EN" "http://www.w3.org/Graphics/SVG/1.1/DTD/svg11.dtd">
<svg version="1.1" xmlns="http://www.w3.org/2000/svg" xmlns:xlink="http://www.w3.org/1999/xlink" x="0" y="0" width="380" height="100" viewBox="0, 0, 380, 100">
  <g id="Layer_2">
    <g>
      <path d="M380.068,-3.576 L380.068,30.121 C374.285,31.284 369.952,29.737 364.757,27.82 C359.393,25.384 354.839,21.918 349.957,18.9 C350.164,23.769 350.62,28.808 348.546,33.48 C346.45,38.203 342.601,32.147 339.406,36.397 C337.956,38.34 336.453,40.256 334.886,42.137 C335.942,47.21 335.617,52.447 335.221,57.55 C335.123,58.797 334.901,60.036 334.741,61.278 C334.305,64.143 332.409,66.952 332.409,69.7 L325.144,52.012 C317.943,57.851 309.079,62.067 300.691,66.638 L320.645,41.06 L314.556,36.568 C308.283,43.572 300.481,40.257 290.34,43.387 L311.567,29.292 L307.46,19.292 C302.535,22.169 297.633,25.076 292.197,27.273 C287.137,29.145 281.589,29.611 276.335,28.011 C266.397,45.298 243.167,54.802 224.661,64.723 L267.846,24.518 C264.002,22.571 260.464,20.257 256.914,17.974 L256.754,17.877 C254.833,23.031 249.174,26.471 243.782,29.065 L247.051,35.248 C244.485,34.107 242.475,32.3 240.854,30.338 C238.135,31.491 235.27,32.384 232.381,33.204 L234.457,35.631 C227.21,33.251 223.213,26.955 220.643,21.243 C214.96,21.779 209.361,22.66 203.985,24.279 C203.528,29.845 203.832,26.729 202.996,33.622 L212.911,43.387 C208.563,43.4 205.086,41.446 202.037,39.111 C201.338,43.969 199.602,48.657 197.69,53.27 C196.116,56.725 194.034,45.882 189.679,47.498 L197.361,34.167 C195.525,31.923 196.67,33.406 194.174,29.594 L193.674,30.008 C188.734,34.298 181.831,31.125 176.794,28.684 C172.137,26.428 167.767,23.657 162.784,21.875 C160.23,35.522 150.832,48.063 139.165,57.789 L150.964,51.325 C145.667,49.798 140.528,47.888 135.487,45.867 C125.449,53.695 113.629,59.764 100.589,63.575 L123.306,55.856 C111.621,51.388 100.186,46.349 91.02,38.812 L90.2,39.317 C88.945,42.164 87.183,44.977 84.621,47.19 C84.058,47.675 83.438,48.114 82.817,48.548 C82.511,48.761 81.733,49.446 81.842,49.129 C85.535,38.529 83.806,43.354 86.988,34.644 C84.302,31.611 82.66,28.084 81.516,24.485 C77.532,24.432 73.566,24.08 69.633,23.576 L76.414,34.307 C77.058,34.899 77.391,35.669 76.414,34.307 C73.283,30.767 68.031,29.051 65.058,25.384 C64.38,24.618 64.051,23.739 63.815,22.829 C60.455,22.398 62.971,22.729 56.285,21.741 L54.047,24.653 L70.181,43.005 C61.925,39.923 56.801,33.206 52.121,27.159 L42.545,39.619 L63.274,63.575 C52.726,60.806 43.959,53.918 36.535,47.441 L19.429,69.699 C19.628,65.136 18.806,60.389 20.362,55.919 C22.665,50.62 25.805,45.619 29.151,40.723 C23.863,35.26 17.824,29.549 15.698,22.616 C15.357,20.652 15.262,20.624 15.464,18.14 C15.518,17.478 15.718,16.829 15.845,16.174 C15.01,16.209 15.545,16.169 14.253,16.378 C8.237,17.123 -0.932,30.129 -0.932,30.129 L-0.932,-3.471 L380.068,-3.576 z M122.59,15.775 C122.584,15.943 122.592,15.792 122.423,16.209 C117.342,21.434 110.679,25.698 104.476,29.982 L102.393,31.409 L128.815,50.364 L158.733,20.536 C153.437,18.78 147.849,17.775 142.209,17.129 L142.084,17.247 C139.508,24.176 132.786,29.149 126.71,34.1 L131.775,26.974 C128.558,29.791 124.694,31.873 120.18,32.952 L135.82,21.282 L139.031,16.766 C134.643,16.263 137.476,16.545 130.504,16.127 C130.774,16.802 131.995,20.242 130.778,20.688 C130.278,20.872 129.827,20.188 129.685,19.951 C128.962,18.737 128.886,17.35 128.833,16.027 C126.133,15.866 128.039,15.971 123.11,15.787 L122.59,15.775 z M90.562,38.374 L90.269,39.145 L90.857,38.656 L90.562,38.374 z M328.349,7.256 C327.632,12.361 325.097,21.692 322.349,26.252 C325.788,30.054 328.281,34.357 330.564,38.681 L347.208,17.347 C342.643,14.673 337.471,8.214 331.958,7.395 C330.762,7.239 329.555,7.267 328.349,7.256 z M235.388,17.374 C232.171,19.018 228.68,20.163 224.961,20.709 C222.215,21.061 223.201,20.945 222.011,21.084 L232.175,32.964 L238.886,27.752 C236.694,24.586 235.144,21.054 235.388,17.374 z M22.558,16.522 L35.897,31.936 C39.154,27.836 42.944,24.045 46.681,20.24 C39.019,19.046 31.406,17.601 23.686,16.662 L22.558,16.522 z M118.165,15.925 C114.163,16.226 110.454,17.506 106.885,18.942 C103.365,20.532 103.715,20.686 100.06,22.156 C98.136,22.917 96.122,23.473 94.032,23.858 L93.832,25.267 L100.873,30.318 L118.165,15.925 z M199.561,26.069 C198.587,26.476 197.662,26.968 196.845,27.565 L198.667,29.359 L199.561,26.069 z M245.576,14.01 L244.728,14.078 C241.953,14.407 239.564,15.423 237.161,16.545 L241.864,25.439 L253.76,16.199 C250.951,14.637 248.864,14.1 245.576,14.01 z M326.618,7.375 C321.715,7.769 317.274,14.255 313.096,16.26 C316.072,19.779 314.727,18.322 317.017,20.702 L318.12,21.749 L326.618,7.375 z" fill="#9E9E9E"/>
      <path d="M380.068,-3.576 L380.068,30.121 C374.285,31.284 369.952,29.737 364.757,27.82 C359.393,25.384 354.839,21.918 349.957,18.9 C350.164,23.769 350.62,28.808 348.546,33.48 C346.45,38.203 342.601,32.147 339.406,36.397 C337.956,38.34 336.453,40.256 334.886,42.137 C335.942,47.21 335.617,52.447 335.221,57.55 C335.123,58.797 334.901,60.036 334.741,61.278 C334.305,64.143 332.409,66.952 332.409,69.7 L325.144,52.012 C317.943,57.851 309.079,62.067 300.691,66.638 L320.645,41.06 L314.556,36.568 C308.283,43.572 300.481,40.257 290.34,43.387 L311.567,29.292 L307.46,19.292 C302.535,22.169 297.633,25.076 292.197,27.273 C287.137,29.145 281.589,29.611 276.335,28.011 C266.397,45.298 243.167,54.802 224.661,64.723 L267.846,24.518 C264.002,22.571 260.464,20.257 256.914,17.974 L256.754,17.877 C254.833,23.031 249.174,26.471 243.782,29.065 L247.051,35.248 C244.485,34.107 242.475,32.3 240.854,30.338 C238.135,31.491 235.27,32.384 232.381,33.204 L234.457,35.631 C227.21,33.251 223.213,26.955 220.643,21.243 C214.96,21.779 209.361,22.66 203.985,24.279 C203.528,29.845 203.832,26.729 202.996,33.622 L212.911,43.387 C208.563,43.4 205.086,41.446 202.037,39.111 C201.338,43.969 199.602,48.657 197.69,53.27 C196.116,56.725 194.034,45.882 189.679,47.498 L197.361,34.167 C195.525,31.923 196.67,33.406 194.174,29.594 L193.674,30.008 C188.734,34.298 181.831,31.125 176.794,28.684 C172.137,26.428 167.767,23.657 162.784,21.875 C160.23,35.522 150.832,48.063 139.165,57.789 L150.964,51.325 C145.667,49.798 140.528,47.888 135.487,45.867 C125.449,53.695 113.629,59.764 100.589,63.575 L123.306,55.856 C111.621,51.388 100.186,46.349 91.02,38.812 L90.2,39.317 C88.945,42.164 87.183,44.977 84.621,47.19 C84.058,47.675 83.438,48.114 82.817,48.548 C82.511,48.761 81.733,49.446 81.842,49.129 C85.535,38.529 83.806,43.354 86.988,34.644 C84.302,31.611 82.66,28.084 81.516,24.485 C77.532,24.432 73.566,24.08 69.633,23.576 L76.414,34.307 C77.058,34.899 77.391,35.669 76.414,34.307 C73.283,30.767 68.031,29.051 65.058,25.384 C64.38,24.618 64.051,23.739 63.815,22.829 C60.455,22.398 62.971,22.729 56.285,21.741 L54.047,24.653 L70.181,43.005 C61.925,39.923 56.801,33.206 52.121,27.159 L42.545,39.619 L63.274,63.575 C52.726,60.806 43.959,53.918 36.535,47.441 L19.429,69.699 C19.628,65.136 18.806,60.389 20.362,55.919 C22.665,50.62 25.805,45.619 29.151,40.723 C23.863,35.26 17.824,29.549 15.698,22.616 C15.357,20.652 15.262,20.624 15.464,18.14 C15.518,17.478 15.718,16.829 15.845,16.174 C15.01,16.209 15.545,16.169 14.253,16.378 C8.237,17.123 -0.932,30.129 -0.932,30.129 L-0.932,-3.471 L380.068,-3.576 z M122.59,15.775 C122.584,15.943 122.592,15.792 122.423,16.209 C117.342,21.434 110.679,25.698 104.476,29.982 L102.393,31.409 L128.815,50.364 L158.733,20.536 C153.437,18.78 147.849,17.775 142.209,17.129 L142.084,17.247 C139.508,24.176 132.786,29.149 126.71,34.1 L131.775,26.974 C128.558,29.791 124.694,31.873 120.18,32.952 L135.82,21.282 L139.031,16.766 C134.643,16.263 137.476,16.545 130.504,16.127 C130.774,16.802 131.995,20.242 130.778,20.688 C130.278,20.872 129.827,20.188 129.685,19.951 C128.962,18.737 128.886,17.35 128.833,16.027 C126.133,15.866 128.039,15.971 123.11,15.787 L122.59,15.775 z M90.562,38.374 L90.269,39.145 L90.857,38.656 L90.562,38.374 z M328.349,7.256 C327.632,12.361 325.097,21.692 322.349,26.252 C325.788,30.054 328.281,34.357 330.564,38.681 L347.208,17.347 C342.643,14.673 337.471,8.214 331.958,7.395 C330.762,7.239 329.555,7.267 328.349,7.256 z M235.388,17.374 C232.171,19.018 228.68,20.163 224.961,20.709 C222.215,21.061 223.201,20.945 222.011,21.084 L232.175,32.964 L238.886,27.752 C236.694,24.586 235.144,21.054 235.388,17.374 z M22.558,16.522 L35.897,31.936 C39.154,27.836 42.944,24.045 46.681,20.24 C39.019,19.046 31.406,17.601 23.686,16.662 L22.558,16.522 z M118.165,15.925 C114.163,16.226 110.454,17.506 106.885,18.942 C103.365,20.532 103.715,20.686 100.06,22.156 C98.136,22.917 96.122,23.473 94.032,23.858 L93.832,25.267 L100.873,30.318 L118.165,15.925 z M199.561,26.069 C198.587,26.476 197.662,26.968 196.845,27.565 L198.667,29.359 L199.561,26.069 z M245.576,14.01 L244.728,14.078 C241.953,14.407 239.564,15.423 237.161,16.545 L241.864,25.439 L253.76,16.199 C250.951,14.637 248.864,14.1 245.576,14.01 z M326.618,7.375 C321.715,7.769 317.274,14.255 313.096,16.26 C316.072,19.779 314.727,18.322 317.017,20.702 L318.12,21.749 L326.618,7.375 z" fill-opacity="0" stroke="#9E9E9E" stroke-width="1"/>
    </g>
    <g>
      <path d="M261.965,62.144 C262.723,41.58 247.242,46.9 234.052,41.473" fill="#9E9E9E"/>
      <path d="M266.886,59.29 L266.868,58.834 L266.817,57.887 L266.761,56.945 L266.684,56.037 L266.585,55.164 L266.473,54.316 L266.349,53.496 L266.202,52.707 L266.033,51.95 L265.854,51.214 L265.657,50.506 L265.437,49.828 L265.194,49.178 L264.939,48.553 L264.667,47.949 L264.374,47.373 L264.061,46.826 L263.726,46.304 L263.384,45.798 L263.023,45.317 L262.461,44.655 L261.656,43.838 L260.79,43.077 L259.867,42.395 L258.894,41.785 L257.898,41.214 L256.871,40.691 L255.813,40.214 L254.73,39.775 L253.638,39.355 L252.001,38.748 L249.78,37.969 L247.562,37.168 L245.377,36.314 L243.789,35.628 L242.769,35.134 L241.746,34.603 L240.735,34.042 L240.271,33.756 L240.271,33.756 C237.519,32.659 232.504,35.226 229.07,39.488 C225.635,43.75 225.082,48.094 227.834,49.19 C227.834,49.19 227.834,49.19 227.834,49.19 L228.609,49.397 L230.094,49.735 L231.585,49.997 L233.088,50.204 L235.287,50.425 L238.124,50.583 L240.845,50.664 L243.426,50.748 L245.269,50.838 L246.425,50.932 L247.525,51.063 L248.58,51.224 L249.587,51.421 L250.539,51.666 L251.423,51.98 L252.258,52.345 L253.045,52.766 L253.78,53.281 L254.295,53.723 L254.614,54.032 L254.92,54.36 L255.2,54.72 L255.468,55.101 L255.723,55.505 L255.963,55.932 L256.183,56.39 L256.379,56.879 L256.561,57.396 L256.726,57.941 L256.87,58.519 L256.982,59.137 L257.076,59.786 L257.152,60.469 L257.197,61.191 L257.209,61.956 L257.2,62.756 L257.167,63.594 L257.092,64.5 L257.044,64.998 C256.977,67.213 259.125,67.731 261.842,66.155 C264.56,64.578 266.818,61.505 266.886,59.29 L266.886,59.29" fill="#9E9E9E"/>
    </g>
    <g>
      <path d="M345.704,3.002 C332.199,1.373 321.059,4.991 308.719,7.022 C302.741,8.005 292.24,4.769 287.087,7.596 C276.192,13.572 268.626,27.901 255.685,30.564 C239.746,33.842 225.361,24.326 211.024,21.376 C190.351,17.124 183.906,28.267 166.364,28.267" fill="#9E9E9E"/>
      <path d="M350.49,-4.156 L349.916,-4.311 L348.707,-4.605 L347.476,-4.859 L346.24,-5.068 L344.425,-5.324 L342.004,-5.55 L339.559,-5.635 L337.13,-5.616 L334.708,-5.477 L332.315,-5.263 L329.932,-4.955 L327.584,-4.598 L324.123,-3.969 L319.555,-3.028 L316.169,-2.297 L313.947,-1.826 L312.856,-1.601 L312.979,-1.621 L312.692,-1.567 L312.342,-1.509 L311.984,-1.465 L311.55,-1.426 L310.749,-1.386 L309.546,-1.368 L308.23,-1.384 L306.808,-1.43 L304.534,-1.529 L302.174,-1.619 L300.547,-1.657 L298.914,-1.655 L297.262,-1.592 L295.962,-1.488 L295.047,-1.38 L294.15,-1.24 L293.222,-1.059 L292.245,-0.826 L291.199,-0.518 L290.058,-0.108 L288.786,0.445 L287.848,0.916 L287.848,0.916 C287.714,0.986 287.58,1.058 287.445,1.134 L287.445,1.134 L286.94,1.433 L285.523,2.309 L284.01,3.309 L282.553,4.349 L281.156,5.416 L279.821,6.496 L278.005,8.036 L275.718,10.106 L273.55,12.146 L271.556,14.053 L269.717,15.794 L268.02,17.337 L266.476,18.662 L265.483,19.417 L264.929,19.799 L264.34,20.187 L263.789,20.515 L263.272,20.778 L262.784,20.994 L262.316,21.171 L261.852,21.312 L261.382,21.421 L260.888,21.511 L260.358,21.58 L259.778,21.628 L259.596,21.614 L259.82,21.568 L259.104,21.656 L257.956,21.731 L256.883,21.74 L255.787,21.702 L254.667,21.624 L253.511,21.527 L252.335,21.383 L251.146,21.194 L249.932,20.975 L248.7,20.723 L247.454,20.437 L246.194,20.117 L244.261,19.575 L241.67,18.758 L239.074,17.862 L236.442,16.907 L233.781,15.921 L231.091,14.929 L228.361,13.967 L225.598,13.05 L222.794,12.212 L219.934,11.486 L218.426,11.157 L218.426,11.157 C218.398,11.151 218.369,11.145 218.34,11.139 L218.34,11.139 L217.86,11.045 L216.842,10.858 L215.82,10.69 L214.811,10.543 L213.352,10.368 L211.447,10.204 L209.562,10.117 L207.717,10.108 L205.911,10.173 L204.146,10.297 L202.411,10.489 L200.711,10.744 L199.044,11.057 L197.413,11.421 L195.821,11.828 L194.284,12.255 L192.139,12.912 L189.416,13.829 L186.878,14.713 L184.575,15.486 L183.02,15.959 L182.072,16.213 L181.09,16.451 L180.111,16.658 L179.125,16.828 L178.114,16.961 L177.066,17.06 L175.966,17.123 L174.808,17.139 L173.583,17.104 L173.014,17.066 L173.014,17.066 C168.036,17.114 161.023,22.169 157.35,28.355 C153.677,34.541 154.735,39.517 159.714,39.468 C159.714,39.468 159.714,39.468 159.714,39.468 L160.773,39.414 L162.713,39.253 L164.602,39.028 L166.443,38.743 L168.239,38.398 L169.983,38 L171.673,37.562 L173.3,37.093 L174.865,36.598 L176.411,36.071 L178.523,35.303 L181.015,34.345 L183.235,33.481 L185.307,32.71 L186.825,32.189 L187.781,31.889 L188.734,31.629 L189.706,31.394 L190.712,31.186 L191.763,31.009 L192.868,30.866 L194.04,30.763 L195.277,30.719 L196.591,30.727 L197.989,30.794 L199.502,30.93 L200.701,31.082 L201.51,31.204 L202.345,31.347 L203.225,31.515 L203.709,31.614 L203.622,31.596 L204.803,31.857 L207.324,32.514 L209.91,33.282 L212.549,34.137 L215.24,35.056 L217.993,35.998 L220.802,36.941 L223.671,37.855 L226.61,38.71 L229.595,39.47 L231.872,39.962 L233.433,40.248 L235.021,40.491 L236.637,40.686 L238.283,40.825 L239.969,40.897 L241.682,40.91 L243.43,40.859 L245.23,40.709 L247.071,40.474 L248.952,40.154 L250.774,39.76 L251.55,39.559 L251.55,39.559 C251.624,39.545 251.699,39.53 251.774,39.513 L251.774,39.513 L252.797,39.232 L254.582,38.648 L256.36,37.96 L258.117,37.174 L259.847,36.296 L261.535,35.346 L263.173,34.336 L264.749,33.276 L266.256,32.181 L267.694,31.076 L269.061,29.965 L270.433,28.788 L272.282,27.108 L274.454,25.045 L276.411,23.094 L278.191,21.293 L279.805,19.667 L281.263,18.245 L282.643,16.979 L283.619,16.136 L284.172,15.698 L284.686,15.312 L285.17,14.971 L285.629,14.67 L286.217,14.331 L286.728,14.057 L286.326,14.276 L285.878,14.491 L285.634,14.583 L285.576,14.597 L285.668,14.571 L285.879,14.528 L286.185,14.487 L286.565,14.455 L286.966,14.438 L287.706,14.433 L288.878,14.48 L290.159,14.584 L291.51,14.735 L293.67,15.03 L295.896,15.346 L297.412,15.543 L298.954,15.707 L300.498,15.812 L301.666,15.839 L302.496,15.824 L303.358,15.776 L304.179,15.697 L304.459,15.664 L304.459,15.664 C304.5,15.658 304.541,15.652 304.582,15.645 L304.582,15.645 L305.799,15.48 L308.154,15.125 L311.56,14.542 L315.967,13.692 L319.223,13.037 L321.364,12.603 L323.494,12.195 L325.645,11.79 L327.811,11.425 L330.023,11.077 L332.283,10.779 L334.641,10.518 L336.466,10.362 L337.685,10.286 L338.933,10.219 L340.229,10.17 L340.918,10.16 C340.918,10.16 340.918,10.16 340.918,10.16 C343.877,10.499 348.418,7.569 351.062,3.616 C353.705,-0.337 353.449,-3.816 350.49,-4.156 L350.49,-4.156" fill="#9E9E9E"/>
    </g>
    <g>
      <path d="M202.573,60.866 C184.331,61.262 165.65,40.15 147.999,43.877 C140.355,45.491 133.701,50.79 126.31,52.741 C124.655,53.178 121.936,52.555 120.713,51.264 C114.23,44.42 103.771,30.476 101.822,29.104 C100.168,27.94 96.828,27.418 94.825,26.15 C78.12,15.568 57.293,17.418 52.846,15.07 C50.931,14.059 35.279,-5.033 39.552,3.99" fill="#9E9E9E"/>
      <path d="M204.102,58.307 L203.249,58.307 L201.635,58.201 L200.049,57.958 L198.448,57.614 L196.864,57.136 L195.274,56.566 L193.682,55.912 L192.105,55.159 L190.524,54.342 L188.945,53.463 L186.588,52.031 L183.452,49.992 L180.331,47.863 L177.217,45.704 L174.868,44.117 L173.288,43.091 L171.708,42.099 L170.124,41.145 L168.527,40.245 L166.913,39.407 L165.28,38.642 L163.622,37.958 L161.935,37.364 L160.211,36.868 L158.443,36.484 L156.613,36.227 L154.706,36.116 L152.701,36.172 L151.512,36.298 L151.512,36.298 C151.425,36.315 151.337,36.333 151.248,36.353 L151.248,36.353 L150.573,36.433 L148.89,36.738 L147.107,37.167 L145.352,37.676 L143.645,38.243 L141.997,38.842 L139.72,39.733 L136.889,40.892 L134.371,41.906 L132.794,42.521 L131.897,42.921 L130.974,43.315 L130.075,43.674 L129.764,43.796 L130.114,43.705 L129.955,43.753 L130.171,43.718 L130.313,43.709 L130.187,43.738 L129.896,43.759 L129.486,43.735 L129.054,43.661 L128.803,43.602 L128.681,43.574 L128.542,43.527 L128.43,43.498 L128.439,43.539 L128.495,43.597 L128.132,43.329 L127.4,42.782 L126.644,42.207 L125.863,41.6 L124.617,40.665 L122.893,39.349 L121.105,37.994 L119.29,36.609 L117.473,35.215 L115.685,33.833 L113.951,32.485 L112.72,31.493 L111.928,30.856 L111.162,30.241 L110.425,29.652 L109.72,29.092 L109.05,28.564 L108.423,28.065 L107.846,27.592 L107.311,27.161 L106.819,26.773 L106.373,26.431 L105.972,26.134 L105.616,25.885 L105.296,25.678 L105.118,25.568 L105.118,25.568 C105.1,25.554 105.081,25.541 105.062,25.528 L105.062,25.528 L104.88,25.447 L104.422,25.256 L103.685,25.005 L102.649,24.721 L101.569,24.482 L100.493,24.265 L99.451,24.047 L98.477,23.808 L97.836,23.594 L97.458,23.441 L97.291,23.366 L97.297,23.37 L96.443,22.96 L94.696,22.177 L92.93,21.458 L91.195,20.756 L89.452,20.119 L87.705,19.542 L85.978,18.997 L84.27,18.486 L82.568,18.026 L80.89,17.594 L79.234,17.194 L77.604,16.824 L76.004,16.48 L74.429,16.166 L72.895,15.867 L71.392,15.597 L69.934,15.339 L68.518,15.099 L67.144,14.881 L65.827,14.663 L64.561,14.459 L63.348,14.269 L62.199,14.08 L61.115,13.896 L60.102,13.708 L59.162,13.522 L58.309,13.319 L57.54,13.113 L56.856,12.905 L56.266,12.695 L55.783,12.473 L55.417,12.241 L55.308,12.142 L55.37,12.174 L55.328,12.141 L55.296,12.092 L55.236,12.011 L55.143,11.893 L54.954,11.652 L54.645,11.239 L54.292,10.722 L53.911,10.103 L53.493,9.41 L53.063,8.632 L52.651,7.758 L52.22,6.839 L51.683,5.265 L51.13,2.919 L50.787,0.365 L50.44,-1.401 L50.097,-2.423 L49.762,-3.388 L49.355,-4.211 L48.927,-4.938 L48.51,-5.593 L48.098,-6.174 L47.746,-6.559 L47.473,-6.803 L47.194,-7.023 L46.857,-7.241 L46.409,-7.46 L45.699,-7.676 L44.278,-7.775 L40.55,-6.756 L33.176,-0.896 L29.879,4.809 L29.401,7.131 L29.397,8.253 L29.475,8.97 L29.572,9.533 L29.679,10.035 L29.805,10.516 L29.944,11.005 L30.099,11.515 L30.189,11.795 L30.189,11.795 C31.699,15.026 37.115,14.151 42.286,9.84 C47.457,5.53 50.425,-0.584 48.915,-3.815 C48.915,-3.815 48.915,-3.815 48.915,-3.815 L48.813,-3.947 L48.624,-4.202 L48.476,-4.399 L48.37,-4.525 L48.298,-4.557 L48.266,-4.455 L48.266,-4.128 L48.233,-3.327 L47.771,-1.26 L44.537,4.255 L37.269,9.987 L33.689,10.938 L32.456,10.829 L31.975,10.659 L31.792,10.54 L31.757,10.474 L31.814,10.456 L31.91,10.46 L32.17,10.533 L32.675,10.708 L33.279,10.961 L33.964,11.277 L34.748,11.615 L35.673,11.912 L36.644,12.237 L38.343,12.611 L40.805,13.048 L43.054,13.724 L44.558,14.356 L45.435,14.848 L46.275,15.316 L47.029,15.797 L47.713,16.259 L48.341,16.677 L48.892,17.061 L49.369,17.396 L49.685,17.606 L49.885,17.732 L50.082,17.848 L50.269,17.945 L50.322,17.966 L50.322,17.966 C50.342,17.977 50.363,17.988 50.384,17.998 L50.384,17.998 L50.715,18.113 L51.371,18.275 L52.091,18.407 L52.876,18.517 L53.734,18.602 L54.664,18.667 L55.662,18.719 L56.715,18.778 L57.831,18.832 L59.003,18.892 L60.232,18.957 L61.51,19.034 L62.84,19.119 L64.218,19.217 L65.629,19.346 L67.081,19.494 L68.566,19.669 L70.075,19.884 L71.613,20.126 L73.164,20.418 L74.734,20.748 L76.313,21.128 L77.897,21.56 L79.482,22.048 L81.058,22.601 L82.636,23.204 L84.195,23.88 L85.728,24.635 L87.25,25.447 L88.758,26.321 L90.206,27.306 L91.636,28.366 L92.354,28.93 L92.354,28.93 C92.356,28.931 92.358,28.932 92.36,28.933 L92.36,28.933 L92.576,29.092 L93.006,29.382 L93.668,29.779 L94.554,30.278 L95.444,30.739 L96.303,31.176 L97.09,31.596 L97.782,32.011 L98.208,32.329 L98.444,32.547 L98.582,32.681 L98.525,32.641 L98.543,32.677 L98.686,32.871 L98.885,33.159 L99.128,33.529 L99.409,33.975 L99.724,34.491 L100.071,35.071 L100.445,35.71 L100.834,36.416 L101.242,37.178 L101.671,37.989 L102.12,38.841 L102.586,39.733 L103.07,40.659 L103.822,42.104 L104.838,44.138 L105.888,46.239 L106.961,48.367 L108.05,50.49 L109.143,52.569 L110.244,54.557 L111.055,55.978 L111.609,56.871 L112.152,57.731 L112.679,58.546 L112.931,58.931 L112.931,58.931 C112.949,58.95 112.967,58.969 112.986,58.988 L112.986,58.988 L113.233,59.268 L113.646,59.691 L114.091,60.063 L114.604,60.42 L115.385,60.872 L116.44,61.349 L117.587,61.718 L118.863,61.966 L120.255,62.046 L121.466,61.955 L122.349,61.805 L122.506,61.777 L122.506,61.777 C122.622,61.75 122.738,61.719 122.856,61.686 L122.856,61.686 L123.926,61.423 L125.767,60.905 L127.557,60.296 L129.352,59.587 L131.781,58.386 L134.576,56.802 L137.061,55.312 L138.797,54.282 L139.848,53.671 L140.861,53.107 L141.857,52.586 L142.858,52.107 L143.998,51.645 L144.751,51.401 L144.486,51.456 L144.953,51.269 L146.27,50.909 L147.696,50.646 L149.209,50.486 L150.794,50.431 L152.434,50.479 L154.119,50.627 L155.842,50.865 L157.597,51.185 L159.38,51.581 L161.186,52.044 L163.012,52.565 L164.848,53.144 L166.688,53.768 L169.48,54.768 L173.233,56.175 L176.991,57.622 L180.743,59.034 L183.552,60.026 L185.418,60.653 L187.282,61.235 L189.147,61.755 L190.997,62.233 L192.846,62.636 L194.698,62.955 L196.531,63.216 L198.375,63.369 L200.185,63.432 L201.043,63.426 C202.177,63.422 203.78,62.272 204.625,60.858 C205.47,59.445 205.236,58.302 204.102,58.307 L204.102,58.307" fill="#9E9E9E"/>
    </g>
    <g>
      <path d="M4.88,43.77 C7.947,38.441 16.736,38.398 21.672,35.157 C53.538,14.235 70.767,37.09 100.034,32.286 C119.673,29.063 127.519,7.555 144.112,4.151 C151.456,2.644 162.906,14.753 169.999,16.209" fill="#9E9E9E"/>
      <path d="M9.138,43.778 L9.288,43.534 L9.273,43.599 L9.091,43.889 L8.871,44.185 L8.651,44.444 L8.469,44.638 L8.356,44.756 L8.324,44.802 L8.538,44.705 L9.015,44.502 L9.655,44.257 L10.497,43.962 L12.057,43.462 L14.38,42.735 L16.292,42.089 L17.708,41.549 L19.168,40.909 L20.422,40.272 L21.371,39.726 L21.937,39.371 L21.937,39.371 C21.958,39.357 21.98,39.343 22.002,39.329 L22.002,39.329 L22.744,38.845 L24.044,38.031 L25.268,37.308 L26.47,36.636 L27.658,36.004 L28.831,35.42 L29.991,34.882 L31.141,34.386 L32.282,33.933 L33.415,33.52 L34.545,33.14 L35.672,32.792 L36.795,32.481 L37.915,32.207 L39.034,31.967 L40.15,31.762 L41.265,31.59 L42.378,31.451 L43.489,31.343 L44.601,31.265 L45.711,31.216 L46.826,31.186 L48.516,31.194 L50.755,31.293 L52.978,31.481 L55.203,31.749 L57.434,32.083 L59.679,32.463 L61.935,32.885 L65.349,33.571 L69.96,34.512 L73.493,35.18 L75.898,35.583 L78.337,35.935 L80.82,36.223 L83.347,36.441 L85.288,36.545 L86.605,36.583 L87.927,36.592 L89.266,36.571 L90.621,36.519 L91.994,36.433 L93.381,36.319 L94.785,36.172 L96.208,35.986 L97.652,35.759 L98.4,35.627 L98.4,35.627 C98.414,35.625 98.429,35.623 98.443,35.62 L98.443,35.62 L98.906,35.531 L99.89,35.319 L100.885,35.074 L101.867,34.8 L102.838,34.498 L103.796,34.169 L105.178,33.65 L106.986,32.873 L108.778,31.99 L110.522,31.021 L112.214,29.977 L113.851,28.871 L115.434,27.722 L116.963,26.546 L118.44,25.342 L119.866,24.122 L121.243,22.895 L123.221,21.096 L125.763,18.732 L128.213,16.489 L129.968,14.951 L131.084,14.025 L132.194,13.146 L133.281,12.347 L134.343,11.629 L135.38,10.989 L136.401,10.433 L137.412,9.963 L138.424,9.564 L139.452,9.237 L140.507,8.997 L141.283,8.876 L141.806,8.818 L142.054,8.799 L141.89,8.831 L142.22,8.803 L142.567,8.852 L142.912,8.956 L143.352,9.103 L143.865,9.303 L144.433,9.56 L145.042,9.873 L145.686,10.241 L146.344,10.674 L147.021,11.156 L147.715,11.682 L148.423,12.245 L149.513,13.158 L150.952,14.497 L152.401,15.897 L153.84,17.35 L155.266,18.81 L156.689,20.227 L157.741,21.267 L158.453,21.932 L159.16,22.56 L159.874,23.151 L160.598,23.702 L161.329,24.22 L162.086,24.689 L162.884,25.102 L163.383,25.303 L163.383,25.303 C166.921,26.104 172.751,22.681 176.405,17.658 C180.059,12.636 180.154,7.915 176.616,7.114 L176.443,7.164 L175.862,7.184 L175.193,7.148 L174.455,7.059 L173.67,6.909 L172.837,6.715 L171.963,6.48 L171.064,6.217 L169.648,5.758 L167.701,5.023 L165.689,4.224 L163.646,3.381 L161.596,2.519 L159.543,1.699 L158.032,1.106 L157.021,0.735 L156.012,0.391 L155.005,0.08 L154,-0.196 L153.006,-0.444 L152.006,-0.646 L150.995,-0.793 L149.964,-0.877 L148.897,-0.885 L147.775,-0.8 L146.698,-0.623 L146.334,-0.53 L146.334,-0.53 C146.28,-0.521 146.225,-0.51 146.17,-0.498 L146.17,-0.498 L145.643,-0.351 L144.636,-0.037 L143.161,0.493 L141.294,1.289 L139.485,2.175 L137.735,3.156 L136.053,4.218 L134.442,5.333 L132.902,6.489 L131.432,7.68 L130.025,8.888 L128.672,10.102 L127.349,11.341 L125.473,13.157 L123.094,15.515 L120.766,17.8 L119.028,19.457 L117.883,20.494 L116.743,21.488 L115.602,22.439 L114.454,23.343 L113.294,24.187 L112.113,24.972 L110.905,25.706 L109.661,26.386 L108.367,27.012 L106.985,27.59 L105.901,27.977 L105.179,28.197 L104.439,28.398 L103.68,28.58 L102.901,28.741 L102.077,28.884 L101.624,28.952 L101.668,28.945 L101.048,29.028 L99.783,29.172 L98.53,29.281 L97.29,29.356 L96.065,29.395 L94.855,29.395 L93.656,29.366 L92.468,29.309 L91.289,29.225 L90.131,29.116 L88.401,28.908 L86.111,28.554 L83.855,28.116 L81.621,27.614 L79.412,27.062 L76.112,26.162 L71.724,24.901 L68.43,23.967 L66.215,23.372 L63.978,22.815 L61.708,22.322 L59.402,21.895 L57.054,21.549 L54.673,21.299 L52.859,21.183 L51.618,21.143 L50.354,21.144 L49.073,21.182 L47.771,21.256 L46.449,21.371 L45.106,21.527 L43.741,21.728 L42.352,21.974 L40.939,22.27 L39.502,22.617 L38.038,23.018 L36.549,23.481 L35.031,24.008 L33.489,24.595 L31.921,25.243 L30.329,25.956 L28.714,26.732 L27.076,27.575 L25.414,28.495 L23.733,29.483 L22.088,30.504 L21.342,30.985 L21.407,30.943 L21.505,30.888 L21.485,30.913 L21.211,31.074 L20.517,31.399 L19.668,31.738 L18.035,32.3 L15.509,33.107 L13.46,33.811 L11.963,34.39 L10.35,35.105 L8.687,35.974 L7.389,36.767 L6.399,37.455 L5.371,38.257 L4.323,39.18 L3.287,40.215 L2.307,41.338 L1.424,42.51 L0.768,43.514 L0.622,43.762 C-1.147,46.704 -0.675,49.094 1.676,49.098 C4.028,49.103 7.368,46.721 9.138,43.778 L9.138,43.778" fill="#9E9E9E"/>
    </g>
    <g>
      <path d="M164.968,47.789 C166.305,48.331 170.898,58.702 174.04,53.531" fill="#9E9E9E"/>
      <path d="M159.209,54.597 L159.291,54.606 L159.138,54.443 L159.131,54.341 L159.256,54.354 L159.459,54.441 L159.699,54.601 L159.965,54.815 L160.26,55.067 L160.72,55.526 L161.371,56.224 L162.06,56.989 L162.789,57.772 L163.579,58.519 L164.425,59.2 L165.144,59.649 L165.67,59.928 L166.226,60.133 L166.83,60.302 L167.525,60.397 L168.339,60.416 L169.35,60.287 L170.646,59.911 L172.279,59.119 L174.091,57.808 L175.668,56.179 L176.705,54.614 L177.125,53.742 L177.125,53.742 C178.549,51.525 178.321,49.633 176.617,49.516 C174.914,49.4 172.378,51.103 170.955,53.32 L171.078,52.911 L171.509,52.138 L172.467,51.133 L173.647,50.287 L174.636,49.811 L175.279,49.61 L175.631,49.526 L175.779,49.468 L175.804,49.373 L175.736,49.249 L175.619,49.068 L175.473,48.875 L175.19,48.479 L174.721,47.824 L174.229,47.062 L173.727,46.242 L173.248,45.38 L172.808,44.503 L172.508,43.86 L172.328,43.432 L172.145,43.021 L171.965,42.62 L171.779,42.22 L171.547,41.827 L171.216,41.412 L170.775,41.038 L170.728,40.981 C170.728,40.981 170.728,40.981 170.728,40.981 C168.413,39.825 163.958,41.936 160.778,45.696 C157.597,49.456 156.894,53.441 159.209,54.597 L159.209,54.597" fill="#9E9E9E"/>
    </g>
    <g>
      <path d="M286.389,54.68 C287.552,54.68 288.715,54.68 289.878,54.68" fill="#9E9E9E"/>
      <path d="M283.32,59.797 L284.926,60.024 L286.535,60.25 L286.535,60.25 C288.995,60.251 292.487,57.758 294.334,54.681 C296.181,51.604 295.683,49.11 293.222,49.109 L291.341,49.335 L289.459,49.562 C289.459,49.562 289.459,49.562 289.459,49.562 C287.197,49.563 283.989,51.855 282.294,54.681 C280.599,57.507 281.058,59.798 283.32,59.797 L283.32,59.797" fill="#9E9E9E"/>
    </g>
    <g>
      <path d="M243.822,38.602 C244.985,38.602 246.148,38.602 247.311,38.602" fill="#9E9E9E"/>
      <path d="M240.752,43.72 L242.359,43.946 L243.967,44.173 L243.967,44.173 C246.428,44.174 249.92,41.68 251.767,38.604 C253.613,35.527 253.115,33.032 250.655,33.031 L248.774,33.258 L246.891,33.485 C246.891,33.485 246.891,33.485 246.891,33.485 C244.63,33.485 241.422,35.777 239.727,38.604 C238.032,41.43 238.491,43.721 240.752,43.72 L240.752,43.72" fill="#9E9E9E"/>
    </g>
    <g>
      <path d="M102.026,13.118 C122.12,20.42 127.743,29.578 152.734,29.578 C155.63,29.578 160.643,30.344 163.434,29.578 C169.254,27.982 174.103,24.228 179.717,22.688" fill="#9E9E9E"/>
      <path d="M97.975,18.225 L98.7,18.826 L100.102,19.975 L101.443,21.09 L102.762,22.147 L104.039,23.182 L105.295,24.177 L106.523,25.146 L107.724,26.098 L109.517,27.468 L111.867,29.226 L114.214,30.91 L116.633,32.493 L118.515,33.64 L119.832,34.37 L121.169,35.074 L122.55,35.755 L123.993,36.39 L125.488,36.999 L127.042,37.577 L128.672,38.108 L130.375,38.599 L132.151,39.052 L134.013,39.453 L135.966,39.804 L138.007,40.109 L140.149,40.355 L141.843,40.504 L143.011,40.587 L144.187,40.657 L145.389,40.709 L146.022,40.728 L145.991,40.727 L146.262,40.737 L146.704,40.768 L147.197,40.81 L147.77,40.863 L148.747,40.958 L150.18,41.093 L151.735,41.204 L152.994,41.256 L153.899,41.267 L154.805,41.249 L155.761,41.193 L156.8,41.083 L157.974,40.889 L158.871,40.688 L158.871,40.688 C159.005,40.654 159.141,40.617 159.278,40.578 L159.278,40.578 L159.813,40.435 L161.31,39.974 L162.91,39.412 L164.447,38.81 L166.506,37.921 L169.029,36.732 L171.239,35.645 L173.015,34.801 L173.995,34.384 L174.461,34.212 L174.955,34.048 L175.41,33.922 L175.474,33.916 L175.474,33.916 C181.468,32.194 188.227,25.771 190.57,19.57 C192.913,13.369 189.954,9.738 183.96,11.459 C183.96,11.459 183.96,11.459 183.96,11.459 L182.976,11.755 L181.359,12.303 L179.808,12.898 L178.253,13.557 L176.235,14.492 L174.046,15.583 L172.293,16.488 L170.812,17.245 L169.818,17.723 L169.285,17.965 L168.784,18.177 L168.142,18.409 L167.591,18.578 L167.998,18.468 L168.358,18.402 L168.388,18.427 L168.198,18.474 L167.853,18.521 L167.399,18.557 L166.895,18.58 L165.982,18.588 L164.595,18.558 L163.127,18.506 L162.017,18.465 L161.264,18.441 L160.498,18.425 L159.762,18.423 L159.478,18.429 L159.478,18.429 C159.468,18.429 159.457,18.429 159.447,18.429 L159.447,18.429 L158.916,18.444 L157.83,18.47 L156.773,18.486 L155.762,18.491 L154.282,18.476 L152.363,18.418 L150.526,18.327 L148.772,18.192 L147.087,18.021 L145.462,17.822 L143.897,17.584 L142.382,17.312 L140.9,17.02 L139.455,16.691 L138.043,16.33 L136.642,15.956 L135.256,15.553 L133.896,15.127 L131.826,14.457 L129.025,13.485 L126.118,12.491 L123.081,11.481 L120.687,10.734 L119.003,10.263 L117.258,9.806 L115.438,9.373 L113.527,8.985 L111.53,8.626 L109.418,8.336 L107.215,8.097 L106.077,8.011 C106.077,8.011 106.077,8.011 106.077,8.011 C104.229,7.33 100.917,9.064 98.68,11.885 C96.443,14.705 96.127,17.544 97.975,18.225 L97.975,18.225" fill="#9E9E9E"/>
    </g>
    <g>
      <path d="M360.22,18.094 C336.593,15.953 308.939,12.47 285.32,17.329" fill="#9E9E9E"/>
      <path d="M360.228,18.081 L358.006,17.87 L353.497,17.432 L348.905,16.991 L344.242,16.565 L339.526,16.158 L334.768,15.783 L329.982,15.452 L325.18,15.18 L320.372,14.983 L315.571,14.875 L310.787,14.87 L307.219,14.942 L304.851,15.029 L302.495,15.151 L300.151,15.307 L297.827,15.491 L295.522,15.708 L293.234,15.965 L290.963,16.265 L288.714,16.604 L286.488,16.985 L285.382,17.194 L285.382,17.194 C285.314,17.208 285.232,17.279 285.198,17.353 C285.165,17.427 285.192,17.477 285.259,17.463 L286.373,17.229 L288.621,16.795 L290.889,16.411 L293.175,16.077 L295.481,15.786 L297.803,15.536 L300.138,15.331 L302.482,15.174 L304.838,15.053 L307.205,14.965 L310.773,14.894 L315.555,14.901 L320.355,15.012 L325.16,15.212 L329.96,15.487 L334.741,15.825 L339.491,16.211 L344.2,16.63 L348.856,17.067 L353.454,17.497 L357.981,17.909 L360.212,18.107 C360.217,18.108 360.225,18.102 360.23,18.095 C360.234,18.088 360.234,18.082 360.228,18.081 L360.228,18.081" fill="#9E9E9E"/>
    </g>
    <g>
      <path d="M288.112,21.157 C291.481,20.875 294.987,21.502 298.346,21.157 C309.336,20.026 337.976,15.566 348.59,18.477 C355.118,20.268 362.572,21.157 369.989,21.157" fill="#9E9E9E"/>
      <path d="M288.085,21.205 L288.717,21.164 L289.988,21.135 L291.91,21.182 L294.481,21.297 L296.402,21.328 L297.675,21.281 L298.308,21.228 L298.308,21.228 C298.308,21.228 298.308,21.228 298.309,21.228 L298.309,21.228 L298.836,21.174 L299.965,21.052 L301.188,20.914 L302.497,20.761 L303.887,20.596 L305.351,20.42 L306.882,20.236 L308.474,20.045 L310.122,19.847 L311.817,19.646 L314.435,19.344 L318.033,18.95 L321.705,18.58 L325.398,18.249 L328.15,18.036 L329.964,17.914 L331.754,17.812 L333.514,17.73 L335.237,17.67 L336.915,17.635 L338.544,17.627 L340.116,17.647 L341.625,17.697 L343.063,17.78 L344.426,17.897 L345.705,18.05 L346.895,18.241 L347.988,18.472 L348.496,18.603 L348.496,18.603 L349.11,18.768 L350.354,19.085 L351.618,19.382 L352.9,19.657 L354.854,20.031 L357.509,20.455 L360.212,20.796 L362.951,21.053 L365.716,21.226 L368.494,21.315 L369.886,21.328 L369.886,21.328 C369.961,21.329 370.069,21.252 370.126,21.158 C370.183,21.063 370.169,20.986 370.093,20.985 C370.093,20.985 370.093,20.985 370.093,20.985 L368.703,20.978 L365.923,20.9 L363.157,20.739 L360.415,20.494 L357.709,20.166 L355.05,19.753 L353.094,19.388 L351.81,19.119 L350.545,18.828 L349.299,18.516 L348.684,18.351 L348.684,18.351 C348.683,18.351 348.683,18.351 348.683,18.351 L348.683,18.351 L348.17,18.22 L347.069,17.99 L345.873,17.8 L344.588,17.648 L343.22,17.533 L341.776,17.453 L340.263,17.405 L338.687,17.388 L337.054,17.399 L335.371,17.437 L333.645,17.499 L331.882,17.584 L330.089,17.69 L328.271,17.814 L325.514,18.032 L321.816,18.369 L318.14,18.746 L314.539,19.146 L311.917,19.452 L310.22,19.656 L308.571,19.857 L306.976,20.055 L305.441,20.246 L303.974,20.428 L302.581,20.6 L301.269,20.758 L300.044,20.902 L298.913,21.029 L298.384,21.085 L298.385,21.085 L297.755,21.14 L296.484,21.193 L294.56,21.171 L291.98,21.067 L290.05,21.029 L288.773,21.064 L288.139,21.108 C288.116,21.109 288.086,21.132 288.071,21.159 C288.056,21.186 288.062,21.207 288.085,21.205 L288.085,21.205" fill="#9E9E9E"/>
    </g>
    <g>
      <path d="M369.99,21.157 C364.393,19.507 359.312,17.562 353.242,16.563 C342.254,14.755 330.229,13.433 318.816,16.563 C315.2,17.555 312.847,19.766 309.046,20.391 C307.014,20.725 289.507,20.355 289.507,20.008 C289.507,19.971 291.258,20.713 291.368,20.774" fill="#9E9E9E"/>
      <path d="M370.041,21.089 L368.98,20.8 L366.895,20.194 L363.84,19.23 L360.776,18.302 L358.697,17.727 L356.57,17.205 L354.933,16.856 L353.819,16.643 L353.255,16.545 L353.255,16.545 C353.255,16.545 353.255,16.545 353.255,16.545 L353.255,16.545 L352.225,16.372 L350.148,16.038 L348.05,15.725 L345.934,15.437 L343.804,15.176 L341.68,14.925 L339.544,14.716 L337.398,14.557 L335.244,14.452 L333.085,14.408 L330.924,14.427 L328.761,14.519 L326.598,14.69 L324.437,14.945 L322.278,15.293 L320.12,15.746 L319.037,16.013 L319.037,16.013 C319.032,16.015 319.027,16.016 319.022,16.017 L319.022,16.017 L318.689,16.108 L318.019,16.317 L317.053,16.674 L315.828,17.206 L314.653,17.769 L313.516,18.316 L312.389,18.813 L311.535,19.142 L310.953,19.331 L310.34,19.497 L309.7,19.635 L309.377,19.69 L309.399,19.686 L309.293,19.701 L309.041,19.723 L308.701,19.742 L308.277,19.758 L307.781,19.77 L307.22,19.778 L306.601,19.783 L305.93,19.783 L305.213,19.781 L304.452,19.782 L303.249,19.779 L301.563,19.768 L299.826,19.749 L298.079,19.737 L296.38,19.718 L294.776,19.695 L293.66,19.684 L292.972,19.675 L292.335,19.662 L291.758,19.648 L291.245,19.631 L290.804,19.611 L290.441,19.59 L290.163,19.566 L289.978,19.543 L289.909,19.522 L289.98,19.564 L289.299,20.509 L289.303,20.507 L289.175,20.52 L289.234,20.538 L289.333,20.57 L289.53,20.638 L289.85,20.752 L290.197,20.878 L290.529,21.002 L290.805,21.106 L290.949,21.162 L291.005,21.184 L291.016,21.189 L291.016,21.189 C291.156,21.26 291.428,21.132 291.623,20.903 C291.818,20.674 291.861,20.43 291.721,20.359 L291.701,20.348 L291.644,20.318 L291.507,20.249 L291.247,20.123 L290.934,19.972 L290.607,19.818 L290.304,19.677 L290.114,19.591 L290.012,19.547 L289.926,19.514 L289.721,19.507 L289.716,19.508 L289.716,19.508 C289.586,19.54 289.438,19.628 289.307,19.751 C289.046,19.996 288.924,20.31 289.035,20.452 L289.035,20.452 L289.131,20.527 L289.26,20.571 L289.462,20.613 L289.744,20.654 L290.105,20.697 L290.538,20.74 L291.038,20.785 L291.6,20.831 L292.218,20.877 L292.887,20.924 L293.971,20.994 L295.548,21.069 L297.222,21.136 L298.944,21.195 L300.676,21.229 L302.361,21.252 L303.564,21.261 L304.326,21.263 L305.054,21.256 L305.737,21.245 L306.369,21.231 L306.944,21.215 L307.458,21.195 L307.905,21.171 L308.283,21.144 L308.587,21.112 L308.694,21.096 L308.694,21.096 C308.701,21.095 308.708,21.094 308.716,21.092 L308.716,21.092 L309.097,21.021 L309.819,20.854 L310.512,20.654 L311.188,20.423 L312.147,20.038 L313.345,19.473 L314.484,18.891 L315.599,18.322 L316.742,17.788 L317.641,17.427 L318.272,17.211 L318.61,17.109 L318.595,17.113 L319.655,16.819 L321.803,16.301 L323.972,15.869 L326.154,15.523 L328.347,15.261 L330.547,15.077 L332.751,14.965 L334.954,14.923 L337.154,14.941 L339.351,15.015 L341.539,15.139 L343.718,15.306 L345.865,15.539 L347.993,15.808 L350.103,16.103 L352.193,16.418 L353.229,16.582 L353.229,16.582 L353.797,16.675 L354.916,16.88 L356.553,17.228 L358.68,17.751 L360.758,18.325 L363.823,19.253 L366.877,20.217 L368.912,20.888 L369.938,21.225 C369.963,21.232 370.007,21.208 370.036,21.17 C370.064,21.133 370.067,21.096 370.041,21.089 L370.041,21.089" fill="#9E9E9E"/>
    </g>
    <g>
      <path d="M289.042,12.735 C295.234,13.991 300.303,16.844 306.255,18.477 C319.351,22.069 334.885,25.556 349.985,23.071 C352.888,22.593 370.623,20.261 366.268,21.157" fill="#9E9E9E"/>
      <path d="M285.256,17.994 L285.316,18.83 L285.445,20.369 L286.314,20.844 L287.193,21.323 L288.544,22.059 L290.372,23.048 L292.238,24.046 L294.176,25.04 L296.202,26.012 L297.815,26.711 L298.953,27.149 L299.55,27.363 L299.55,27.363 C299.562,27.367 299.574,27.37 299.586,27.373 L299.586,27.373 L300.758,27.792 L303.165,28.633 L305.656,29.446 L308.212,30.228 L310.822,30.981 L313.496,31.678 L316.224,32.323 L318.998,32.91 L321.829,33.415 L324.704,33.842 L327.623,34.182 L330.593,34.41 L333.609,34.531 L336.67,34.529 L339.782,34.385 L342.946,34.096 L344.662,33.872 L344.662,33.872 C344.691,33.867 344.721,33.863 344.751,33.858 L344.751,33.858 L344.892,33.838 L345.184,33.8 L345.56,33.753 L346.022,33.696 L346.557,33.631 L347.153,33.56 L347.8,33.484 L348.491,33.404 L349.602,33.273 L351.172,33.091 L352.792,32.904 L354.405,32.718 L355.962,32.541 L357.051,32.415 L357.725,32.339 L358.357,32.267 L358.933,32.201 L359.442,32.144 L359.873,32.093 L360.21,32.055 L360.436,32.021 L360.493,31.997 L360.337,31.805 L358.963,31.528 L366.627,12.642 L370.412,11.158 L370.414,11.859 L370.175,12.39 L370.175,12.39 C365.741,13.324 360.398,18.006 358.24,22.847 C356.082,27.689 357.927,30.857 362.36,29.924 L362.498,30.375 L363.065,30.945 L367.177,29.364 L374.941,10.416 L373.457,10.108 L372.993,9.913 L372.557,9.915 L372.12,9.931 L371.635,9.969 L371.102,10.015 L370.516,10.075 L369.879,10.145 L369.195,10.224 L368.464,10.314 L367.306,10.462 L365.678,10.681 L363.991,10.918 L362.302,11.163 L360.664,11.408 L359.499,11.586 L358.762,11.701 L358.066,11.812 L357.418,11.915 L356.822,12.012 L356.279,12.101 L355.791,12.183 L355.372,12.256 L355.219,12.283 L355.309,12.269 L354.191,12.477 L351.677,12.848 L349.103,13.111 L346.478,13.28 L343.818,13.351 L341.129,13.327 L338.415,13.23 L335.692,13.051 L332.967,12.799 L330.237,12.496 L327.519,12.133 L324.817,11.723 L322.127,11.287 L319.466,10.815 L316.835,10.326 L314.222,9.835 L312.924,9.581 L312.96,9.591 L312.447,9.492 L311.391,9.265 L309.771,8.885 L307.569,8.309 L305.326,7.692 L303.012,7.082 L300.615,6.53 L298.738,6.195 L297.426,6.016 L296.067,5.888 L293.923,6.885 L292.829,7.477 C290.767,7.041 287.4,9.042 285.309,11.946 C283.218,14.85 283.194,17.558 285.256,17.994 L285.256,17.994" fill="#9E9E9E"/>
    </g>
    <g>
      <path d="M360.412,50.215 L360.412,50.215" fill="#9E9E9E"/>
      <path d="M358.206,53.892 L358.205,53.892 L358.205,53.892 C359.829,53.892 362.134,52.246 363.353,50.216 C364.572,48.185 364.243,46.538 362.619,46.538 C362.619,46.538 362.619,46.538 362.619,46.538 L362.617,46.538 C362.617,46.538 362.617,46.538 362.617,46.538 C360.992,46.538 358.688,48.185 357.47,50.216 C356.251,52.246 356.581,53.892 358.206,53.892 L358.206,53.892" fill="#9E9E9E"/>
    </g>
    <g>
      <path d="M357.592,45.111 C354.257,43.893 351.608,41.674 348.571,40.008" fill="#9E9E9E"/>
      <path d="M359.689,42.495 L359.197,42.101 L358.247,41.354 L357.319,40.591 L356.336,39.86 L354.843,38.717 L353.809,37.011 L354.292,34.486 L356.731,30.625 L356.731,30.625 C353.633,28.879 347.469,31.664 342.962,36.846 C338.456,42.028 337.314,47.645 340.412,49.391 C340.412,49.391 340.412,49.391 340.412,49.391 L343.981,46.167 L346.682,44.975 L348.918,45.351 L350.701,46.275 L351.948,46.856 L353.316,47.308 L354.753,47.643 L355.496,47.728 C356.434,48.091 358.132,47.215 359.29,45.77 C360.448,44.325 360.627,42.859 359.689,42.495 L359.689,42.495" fill="#9E9E9E"/>
    </g>
    <g>
      <path d="M7.038,13.1 C16.826,17.711 24.957,26.597 28.52,35.369" fill="#9E9E9E"/>
      <path d="M6.995,13.151 L7.903,13.601 L9.688,14.572 L11.427,15.633 L13.116,16.779 L14.753,17.999 L16.333,19.29 L17.851,20.645 L19.303,22.058 L20.683,23.524 L21.989,25.034 L23.215,26.583 L24.357,28.165 L25.407,29.776 L26.364,31.408 L27.225,33.053 L27.984,34.703 L28.325,35.528 L28.325,35.528 C28.354,35.597 28.465,35.581 28.573,35.493 C28.681,35.406 28.745,35.278 28.716,35.209 L28.361,34.389 L27.576,32.752 L26.689,31.122 L25.706,29.507 L24.632,27.911 L23.475,26.337 L22.234,24.797 L20.913,23.296 L19.518,21.841 L18.052,20.438 L16.519,19.094 L14.924,17.815 L13.27,16.608 L11.561,15.481 L9.802,14.439 L7.999,13.488 L7.082,13.048 C7.082,13.048 7.082,13.048 7.082,13.048 C7.064,13.039 7.03,13.055 7.006,13.084 C6.982,13.113 6.977,13.143 6.995,13.151 L6.995,13.151" fill="#9E9E9E"/>
    </g>
    <g>
      <path d="M12.691,9.852 C10.833,20.725 20.454,22.605 28.52,27.018" fill="#9E9E9E"/>
      <path d="M7.318,12.483 L7.008,13.097 L6.464,14.484 L6.037,15.888 L5.732,17.24 L5.555,18.524 L5.475,19.753 L5.503,20.911 L5.612,22.012 L5.811,23.045 L6.075,24.023 L6.417,24.932 L6.809,25.794 L7.246,26.612 L7.74,27.371 L8.273,28.086 L8.836,28.767 L9.423,29.418 L10.037,30.036 L10.99,30.881 L12.316,31.954 L13.715,32.956 L15.126,33.91 L16.521,34.846 L17.888,35.768 L19.207,36.694 L19.813,37.152 L19.813,37.152 C23.202,38.965 29.848,35.898 34.657,30.302 C39.466,24.705 40.617,18.697 37.228,16.884 C37.228,16.884 37.228,16.884 37.228,16.884 L36.313,16.528 L34.555,15.9 L32.829,15.336 L31.154,14.82 L29.556,14.322 L28.044,13.84 L26.598,13.361 L25.584,12.978 L24.949,12.739 L24.343,12.496 L23.774,12.245 L23.24,11.983 L22.737,11.716 L22.252,11.456 L21.802,11.183 L21.387,10.897 L20.981,10.613 L20.606,10.315 L20.239,10.012 L19.894,9.687 L19.549,9.351 L19.221,8.984 L18.882,8.594 L18.545,8.162 L18.217,7.613 L18.065,7.221 C18.065,7.221 18.065,7.221 18.065,7.221 C18.474,4.601 16.4,3.656 13.433,5.109 C10.465,6.562 7.727,9.863 7.318,12.483 L7.318,12.483" fill="#9E9E9E"/>
    </g>
    <g>
      <path d="M32.826,23.77 C43.341,27.058 43.539,38.18 43.539,46.967" fill="#9E9E9E"/>
      <path d="M32.809,23.792 L33.294,23.952 L34.22,24.305 L35.089,24.701 L35.901,25.138 L36.659,25.615 L37.366,26.129 L38.022,26.679 L38.63,27.262 L39.191,27.878 L39.707,28.523 L40.181,29.197 L40.614,29.897 L41.007,30.621 L41.364,31.369 L41.685,32.137 L41.972,32.924 L42.228,33.727 L42.453,34.547 L42.74,35.8 L43.035,37.506 L43.244,39.24 L43.382,40.986 L43.463,42.73 L43.503,44.456 L43.515,46.15 L43.516,46.981 L43.516,46.981 C43.516,46.991 43.526,46.993 43.539,46.985 C43.551,46.978 43.561,46.964 43.561,46.954 L43.56,46.123 L43.547,44.429 L43.508,42.702 L43.427,40.958 L43.289,39.21 L43.08,37.475 L42.784,35.768 L42.497,34.514 L42.271,33.694 L42.015,32.889 L41.728,32.102 L41.406,31.333 L41.05,30.585 L40.656,29.86 L40.222,29.159 L39.748,28.484 L39.231,27.838 L38.669,27.222 L38.061,26.638 L37.404,26.087 L36.697,25.573 L35.937,25.096 L35.124,24.658 L34.255,24.261 L33.328,23.908 L32.843,23.748 C32.835,23.746 32.821,23.753 32.811,23.765 C32.802,23.777 32.801,23.789 32.809,23.792 L32.809,23.792" fill="#9E9E9E"/>
    </g>
    <g>
      <path d="M57.634,-13.345 L58.198,-13.345" fill="#9E9E9E"/>
      <path d="M57.634,-13.345 L58.198,-13.345 L58.198,-13.345 C58.198,-13.345 58.198,-13.345 58.198,-13.345 C58.198,-13.345 58.198,-13.345 58.198,-13.345 L57.635,-13.345 C57.634,-13.345 57.634,-13.345 57.634,-13.345 C57.634,-13.345 57.634,-13.345 57.634,-13.345 L57.634,-13.345" fill="#9E9E9E"/>
    </g>
  </g>
</svg>
